<svg width="1920" height="960" viewBox="0 0 1920 960" fill="none" xmlns="http://www.w3.org/2000/svg">
<path d="M2330 633.5L1002.62 950.87L1002.51 949.364L2263.81 428.224C2236.11 361.147 2203.27 296.888 2165.8 235.902L1002.36 947.496L1002.17 945.075L2038.55 61.428C1991.53 6.64752 1940.3 -44.2844 1885.4 -90.903L1001.91 941.769L1001.53 936.913L1710.22 -217.325C1648.83 -254.649 1584.34 -287.229 1517.32 -314.6L1000.92 928.969L999.705 913.251L1311.47 -380.083C1242.02 -396.209 1170.68 -406.994 1097.94 -412L996.066 866.482L896.85 -411.061C891.967 -410.683 887.094 -410.272 882.23 -409.841C814.441 -403.853 748.229 -392.994 683.91 -377.624L981.442 867.62L985.076 914.384L479.07 -311.109C412.277 -283.375 348.292 -250.529 287.558 -213.089L986.296 930.107L986.915 938.066L114.116 -86.2847C59.7462 -39.5499 9.16541 11.3529 -37.1519 65.8768L987.292 942.911L987.549 946.213L-162.713 239.508C-199.788 300.262 -232.211 364.057 -259.539 430.359L987.733 948.638L987.878 950.507L-325.175 633.767C-341.469 702.363 -352.551 772.828 -358 844.678L987.994 952.008L988.091 953.257L988.173 954.326L988.246 955.261L988.309 956.093L988.367 956.849L988.42 957.546L988.468 958.199L988.517 958.819L988.565 959.414L988.609 959.995L988.701 958.843L988.972 957.72L989.417 956.655L990.022 955.672L990.772 954.796L991.653 954.046L992.64 953.445L993.709 953.005L994.832 952.739L995.984 952.651L997.136 952.743L998.258 953.015L999.323 953.46L1000.31 954.065L1001.18 954.815L1001.93 955.696L1002.53 956.684L1002.97 957.754L1003.24 958.877L1003.19 958.296L1003.15 957.701L1003.1 957.081L1003.05 956.427L1003 955.73L1002.94 954.975L1002.88 954.142L1002.8 953.208L1002.72 952.138L2363 846.421C2362.94 845.608 2362.88 844.795 2362.82 843.981C2357.22 771.957 2346.13 701.676 2330 633.515V633.5Z" fill="#FFEE2B"/>
</svg>
