<svg width="293" height="540" viewBox="0 0 293 540" fill="none" xmlns="http://www.w3.org/2000/svg">
<path d="M22.4805 0H269.576C281.988 0 292.064 10.0974 292.064 22.5348V517.473C292.064 529.91 281.988 540.008 269.576 540.008H22.4881C10.0764 540 0 529.91 0 517.473V22.5272C0 10.0974 10.0764 0 22.4805 0Z" fill="#282513"/>
<path d="M269.584 10.7736H206.904C204.917 10.7736 203.181 12.1411 202.719 14.0786L201.179 20.5366C200.019 25.384 195.698 28.8029 190.724 28.8029H101.348C96.3741 28.8029 92.0449 25.384 90.8924 20.5366L89.3533 14.0786C88.8908 12.1411 87.1621 10.7736 85.168 10.7736H22.4805C15.9979 10.7736 10.7512 16.0388 10.7512 22.5272V502.384C10.7512 508.88 16.0055 514.137 22.4805 514.137H269.576C276.059 514.137 281.313 508.872 281.313 502.376V22.5348C281.313 16.0388 276.059 10.7736 269.576 10.7736H269.584Z" fill="white"/>
<path d="M261 109.75V69C261 59.6112 253.389 52 244 52H203.5M261 225.25V266C261 275.389 253.389 283 244 283H203.5M88.5 52H48C38.6112 52 31 59.6112 31 69V109.75M31 225.25V266C31 275.389 38.6112 283 48 283H88.5" stroke="#FFEA00" stroke-width="3"/>
</svg>
