<?xml version="1.0" encoding="utf-8"?>
<!-- Generator: Adobe Illustrator 28.3.0, SVG Export Plug-In . SVG Version: 6.00 Build 0)  -->
<svg version="1.1" xmlns="http://www.w3.org/2000/svg" xmlns:xlink="http://www.w3.org/1999/xlink" x="0px" y="0px"
	 viewBox="0 0 115.1 186.1" style="enable-background:new 0 0 115.1 186.1;" xml:space="preserve">
<style type="text/css">
	.st0{fill:#F9EFAC;stroke:#C3B463;stroke-width:2.8347;stroke-miterlimit:10;}
	.st1{fill:#C3B463;}
	.st2{fill:#4F7398;}
	.st3{fill:#E5E5E5;}
	.st4{fill:#C1C1C1;}
	.st5{fill:#55A8DC;}
	.st6{fill:#478DB9;}
	.st7{fill:#87B95D;}
	.st8{fill:#5C823B;}
	.st9{fill:none;stroke:#B2B2B2;stroke-miterlimit:10;}
	.st10{fill:none;stroke:#8E8E8E;stroke-miterlimit:10;}
	.st11{fill:#4D4D4D;}
	.st12{fill:#292929;}
	.st13{fill:#EAA947;}
	.st14{fill:#AB281B;}
	.st15{fill:#911E15;}
	.st16{fill:#43495A;}
	.st17{fill:#646F7E;}
	.st18{fill:#212224;}
	.st19{fill:#C3BCD9;}
	.st20{fill:#2E2E30;}
	.st21{fill:#66696C;}
	.st22{fill:#30363A;}
	.st23{fill:#AEC1D4;}
	.st24{fill:#D9E5EE;}
	.st25{fill:#131425;}
	.st26{fill:#163A54;}
	.st27{fill:#6686A7;}
	.st28{fill:#C03B2E;}
	.st29{fill:#1A3937;}
	.st30{fill:#26554F;}
	.st31{fill:#FDF9E9;}
	.st32{fill:#FCF1C8;}
	.st33{fill:#E9A84E;}
	.st34{fill:#F4D75B;}
	.st35{fill:#DE633E;}
	.st36{fill:#F9E4B5;}
	.st37{fill:#FFFFFF;}
	.st38{fill:#57ACD0;}
	.st39{fill:#6F4E2B;}
	.st40{fill:#BB7531;}
	.st41{fill:#E4C963;}
	.st42{fill:none;stroke:#C3B463;stroke-width:2.8347;stroke-miterlimit:10;}
	.st43{fill:#E3814C;}
	.st44{opacity:0.2;fill:#BB7531;}
	.st45{fill:#60BAA8;}
	.st46{fill:#856440;}
	.st47{fill:#B03634;}
	.st48{fill:#333333;}
	.st49{fill:#B2B2B2;}
	.st50{fill:#CE5051;}
	.st51{fill:#BBBEC1;}
	.st52{fill:#324352;}
	.st53{fill:#0D131D;}
	.st54{fill:#5B7E95;}
	.st55{fill:#152B46;}
	.st56{fill:#E9C960;}
	.st57{fill:#AF4832;}
	.st58{fill:#EBCD69;}
	.st59{fill:#D45C40;}
	.st60{fill:#ECEFF1;}
</style>
<g id="Guides_For_Artboard">
</g>
<g id="BACKGROUND">
</g>
<g id="Layer_4">
</g>
<g id="OBJECT">
	<g>
		<g>
			<path class="st0" d="M46,172.8c0-6.6,5.3-11.9,11.9-11.9c6.6,0,11.9,5.3,11.9,11.9c0,6.6-5.3,11.9-11.9,11.9
				C51.4,184.7,46,179.4,46,172.8z"/>
			<path class="st1" d="M53.4,172.8c0-2.5,2-4.5,4.5-4.5c2.5,0,4.5,2,4.5,4.5c0,2.5-2,4.5-4.5,4.5C55.5,177.3,53.4,175.3,53.4,172.8
				z"/>
		</g>
		<g>
			<path class="st7" d="M57.6,0C25.8,0,0,25.8,0,57.6c0,47.5,57.6,94.1,57.6,94.1s57.6-46.6,57.6-94.1C115.1,25.8,89.4,0,57.6,0z"/>
			<g>
				<path class="st23" d="M106.1,25.2l-0.1,3.8l-63.2-1.9c-1.3,0-2.3-0.5-2.3-1v-0.5c0-0.2,0.1-0.3,0.2-0.4c0.4-0.4,1.2-0.6,2.2-0.6
					l60.8,0.6H106.1z"/>
				<path class="st24" d="M106.1,25.2l-0.1,2.3l-65.3-2.3c0.4-0.4,1.2-0.6,2.2-0.6L106.1,25.2z"/>
				<path class="st23" d="M70.8,99.9v4.9c0,1.9-1.5,3.4-3.4,3.4H43.9c-1,0-1.9-0.5-2.5-1.2c-0.6-0.6-0.9-1.4-0.9-2.2v-4.9
					c0-1.9,1.5-3.4,3.4-3.4h23.5C69.3,96.5,70.8,98,70.8,99.9z"/>
				<path class="st24" d="M66.9,98.7v4.9c0,1.9-1.5,3.4-3.4,3.4H41.4c-0.6-0.6-0.9-1.4-0.9-2.2v-4.9c0-1.9,1.5-3.4,3.4-3.4H66
					C66.6,97.1,66.9,97.8,66.9,98.7z"/>
				<path class="st25" d="M91.5,66.3v8c0,14.5-11.7,26.3-26.3,26.3H46.1c-3.3,0-6.4-0.6-9.2-1.7c-0.1,0-0.2,0-0.2-0.1
					C26.8,95,19.9,85.5,19.9,74.3v-8c0-2.1,1.7-3.8,3.8-3.8l9.2,1.3C48,66,63.3,66,78.5,63.8l8.1-1.2l1.1-0.2
					C89.8,62.5,91.5,64.2,91.5,66.3z"/>
				<path class="st26" d="M87.5,65.2v7.9c0,14.5-11.7,26.3-26.3,26.3H42.2c-1.8,0-3.6-0.2-5.3-0.6c-0.1,0-0.2,0-0.2-0.1
					C26.8,95,19.9,85.5,19.9,74.3v-8c0-2.1,1.7-3.8,3.8-3.8l9.2,1.3C48,66,63.3,66,78.5,63.8l8.1-1.2C87.2,63.3,87.5,64.2,87.5,65.2
					z"/>
				<path class="st23" d="M91.5,64.9c0,1.1-0.4,2.1-1.1,3.1c-3.9,5.4-18,9.4-34.7,9.4s-30.8-4-34.7-9.4c-0.7-1-1.1-2-1.1-3.1
					c0-6.9,16-12.5,35.8-12.5S91.5,58,91.5,64.9z"/>
				<path class="st27" d="M90.4,67.9c-0.7,0.9-1.6,1.8-2.8,2.6c-5.9,4-18,6.8-31.9,6.8s-26-2.8-31.9-6.8c-1.2-0.8-2.2-1.7-2.8-2.6
					c3.8-5.4,17.9-9.4,34.7-9.4S86.5,62.5,90.4,67.9z"/>
				<path class="st28" d="M87.5,70.5c-2.3,1.6-5.7,3-9.7,4.1c-1.3,0.4-2.6,0.7-4.1,1c-1.3,0.3-2.5,0.5-3.9,0.7
					c-3.8,0.6-7.9,1-12.3,1h-0.8c-0.4,0.1-0.7,0.1-1.1,0.1c-0.7,0-1.4,0-2-0.1c-0.3,0-0.7,0-1-0.1c-0.8,0-1.6,0-2.4-0.1
					c-0.6-0.1-1.2-0.1-1.7-0.2c-0.8-0.1-1.5-0.1-2.2-0.2c-3.6-0.3-7-0.8-10-1.5c-1.3-0.3-2.6-0.6-3.8-1c-1.1-0.3-2.2-0.7-3.2-1.1
					c-1.3-0.5-2.5-1-3.5-1.5c-0.8-0.4-1.5-0.8-2.1-1.3c1.1-0.8,2.5-1.5,4.1-2.2c5.3-2.3,12.9-3.9,21.6-4.4c2-0.2,4.1-0.2,6.2-0.2
					C69.6,63.7,81.6,66.5,87.5,70.5z"/>
				<path class="st29" d="M41.9,68.8L29,70.3c-0.8,0.1-1.5-0.4-1.7-1.2l-5-17.1c-0.3-1,0.4-2,1.3-2.1l12.9-1.4
					c0.8-0.1,1.5,0.4,1.7,1.2l5,17.1C43.5,67.7,42.9,68.7,41.9,68.8z"/>
				<path class="st30" d="M53.3,68.8l-12.9,1.4c-0.8,0.1-1.5-0.4-1.7-1.2l-5-17.1c-0.3-1,0.4-2,1.3-2.1l12.9-1.4
					c0.8-0.1,1.5,0.4,1.7,1.2l5,17.1C54.9,67.7,54.3,68.7,53.3,68.8z"/>
				<g>
					<path class="st31" d="M57.2,63c0.4,0.6,0.5,1.3,0.4,2c-0.2,0.7-0.7,1.3-1.3,1.6c0.1,0.7-0.2,1.4-0.7,1.9
						c-0.5,0.5-1.2,0.8-1.9,0.7c-0.3,0.6-0.9,1.1-1.6,1.3c-0.1,0-0.3,0.1-0.4,0.1c-0.1,0-0.1,0-0.2,0c-0.1,0-0.1,0-0.2,0
						c-0.4,0-0.8-0.2-1.2-0.4c0,0,0,0,0,0c-0.6,0.4-1.3,0.5-2,0.4c-0.7-0.2-1.3-0.7-1.6-1.3c-0.7,0.1-1.4-0.2-1.9-0.7
						c-0.5-0.5-0.8-1.2-0.7-1.9c-0.6-0.3-1.1-0.9-1.3-1.6c-0.2-0.7-0.1-1.4,0.4-2c-0.4-0.6-0.5-1.3-0.4-2c0.2-0.7,0.7-1.3,1.3-1.6
						c-0.1-0.7,0.2-1.4,0.7-1.9c0.5-0.5,1.2-0.8,1.9-0.7c0.3-0.6,0.9-1.1,1.6-1.3c0.7-0.2,1.4-0.1,2,0.4c0,0,0,0,0,0
						c0.6-0.4,1.3-0.5,2-0.3c0.7,0.2,1.3,0.7,1.6,1.3c0.7-0.1,1.4,0.2,1.9,0.7c0.5,0.5,0.8,1.2,0.7,1.9c0.6,0.3,1.1,0.9,1.3,1.6
						C57.8,61.7,57.6,62.4,57.2,63z"/>
					<path class="st28" d="M54.5,63v0.7c0,2-1.6,3.6-3.6,3.6c-0.3,0-0.6,0-1-0.1c-1.5-0.4-2.6-1.8-2.6-3.4v-0.4
						c0-1.5,1.2-2.6,2.6-2.7c0,0,0,0,0,0h0.1c1.4,0,2.6,1.1,2.6,2.6c0,0.9-0.7,1.7-1.7,1.7c-0.4,0-0.8-0.1-1-0.4
						c-0.4-0.3-0.6-0.8-0.6-1.3v-0.4h0.9v0.4c0,0.4,0.3,0.8,0.8,0.8c0.4,0,0.8-0.3,0.8-0.8c0-0.9-0.7-1.7-1.7-1.7h-0.1c0,0,0,0,0,0
						c-1,0-1.7,0.8-1.7,1.8v0.4c0,1.1,0.7,2.1,1.7,2.5c0.3,0.1,0.6,0.2,1,0.2c1.5,0,2.7-1.2,2.7-2.7V63c0-2-1.6-3.6-3.6-3.6h0
						c-1,0-1.9,0.4-2.6,1.1c-0.7,0.7-1.1,1.6-1.1,2.6V65h-0.9V63c0-1.2,0.5-2.3,1.3-3.2c0.9-0.9,2-1.3,3.2-1.3h0
						C52.5,58.4,54.5,60.5,54.5,63z"/>
				</g>
				<g>
					<path class="st32" d="M79.2,72.7c-0.5-0.1-0.9-0.3-1.3-0.5c-4.4-2.3-5-8.9-1.7-14c2.2-3.5,5.6-5.3,8.6-5.2c1,0,1.9,0.2,2.7,0.7
						c3.5,1.8,4.8,6.9,2.8,11.9C88.2,70.7,83.3,73.9,79.2,72.7z"/>
					<path class="st31" d="M79.2,72.7c-0.5-0.1-0.9-0.3-1.3-0.5c-4.4-2.3-5-8.9-1.7-14c2.2-3.5,5.6-5.3,8.6-5.2
						c0.4,0.1,0.8,0.2,1.1,0.4c3.5,1.8,4.9,6.9,2.8,11.9C86.9,69.9,82.9,72.9,79.2,72.7z"/>
					<path class="st33" d="M85.6,67.5c-1.2,2.2-4,3.1-6.3,1.9c-1-0.5-1.8-1.4-2.2-2.4c-0.5-1.2-0.5-2.6,0.1-3.9
						c1.2-2.2,3.9-3.1,6.2-1.9c0.5,0.3,0.9,0.6,1.3,1.1C86.2,63.7,86.5,65.7,85.6,67.5z"/>
					<path class="st34" d="M84.8,66.1c-1.2,2.2-4,3.1-6.3,1.9c-0.5-0.3-0.9-0.6-1.3-1c-0.5-1.2-0.5-2.6,0.1-3.9
						c1.2-2.2,3.9-3.1,6.2-1.9c0.5,0.3,0.9,0.6,1.3,1.1C85.4,63.5,85.4,64.9,84.8,66.1z"/>
					<path class="st31" d="M78.8,62.5c-0.1,0.2-0.2,0.4-0.3,0.5c-0.1,0.2-0.2,0.4-0.2,0.6c0.1,0.3,0.4,0.4,0.6,0.3s0.5-0.2,0.6-0.4
						c0.1-0.1,0.3-0.3,0.4-0.3c0.1,0,0.2,0,0.3,0c0.1,0,0.1,0,0.2-0.1c0.5-0.3,0.6-1.1-0.1-1.3C79.7,61.7,79.1,61.9,78.8,62.5z"/>
				</g>
				<g>
					<path class="st35" d="M76.2,74.7c-0.5,0.4-1.1,0.6-1.7,0.6H54.1l-1.3-1.3c-0.9-0.9-1.3-1.9-1.5-3.1v0c-0.1-0.3-0.1-0.4-0.1-0.7
						v-0.2c0-1.5,0.6-3,1.7-4l0.5-0.4c0.5-0.5,0.8-1.3,0.8-2c0-0.9-0.3-1.4-0.9-2l-0.6-0.5c-1.2-1-1.8-2.4-1.9-3.9
						c-0.1-1.6,0.5-3,1.6-4.1l0.8-0.9c1-1,1-2.8-0.1-3.8l-1-0.9c-1.1-1.1-1.7-2.5-1.8-3.9v0c-0.1-1.5,0.5-2.9,1.5-4l1-1
						c1-1,1-2.7-0.1-3.8l-1-1c-1-0.9-1.6-2.2-1.7-3.5v-1c0.1-1.3,0.7-2.5,1.7-3.5l1.2-1.2h21.6c0.4,0,0.8,0.1,1.2,0.3l-4,5
						c-0.1,0.4,0.1,0.9,0.3,1.2c0.2,0.2,0.3,0.5,0.5,0.7l1,1l0.1,0c2.2,2.2,2.2,5.7,0.2,7.9l-1,1c-1,1.1-1,2.7,0.2,3.8l0.9,0.9
						c1.1,1.1,1.8,2.5,1.8,3.9c0.1,1.5-0.5,2.9-1.6,4l-0.8,0.9c-0.5,0.5-0.8,1.2-0.8,1.9c0.1,0.7,0.4,1.4,0.9,1.9l0.6,0.5
						c1.1,1.1,1.8,2.6,1.9,4.1c0,1.5-0.5,2.8-1.5,3.9c-0.1,0.1-0.1,0.2-0.2,0.3l-0.5,0.4c-0.5,0.5-0.7,1-0.8,1.6
						c-0.1,0.1-0.1,0.2-0.1,0.3c0.1,0.7,0.3,1.4,0.8,1.9L76.2,74.7z"/>
					<g>
						<g>
							<path class="st36" d="M58.2,75.4h-4.1l-1.3-1.3c-0.9-0.9-1.3-1.9-1.5-3.1v0c-0.1-0.3-0.1-0.4-0.1-0.7v-0.2c0-1.5,0.6-3,1.7-4
								l0.5-0.4c0.5-0.5,0.8-1.3,0.8-2c0-0.9-0.3-1.4-0.9-2l-0.6-0.5c-1.2-1-1.8-2.4-1.9-3.9c-0.1-1.6,0.5-3,1.6-4.1l0.8-0.9
								c1-1,1-2.8-0.1-3.8l-1-0.9c-1.1-1.1-1.7-2.5-1.8-3.9v0c-0.1-1.5,0.5-2.9,1.5-4l1-1c1-1,1-2.7-0.1-3.8l-1-1
								c-1-0.9-1.6-2.2-1.7-3.5C50,30.2,50,30.1,50,30c0-0.1,0-0.1,0-0.1c0-0.1,0-0.4,0.1-0.5c0.1-1.3,0.7-2.5,1.7-3.5l1.2-1.2h4.2
								L53,29.9c0,0.4,0.1,0.9,0.3,1.2c0.2,0.2,0.3,0.5,0.6,0.7l1,1l0.1,0c2.2,2.2,2.3,5.7,0.2,7.9l-0.9,1c-1.1,1.1-1,2.7,0.1,3.8
								l1,0.9c1.1,1.1,1.7,2.5,1.8,3.9c0.1,1.5-0.5,2.9-1.5,4l-0.9,0.9c-0.5,0.5-0.8,1.2-0.8,1.9c0.1,0.7,0.4,1.4,1,1.9l0.6,0.5
								c1.2,1.1,1.8,2.5,1.9,4.1c-0.1,1.5-0.6,2.8-1.6,3.9c-0.1,0.1-0.1,0.2-0.2,0.3L55,68.2c-0.4,0.5-0.7,1-0.8,1.6
								c-0.1,0.1-0.1,0.2-0.1,0.3c0,0.7,0.3,1.4,0.8,1.9L58.2,75.4z"/>
						</g>
					</g>
					<g>
						<path class="st36" d="M67.6,75.4h-4.1l-1.3-1.3c-0.9-0.9-1.3-1.9-1.5-3V71c-0.1-0.2-0.1-0.4-0.1-0.7v-0.2
							c0-1.5,0.7-2.9,1.7-3.9l0.5-0.5c0.5-0.5,0.8-1.2,0.8-2c0.1-0.9-0.3-1.4-0.9-1.9l-0.6-0.5c-1.2-1-1.8-2.4-1.9-3.9
							c-0.1-1.6,0.5-3,1.6-4l0.8-0.9c1-1,0.9-2.8-0.1-3.8l-1-0.9c-1.1-1.1-1.7-2.5-1.8-3.9v0c-0.1-1.4,0.5-2.9,1.5-4l1-1
							c1-1,1-2.7-0.1-3.8l-1-1c-1.1-1-1.7-2.5-1.8-3.9c0,0,0,0,0-0.1c0-0.1,0-0.4,0.1-0.5c0.1-1.3,0.7-2.6,1.7-3.5l1.2-1.2h4.2
							l-4.2,5.2c-0.1,0.5,0.1,0.9,0.3,1.2c0.2,0.3,0.3,0.5,0.5,0.7l1,1l0.1,0c2.2,2.2,2.3,5.6,0.2,7.9l-0.9,1
							c-1.1,1.1-1,2.7,0.1,3.8l1,0.9c1.1,1.1,1.7,2.5,1.8,3.9c0.1,1.5-0.5,3-1.5,4l-0.9,0.9c-0.5,0.5-0.8,1.2-0.8,1.9
							c0.1,0.7,0.4,1.4,0.9,1.9l0.6,0.5c1.2,1.1,1.8,2.5,1.9,4.1c0,1.4-0.5,2.8-1.5,3.9c-0.1,0.1-0.1,0.1-0.2,0.2l-0.5,0.5
							c-0.4,0.4-0.7,1-0.8,1.6c-0.1,0.1-0.1,0.2-0.1,0.3c0.1,0.7,0.3,1.4,0.8,1.9L67.6,75.4z"/>
					</g>
					<g>
						<g>
							<path class="st36" d="M76.2,74.7c-0.5,0.4-1.1,0.6-1.7,0.6h-1.8l-1.2-1.2c-0.9-0.9-1.3-1.9-1.5-3.1v0
								c-0.1-0.3-0.1-0.4-0.1-0.7v-0.2c0-1.5,0.6-3,1.7-4l0.5-0.4c0.6-0.5,0.9-1.2,0.8-2c0.1-0.9-0.3-1.4-0.9-2l-0.6-0.5
								c-1.2-1-1.8-2.4-1.9-3.9c-0.1-1.6,0.5-3,1.6-4.1l0.8-0.9c1-1,0.9-2.8-0.1-3.8l-1-0.9c-1.1-1.1-1.7-2.5-1.8-3.9v0
								c-0.1-1.5,0.5-2.9,1.5-4l1-0.9c1-1,1-2.8-0.1-3.8l-1-0.9c-1.1-1-1.7-2.5-1.8-3.9c0,0,0,0,0-0.1c0-0.2,0-0.4,0.1-0.5
								c0.1-1.3,0.7-2.5,1.7-3.5l1.2-1.2h2.9c0.4,0,0.8,0.1,1.2,0.3l-4,5c-0.1,0.4,0.1,0.9,0.3,1.2c0.2,0.2,0.3,0.5,0.5,0.7l1,1
								l0.1,0c2.2,2.2,2.2,5.7,0.2,7.9l-1,1c-1,1.1-1,2.7,0.2,3.8l0.9,0.9c1.1,1.1,1.8,2.5,1.8,3.9c0.1,1.5-0.5,2.9-1.6,4l-0.8,0.9
								c-0.5,0.5-0.8,1.2-0.8,1.9c0.1,0.7,0.4,1.4,0.9,1.9l0.6,0.5c1.1,1.1,1.8,2.6,1.9,4.1c0,1.5-0.5,2.8-1.5,3.9
								c-0.1,0.1-0.1,0.2-0.2,0.3l-0.5,0.4c-0.5,0.5-0.7,1-0.8,1.6c-0.1,0.1-0.1,0.2-0.1,0.3c0.1,0.7,0.3,1.4,0.8,1.9L76.2,74.7z"/>
						</g>
					</g>
				</g>
				<g>
					<path class="st35" d="M57.5,77.3h-0.8c-0.4,0.1-0.7,0.1-1.1,0.1c-0.7,0-1.4,0-2-0.1c-0.3,0-0.7,0-1-0.1c-0.8,0-1.6,0-2.4-0.1
						c-0.6-0.1-1.2-0.1-1.7-0.2c-0.8-0.1-1.5-0.1-2.2-0.2c-3.6-0.3-7-0.8-10-1.5c-1.3-0.3-2.6-0.6-3.8-1c-1.1-0.3-2.2-0.7-3.2-1.1
						c-1.3-0.5-2.5-1-3.5-1.5c0.5-1.3,1.2-2.4,2-3.4c3-4.1,7.8-6.7,13.2-6.7c3.1,0,5.9,0.8,8.4,2.3C54.1,66.6,57.3,71.6,57.5,77.3z"
						/>
					<path class="st36" d="M53.7,77.3c-0.3,0-0.7,0-1-0.1c-0.8,0-1.6,0-2.4-0.1c-0.6-0.1-1.2-0.1-1.7-0.2c-0.8-0.1-1.5-0.1-2.2-0.2
						c-3.6-0.3-7-0.8-10-1.5c-1.3-0.3-2.6-0.6-3.8-1c-1.1-0.3-2.2-0.7-3.2-1.1c1.9-4.6,6.4-7.8,11.6-7.8
						C47.8,65.5,53.3,70.7,53.7,77.3z"/>
					<path class="st35" d="M50.3,77.2c-0.6-0.1-1.2-0.1-1.7-0.2c-0.8-0.1-1.5-0.1-2.2-0.2c-3.6-0.3-7-0.8-10-1.5
						c-1.3-0.3-2.6-0.6-3.8-1c1.4-3.3,4.7-5.5,8.5-5.5C45.9,68.8,49.9,72.5,50.3,77.2z"/>
					<path class="st36" d="M46.5,76.8c-3.6-0.3-7-0.8-10-1.5c0.9-1.6,2.7-2.7,4.7-2.7C43.7,72.6,45.9,74.4,46.5,76.8z"/>
				</g>
				<g>
					<path class="st35" d="M77.8,74.6c-1.3,0.4-2.6,0.7-4.1,1c-1.3,0.3-2.5,0.5-3.9,0.7c-4,0.7-8.4,1-13.1,1
						c-0.4,0.1-0.7,0.1-1.1,0.1c-1,0-2,0-3-0.1c-1.4,0-2.8-0.1-4.1-0.2c2.4-6,8.3-10.2,15.2-10.2C69.7,66.8,74.9,70,77.8,74.6z"/>
					<path class="st36" d="M73.7,75.6c-1.3,0.3-2.5,0.5-3.9,0.7c-4,0.7-8.4,1-13.1,1c-0.4,0.1-0.7,0.1-1.1,0.1c-1,0-2,0-3-0.1
						c2.2-3.9,6.4-6.5,11.1-6.5C67.8,70.7,71.5,72.6,73.7,75.6z"/>
					<path class="st35" d="M69.8,76.3c-4,0.7-8.4,1-13.1,1c1.7-2,4.2-3.3,7.1-3.3C66.1,74,68.2,74.8,69.8,76.3z"/>
				</g>
				<path class="st23" d="M106.8,34.1v3.9l-63.2-0.7c-1.3,0-2.3-0.5-2.3-1v-0.5c0-0.2,0.1-0.4,0.3-0.5c0.4-0.4,1.2-0.6,2-0.6
					l60.9-0.7L106.8,34.1z"/>
				<path class="st24" d="M106.8,34.1v2l-65.2-0.7c0.4-0.4,1.2-0.6,2-0.6L106.8,34.1z"/>
				<path class="st37" d="M24.4,75.9c1.1,4.2,3.1,8.3,5.9,11.6c1.4,1.7,3,3,4.8,4.1c1.8,1.1,3.8,1.7,5.8,2.2l0.1,0
					c0.8,0.2,1.4,1,1.2,1.9c-0.2,0.8-1,1.4-1.9,1.2c0,0-0.1,0-0.1,0c-2.3-0.7-4.6-1.5-6.6-3c-2-1.4-3.7-3.1-5.1-5
					c-2.8-3.8-4.5-8.1-5.4-12.7c-0.1-0.3,0.2-0.7,0.5-0.7C23.9,75.3,24.3,75.5,24.4,75.9L24.4,75.9z"/>
				<circle class="st37" cx="45.6" cy="96.9" r="1.5"/>
			</g>
		</g>
	</g>
</g>
</svg>
