<?xml version="1.0" encoding="utf-8"?>
<!-- Generator: Adobe Illustrator 28.3.0, SVG Export Plug-In . SVG Version: 6.00 Build 0)  -->
<svg version="1.1" xmlns="http://www.w3.org/2000/svg" xmlns:xlink="http://www.w3.org/1999/xlink" x="0px" y="0px"
	 viewBox="0 0 115.1 185.1" style="enable-background:new 0 0 115.1 185.1;" xml:space="preserve">
<style type="text/css">
	.st0{fill:#F9EFAC;stroke:#C3B463;stroke-width:2.8347;stroke-miterlimit:10;}
	.st1{fill:#C3B463;}
	.st2{fill:#4F7398;}
	.st3{fill:#E5E5E5;}
	.st4{fill:#C1C1C1;}
	.st5{fill:#55A8DC;}
	.st6{fill:#478DB9;}
	.st7{fill:#87B95D;}
	.st8{fill:#5C823B;}
	.st9{fill:none;stroke:#B2B2B2;stroke-miterlimit:10;}
	.st10{fill:none;stroke:#8E8E8E;stroke-miterlimit:10;}
	.st11{fill:#4D4D4D;}
	.st12{fill:#292929;}
	.st13{fill:#EAA947;}
	.st14{fill:#AB281B;}
	.st15{fill:#911E15;}
	.st16{fill:#43495A;}
	.st17{fill:#646F7E;}
	.st18{fill:#212224;}
	.st19{fill:#C3BCD9;}
	.st20{fill:#2E2E30;}
	.st21{fill:#66696C;}
	.st22{fill:#30363A;}
	.st23{fill:#AEC1D4;}
	.st24{fill:#D9E5EE;}
	.st25{fill:#131425;}
	.st26{fill:#163A54;}
	.st27{fill:#6686A7;}
	.st28{fill:#C03B2E;}
	.st29{fill:#1A3937;}
	.st30{fill:#26554F;}
	.st31{fill:#FDF9E9;}
	.st32{fill:#FCF1C8;}
	.st33{fill:#E9A84E;}
	.st34{fill:#F4D75B;}
	.st35{fill:#DE633E;}
	.st36{fill:#F9E4B5;}
	.st37{fill:#FFFFFF;}
	.st38{fill:#57ACD0;}
	.st39{fill:#6F4E2B;}
	.st40{fill:#BB7531;}
	.st41{fill:#E4C963;}
	.st42{fill:none;stroke:#C3B463;stroke-width:2.8347;stroke-miterlimit:10;}
	.st43{fill:#E3814C;}
	.st44{opacity:0.2;fill:#BB7531;}
	.st45{fill:#60BAA8;}
	.st46{fill:#856440;}
	.st47{fill:#B03634;}
	.st48{fill:#333333;}
	.st49{fill:#B2B2B2;}
	.st50{fill:#CE5051;}
	.st51{fill:#BBBEC1;}
	.st52{fill:#324352;}
	.st53{fill:#0D131D;}
	.st54{fill:#5B7E95;}
	.st55{fill:#152B46;}
	.st56{fill:#E9C960;}
	.st57{fill:#AF4832;}
	.st58{fill:#EBCD69;}
	.st59{fill:#D45C40;}
	.st60{fill:#ECEFF1;}
</style>
<g id="Guides_For_Artboard">
</g>
<g id="BACKGROUND">
</g>
<g id="Layer_4">
</g>
<g id="OBJECT">
	<g>
		<g>
			<path class="st0" d="M46.3,171.7c0-6.6,5.3-11.9,11.9-11.9c6.6,0,11.9,5.3,11.9,11.9c0,6.6-5.3,11.9-11.9,11.9
				C51.6,183.6,46.3,178.3,46.3,171.7z"/>
			<path class="st1" d="M53.7,171.7c0-2.5,2-4.5,4.5-4.5c2.5,0,4.5,2,4.5,4.5c0,2.5-2,4.5-4.5,4.5C55.7,176.2,53.7,174.2,53.7,171.7
				z"/>
		</g>
		<g>
			<g>
				<path class="st13" d="M57.6,0C25.8,0,0,25.8,0,57.6c0,47.5,57.6,94.1,57.6,94.1s57.6-46.6,57.6-94.1C115.1,25.8,89.4,0,57.6,0z"
					/>
			</g>
			<path class="st14" d="M79.9,84.1c-0.4-1.2-1.5-1.9-2.7-1.9h-41c-1.2,0-2.3,0.8-2.7,1.9c-3,9.3-3.4,19.3-1,28.7h48.4
				C83.3,103.4,82.9,93.4,79.9,84.1z"/>
			<path class="st15" d="M32.6,112.9c0.3,1.2,0.6,2.4,1,3.6c0.4,1.2,1.5,1.9,2.7,1.9h41c1.2,0,2.3-0.8,2.7-1.9
				c0.4-1.2,0.7-2.4,1-3.6H32.6z"/>
			<path class="st16" d="M80.6,97.6c-0.3-0.9-1.6-1-2-1.9c-0.3-0.6,0.1-1.4-0.1-2.1c-0.2-0.6-0.9-0.9-1.5-0.8
				c-0.6,0-1.1,0.4-1.6,0.7c-0.2,0.1-0.3,0.3-0.4,0.5c-0.1,0.4,0.5,0.7,0.6,1.1c0.2,0.6-0.6,1.2-1.2,1.3c-0.7,0.1-1.5,0.1-1.9,0.7
				c-0.3,0.5-0.2,1.1,0,1.6c0.2,0.5,0.4,1.1,0.3,1.6c-0.1,0.5-0.9,0.9-1.3,0.5c-0.2-0.3-0.1-0.7-0.1-1c0.1-1.5-1.3-3-2.9-2.9
				c0.9-0.8,1.1-2.3,0.5-3.3c-0.5-0.9-1.8-1.4-2.8-1.1c-1,0.4-1.6,1.7-1.1,2.6c0.3,0.6,1,1.2,0.6,1.8c-0.3,0.6-1.2,0.3-1.8,0.3
				c-0.8,0.1-1.5,0.8-1.7,1.6c-0.2,0.8-0.2,1.7-0.1,2.5h-9.5l-2-1.9H32.4c0,1.6,0,3.2,0.1,4.8h48.4c0.1-1.4,0.2-2.9,0.2-4.3
				c-0.3-0.4-0.4-1-0.4-1.5C80.7,98.2,80.7,97.9,80.6,97.6z"/>
			<path class="st17" d="M77.2,83.5h-41c-0.6,0-1.2,0.4-1.4,1c-1.6,4.8-2.4,9.9-2.5,15h18.2l2,1.9h9.5c-0.1-0.8-0.2-1.7,0.1-2.5
				c0.2-0.8,0.9-1.5,1.7-1.6c0.7,0,1.5,0.2,1.8-0.3c0.4-0.6-0.3-1.2-0.6-1.8c-0.5-0.9,0.1-2.2,1.1-2.6c1-0.4,2.2,0.1,2.8,1.1
				c0.6,1,0.4,2.5-0.5,3.3c1.5,0,2.9,1.4,2.9,2.9c0,0.3-0.1,0.7,0.1,1c0.4,0.4,1.1,0.1,1.3-0.5c0.1-0.5-0.1-1.1-0.3-1.6
				c-0.2-0.5-0.3-1.2,0-1.6c0.4-0.6,1.2-0.6,1.9-0.7c0.7-0.1,1.5-0.6,1.2-1.3c-0.2-0.4-0.7-0.7-0.6-1.1c0-0.2,0.2-0.3,0.4-0.5
				c0.5-0.4,1-0.7,1.6-0.7c0.6,0,1.3,0.3,1.5,0.8c0.2,0.7-0.1,1.4,0.1,2.1c0.4,0.9,1.7,1,2,1.9c0.1,0.3,0,0.6,0,0.9
				c0,0.5,0.1,1,0.4,1.5c0-5.2-0.8-10.5-2.5-15.5C78.4,83.9,77.9,83.5,77.2,83.5z"/>
			<path class="st18" d="M57.3,104.3c-0.4,0-0.7,0-1.1,0c-0.5-6.9-0.5-13.9,0-20.8c0.4,0,0.7,0,1.1,0
				C57.8,90.4,57.8,97.4,57.3,104.3z"/>
			<path class="st19" d="M36.3,83.5c-0.6,0-1.2,0.4-1.4,1c-0.3,1-0.6,2.1-0.9,3.2h22c0.1-1.4,0.1-2.8,0.2-4.2H36.3z"/>
			<path class="st20" d="M35,86.9c0.2-0.7,0.4-1.4,0.6-2.1c0.1-0.3,0.3-0.5,0.6-0.5h19.1c0,0.8-0.1,1.7-0.1,2.6H35z"/>
			<path class="st19" d="M79.5,87.7c-0.3-1.1-0.6-2.1-0.9-3.2c-0.2-0.6-0.8-1-1.4-1H57.3c0.1,1.4,0.2,2.8,0.2,4.2H79.5z"/>
			<path class="st20" d="M58.3,86.9c0-0.9-0.1-1.7-0.1-2.6h19.1c0.3,0,0.5,0.2,0.6,0.5c0.2,0.7,0.4,1.4,0.6,2.1H58.3z"/>
			<path class="st19" d="M57.3,83.5c-0.4,0-0.7,0-1.1,0v0L57.3,83.5L57.3,83.5z"/>
			<path class="st21" d="M44.2,70.7c-4.5-5.4-4.2-13.1-2.5-19.8c1.6-6.1,4.2-12.1,4.8-18.4H42c0.4,7.4-4.3,14.4-6.2,21.8
				c-1.6,6.6-0.9,13.6,2,19.8c1,2,2.2,4.1,2.1,6.3h32.2c-3.4-1.9-7.5-2.1-11.5-2.5C54.6,77.1,48.1,75.3,44.2,70.7z"/>
			<path class="st22" d="M46.3,32.5c-0.5-0.9-1.8-1-2.8-0.7c-0.5,0.2-1.1,0.4-1.3,0.9c-0.3,0.7,0.1,1.5-0.2,2.2
				c-0.4,0.1-0.9-0.2-1.1-0.6c-0.2-0.4-0.2-0.9-0.2-1.4c0-1.7,0-3.3,0-5c0-0.9,0.1-2,0.8-2.6c0.3-0.2,0.7-0.3,1.2-0.4
				c3.1-0.5,6.3-0.2,9.5-0.3c0.7,0,1.5-0.1,2.2,0.3c0.7,0.3,1.2,1.2,0.8,1.8c-0.4,0.7-1.4,0.8-2.2,0.8c-0.8,0-1.6,0.1-2.4,0.2
				c-0.3,0-0.6,0.1-0.8,0.3c-0.2,0.2-0.4,0.4-0.5,0.7c-0.8,1.6-1.1,3.4-1,5.2c0,0.4,0.1,0.9-0.2,1.1c-0.3,0.3-0.8,0.1-1.1-0.2
				c-0.3-0.3-0.3-0.8-0.3-1.2C46.5,33.3,46.5,32.9,46.3,32.5z"/>
			<path class="st22" d="M16.9,18c-0.3,0.2-0.6,0.4-0.8,0.6L114,44.8c-0.1-0.3-0.3-0.6-0.4-1L16.9,18z"/>
		</g>
	</g>
</g>
</svg>
