<?xml version="1.0" encoding="utf-8"?>
<!-- Generator: Adobe Illustrator 28.3.0, SVG Export Plug-In . SVG Version: 6.00 Build 0)  -->
<svg version="1.1" xmlns="http://www.w3.org/2000/svg" xmlns:xlink="http://www.w3.org/1999/xlink" x="0px" y="0px"
	 viewBox="0 0 115.1 186.3" style="enable-background:new 0 0 115.1 186.3;" xml:space="preserve">
<style type="text/css">
	.st0{fill:#F9EFAC;stroke:#C3B463;stroke-width:2.8347;stroke-miterlimit:10;}
	.st1{fill:#C3B463;}
	.st2{fill:#4F7398;}
	.st3{fill:#E5E5E5;}
	.st4{fill:#C1C1C1;}
	.st5{fill:#55A8DC;}
	.st6{fill:#478DB9;}
	.st7{fill:#87B95D;}
	.st8{fill:#5C823B;}
	.st9{fill:none;stroke:#B2B2B2;stroke-miterlimit:10;}
	.st10{fill:none;stroke:#8E8E8E;stroke-miterlimit:10;}
	.st11{fill:#4D4D4D;}
	.st12{fill:#292929;}
	.st13{fill:#EAA947;}
	.st14{fill:#AB281B;}
	.st15{fill:#911E15;}
	.st16{fill:#43495A;}
	.st17{fill:#646F7E;}
	.st18{fill:#212224;}
	.st19{fill:#C3BCD9;}
	.st20{fill:#2E2E30;}
	.st21{fill:#66696C;}
	.st22{fill:#30363A;}
	.st23{fill:#AEC1D4;}
	.st24{fill:#D9E5EE;}
	.st25{fill:#131425;}
	.st26{fill:#163A54;}
	.st27{fill:#6686A7;}
	.st28{fill:#C03B2E;}
	.st29{fill:#1A3937;}
	.st30{fill:#26554F;}
	.st31{fill:#FDF9E9;}
	.st32{fill:#FCF1C8;}
	.st33{fill:#E9A84E;}
	.st34{fill:#F4D75B;}
	.st35{fill:#DE633E;}
	.st36{fill:#F9E4B5;}
	.st37{fill:#FFFFFF;}
	.st38{fill:#57ACD0;}
	.st39{fill:#6F4E2B;}
	.st40{fill:#BB7531;}
	.st41{fill:#E4C963;}
	.st42{fill:none;stroke:#C3B463;stroke-width:2.8347;stroke-miterlimit:10;}
	.st43{fill:#E3814C;}
	.st44{opacity:0.2;fill:#BB7531;}
	.st45{fill:#60BAA8;}
	.st46{fill:#856440;}
	.st47{fill:#B03634;}
	.st48{fill:#333333;}
	.st49{fill:#B2B2B2;}
	.st50{font-family:'Nunito-ExtraBold';}
	.st51{font-size:12.7506px;}
	.st52{font-size:26px;}
	.st53{fill:#CE5051;}
	.st54{fill:#BBBEC1;}
	.st55{fill:#324352;}
	.st56{fill:#0D131D;}
	.st57{fill:#5B7E95;}
	.st58{fill:#152B46;}
	.st59{fill:#E9C960;}
	.st60{fill:#AF4832;}
	.st61{fill:#EBCD69;}
	.st62{fill:#D45C40;}
	.st63{fill:#ECEFF1;}
</style>
<g id="Guides_For_Artboard">
</g>
<g id="BACKGROUND">
</g>
<g id="Layer_4">
</g>
<g id="OBJECT">
	<g>
		<g>
			<path class="st0" d="M45.4,172.9c0-6.6,5.3-11.9,11.9-11.9c6.6,0,11.9,5.3,11.9,11.9c0,6.6-5.3,11.9-11.9,11.9
				C50.8,184.9,45.4,179.5,45.4,172.9z"/>
			<path class="st1" d="M52.8,172.9c0-2.5,2-4.5,4.5-4.5c2.5,0,4.5,2,4.5,4.5c0,2.5-2,4.5-4.5,4.5C54.9,177.4,52.8,175.4,52.8,172.9
				z"/>
		</g>
		<g>
			<g>
				<path class="st45" d="M57.6,0C25.8,0,0,25.8,0,57.6c0,47.5,57.6,94.1,57.6,94.1s57.6-46.6,57.6-94.1C115.1,25.8,89.4,0,57.6,0z"
					/>
			</g>
			<g>
				<path class="st46" d="M89,85.8H26.2c-2.3,0-4.2-1.9-4.2-4.2V30.4c0-2.3,1.9-4.2,4.2-4.2H89c2.3,0,4.2,1.9,4.2,4.2v51.3
					C93.1,84,91.3,85.8,89,85.8z"/>
				<rect x="24.1" y="28.5" class="st3" width="66.9" height="55"/>
				<rect x="24.1" y="28.5" class="st47" width="66.9" height="22.1"/>
				<g>
					<g>
						<g>
							<path class="st48" d="M34.1,32.5c0,1.5-1.2,2.8-2.8,2.8c-1.5,0-2.8-1.2-2.8-2.8c0-1.5,1.2-2.8,2.8-2.8
								C32.8,29.7,34.1,31,34.1,32.5z"/>
						</g>
						<path class="st49" d="M31.3,34L31.3,34c-1.1,0-2-0.9-2-2v-9.2c0-1.1,0.9-2,2-2l0,0c1.1,0,2,0.9,2,2V32
							C33.2,33.1,32.4,34,31.3,34z"/>
					</g>
					<g>
						<g>
							<path class="st48" d="M41.6,32.5c0,1.5-1.2,2.8-2.8,2.8c-1.5,0-2.8-1.2-2.8-2.8c0-1.5,1.2-2.8,2.8-2.8
								C40.3,29.7,41.6,31,41.6,32.5z"/>
						</g>
						<path class="st49" d="M38.8,34L38.8,34c-1.1,0-2-0.9-2-2v-9.2c0-1.1,0.9-2,2-2l0,0c1.1,0,2,0.9,2,2V32
							C40.8,33.1,39.9,34,38.8,34z"/>
					</g>
					<g>
						<g>
							<path class="st48" d="M49.1,32.5c0,1.5-1.2,2.8-2.8,2.8c-1.5,0-2.8-1.2-2.8-2.8c0-1.5,1.2-2.8,2.8-2.8
								C47.8,29.7,49.1,31,49.1,32.5z"/>
						</g>
						<path class="st49" d="M46.3,34L46.3,34c-1.1,0-2-0.9-2-2v-9.2c0-1.1,0.9-2,2-2l0,0c1.1,0,2,0.9,2,2V32
							C48.3,33.1,47.4,34,46.3,34z"/>
					</g>
					<g>
						<g>
							<path class="st48" d="M56.6,32.5c0,1.5-1.2,2.8-2.8,2.8c-1.5,0-2.8-1.2-2.8-2.8c0-1.5,1.2-2.8,2.8-2.8
								C55.4,29.7,56.6,31,56.6,32.5z"/>
						</g>
						<path class="st49" d="M53.8,34L53.8,34c-1.1,0-2-0.9-2-2v-9.2c0-1.1,0.9-2,2-2l0,0c1.1,0,2,0.9,2,2V32
							C55.8,33.1,54.9,34,53.8,34z"/>
					</g>
					<g>
						<g>
							<path class="st48" d="M64.1,32.5c0,1.5-1.2,2.8-2.8,2.8c-1.5,0-2.8-1.2-2.8-2.8c0-1.5,1.2-2.8,2.8-2.8
								C62.9,29.7,64.1,31,64.1,32.5z"/>
						</g>
						<path class="st49" d="M61.3,34L61.3,34c-1.1,0-2-0.9-2-2v-9.2c0-1.1,0.9-2,2-2l0,0c1.1,0,2,0.9,2,2V32
							C63.3,33.1,62.4,34,61.3,34z"/>
					</g>
					<g>
						<g>
							<path class="st48" d="M71.6,32.5c0,1.5-1.2,2.8-2.8,2.8c-1.5,0-2.8-1.2-2.8-2.8c0-1.5,1.2-2.8,2.8-2.8
								C70.4,29.7,71.6,31,71.6,32.5z"/>
						</g>
						<path class="st49" d="M68.8,34L68.8,34c-1.1,0-2-0.9-2-2v-9.2c0-1.1,0.9-2,2-2l0,0c1.1,0,2,0.9,2,2V32
							C70.8,33.1,69.9,34,68.8,34z"/>
					</g>
					<g>
						<g>
							<path class="st48" d="M79.1,32.5c0,1.5-1.2,2.8-2.8,2.8c-1.5,0-2.8-1.2-2.8-2.8c0-1.5,1.2-2.8,2.8-2.8
								C77.9,29.7,79.1,31,79.1,32.5z"/>
						</g>
						<path class="st49" d="M76.4,34L76.4,34c-1.1,0-2-0.9-2-2v-9.2c0-1.1,0.9-2,2-2l0,0c1.1,0,2,0.9,2,2V32
							C78.3,33.1,77.4,34,76.4,34z"/>
					</g>
					<g>
						<g>
							<path class="st48" d="M86.7,32.5c0,1.5-1.2,2.8-2.8,2.8s-2.8-1.2-2.8-2.8c0-1.5,1.2-2.8,2.8-2.8S86.7,31,86.7,32.5z"/>
						</g>
						<path class="st49" d="M83.9,34L83.9,34c-1.1,0-2-0.9-2-2v-9.2c0-1.1,0.9-2,2-2l0,0c1.1,0,2,0.9,2,2V32
							C85.8,33.1,84.9,34,83.9,34z"/>
					</g>
				</g>
				<text transform="matrix(1.2793 0 0 1 39.6181 47.5995)" class="st37 st50 st51">OCT</text>
				<text transform="matrix(1.5424 0 0 1 33.2383 77.9893)" class="st11 st50 st52">09</text>
			</g>
		</g>
	</g>
</g>
</svg>
