<?xml version="1.0" encoding="utf-8"?>
<!-- Generator: Adobe Illustrator 28.3.0, SVG Export Plug-In . SVG Version: 6.00 Build 0)  -->
<svg version="1.1" xmlns="http://www.w3.org/2000/svg" xmlns:xlink="http://www.w3.org/1999/xlink" x="0px" y="0px"
	 viewBox="0 0 106.1 173.9" style="enable-background:new 0 0 106.1 173.9;" xml:space="preserve">
<style type="text/css">
	.st0{fill:#F9EFAC;stroke:#C3B463;stroke-width:2.8347;stroke-miterlimit:10;}
	.st1{fill:#C3B463;}
	.st2{fill:#4F7398;}
	.st3{fill:#E5E5E5;}
	.st4{fill:#C1C1C1;}
	.st5{fill:#55A8DC;}
	.st6{fill:#478DB9;}
	.st7{fill:#87B95D;}
	.st8{fill:#5C823B;}
	.st9{fill:none;stroke:#B2B2B2;stroke-miterlimit:10;}
	.st10{fill:none;stroke:#8E8E8E;stroke-miterlimit:10;}
	.st11{fill:#4D4D4D;}
	.st12{fill:#292929;}
	.st13{fill:#EAA947;}
	.st14{fill:#AB281B;}
	.st15{fill:#911E15;}
	.st16{fill:#43495A;}
	.st17{fill:#646F7E;}
	.st18{fill:#212224;}
	.st19{fill:#C3BCD9;}
	.st20{fill:#2E2E30;}
	.st21{fill:#66696C;}
	.st22{fill:#30363A;}
	.st23{fill:#AEC1D4;}
	.st24{fill:#D9E5EE;}
	.st25{fill:#131425;}
	.st26{fill:#163A54;}
	.st27{fill:#6686A7;}
	.st28{fill:#C03B2E;}
	.st29{fill:#1A3937;}
	.st30{fill:#26554F;}
	.st31{fill:#FDF9E9;}
	.st32{fill:#FCF1C8;}
	.st33{fill:#E9A84E;}
	.st34{fill:#F4D75B;}
	.st35{fill:#DE633E;}
	.st36{fill:#F9E4B5;}
	.st37{fill:#FFFFFF;}
	.st38{fill:#57ACD0;}
	.st39{fill:#6F4E2B;}
	.st40{fill:#BB7531;}
	.st41{fill:#E4C963;}
	.st42{fill:none;stroke:#C3B463;stroke-width:2.8347;stroke-miterlimit:10;}
	.st43{fill:#E3814C;}
	.st44{opacity:0.2;fill:#BB7531;}
	.st45{fill:#60BAA8;}
	.st46{fill:#856440;}
	.st47{fill:#B03634;}
	.st48{fill:#333333;}
	.st49{fill:#B2B2B2;}
	.st50{fill:#CE5051;}
	.st51{fill:#BBBEC1;}
	.st52{fill:#324352;}
	.st53{fill:#0D131D;}
	.st54{fill:#5B7E95;}
	.st55{fill:#152B46;}
	.st56{fill:#E9C960;}
	.st57{fill:#AF4832;}
	.st58{fill:#EBCD69;}
	.st59{fill:#D45C40;}
	.st60{fill:#ECEFF1;}
</style>
<g id="Guides_For_Artboard">
</g>
<g id="BACKGROUND">
</g>
<g id="Layer_4">
</g>
<g id="OBJECT">
	<g>
		<g>
			<path class="st0" d="M41.4,160.5c0-6.6,5.3-11.9,11.9-11.9c6.6,0,11.9,5.3,11.9,11.9c0,6.6-5.3,11.9-11.9,11.9
				C46.7,172.5,41.4,167.1,41.4,160.5z"/>
			<path class="st1" d="M48.8,160.5c0-2.5,2-4.5,4.5-4.5c2.5,0,4.5,2,4.5,4.5c0,2.5-2,4.5-4.5,4.5C50.8,165.1,48.8,163,48.8,160.5z"
				/>
		</g>
		<g>
			<path class="st2" d="M53,0C23.7,0,0,23.7,0,53c0,43.8,53,86.7,53,86.7s53-42.9,53-86.7C106.1,23.7,82.3,0,53,0z"/>
			<g>
				<polygon class="st3" points="44.4,90.1 32.3,105.3 12.3,50.8 24.3,35.6 				"/>
				<polygon class="st4" points="62.2,91.1 44.1,90.1 24.1,35.7 42.2,36.7 				"/>
				
					<rect x="51.7" y="31.9" transform="matrix(0.9386 -0.345 0.345 0.9386 -17.3173 24.5656)" class="st3" width="17.3" height="58"/>
				<polygon class="st4" points="92.1,72.5 78.5,85.2 58.5,30.7 72.1,18.1 				"/>
				<polygon class="st5" points="43,86.3 33.1,98.7 15.9,51.9 25.7,39.4 				"/>
				<polygon class="st6" points="60.8,87.3 42.7,86.3 25.5,39.5 43.6,40.5 				"/>
				
					<rect x="51.7" y="36" transform="matrix(0.9386 -0.345 0.345 0.9386 -17.3173 24.5653)" class="st5" width="17.3" height="49.9"/>
				<polygon class="st6" points="87.8,71.4 77.1,81.4 59.9,34.5 70.6,24.5 				"/>
				<path class="st7" d="M25.8,64c-1.8,0.6-3,2.6-3.7,4.7l11,29.9L43,86.3L32.5,57.9C30.9,61,28.3,63.2,25.8,64z"/>
				<path class="st8" d="M49.9,68.1c-9.4-3.1-1.5-7.4-2.6-12.6c-1.1-5.2-11-4.5-12-0.4c-0.4,1.6-1.5,2.4-3,2.8l10.4,28.4l18.1,1
					l-6.6-18C52.9,69,51.5,68.6,49.9,68.1z"/>
				<path class="st7" d="M69.8,64.6c-4.1,2.5,3.4,11.8,0.5,13.7c-2.9,1.9-6.2,1.1-6.7-5.5c-0.4-5.5-3.4-4.1-9.3-3.4l6.6,18l16.3-6
					l-6.4-17.4C70.4,64.2,70.1,64.4,69.8,64.6z"/>
				<path class="st8" d="M68.8,54c1.9,2.5,4.1,6,1.9,9.9l6.4,17.4l10.7-10L75.8,38.6C66.2,38.8,66.8,51.4,68.8,54z"/>
				<path class="st9" d="M55.7,73.4c1.3,0.2,2.3,1.1,2.5,3.3c0.4,5.6,6.4,0.8,6.4,0.8"/>
				<path class="st10" d="M36.7,69.8c0.9,0.4,1.6,1.1,1.9,2.1c1.4,4.1,6.6,4.8,7.5,3.5c0.9-1.3,5-3,5-3s2.6-0.1,4.8,1"/>
				<path class="st9" d="M32,75.7c0,0,2.9-5.3,4.9-6"/>
				<path class="st10" d="M73,70c0.2,0,0.4,0,0.6,0c2,0.3,1.9-0.5,2-3.3C75.7,64,72,58.4,76.3,56c4.3-2.3,1.2-9.3-4.4-8"/>
				<path class="st9" d="M70,71.3c0,0,1.1-1.7,3-1.2"/>
				<path class="st11" d="M32.6,75.5c0.2,0.7,0.1,1.7-0.4,2.3c-0.5,0.6-1,0.5-1.3-0.2c-0.2-0.7-0.1-1.7,0.4-2.3
					C31.8,74.8,32.3,74.8,32.6,75.5z"/>
				<path class="st12" d="M52.3,72.5c0.2,0.7-0.1,1.2-0.8,1.2c-0.7,0-1.5-0.6-1.7-1.3c-0.2-0.7,0.1-1.2,0.8-1.2
					C51.2,71.2,52,71.8,52.3,72.5z"/>
				<path class="st12" d="M76.3,66.1c0.2,0.5,0,1.2-0.4,1.5c-0.4,0.4-0.8,0.2-1-0.2c-0.2-0.5,0-1.2,0.4-1.5
					C75.6,65.5,76.1,65.6,76.3,66.1z"/>
				<path class="st12" d="M72.6,47.3c0.2,0.5,0,1.2-0.4,1.6c-0.4,0.4-0.9,0.3-1.1-0.3c-0.2-0.5,0-1.2,0.4-1.6
					C71.9,46.7,72.4,46.8,72.6,47.3z"/>
				<path class="st10" d="M44.9,75.7c-2.3-1.4-9.4-10.2-4.6-10c4.8,0.3,2.6-5.5,0.1-9.2"/>
				<path class="st12" d="M41.6,56.6c0.2,0.7-0.1,1.2-0.8,1.2c-0.7,0-1.5-0.6-1.7-1.3c-0.2-0.7,0.1-1.2,0.8-1.2
					C40.6,55.3,41.4,55.9,41.6,56.6z"/>
			</g>
		</g>
	</g>
</g>
</svg>
