<?xml version="1.0" encoding="utf-8"?>
<!-- Generator: Adobe Illustrator 28.3.0, SVG Export Plug-In . SVG Version: 6.00 Build 0)  -->
<svg version="1.1" xmlns="http://www.w3.org/2000/svg" xmlns:xlink="http://www.w3.org/1999/xlink" x="0px" y="0px"
	 viewBox="0 0 115.1 185.6" style="enable-background:new 0 0 115.1 185.6;" xml:space="preserve">
<style type="text/css">
	.st0{fill:#F9EFAC;stroke:#C3B463;stroke-width:2.8347;stroke-miterlimit:10;}
	.st1{fill:#C3B463;}
	.st2{fill:#4F7398;}
	.st3{fill:#E5E5E5;}
	.st4{fill:#C1C1C1;}
	.st5{fill:#55A8DC;}
	.st6{fill:#478DB9;}
	.st7{fill:#87B95D;}
	.st8{fill:#5C823B;}
	.st9{fill:none;stroke:#B2B2B2;stroke-miterlimit:10;}
	.st10{fill:none;stroke:#8E8E8E;stroke-miterlimit:10;}
	.st11{fill:#4D4D4D;}
	.st12{fill:#292929;}
	.st13{fill:#EAA947;}
	.st14{fill:#AB281B;}
	.st15{fill:#911E15;}
	.st16{fill:#43495A;}
	.st17{fill:#646F7E;}
	.st18{fill:#212224;}
	.st19{fill:#C3BCD9;}
	.st20{fill:#2E2E30;}
	.st21{fill:#66696C;}
	.st22{fill:#30363A;}
	.st23{fill:#AEC1D4;}
	.st24{fill:#D9E5EE;}
	.st25{fill:#131425;}
	.st26{fill:#163A54;}
	.st27{fill:#6686A7;}
	.st28{fill:#C03B2E;}
	.st29{fill:#1A3937;}
	.st30{fill:#26554F;}
	.st31{fill:#FDF9E9;}
	.st32{fill:#FCF1C8;}
	.st33{fill:#E9A84E;}
	.st34{fill:#F4D75B;}
	.st35{fill:#DE633E;}
	.st36{fill:#F9E4B5;}
	.st37{fill:#FFFFFF;}
	.st38{fill:#57ACD0;}
	.st39{fill:#6F4E2B;}
	.st40{fill:#BB7531;}
	.st41{fill:#E4C963;}
	.st42{fill:none;stroke:#C3B463;stroke-width:2.8347;stroke-miterlimit:10;}
	.st43{fill:#E3814C;}
	.st44{opacity:0.2;fill:#BB7531;}
	.st45{fill:#60BAA8;}
	.st46{fill:#856440;}
	.st47{fill:#B03634;}
	.st48{fill:#333333;}
	.st49{fill:#B2B2B2;}
	.st50{fill:#CE5051;}
	.st51{fill:#BBBEC1;}
	.st52{fill:#324352;}
	.st53{fill:#0D131D;}
	.st54{fill:#5B7E95;}
	.st55{fill:#152B46;}
	.st56{fill:#E9C960;}
	.st57{fill:#AF4832;}
	.st58{fill:#EBCD69;}
	.st59{fill:#D45C40;}
	.st60{fill:#ECEFF1;}
</style>
<g id="Guides_For_Artboard">
</g>
<g id="BACKGROUND">
</g>
<g id="Layer_4">
</g>
<g id="OBJECT">
	<g>
		<g>
			<path class="st0" d="M46.1,172.2c0-6.6,5.3-11.9,11.9-11.9c6.6,0,11.9,5.3,11.9,11.9c0,6.6-5.3,11.9-11.9,11.9
				C51.4,184.2,46.1,178.8,46.1,172.2z"/>
			<path class="st1" d="M53.5,172.2c0-2.5,2-4.5,4.5-4.5c2.5,0,4.5,2,4.5,4.5c0,2.5-2,4.5-4.5,4.5C55.5,176.7,53.5,174.7,53.5,172.2
				z"/>
		</g>
		<g>
			<path class="st50" d="M57.6,0C25.8,0,0,25.8,0,57.6c0,47.5,57.6,94.1,57.6,94.1s57.6-46.6,57.6-94.1C115.1,25.8,89.4,0,57.6,0z"
				/>
			<g>
				
					<rect x="55.4" y="96.8" transform="matrix(0.9359 -0.3522 0.3522 0.9359 -31.2297 25.9008)" class="st51" width="0.3" height="4"/>
				
					<rect x="56.6" y="96.8" transform="matrix(0.945 -0.3271 0.3271 0.945 -29.1873 23.9887)" class="st51" width="0.3" height="4"/>
				
					<rect x="57.5" y="96.8" transform="matrix(0.9505 -0.3108 0.3108 0.9505 -27.8394 22.8099)" class="st51" width="0.3" height="3.9"/>
			</g>
			<g>
				
					<rect x="60.3" y="98.6" transform="matrix(0.3522 -0.9359 0.9359 0.3522 -52.1185 122.245)" class="st51" width="4" height="0.3"/>
				<rect x="59.1" y="98.6" transform="matrix(0.327 -0.945 0.945 0.327 -52.232 124.2033)" class="st51" width="4" height="0.3"/>
				
					<rect x="58.2" y="98.6" transform="matrix(0.3104 -0.9506 0.9506 0.3104 -52.4145 125.2944)" class="st51" width="3.9" height="0.3"/>
			</g>
			<path class="st52" d="M61.3,100.8h-4.9V100c0-0.8,0.6-1.4,1.4-1.4H60c0.8,0,1.4,0.6,1.4,1.4V100.8z M56.8,100.5H61V100
				c0-0.6-0.5-1.1-1.1-1.1h-2.1c-0.6,0-1.1,0.5-1.1,1.1V100.5z"/>
			<rect x="57.8" y="96.7" class="st53" width="2.2" height="2.8"/>
			<path class="st51" d="M63.8,106.1H54l1.2-5.6h7.4L63.8,106.1z M54.4,105.8h8.9l-1.1-4.9h-6.8L54.4,105.8z"/>
			<path class="st51" d="M60.3,106.1h-2.8l0.3-5.6H60L60.3,106.1z M57.9,105.8h2l-0.3-4.9h-1.5L57.9,105.8z"/>
			<path class="st54" d="M51.1,89h-1.2c2,2.3,3.6,5.5,4.4,7.2h0.6C54.2,94.5,52.8,91.2,51.1,89z"/>
			<path class="st55" d="M54.2,96.2c0.3,0.7,0.5,1.1,0.5,1.1h0.6c0,0-0.1-0.4-0.4-1.1H54.2z"/>
			<path class="st56" d="M49.8,87.5c-2-1.7-6.4-7-9.3-10.4c-0.9-1-1.8-2-2.6-3.1l0,0c-3.9-5.5-6.3-12.5-6.3-20.2
				c0-17.4,12.2-31.5,27.3-31.5c-17.4,0-31.5,14.1-31.5,31.5c0,7.7,2.7,14.7,7.3,20.2l0,0c0.9,1.1,1.9,2.1,3,3.1
				c3.3,3.4,8.4,8.6,10.7,10.4c0.5,0.4,1,0.9,1.5,1.4h1.2C50.6,88.4,50.2,87.9,49.8,87.5z"/>
			<path class="st55" d="M62.6,97.3h0.6c0,0,0.2-0.4,0.5-1.1H63C62.7,96.8,62.6,97.3,62.6,97.3z"/>
			<path class="st54" d="M63,96.2h0.6c0.8-1.7,2.4-4.9,4.4-7.2h-1.2C65,91.2,63.6,94.5,63,96.2z"/>
			<path class="st56" d="M58.9,22.3c15.1,0,27.3,14.1,27.3,31.5c0,9.2-3.4,17.5-8.9,23.3c-2.8,3.4-7.3,8.6-9.3,10.4
				c-0.5,0.4-0.9,0.9-1.3,1.4H68c0.5-0.5,1-1,1.5-1.4c2.3-1.7,7.4-7,10.7-10.4c6.3-5.8,10.3-14.1,10.3-23.3
				C90.5,36.5,76.3,22.3,58.9,22.3z"/>
			<path class="st57" d="M77.2,53.9c0,9.2-2.3,17.5-6,23.3c-1.9,3.4-4.9,8.6-6.2,10.4c-0.3,0.4-0.6,0.9-0.9,1.4h2.6
				c0.4-0.5,0.9-1,1.3-1.4c2-1.7,6.4-7,9.3-10.4c5.5-5.8,8.9-14.1,8.9-23.3c0-17.4-12.2-31.5-27.3-31.5C69,22.3,77.2,36.5,77.2,53.9
				z"/>
			<path class="st57" d="M31.6,53.9c0,7.7,2.4,14.7,6.3,20.2l0,0c0.8,1.1,1.7,2.1,2.6,3.1c2.8,3.4,7.3,8.6,9.3,10.4
				c0.5,0.4,0.9,0.9,1.3,1.4h2.6c-0.3-0.5-0.6-1-0.9-1.4c-1.3-1.7-4.3-7-6.2-10.4c-0.6-1-1.2-2-1.7-3.1l0,0
				c-2.6-5.5-4.2-12.5-4.2-20.2c0-17.4,8.2-31.5,18.3-31.5C43.8,22.3,31.6,36.5,31.6,53.9z"/>
			<path class="st54" d="M51.1,89c1.7,2.3,3.1,5.5,3.8,7.2h1.3c-0.4-1.7-1.4-4.9-2.5-7.2H51.1z"/>
			<path class="st54" d="M61.6,96.2H63c0.7-1.7,2.1-4.9,3.8-7.2h-2.6C63,91.2,62.1,94.5,61.6,96.2z"/>
			<path class="st55" d="M61.6,96.2c-0.2,0.7-0.3,1.1-0.3,1.1h1.2c0,0,0.1-0.4,0.4-1.1H61.6z"/>
			<path class="st55" d="M54.8,96.2c0.3,0.7,0.4,1.1,0.4,1.1h1.2c0,0-0.1-0.4-0.3-1.1H54.8z"/>
			<path class="st58" d="M66.4,53.9c0,9.2-0.9,17.5-2.5,23.3c-0.8,3.4-2,8.6-2.6,10.4c-0.1,0.4-0.2,0.9-0.4,1.4h3.1
				c0.3-0.5,0.6-1,0.9-1.4c1.3-1.7,4.3-7,6.2-10.4c3.7-5.8,6-14.1,6-23.3c0-17.4-8.2-31.5-18.3-31.5C63.1,22.3,66.4,36.5,66.4,53.9z
				"/>
			<path class="st54" d="M61.1,89c-0.5,2.3-0.9,5.5-1,7.2h1.6c0.4-1.7,1.4-4.9,2.5-7.2H61.1z"/>
			<path class="st54" d="M53.7,89c1.2,2.3,2.1,5.5,2.5,7.2h1.6c-0.2-1.7-0.6-4.9-1-7.2H53.7z"/>
			<path class="st55" d="M56.2,96.2c0.2,0.7,0.3,1.1,0.3,1.1h1.4c0,0,0-0.4-0.1-1.1H56.2z"/>
			<path class="st55" d="M60,96.2c-0.1,0.7-0.1,1.1-0.1,1.1h1.4c0,0,0.1-0.4,0.3-1.1H60z"/>
			<path class="st58" d="M40.6,53.9c0,7.7,1.6,14.7,4.2,20.2l0,0c0.5,1.1,1.1,2.1,1.7,3.1c1.9,3.4,4.9,8.6,6.2,10.4
				c0.3,0.4,0.6,0.9,0.9,1.4h3.1c-0.1-0.5-0.2-1-0.4-1.4c-0.5-1.7-1.8-7-2.6-10.4c-0.3-1-0.5-2-0.7-3.1v0
				c-1.1-5.5-1.7-12.5-1.7-20.2c0-17.4,3.4-31.5,7.5-31.5C48.8,22.3,40.6,36.5,40.6,53.9z"/>
			<path class="st59" d="M51.4,53.9c0,7.7,0.7,14.7,1.7,20.2v0c0.2,1.1,0.5,2.1,0.7,3.1c0.8,3.4,2,8.6,2.6,10.4
				c0.1,0.4,0.2,0.9,0.4,1.4h4.3c0.1-0.5,0.2-1,0.4-1.4c0.5-1.7,1.8-7,2.6-10.4c1.5-5.8,2.5-14.1,2.5-23.3c0-17.4-3.4-31.5-7.5-31.5
				C54.7,22.3,51.4,36.5,51.4,53.9z"/>
			<path class="st55" d="M57.8,96.2c0.1,0.7,0.1,1.1,0.1,1.1h1h1c0,0,0-0.4,0.1-1.1H57.8z"/>
			<path class="st54" d="M56.7,89c0.5,2.3,0.9,5.5,1,7.2H60c0.2-1.7,0.6-4.9,1-7.2H56.7z"/>
			<path class="st55" d="M63.4,104.9h-8.9c-0.4,0-0.7,0.3-0.7,0.7v6.6c0,0.4,0.3,0.7,0.7,0.7h8.9c0.4,0,0.7-0.3,0.7-0.7v-6.6
				C64.1,105.2,63.8,104.9,63.4,104.9z"/>
			<path class="st60" d="M30.9,81.7c-0.6-0.3-1.3-0.3-1.9-0.4c-3.3-0.6-6.1-3.1-7.2-6.3c-0.3-0.8-0.4-1.6-0.1-2.4
				c0.7-1.5,3-1.4,4.5-0.6c0.2,0.1,0.5,0.3,0.7,0.3c1.1,0.2,1.5-1.5,2.2-2.4c0.8-1,2.3-1.2,3.6-1.2c1.2,0,2.4,0,3.5-0.1
				c1.1,0,2.2,0,3,0.7c0.6,0.5,0.8,1.3,1.1,2c0.4,0.7,1,1.3,1.8,1.2c0.4-0.1,0.8-0.4,1.1-0.7c2.4-1.8,6.3-0.8,7.6,1.8
				c0.5,0.9,0.4,2.3-0.5,2.7c-0.3,0.1-0.6,0.1-0.9,0.2c-2.2,0.4-2.2,3.8-4,5c-0.6,0.4-1.5,0.5-2.2,0.5c-0.8,0-1.6-0.2-2.3-0.6
				c-0.5-0.2-1.1-0.6-1.6-0.4c-0.4,0.1-0.7,0.4-1,0.6c-1.4,1.2-3.4,2.1-5.2,1.3C32.3,82.7,31.7,82,30.9,81.7z"/>
		</g>
	</g>
</g>
</svg>
