<?xml version="1.0" encoding="utf-8"?>
<!-- Generator: Adobe Illustrator 28.3.0, SVG Export Plug-In . SVG Version: 6.00 Build 0)  -->
<svg version="1.1" xmlns="http://www.w3.org/2000/svg" xmlns:xlink="http://www.w3.org/1999/xlink" x="0px" y="0px"
	 viewBox="0 0 115.1 188.2" style="enable-background:new 0 0 115.1 188.2;" xml:space="preserve">
<style type="text/css">
	.st0{fill:#F9EFAC;stroke:#C3B463;stroke-width:2.8347;stroke-miterlimit:10;}
	.st1{fill:#C3B463;}
	.st2{fill:#4F7398;}
	.st3{fill:#E5E5E5;}
	.st4{fill:#C1C1C1;}
	.st5{fill:#55A8DC;}
	.st6{fill:#478DB9;}
	.st7{fill:#87B95D;}
	.st8{fill:#5C823B;}
	.st9{fill:none;stroke:#B2B2B2;stroke-miterlimit:10;}
	.st10{fill:none;stroke:#8E8E8E;stroke-miterlimit:10;}
	.st11{fill:#4D4D4D;}
	.st12{fill:#292929;}
	.st13{fill:#EAA947;}
	.st14{fill:#AB281B;}
	.st15{fill:#911E15;}
	.st16{fill:#43495A;}
	.st17{fill:#646F7E;}
	.st18{fill:#212224;}
	.st19{fill:#C3BCD9;}
	.st20{fill:#2E2E30;}
	.st21{fill:#66696C;}
	.st22{fill:#30363A;}
	.st23{fill:#AEC1D4;}
	.st24{fill:#D9E5EE;}
	.st25{fill:#131425;}
	.st26{fill:#163A54;}
	.st27{fill:#6686A7;}
	.st28{fill:#C03B2E;}
	.st29{fill:#1A3937;}
	.st30{fill:#26554F;}
	.st31{fill:#FDF9E9;}
	.st32{fill:#FCF1C8;}
	.st33{fill:#E9A84E;}
	.st34{fill:#F4D75B;}
	.st35{fill:#DE633E;}
	.st36{fill:#F9E4B5;}
	.st37{fill:#FFFFFF;}
	.st38{fill:#57ACD0;}
	.st39{fill:#6F4E2B;}
	.st40{fill:#BB7531;}
	.st41{fill:#E4C963;}
	.st42{fill:none;stroke:#C3B463;stroke-width:2.8347;stroke-miterlimit:10;}
	.st43{fill:#E3814C;}
	.st44{opacity:0.2;fill:#BB7531;}
	.st45{font-family:'AlegreyaSans-BoldItalic';}
	.st46{font-size:16.4015px;}
	.st47{fill:#60BAA8;}
	.st48{fill:#856440;}
	.st49{fill:#B03634;}
	.st50{fill:#333333;}
	.st51{fill:#B2B2B2;}
	.st52{fill:#CE5051;}
	.st53{fill:#BBBEC1;}
	.st54{fill:#324352;}
	.st55{fill:#0D131D;}
	.st56{fill:#5B7E95;}
	.st57{fill:#152B46;}
	.st58{fill:#E9C960;}
	.st59{fill:#AF4832;}
	.st60{fill:#EBCD69;}
	.st61{fill:#D45C40;}
	.st62{fill:#ECEFF1;}
</style>
<g id="Guides_For_Artboard">
</g>
<g id="BACKGROUND">
</g>
<g id="Layer_4">
</g>
<g id="OBJECT">
	<g>
		<g>
			<path class="st0" d="M46.5,174.9c0-6.6,5.3-11.9,11.9-11.9c6.6,0,11.9,5.3,11.9,11.9c0,6.6-5.3,11.9-11.9,11.9
				C51.8,186.8,46.5,181.5,46.5,174.9z"/>
			<path class="st1" d="M53.9,174.9c0-2.5,2-4.5,4.5-4.5c2.5,0,4.5,2,4.5,4.5c0,2.5-2,4.5-4.5,4.5C55.9,179.4,53.9,177.4,53.9,174.9
				z"/>
		</g>
		<g>
			<path class="st38" d="M57.6,0C25.8,0,0,25.8,0,57.6c0,47.5,57.6,94.1,57.6,94.1s57.6-46.6,57.6-94.1C115.1,25.8,89.4,0,57.6,0z"
				/>
			<g>
				<g>
					<rect x="29.1" y="78.7" class="st39" width="54.5" height="10.8"/>
					<rect x="53.9" y="48.3" class="st39" width="5" height="10.8"/>
					<path class="st40" d="M93.6,97.4H19.1c-1.5,0-2.5-1.6-1.8-2.9l1.6-3.1c2-3.9,6.1-6.3,10.4-6.3h53.9c4.4,0,8.4,2.4,10.4,6.3
						l1.6,3.1C96.1,95.8,95.1,97.4,93.6,97.4z"/>
					<path class="st41" d="M26.5,83.6c0-16.5,13.4-29.8,29.8-29.8c16.5,0,29.8,13.4,29.8,29.8H26.5z"/>
					<path class="st41" d="M50.7,52.7c0-3.1,2.5-5.7,5.7-5.7c3.1,0,5.7,2.5,5.7,5.7H50.7z"/>
				</g>
				<g>
					<path class="st42" d="M63.8,32.6c-0.9,2.9-5.8,3.9-10.9,2.3c-5.1-1.6-8.6-5.3-7.7-8.1c0.9-2.9,5.8-3.9,10.9-2.3
						C61.3,26.1,64.7,29.8,63.8,32.6z"/>
					<path class="st43" d="M46.4,18.6c-7.7-6.6-19.4-5.7-26,2.1c-6.6,7.7-5.7,19.4,2.1,26c7.7,6.6,19.4,5.7,26-2.1
						C55.1,36.8,54.1,25.2,46.4,18.6z M41.3,31.9c-1.9-1.6-2.1-4.4-0.5-6.3c1.6-1.9,4.4-2.1,6.3-0.5c1.9,1.6,2.1,4.4,0.5,6.3
						C46,33.2,43.2,33.5,41.3,31.9z"/>
					<path class="st41" d="M97.2,53.9L79.8,39.1c1.2-4.5-0.2-9.4-3.9-12.6c-5.2-4.4-13-3.8-17.4,1.4c-4.4,5.2-3.8,13,1.4,17.4
						c3.8,3.2,8.9,3.7,13.1,1.9l1.5,1.3l0-0.1L79,48l0.3,3.2l3.2-0.3l0.2,3l3.4-0.3l0.3,3.8l2.6-0.2l0.2,3l3.5-0.3l0.2,3.1
						c1.8,0.3,3.7-0.3,4.9-1.8C99.7,59.2,99.5,55.8,97.2,53.9z M61.7,35.1c-1.4-1.2-1.6-3.4-0.4-4.8c1.2-1.4,3.4-1.6,4.8-0.4
						c1.4,1.2,1.6,3.4,0.4,4.8C65.3,36.2,63.2,36.4,61.7,35.1z"/>
					<path class="st44" d="M95.6,58.3L78.5,43.7c-0.5-0.4-0.5-1.1-0.1-1.6l0,0c0.4-0.5,1.1-0.5,1.6-0.1L97,56.6
						c0.5,0.4,0.5,1.1,0.1,1.6l0,0C96.8,58.7,96.1,58.7,95.6,58.3z"/>
					<path class="st42" d="M63.8,32.6c-0.9,2.9-5.8,3.9-10.9,2.3c-5.1-1.6-8.6-5.3-7.7-8.1"/>
					<text transform="matrix(0.4296 0.903 -0.903 0.4296 24.0774 24.313)" class="st37 st45 st46">234</text>
				</g>
			</g>
		</g>
	</g>
</g>
</svg>
