<svg width="20" height="16" viewBox="0 0 20 16" fill="none" xmlns="http://www.w3.org/2000/svg">
<path d="M18.586 7.20307H14.6013C14.39 7.20307 14.1873 7.28703 14.0378 7.43649C13.8884 7.58594 13.8044 7.78864 13.8044 8V15.1724C13.8044 15.3837 13.8884 15.5864 14.0378 15.7359C14.1873 15.8853 14.39 15.9693 14.6013 15.9693H18.586C18.7973 15.9693 19 15.8853 19.1495 15.7359C19.2989 15.5864 19.3829 15.3837 19.3829 15.1724V8C19.3829 7.78864 19.2989 7.58594 19.1495 7.43649C19 7.28703 18.7973 7.20307 18.586 7.20307ZM18.586 14.3754H14.6013V8.79693H18.586V14.3754ZM16.1952 0.0307007H1.85045C0.965859 0.0307007 0.256592 0.739968 0.256592 1.62456V11.1877C0.256592 11.6104 0.424516 12.0158 0.723423 12.3147C1.02233 12.6137 1.42773 12.7816 1.85045 12.7816H7.42896V14.3754H5.8351V15.9693H12.2105V14.3754H10.6167V12.7816H12.2105V11.1877H1.85045V1.62456H16.1952V5.60921H17.789V1.62456C17.789 0.739968 17.0718 0.0307007 16.1952 0.0307007Z" fill="#FFF9B0"/>
</svg>
