<svg width="20" height="16" viewBox="0 0 20 16" fill="none" xmlns="http://www.w3.org/2000/svg">
<path d="M18.9988 7.20313H15.0142C14.8028 7.20313 14.6001 7.28709 14.4507 7.43655C14.3012 7.586 14.2172 7.7887 14.2172 8.00006V15.1724C14.2172 15.3838 14.3012 15.5865 14.4507 15.7359C14.6001 15.8854 14.8028 15.9694 15.0142 15.9694H18.9988C19.2102 15.9694 19.4129 15.8854 19.5623 15.7359C19.7118 15.5865 19.7958 15.3838 19.7958 15.1724V8.00006C19.7958 7.7887 19.7118 7.586 19.5623 7.43655C19.4129 7.28709 19.2102 7.20313 18.9988 7.20313ZM18.9988 14.3755H15.0142V8.79699H18.9988V14.3755ZM16.608 0.0307617H2.26329C1.3787 0.0307617 0.669434 0.740029 0.669434 1.62462V11.1878C0.669434 11.6105 0.837358 12.0159 1.13626 12.3148C1.43517 12.6137 1.84058 12.7816 2.26329 12.7816H7.8418V14.3755H6.24794V15.9694H12.6234V14.3755H11.0295V12.7816H12.6234V11.1878H2.26329V1.62462H16.608V5.60927H18.2019V1.62462C18.2019 0.740029 17.4847 0.0307617 16.608 0.0307617Z" fill="#535145"/>
</svg>
