<svg width="23" height="24" viewBox="0 0 23 24" fill="none" xmlns="http://www.w3.org/2000/svg">
<path d="M11.4901 0.754883C5.28608 0.754883 0.259033 5.91337 0.259033 12.2701C0.259033 18.6268 3.47076 21.6731 7.93924 23.1963C8.4978 23.2979 8.69728 22.9526 8.69728 22.648C8.69728 22.3433 8.69728 21.6528 8.69728 20.6983C5.56536 21.3888 4.90705 19.1548 4.90705 19.1548C4.38839 17.8144 3.65029 17.4692 3.65029 17.4692C2.63291 16.7584 3.73009 16.7787 3.73009 16.7787C4.86716 16.8599 5.44567 17.9566 5.44567 17.9566C6.44309 19.7235 8.07888 19.2158 8.71723 18.9111C8.81698 18.1597 9.11621 17.652 9.43538 17.3676C6.94181 17.0833 4.3086 16.0882 4.3086 11.6811C4.3086 7.27407 4.74747 9.3862 5.46561 8.59415C5.34592 8.30983 4.9669 7.13191 5.56536 5.54781C5.56536 5.54781 6.50294 5.24317 8.65739 6.72573C9.55507 6.46171 10.5126 6.33986 11.4701 6.33986C12.4277 6.33986 13.3852 6.46171 14.2829 6.72573C16.4373 5.24317 17.3749 5.54781 17.3749 5.54781C17.9933 7.13191 17.5944 8.30983 17.4946 8.59415C18.2128 9.40651 18.6516 10.422 18.6516 11.6811C18.6516 16.1085 16.0184 17.0833 13.5248 17.3676C13.9238 17.7332 14.2829 18.4237 14.2829 19.5001C14.2829 21.0436 14.2829 22.2824 14.2829 22.6683C14.2829 23.0542 14.4824 23.3385 15.0609 23.2166C19.5294 21.6935 22.7411 17.3676 22.7411 12.2904C22.7411 7.21314 17.714 0.754883 11.4901 0.754883Z" fill="#2C2100"/>
</svg>
