<svg width="96" height="153" viewBox="0 0 96 153" fill="none" xmlns="http://www.w3.org/2000/svg">
<path d="M38.4367 143.08C38.4367 137.605 42.889 133.169 48.3835 133.169C53.8781 133.169 58.3304 137.605 58.3304 143.08C58.3304 148.555 53.8781 153 48.3835 153C42.889 153 38.4367 148.564 38.4367 143.08Z" fill="#F9EFAC"/>
<path d="M44.6149 143.08C44.6149 141.003 46.3074 139.325 48.3835 139.325C50.4596 139.325 52.1522 141.012 52.1522 143.08C52.1522 145.149 50.4596 146.835 48.3835 146.835C46.3074 146.835 44.6149 145.149 44.6149 143.08Z" fill="#C3B463"/>
<path d="M48 0C21.4862 0 0 21.418 0 47.8291C0 87.3087 48 126.024 48 126.024C48 126.024 96 87.3087 96 47.8291C96 21.418 74.5138 0 48 0Z" fill="#CE5051"/>
<path d="M45.8648 80.4581L45.5995 80.5576L46.774 83.6679L47.0393 83.5684L45.8648 80.4581Z" fill="#BBBEC1"/>
<path d="M46.888 80.4611L46.6201 80.5535L47.6999 83.6625L47.9678 83.5701L46.888 80.4611Z" fill="#BBBEC1"/>
<path d="M47.693 80.4658L47.4236 80.5536L48.4441 83.6649L48.7136 83.5772L47.693 80.4658Z" fill="#BBBEC1"/>
<path d="M52.3524 80.4545L51.1779 83.5648L51.4432 83.6643L52.6177 80.554L52.3524 80.4545Z" fill="#BBBEC1"/>
<path d="M51.3391 80.4595L50.2593 83.5685L50.5271 83.6609L51.607 80.5519L51.3391 80.4595Z" fill="#BBBEC1"/>
<path d="M50.5264 80.4523L49.5069 83.564L49.7764 83.6517L50.7959 80.5399L50.5264 80.4523Z" fill="#BBBEC1"/>
<path d="M47.0829 83.7612V83.0799C47.0829 82.4402 47.6081 81.9168 48.2501 81.9168H49.9927C50.6347 81.9168 51.16 82.4402 51.16 83.0799V83.7612H47.0829ZM47.3663 83.4704H50.8598V83.0799C50.8598 82.5981 50.468 82.2076 49.9844 82.2076H48.2418C47.7582 82.2076 47.3663 82.5981 47.3663 83.0799V83.4704Z" fill="#324352"/>
<path d="M50.0177 80.3466H48.2084V82.6895H50.0177V80.3466Z" fill="#0D131D"/>
<path d="M53.1944 88.1561H45.0318L46.0323 83.4787H52.1855L53.1944 88.1561ZM52.8442 87.8653L51.9604 83.7529H46.2658L45.382 87.8653H52.8442Z" fill="#BBBEC1"/>
<path d="M50.2762 88.1561H47.9666L48.2251 83.4787H50.0177L50.2762 88.1561ZM48.2585 87.8653H49.9677L49.7426 83.7529H48.4919L48.2668 87.8653H48.2585Z" fill="#BBBEC1"/>
<path d="M42.5805 73.9162H41.5717C43.2309 75.8021 44.5816 78.5105 45.2069 79.898H45.7322C45.1819 78.5105 44.0229 75.8021 42.5805 73.9162Z" fill="#5B7E95"/>
<path d="M45.2069 79.898C45.457 80.4463 45.5987 80.7952 45.5987 80.7952H46.074C46.074 80.7952 45.9573 80.4463 45.7405 79.898H45.2069Z" fill="#152B46"/>
<path d="M41.4883 72.7199C39.8291 71.266 36.1188 66.9292 33.7426 64.0962C32.9755 63.2903 32.2585 62.4263 31.5998 61.5124C28.3147 56.9679 26.3387 51.1274 26.3387 44.7552C26.3387 30.2826 36.5357 18.5517 49.1172 18.5517C34.593 18.5517 22.8202 30.2826 22.8202 44.7552C22.8202 51.1274 25.1047 56.9679 28.8984 61.5124C29.6655 62.4263 30.4909 63.2903 31.3747 64.0962C34.1178 66.9292 38.395 71.266 40.3127 72.7199C40.7462 73.0522 41.1631 73.4593 41.5717 73.9162H42.5805C42.2303 73.4593 41.8718 73.0522 41.4966 72.7199H41.4883Z" fill="#E9C960"/>
<path d="M52.1688 80.7952H52.6441C52.6441 80.7952 52.7858 80.4463 53.036 79.898H52.5107C52.2939 80.4463 52.1772 80.7952 52.1772 80.7952H52.1688Z" fill="#152B46"/>
<path d="M52.5023 79.898H53.0276C53.6613 78.5105 55.0036 75.8021 56.6628 73.9162H55.654C54.2116 75.8021 53.0526 78.5105 52.5023 79.898Z" fill="#5B7E95"/>
<path d="M49.1172 18.5517C61.6988 18.5517 71.8958 30.2826 71.8958 44.7552C71.8958 52.4151 69.0443 59.3025 64.4919 64.0962C62.1157 66.9292 58.4138 71.266 56.7462 72.7199C56.371 73.0522 56.0042 73.4593 55.6623 73.9162H56.6712C57.0714 73.4593 57.4966 73.0522 57.9302 72.7199C59.8478 71.266 64.1334 66.9292 66.8682 64.0962C72.1209 59.3025 75.4226 52.4151 75.4226 44.7552C75.4226 30.2826 63.6498 18.5517 49.1256 18.5517H49.1172Z" fill="#E9C960"/>
<path d="M64.3835 44.7635C64.3835 52.4234 62.4659 59.3108 59.4226 64.1045C57.8301 66.9375 55.3455 71.2743 54.2366 72.7282C53.9865 73.0605 53.7447 73.4676 53.5112 73.9245H55.6707C56.0208 73.4676 56.3794 73.0605 56.7546 72.7282C58.4138 71.2743 62.124 66.9375 64.5003 64.1045C69.0526 59.3108 71.9041 52.4234 71.9041 44.7635C71.9041 30.2909 61.7071 18.5601 49.1256 18.5601C57.555 18.5601 64.3919 30.2909 64.3919 44.7635H64.3835Z" fill="#AF4832"/>
<path d="M26.3387 44.7635C26.3387 51.1357 28.3147 56.9762 31.5998 61.5207C32.2668 62.4346 32.9838 63.2986 33.7426 64.1045C36.1188 66.9375 39.8291 71.2743 41.4883 72.7282C41.8635 73.0605 42.2303 73.4676 42.5722 73.9245H44.7316C44.4982 73.4676 44.2564 73.0605 44.0063 72.7282C42.8973 71.2743 40.4044 66.9375 38.8202 64.1045C38.3116 63.2986 37.828 62.4346 37.3861 61.5207C35.185 56.9762 33.8593 51.1357 33.8593 44.7635C33.8593 30.2909 40.6962 18.5601 49.1256 18.5601C36.544 18.5601 26.3471 30.2909 26.3471 44.7635H26.3387Z" fill="#AF4832"/>
<path d="M42.5805 73.9162C44.0229 75.8021 45.1819 78.5105 45.7322 79.898H46.8494C46.4825 78.5105 45.6988 75.8021 44.74 73.9162H42.5805Z" fill="#5B7E95"/>
<path d="M51.3851 79.898H52.5023C53.0526 78.5105 54.2116 75.8021 55.654 73.9162H53.4945C52.5274 75.8021 51.752 78.5105 51.3851 79.898Z" fill="#5B7E95"/>
<path d="M51.3851 79.898C51.2434 80.4463 51.16 80.7952 51.16 80.7952H52.1688C52.1688 80.7952 52.2856 80.4463 52.5023 79.898H51.3851Z" fill="#152B46"/>
<path d="M45.7238 79.898C45.9406 80.4463 46.0573 80.7952 46.0573 80.7952H47.0662C47.0662 80.7952 46.9828 80.4463 46.8411 79.898H45.7238Z" fill="#152B46"/>
<path d="M55.3955 44.7635C55.3955 52.4234 54.6118 59.3108 53.3528 64.1045C52.6941 66.9375 51.6769 71.2743 51.2183 72.7282C51.1183 73.0605 51.0182 73.4676 50.9182 73.9245H53.4945C53.728 73.4676 53.9698 73.0605 54.2199 72.7282C55.3288 71.2743 57.8218 66.9375 59.4059 64.1045C62.4575 59.3108 64.3669 52.4234 64.3669 44.7635C64.3669 30.2909 57.53 18.5601 49.1006 18.5601C52.569 18.5601 55.3788 30.2909 55.3788 44.7635H55.3955Z" fill="#EBCD69"/>
<path d="M50.9182 73.9162C50.518 75.8021 50.2011 78.5105 50.0511 79.898H51.3851C51.752 78.5105 52.5357 75.8021 53.4945 73.9162H50.9182Z" fill="#5B7E95"/>
<path d="M44.7316 73.9162C45.6988 75.8021 46.4742 78.5105 46.8411 79.898H48.1751C48.025 78.5105 47.6998 75.8021 47.308 73.9162H44.7316Z" fill="#5B7E95"/>
<path d="M46.8411 79.898C46.9828 80.4463 47.0662 80.7952 47.0662 80.7952H48.2668C48.2668 80.7952 48.2335 80.4463 48.1751 79.898H46.8411Z" fill="#152B46"/>
<path d="M50.0511 79.898C49.9927 80.4463 49.9594 80.7952 49.9594 80.7952H51.16C51.16 80.7952 51.2434 80.4463 51.3851 79.898H50.0511Z" fill="#152B46"/>
<path d="M33.851 44.7635C33.851 51.1357 35.1767 56.9762 37.3778 61.5207C37.8197 62.4346 38.3033 63.2986 38.8119 64.1045C40.4044 66.9375 42.889 71.2743 43.9979 72.7282C44.248 73.0605 44.4898 73.4676 44.7233 73.9245H47.2996C47.1996 73.4676 47.0995 73.0605 46.9995 72.7282C46.5409 71.2743 45.5154 66.9375 44.865 64.1045C44.6566 63.2986 44.4565 62.4346 44.2731 61.5207C43.3643 56.9762 42.8223 51.1357 42.8223 44.7635C42.8223 30.2909 45.6321 18.5601 49.1006 18.5601C40.6712 18.5601 33.8343 30.2909 33.8343 44.7635H33.851Z" fill="#EBCD69"/>
<path d="M42.8306 44.7635C42.8306 51.1357 43.3726 56.9762 44.2814 61.5207C44.4648 62.4346 44.6649 63.2986 44.8734 64.1045C45.532 66.9375 46.5492 71.2743 47.0078 72.7282C47.1079 73.0605 47.2079 73.4676 47.308 73.9245H50.9182C51.0182 73.4676 51.1183 73.0605 51.2183 72.7282C51.6769 71.2743 52.7024 66.9375 53.3528 64.1045C54.6118 59.3108 55.3955 52.4234 55.3955 44.7635C55.3955 30.2909 52.5857 18.5601 49.1172 18.5601C45.6488 18.5601 42.839 30.2909 42.839 44.7635H42.8306Z" fill="#D45C40"/>
<path d="M48.1834 79.898C48.2418 80.4463 48.2751 80.7952 48.2751 80.7952H49.9594C49.9594 80.7952 49.9927 80.4463 50.0511 79.898H48.1834Z" fill="#152B46"/>
<path d="M47.308 73.9162C47.7082 75.8021 48.025 78.5105 48.1751 79.898H50.0427C50.1928 78.5105 50.518 75.8021 50.9099 73.9162H47.2996H47.308Z" fill="#5B7E95"/>
<path d="M52.8442 87.1508H45.3903C45.068 87.1508 44.8067 87.4112 44.8067 87.7324V93.2406C44.8067 93.5618 45.068 93.8222 45.3903 93.8222H52.8442C53.1665 93.8222 53.4278 93.5618 53.4278 93.2406V87.7324C53.4278 87.4112 53.1665 87.1508 52.8442 87.1508Z" fill="#152B46"/>
<path d="M25.7467 67.8597C25.2465 67.6437 24.6879 67.5938 24.1542 67.4941C21.4195 66.979 19.0349 64.9103 18.1344 62.285C17.9177 61.6453 17.7843 60.9225 18.0677 60.3077C18.6681 59.0366 20.569 59.1114 21.7947 59.8175C21.9865 59.9256 22.1782 60.0502 22.395 60.0834C23.3538 60.2329 23.6456 58.8538 24.2376 58.0978C24.913 57.2338 26.172 57.1424 27.2725 57.1258C28.2564 57.1091 29.2319 57.0925 30.2157 57.0759C31.0995 57.0593 32.075 57.0759 32.7087 57.6907C33.1673 58.131 33.3424 58.779 33.6342 59.3357C33.926 59.9006 34.4846 60.4407 35.11 60.3326C35.4685 60.2662 35.7603 60.0003 36.0521 59.7843C38.0532 58.2972 41.3299 59.0864 42.4304 61.313C42.814 62.0856 42.8056 63.2487 41.9969 63.5561C41.7467 63.6558 41.4716 63.6392 41.2131 63.6974C39.4122 64.0546 39.3872 66.8212 37.8531 67.8348C37.3111 68.192 36.6357 68.2834 35.9937 68.2419C35.3351 68.2086 34.6931 68.0425 34.0928 67.7683C33.6592 67.5689 33.1923 67.2947 32.7254 67.4027C32.4085 67.4692 32.1584 67.7018 31.9083 67.9012C30.7077 68.9065 29.0318 69.6459 27.606 69.0145C26.939 68.7154 26.4138 68.1505 25.7384 67.868L25.7467 67.8597Z" fill="#ECEFF1"/>
</svg>
