<svg width="98" height="157" viewBox="0 0 98 157" fill="none" xmlns="http://www.w3.org/2000/svg">
<path d="M39.3736 146.793C39.3736 141.159 43.9187 136.594 49.5277 136.594C55.1367 136.594 59.6818 141.159 59.6818 146.793C59.6818 152.426 55.1367 157 49.5277 157C43.9187 157 39.3736 152.435 39.3736 146.793Z" fill="#F9EFAC"/>
<path d="M45.6891 146.793C45.6891 144.655 47.4169 142.929 49.5362 142.929C51.6556 142.929 53.3834 144.664 53.3834 146.793C53.3834 148.921 51.6556 150.657 49.5362 150.657C47.4169 150.657 45.6891 148.921 45.6891 146.793Z" fill="#C3B463"/>
<path d="M49 0C21.9338 0 0 22.039 0 49.2158C0 89.8401 49 129.678 49 129.678C49 129.678 98 89.8401 98 49.2158C98 22.039 76.0662 0 49 0Z" fill="#EAA947"/>
<path d="M68.0144 71.9131C67.691 70.9214 66.7803 70.2461 65.7419 70.2461H30.8623C29.8239 70.2461 28.9131 70.9214 28.5897 71.9131C26.0278 79.8465 25.7384 88.4039 27.7216 96.474H68.8826C70.8657 88.4039 70.5763 79.8465 68.0144 71.9131Z" fill="#AB281B"/>
<path d="M27.7216 96.474C27.9769 97.4999 28.2663 98.5257 28.5897 99.5345C28.9131 100.526 29.8239 101.202 30.8623 101.202H65.7419C66.7803 101.202 67.691 100.526 68.0144 99.5345C68.3379 98.5257 68.6272 97.4999 68.8826 96.474H27.7216Z" fill="#911E15"/>
<path d="M68.6443 83.4541C68.4059 82.6932 67.2484 82.5906 66.925 81.8554C66.6866 81.3083 67.0186 80.6415 66.8058 80.0858C66.6271 79.6071 66.0653 79.3506 65.5546 79.3848C65.0439 79.419 64.5758 79.6926 64.1673 80.0003C64.0311 80.1029 63.8864 80.2312 63.8524 80.4021C63.7843 80.7783 64.2694 81.0091 64.4056 81.3681C64.6099 81.9153 63.929 82.3855 63.3587 82.471C62.7884 82.5564 62.099 82.5564 61.7671 83.0352C61.4947 83.4284 61.6139 83.967 61.7841 84.4115C61.9543 84.8646 62.1586 85.3348 62.0309 85.7965C61.9032 86.2581 61.2479 86.5744 60.9415 86.1983C60.7542 85.9674 60.8138 85.6426 60.8308 85.3434C60.8904 84.0268 59.6903 82.7958 58.3795 82.83C59.1456 82.1461 59.3328 80.898 58.8051 80.0174C58.337 79.2395 57.3156 78.8035 56.4645 79.1198C55.6133 79.4361 55.1112 80.5304 55.5197 81.3425C55.7836 81.864 56.3538 82.4111 56.0474 82.8984C55.7495 83.3686 55.0346 83.1292 54.4813 83.1634C53.7749 83.2147 53.2046 83.8388 53.0004 84.5227C52.7876 85.2066 52.8642 85.9418 52.9323 86.6514H44.8209L43.0931 85.0271H27.5769C27.5598 86.3949 27.5939 87.7712 27.7045 89.1305H68.8741C68.9677 87.908 69.0102 86.6855 69.0017 85.4545C68.7804 85.0698 68.6528 84.6338 68.6613 84.1893C68.6613 83.9243 68.7123 83.6592 68.6357 83.4113L68.6443 83.4541Z" fill="#43495A"/>
<path d="M65.7419 71.4087H30.8623C30.326 71.4087 29.8579 71.7592 29.6877 72.2722C28.3514 76.4013 27.6535 80.727 27.5939 85.0698H43.1101L44.8379 86.6941H52.9493C52.8812 85.9845 52.8046 85.2493 53.0174 84.5654C53.2302 83.8815 53.7919 83.2575 54.4983 83.2062C55.0516 83.1634 55.7665 83.4113 56.0644 82.9411C56.3709 82.4539 55.8006 81.9067 55.5367 81.3852C55.1282 80.5731 55.6304 79.4703 56.4815 79.1625C57.3326 78.8462 58.354 79.2822 58.8221 80.0602C59.3498 80.9407 59.1626 82.1888 58.3966 82.8728C59.7073 82.8386 60.9074 84.0696 60.8478 85.3861C60.8308 85.6768 60.7798 86.0102 60.9585 86.241C61.2564 86.6086 61.9203 86.3008 62.0479 85.8392C62.1756 85.3776 61.9628 84.8988 61.8011 84.4543C61.6309 84.0012 61.5117 83.4712 61.7841 83.0779C62.116 82.5992 62.7969 82.5992 63.3757 82.5137C63.946 82.4282 64.6269 81.958 64.4226 81.4109C64.2864 81.0518 63.8013 80.821 63.8694 80.4449C63.9034 80.2739 64.0481 80.1457 64.1843 80.0431C64.5928 79.7353 65.061 79.4618 65.5717 79.4276C66.0823 79.3934 66.6441 79.6498 66.8228 80.1286C67.0356 80.6842 66.7037 81.3511 66.942 81.8982C67.2654 82.6334 68.423 82.7274 68.6613 83.4968C68.7379 83.7447 68.6953 84.0183 68.6868 84.2748C68.6868 84.7193 68.806 85.1553 69.0273 85.54C69.0017 81.0604 68.3038 76.5808 66.925 72.3149C66.7547 71.7934 66.2866 71.4515 65.7504 71.4515L65.7419 71.4087Z" fill="#646F7E"/>
<path d="M48.7702 89.1647C48.4553 89.1647 48.1489 89.1647 47.8339 89.1647C47.4424 83.2489 47.4424 77.316 47.8339 71.4087H48.7702C49.1617 77.3245 49.1617 83.2575 48.7702 89.1647Z" fill="#212224"/>
<path d="M30.8623 71.4087C30.326 71.4087 29.8579 71.7592 29.6877 72.2722C29.3983 73.1612 29.143 74.0674 28.9132 74.9821H47.6552C47.6978 73.7939 47.7573 72.597 47.8339 71.4087H30.8623Z" fill="#C3BCD9"/>
<path d="M29.8154 74.2811C29.9856 73.6656 30.1643 73.0586 30.3516 72.4859C30.4282 72.2551 30.6324 72.1012 30.8708 72.1012H47.1105C47.0679 72.8193 47.0339 73.5545 46.9998 74.2811H29.8154Z" fill="#2E2E30"/>
<path d="M67.691 74.9821C67.4612 74.076 67.2058 73.1698 66.9165 72.2722C66.7462 71.7507 66.2781 71.4087 65.7419 71.4087H48.7702C48.8468 72.597 48.9064 73.7939 48.9489 74.9821H67.691Z" fill="#C3BCD9"/>
<path d="M49.6128 74.2811C49.5788 73.5545 49.5447 72.8193 49.5022 72.1012H65.7419C65.9802 72.1012 66.1845 72.2551 66.2611 72.4859C66.4483 73.0586 66.6271 73.6656 66.7973 74.2811H49.6128Z" fill="#2E2E30"/>
<path d="M37.6543 60.4063C33.8583 55.807 34.071 49.1987 35.535 43.471C36.8798 38.222 39.1183 33.1098 39.6375 27.7496H35.7648C36.0712 34.0758 32.0794 40.0857 30.5303 46.3776C29.1515 51.9857 29.7643 58.0297 32.2496 63.2702C33.0667 64.9885 34.1051 66.741 34.0796 68.6218H61.4777C58.5753 67.006 55.0686 66.8693 51.7322 66.4931C46.4891 65.9032 40.9482 64.3986 37.6458 60.3978L37.6543 60.4063Z" fill="#66696C"/>
<path d="M39.3821 27.7924C38.9736 27.0059 37.8671 26.946 37.016 27.194C36.5564 27.3307 36.0712 27.5616 35.8669 27.9976C35.5946 28.5789 35.918 29.2884 35.7052 29.8869C35.3222 30.0065 34.9137 29.733 34.7349 29.3739C34.5562 29.0149 34.5477 28.6045 34.5477 28.2027C34.5477 26.7922 34.5392 25.373 34.5307 23.9625C34.5307 23.1589 34.5817 22.2356 35.2286 21.7654C35.5095 21.5603 35.8669 21.4833 36.2074 21.4235C38.8629 20.9533 41.5866 21.2183 44.2847 21.1328C44.9145 21.1157 45.5784 21.0815 46.1487 21.3551C46.719 21.6286 47.1275 22.3467 46.8466 22.911C46.5402 23.535 45.6976 23.5863 45.0082 23.6034C44.3187 23.6205 43.6293 23.6804 42.9399 23.8001C42.7016 23.8428 42.4548 23.8855 42.259 24.0309C42.0632 24.1762 41.9356 24.3985 41.8334 24.6207C41.1695 25.9886 40.8801 27.5359 41.0078 29.0491C41.0334 29.3825 41.0589 29.7843 40.8121 29.998C40.5397 30.2288 40.0971 30.1006 39.8758 29.827C39.6545 29.5449 39.6034 29.1773 39.5779 28.8182C39.5524 28.4592 39.5353 28.0916 39.3736 27.7753L39.3821 27.7924Z" fill="#30363A"/>
<path d="M14.4268 15.3538C14.1885 15.5247 13.9587 15.7043 13.7203 15.8838L97.0212 38.2733C96.9105 37.9997 96.7914 37.7262 96.6722 37.4612L14.4268 15.3538Z" fill="#30363A"/>
</svg>
