<svg width="101" height="164" viewBox="0 0 101 164" fill="none" xmlns="http://www.w3.org/2000/svg">
<path d="M39.4174 152.648C39.4174 146.382 44.5017 141.305 50.7761 141.305C57.0505 141.305 62.1348 146.382 62.1348 152.648C62.1348 158.913 57.0505 164 50.7761 164C44.5017 164 39.4174 158.923 39.4174 152.648Z" fill="#F9EFAC"/>
<path d="M46.4726 152.648C46.4726 150.271 48.4054 148.35 50.7761 148.35C53.1469 148.35 55.0797 150.28 55.0797 152.648C55.0797 155.015 53.1469 156.945 50.7761 156.945C48.4054 156.945 46.4726 155.015 46.4726 152.648Z" fill="#C3B463"/>
<path d="M50.5 0C22.6126 0 0 22.581 0 50.4294C0 92.0545 50.5 132.881 50.5 132.881C50.5 132.881 101 92.0545 101 50.4294C101 22.581 78.3969 0 50.5 0Z" fill="#4F7398"/>
<path d="M42.2357 85.6462L30.7913 100.117L11.73 48.3376L23.1744 33.8668L42.2357 85.6462Z" fill="#E5E5E5"/>
<path d="M59.2594 86.6636L42.0167 85.7033L22.9649 33.9143L40.1982 34.8746L59.2594 86.6636Z" fill="#C1C1C1"/>
<path d="M55.6865 29.2142L40.1993 34.8983L59.2593 86.6851L74.7465 81.0011L55.6865 29.2142Z" fill="#E5E5E5"/>
<path d="M87.6609 68.9505L74.7503 80.9874L55.689 29.208L68.5996 17.1616L87.6609 68.9505Z" fill="#C1C1C1"/>
<path d="M40.8932 82.0048L31.5625 93.8134L15.1767 49.3074L24.5074 37.4988L40.8932 82.0048Z" fill="#55A8DC"/>
<path d="M57.917 83.0221L40.6837 82.0618L24.2979 37.5558L41.5406 38.5161L57.917 83.0221Z" fill="#478DB9"/>
<path d="M57.0233 32.8464L41.5361 38.5305L57.9192 83.0441L73.4064 77.36L57.0233 32.8464Z" fill="#55A8DC"/>
<path d="M83.6049 67.8476L73.4078 77.3554L57.0315 32.8494L67.2191 23.3321L83.6049 67.8476Z" fill="#478DB9"/>
<path d="M24.5835 60.8689C22.8507 61.4204 21.7653 63.3885 21.0893 65.3756L31.5625 93.8229L40.8932 82.0143L30.9722 55.0501C29.4298 58.0071 26.9638 60.1083 24.5835 60.8689Z" fill="#87B95D"/>
<path d="M47.5008 64.7766C38.5796 61.8577 46.0917 57.7123 45.0254 52.8158C43.959 47.9098 34.5617 48.5278 33.6381 52.464C33.2953 53.9377 32.229 54.7744 30.7627 55.0977L40.6837 82.0618L57.9265 83.0221L51.6425 65.9556C50.3857 65.6418 49.0052 65.271 47.5104 64.7766H47.5008Z" fill="#5C823B"/>
<path d="M66.4669 61.4109C62.5823 63.8258 69.666 72.6206 66.943 74.4461C64.2199 76.2716 61.0018 75.4729 60.5448 69.1977C60.1639 63.978 57.2695 65.2805 51.6425 65.9651L57.9265 83.0316L73.4078 77.3459L67.3048 60.7643C67.0667 60.983 66.7906 61.2017 66.4574 61.4014L66.4669 61.4109Z" fill="#87B95D"/>
<path d="M65.4958 51.3231C67.3524 53.7095 69.4185 57.0468 67.3048 60.7738L73.4078 77.3554L83.6049 67.8476L72.132 36.6716C62.9917 36.8807 63.6106 48.8891 65.5053 51.3231H65.4958Z" fill="#5C823B"/>
<path d="M31.0293 71.7839C31.2673 72.4304 31.096 73.4097 30.658 73.9707C30.2105 74.5316 29.6583 74.4651 29.4202 73.8185C29.1822 73.172 29.3536 72.1927 29.7916 71.6317C30.2391 71.0708 30.7913 71.1373 31.0293 71.7839Z" fill="#4D4D4D"/>
<path d="M49.7574 68.8935C49.9954 69.54 49.6431 70.0249 48.9766 69.9964C48.3101 69.9584 47.577 69.4069 47.339 68.7604C47.101 68.1139 47.4532 67.629 48.1197 67.6575C48.7862 67.6955 49.5193 68.247 49.7574 68.8935Z" fill="#292929"/>
<path d="M72.608 62.8656C72.7794 63.3314 72.6271 63.978 72.2653 64.3203C71.9035 64.6625 71.4655 64.5579 71.3036 64.0921C71.1323 63.6262 71.2846 62.9796 71.6464 62.6374C72.0082 62.2951 72.4367 62.3997 72.608 62.8656Z" fill="#292929"/>
<path d="M69.1233 45.0099C69.3042 45.4948 69.1423 46.1699 68.7615 46.5312C68.3807 46.8829 67.9332 46.7784 67.7523 46.2935C67.5714 45.8086 67.7332 45.124 68.1141 44.7722C68.4949 44.4204 68.9424 44.525 69.1233 45.0099Z" fill="#292929"/>
<path d="M39.6078 53.7951C39.8459 54.4417 39.4936 54.9265 38.8271 54.898C38.1606 54.86 37.4275 54.3085 37.1895 53.662C36.9515 53.0155 37.3037 52.5306 37.9702 52.5591C38.6367 52.5971 39.3793 53.1486 39.6078 53.7951Z" fill="#292929"/>
</svg>
