<svg width="120" height="70" viewBox="0 0 120 70" fill="none" xmlns="http://www.w3.org/2000/svg">
<path opacity="0.15" d="M22.9201 56.9611L1.08093 66.6068L39.9788 66.2853L22.9201 56.9611Z" fill="black"/>
<path opacity="0.15" d="M95.0507 56.9611L77.9863 66.2853L116.884 66.6068L95.0507 56.9611Z" fill="black"/>
<path opacity="0.15" d="M58.8583 58.7984L39.9788 66.2853H77.9864L58.8583 58.7984Z" fill="black"/>
<path opacity="0.15" d="M22.9201 56.9611L1.08093 66.6068L22.4692 61.1926L39.9788 66.2853L22.9201 56.9611Z" fill="black"/>
<path opacity="0.15" d="M95.0507 56.9611L77.9863 66.2853L96.2358 61.3304L116.884 66.6068L95.0507 56.9611Z" fill="black"/>
<path opacity="0.15" d="M58.8583 58.7984L39.9788 66.2853L58.9855 62.5418L77.9864 66.2853L58.8583 58.7984Z" fill="black"/>
<path d="M85.6341 12.3958L72.6739 15.8522L58.9854 13.0733L45.2911 15.8522L32.3309 12.3958L17.9083 15.8522L2.08093 65.6594L22.4403 59.0854L40.0134 65.6594L58.9854 60.3601L77.9516 65.6594L95.5247 59.0854L115.884 65.6594L100.057 15.8522L85.6341 12.3958Z" fill="#22B2F2"/>
<mask id="mask0_17_1859" style="mask-type:luminance" maskUnits="userSpaceOnUse" x="2" y="12" width="114" height="54">
<path d="M85.6341 12.3958L72.6739 15.8522L58.9854 13.0733L45.2911 15.8522L32.3309 12.3958L17.9083 15.8522L2.08093 65.6594L22.4403 59.0854L40.0134 65.6594L58.9854 60.3601L77.9516 65.6594L95.5247 59.0854L115.884 65.6594L100.057 15.8522L85.6341 12.3958Z" fill="white"/>
</mask>
<g mask="url(#mask0_17_1859)">
<path d="M120 70L101.67 12.5681H18.4632L0.0172119 70H120Z" fill="white"/>
<path d="M34.2906 19.986L29.7528 16.7076L27.7065 15.4962L26.1226 14.6005L22.5848 17.6837L30.7529 22.0185L34.2906 19.986Z" fill="#A9D667"/>
<path d="M20.0818 19.1707L15.9486 20.3535L13.0468 29.3905L17.0238 33.3636L20.8737 28.0987L28.1053 23.4768L20.0818 19.1707Z" fill="#A9D667"/>
<path d="M36.5508 27.9092L30.7817 24.5333L23.527 28.8164L21.3362 31.7503L19.9026 33.9378L23.186 31.0326L31.4292 37.4401L40.3024 31.4173L36.5508 27.9092Z" fill="#A9D667"/>
<path d="M37.0595 22.2424L36.1808 21.5247L32.8223 23.3562L37.3369 25.6184L39.8977 24.4586L37.0595 22.2424Z" fill="#A9D667"/>
<path d="M41.8747 26.0031L38.1 27.8289L40.944 30.8432L45.0367 28.4719L41.8747 26.0031Z" fill="#A9D667"/>
<path d="M75.5932 70C75.5758 69.8335 75.5643 69.6785 75.57 69.5292C75.6163 67.7034 83.0097 50.3986 83.0097 50.3986C85.0792 49.3479 86.0214 49.279 86.0214 49.279C87.351 49.1757 88.8944 49.6522 90.4494 49.1125C91.9986 48.5786 91.2066 47.0169 90.1488 46.5633C89.0967 46.1097 88.7152 43.5203 88.7152 43.5203C88.7152 43.5203 90.3164 41.9012 92.4032 41.7634C94.4843 41.6199 96.3745 40.3166 96.3745 40.3166L99.5076 38.9386C99.5076 38.9386 101.901 37.354 105.086 35.3445C106.681 34.3397 107.861 34.0067 108.647 33.9149L108.294 32.8068C107.624 32.6747 107.543 32.7838 107.543 32.7838L103.097 35.0919L96.3456 38.9272C95.8138 39.0937 93.7212 38.7377 93.7212 38.7377C91.3396 38.2095 89.6921 37.2047 88.536 36.8889C87.3799 36.5732 85.2237 37.6755 84.4953 38.9099C83.7554 40.1673 83.2698 41.9644 82.6976 42.4582C82.1195 42.9577 80.6281 45.9088 80.6281 45.9088C80.6281 45.9088 80.5992 48.9288 80.2639 49.991C79.9229 51.0646 77.6337 55.83 77.6337 55.83L73.2809 68.3235C73.2809 68.3235 73.1537 69.0182 72.9514 69.9943H75.5989L75.5932 70Z" fill="#3ECDFF"/>
<path d="M100.028 52.0349H95.0218L81.8536 48.7508H81.842L72.0381 46.6552L67.2748 43.7442L63.0319 41.04L49.5399 29.9647L49.5341 29.959L31.2673 15.611L31.2384 15.5938L25.4 12.5681H23.5964L30.4523 16.145L48.6728 30.5733L62.1763 41.7692L62.2052 41.7921L66.5234 44.5653L71.5352 47.6484L81.6281 49.8245L95.0623 53.1947H100.953L106.67 44.393L111.664 43.3538L111.323 42.2974L105.681 43.4629L100.028 52.0349Z" fill="#F7C537"/>
<path d="M20.9661 37.4401L20.9546 37.4286L12.4917 31.113L12.1276 32.2498L19.9719 38.1578L30.7123 48.0273L31.7354 47.2293L20.9661 37.4401Z" fill="#F7C537"/>
<path d="M24.0125 70L24.0588 69.7761L31.7817 47.8953L44.8922 38.7319L44.8979 38.7262L52.4995 33.0938L65.9279 24.8663L85.7959 12.5681H84.2004L65.1937 24.2462L51.7711 32.4106L51.748 32.4221L44.1233 38.0315L30.666 47.3614L22.6136 69.667L22.55 70H24.0125Z" fill="#F7C537"/>
<path d="M89.2758 12.5681H87.7612L100.849 19.5497L100.889 19.5669L104.508 21.0023L104.219 20.0951L101.357 18.9698L89.2758 12.5681Z" fill="#F7C537"/>
<path d="M57.1183 12.5681H55.9332L58.2513 15.2264L58.2802 15.2608L68.6795 22.673L69.4368 22.1276L59.1126 14.8302L57.1183 12.5681Z" fill="#F7C537"/>
<path d="M54.2221 17.9593L47.6611 13.1594L48.4357 12.6829L55.0025 17.4483L54.2221 17.9593Z" fill="#F7C537"/>
<path d="M59.7773 28.1217L52.037 21.9152L43.499 15.7029L44.291 15.1976L52.8463 21.3755L52.8521 21.3812L60.6097 27.5418L59.7773 28.1217Z" fill="#F7C537"/>
<path d="M50.7769 20.4798L50.1006 19.9114L58.5287 14.8991L59.2109 15.4273L50.7769 20.4798Z" fill="#F7C537"/>
<path d="M44.8286 26.9102L44.1176 26.3131L51.9156 21.2434L52.6324 21.8061L44.8286 26.9102Z" fill="#F7C537"/>
<path d="M72.431 47.2121L71.142 47.0857L72.4253 29.6776L72.5698 29.5685L92.6054 14.7039L93.4378 15.2148L73.5583 30.0967L72.431 47.2121Z" fill="#F7C537"/>
<path d="M71.4137 70L78.888 48.412L78.8996 48.3833L79.9517 42.9978L86.2699 35.1435L94.6113 37.5951L106.207 44.8007L106.219 44.8064L113.474 49.0034L113.017 47.5738L106.82 44.0141L95.1721 36.8258L95.0796 36.7683L85.6803 34.0297L78.8187 42.4581L78.7493 42.5385L77.6279 48.0446L69.8356 70H71.4137Z" fill="#F7C537"/>
<path d="M47.9039 12.5681L47.5397 12.7862L35.9149 19.8482L21.9027 28.2136L15.885 36.4641L8.98873 42.0161L8.43958 43.7328L16.833 36.9176L22.7697 28.6901L36.5623 20.3937L48.1987 13.28L49.3895 12.5681H47.9039Z" fill="#F7C537"/>
<path d="M37.1057 27.4557L19.8853 18.0971L25.5734 13.1537L26.3596 13.5039L21.3709 17.8732L37.2676 26.4452L41.7765 24.361L42.3141 25.0328L37.1057 27.4557Z" fill="#F7C537"/>
<path d="M25.082 70L46.0021 58.9304L63.0087 41.6543L62.0375 41.017L45.1639 57.9888L22.972 69.6325L23.1339 70H25.082Z" fill="#F7C537"/>
<path d="M56.5402 12.5681L56.702 12.7288L57.0604 12.5681H56.5402Z" fill="#F7C537"/>
<path d="M71.6508 12.5681L78.2118 16.7938L78.8939 16.2943L73.0728 12.5681H71.6508Z" fill="#F7C537"/>
<path d="M83.9229 12.5681L83.9114 12.8666L84.9345 12.9757L84.9519 12.5681H83.9229Z" fill="#F7C537"/>
<path d="M89.7615 12.5681V13.4522L90.7962 13.5556L90.7904 12.5681H89.7615Z" fill="#F7C537"/>
<path d="M117.769 62.4155L100.802 52.1613L100.172 53.0627L117.919 63.8681L118.115 63.5121L117.769 62.4155Z" fill="#F7C537"/>
<path d="M48.8635 54.9401L38.6376 42.4065L39.7012 41.7806L49.9734 54.2167L48.8635 54.9401Z" fill="#F7C537"/>
<path d="M73.8127 61.2902L62.4538 59.2864L52.7423 51.1622L53.673 50.3354L63.0896 58.1381L73.9803 60.0385L73.8127 61.2902Z" fill="#F7C537"/>
<path d="M51.2624 70L42.8747 59.7802L41.7244 60.5897L49.3548 70H51.2624Z" fill="#F7C537"/>
<path d="M53.2336 70L55.806 68.2431L63.3323 59.0854L62.2225 58.3391L54.8059 67.2556L50.7479 70H53.2336Z" fill="#F7C537"/>
<path d="M36.4698 70L35.5564 63.9427L34.1344 64.2815L34.9495 70H36.4698Z" fill="#F7C537"/>
<path d="M107.473 30.2575L98.4613 29.3216L84.7496 21.0884L84.0964 21.6453L98.1491 30.1369L107.757 31.1474L107.473 30.2575Z" fill="#F7C537"/>
<path d="M21.0067 70C22.5039 64.603 24.3074 59.384 26.1745 55.3075C29.9551 47.0456 25.0184 44.7777 25.0184 44.7777C23.2727 43.5892 21.157 40.4716 19.6887 39.4955C19.0586 39.0707 17.336 39.0132 17.336 39.0132C12.3589 39.4611 6.61869 49.434 6.61869 49.434C6.61869 49.434 6.60713 49.4455 6.59557 49.4627L-0.00012207 70H21.0067Z" fill="#3ECDFF"/>
<path d="M120 70L118.566 65.5044L101.011 54.8483L95.1374 54.5784L84.2525 52.012L78.0788 68.645C78.0788 68.645 77.9805 69.2134 78.021 70H120.006H120Z" fill="#A9D667"/>
<path d="M48.4415 28.0298L48.0137 27.9667L46.7651 26.583L51.9966 22.9199L52.4128 22.9773L54.1007 24.3553L48.4415 28.0298Z" fill="#CCCCCC"/>
<path d="M48.0137 27.9667L46.3431 26.5198L51.9966 22.9199L53.6845 24.2921L48.0137 27.9667Z" fill="#EDEDED"/>
<path d="M97.045 27.4557L96.3976 27.3696L93.9408 25.383L99.6752 20.2157L100.294 20.2961L103.375 22.2252L97.045 27.4557Z" fill="#CCCCCC"/>
<path d="M96.3976 27.3696L93.2992 25.2969L99.6752 20.2157L102.745 22.1448L96.3976 27.3696Z" fill="#EDEDED"/>
<path d="M104.953 22.3975L99.9469 27.1457L102.519 29.1781L103.178 29.27L106.294 26.5715L104.953 22.3975Z" fill="#CCCCCC"/>
<path d="M104.936 22.3458L99.2937 27.0538L102.519 29.1781L106.126 26.0605L104.936 22.3458Z" fill="#EDEDED"/>
<path d="M41.2735 34.8794L40.8227 34.8277L39.5162 33.3464L45.0136 29.2068L45.4529 29.2585L47.216 30.7111L41.2735 34.8794Z" fill="#CCCCCC"/>
<path d="M40.8227 34.8277L39.0712 33.289L45.0137 29.2068L46.7767 30.6594L40.8227 34.8277Z" fill="#EDEDED"/>
<path d="M60.7716 49.8072L60.2744 49.7785L58.3668 48.2054L62.6214 43.0955L63.1012 43.1242L65.477 44.6284L60.7716 49.8072Z" fill="#CCCCCC"/>
<path d="M60.2744 49.7785L57.8755 48.1767L62.6214 43.0955L64.9972 44.5997L60.2744 49.7785Z" fill="#EDEDED"/>
<path d="M63.9221 52.0579L63.4249 52.0349L61.4537 50.4158L65.899 44.927L66.3788 44.9557L68.8125 46.4944L63.9221 52.0579Z" fill="#CCCCCC"/>
<path d="M63.4249 52.0349L60.9565 50.3871L65.899 44.927L68.3268 46.4715L63.4249 52.0349Z" fill="#EDEDED"/>
<path d="M66.8412 53.4416L66.4944 53.4244L65.1071 52.2933L69.061 46.9652L69.3963 46.9824L71.1016 48.0618L66.8412 53.4416Z" fill="#CCCCCC"/>
<path d="M66.4944 53.4244L64.766 52.2703L69.061 46.9652L70.7663 48.0446L66.4944 53.4244Z" fill="#EDEDED"/>
<path d="M57.6906 48.7221L57.205 48.8197L55.6674 50.7201L61.2341 55.4396L61.737 55.3305L63.7429 53.2119L57.6906 48.7221Z" fill="#CCCCCC"/>
<path d="M57.2049 48.8197L55.1702 50.8235L61.234 55.4396L63.2457 53.321L57.2049 48.8197Z" fill="#EDEDED"/>
<path d="M43.9326 37.1128L43.4759 37.0554L42.129 35.5282L47.6322 31.2737L48.0715 31.3254L49.8866 32.8239L43.9326 37.1128Z" fill="#CCCCCC"/>
<path d="M43.4759 37.0554L41.6724 35.4765L47.6322 31.2737L49.4415 32.7665L43.4759 37.0554Z" fill="#EDEDED"/>
<path d="M98.2301 36.8487L97.7503 36.7856L95.9062 35.2411L100.039 31.0786L100.502 31.1417L102.808 32.6689L98.2301 36.8487Z" fill="#CCCCCC"/>
<path d="M97.7503 36.7856L95.4323 35.178L100.039 31.0786L102.346 32.6058L97.7503 36.7856Z" fill="#EDEDED"/>
<path d="M106.236 54.1248L105.681 54.0961L103.219 52.2818L106.861 46.3336L107.392 46.3623L110.346 48.079L106.236 54.1248Z" fill="#CCCCCC"/>
<path d="M105.681 54.0961L102.67 52.2531L106.861 46.3336L109.809 48.0503L105.681 54.0961Z" fill="#EDEDED"/>
<path d="M113.826 50.0943L111.577 48.791L111.04 48.768L107.496 54.8942L110.046 56.7659L110.606 56.7946L114.19 51.2368L113.826 50.0943Z" fill="#CCCCCC"/>
<path d="M113.936 50.4503L111.04 48.768L106.936 54.8654L110.046 56.7659L114 50.6512L113.936 50.4503Z" fill="#EDEDED"/>
<path d="M114.607 52.5459L111.971 57.386L114.607 59.3151L115.179 59.3438L116.231 57.6214L114.607 52.5459Z" fill="#CCCCCC"/>
<path d="M114.56 52.4023L111.404 57.3572L114.607 59.3151L116.029 56.9898L114.56 52.4023Z" fill="#EDEDED"/>
<path d="M103.34 41.0113L102.849 40.885L101.201 39.0822L106.329 35.4306L106.803 35.5569L108.959 37.3999L103.34 41.0113Z" fill="#CCCCCC"/>
<path d="M102.849 40.885L100.721 38.9559L106.329 35.4306L108.473 37.2794L102.849 40.885Z" fill="#EDEDED"/>
<path d="M109.884 37.7903L106.109 40.5692L107.832 42.4065L108.329 42.5385L110.866 40.8563L109.884 37.7903Z" fill="#CCCCCC"/>
<path d="M109.855 37.6985L105.618 40.4372L107.832 42.4065L110.745 40.4774L109.855 37.6985Z" fill="#EDEDED"/>
<path d="M36.7877 41.9299L36.3368 41.8496L34.9957 40.2477L40.1174 36.2688L40.6029 36.2L42.4816 37.8305L36.7877 41.9299Z" fill="#CCCCCC"/>
<path d="M36.3368 41.8496L34.5564 40.1731L40.1174 36.2689L41.9672 37.8133L36.3368 41.8496Z" fill="#EDEDED"/>
<path d="M47.823 44.4906L47.3432 44.5365L45.4067 46.104L49.378 50.967L49.8809 51.0933L52.4186 49.3479L47.823 44.4906Z" fill="#CCCCCC"/>
<path d="M47.3432 44.5366L44.9211 46.1499L49.378 50.967L51.8637 49.3249L47.3432 44.5366Z" fill="#EDEDED"/>
<path d="M55.0488 37.7961L54.6037 37.8822L53.0603 39.4956L57.7946 43.4687L58.2975 43.5261L60.3612 41.6945L55.0488 37.7961Z" fill="#CCCCCC"/>
<path d="M54.6037 37.8822L52.6094 39.5874L57.7946 43.4686L59.8294 41.7347L54.6037 37.8822Z" fill="#EDEDED"/>
<path d="M34.3658 39.4955L33.9265 39.4209L32.6316 37.865L37.7301 34.0067L38.2157 33.9378L40.0366 35.5224L34.3658 39.4955Z" fill="#CCCCCC"/>
<path d="M33.9264 39.4209L32.198 37.7903L37.7301 34.0067L39.5278 35.5052L33.9264 39.4209Z" fill="#EDEDED"/>
<path d="M52.5516 31.4288L52.0833 31.3656L49.5457 28.7303L54.5459 24.9122L55.1818 25.0328L58.4305 27.7026L52.5516 31.4288Z" fill="#CCCCCC"/>
<path d="M52.0833 31.3656L48.8982 28.604L54.5459 24.9122L57.9102 27.6854L52.0833 31.3656Z" fill="#EDEDED"/>
<path d="M99.2936 50.5766L98.704 50.5709L93.9755 47.4418L97.3456 41.4132L98.1664 41.4649L103.681 44.4734L99.2936 50.5766Z" fill="#CCCCCC"/>
<path d="M98.704 50.5709L93.1257 47.3901L97.3456 41.4132L103.068 44.5423L98.704 50.5709Z" fill="#EDEDED"/>
<path d="M38.5914 20.0779L44.4703 25.0213L44.9212 25.0557L50.4706 21.4731L43.9269 16.7421L43.505 16.7076L38.5914 20.0779Z" fill="#CCCCCC"/>
<path d="M38.1578 20.0434L44.4703 25.0213L50.0312 21.4329L43.5049 16.7076L38.1578 20.0434Z" fill="#EDEDED"/>
<path d="M54.6383 32.8757L61.997 39.2028L62.5 39.2487L67.1996 34.1675L60.5056 29.4078L60.0316 29.3676L54.6383 32.8757Z" fill="#CCCCCC"/>
<path d="M54.1586 32.8355L61.9971 39.2028L66.7141 34.1216L60.0317 29.3676L54.1586 32.8355Z" fill="#EDEDED"/>
<path d="M36.8745 18.8952H36.4872L34.99 17.3622L41.6955 13.1307H42.0713L43.9673 14.5661L36.8745 18.8952Z" fill="#CCCCCC"/>
<path d="M36.4872 18.8952L34.6085 17.3622L41.6956 13.1307L43.5916 14.5661L36.4872 18.8952Z" fill="#EDEDED"/>
<path d="M92.1199 12.5681L92.1488 12.8494L94.7385 13.4235L95.1605 13.1422L95.1316 12.5681H92.1199Z" fill="#CCCCCC"/>
<path d="M91.7095 12.5681L91.721 13.1365L94.7385 13.4235L94.7038 12.5681H91.7095Z" fill="#EDEDED"/>
<path d="M96.1143 12.5681L96.49 15.4043L99.1491 16.0015L99.5711 15.7029L99.3225 12.5681H96.1143Z" fill="#CCCCCC"/>
<path d="M95.9004 12.5681L96.0622 15.6972L99.1491 16.0015L98.889 12.5681H95.9004Z" fill="#EDEDED"/>
<path d="M100.195 12.5681L101.057 17.81L103.675 18.4014L101.808 12.5681H100.195Z" fill="#CCCCCC"/>
<path d="M100.161 12.5681L100.635 18.1143L103.681 18.4186L101.808 12.5681H100.161Z" fill="#EDEDED"/>
<path d="M37.3485 12.5681L32.6777 15.4445L34.1229 16.9316H34.5044L41.5799 12.7231L41.3718 12.5681H37.3485Z" fill="#CCCCCC"/>
<path d="M37.2329 12.5681L32.302 15.4445L34.1229 16.9316L41.2099 12.7231L41.0018 12.5681H37.2329Z" fill="#EDEDED"/>
<path d="M21.631 12.5681L21.4461 12.5968L17.2262 16.4263L19.1858 17.5229L19.5269 17.4942L24.1225 13.5269L21.9721 12.5681H21.631Z" fill="#CCCCCC"/>
<path d="M21.446 12.5967L17.3187 16.0876L17.1626 16.5813L19.1858 17.5229L23.7178 13.6072L21.446 12.5967Z" fill="#EDEDED"/>
<path d="M18.4517 12.5681L17.8331 14.4857L20.1338 12.5681H18.4517Z" fill="#CCCCCC"/>
<path d="M18.4516 12.5681L17.9487 14.1355L19.8217 12.5681H18.4516Z" fill="#EDEDED"/>
<path d="M42.6436 12.5681L44.4934 13.923L44.8691 13.9173L46.927 12.5681H42.6436Z" fill="#CCCCCC"/>
<path d="M42.5222 12.5681L44.4934 13.923L46.5629 12.5681H42.5222Z" fill="#EDEDED"/>
<path d="M31.1111 12.5681L29.6255 13.7967L31.4464 15.0024L31.8279 14.9565L34.7991 12.5681H31.1111Z" fill="#CCCCCC"/>
<path d="M30.8742 12.5681L29.244 13.8427L31.4464 15.0024L34.4813 12.5681H30.8742Z" fill="#EDEDED"/>
<path d="M27.2208 12.5681L28.5908 13.4752L28.9666 13.4235L30.0649 12.5681H27.2208Z" fill="#CCCCCC"/>
<path d="M26.8682 12.5681L28.5908 13.4752L29.7527 12.5681H26.8682Z" fill="#EDEDED"/>
<path d="M35.3889 12.5681L32.8512 14.6005L36.3889 12.5681H35.3889Z" fill="#A9D667"/>
<path d="M64.5347 12.5681L66.1764 13.7163L62.2629 15.8579L65.24 18.2923H65.7255L69.8182 15.9498L72.8473 18.4244H73.3328L76.4659 16.3976L70.8009 12.5681H64.5347Z" fill="#CCCCCC"/>
<path d="M64.0723 12.5681L65.7082 13.7163L61.7889 15.8579L65.24 18.2923L69.3442 15.9498L72.8473 18.4244L75.9919 16.3976L70.3385 12.5681H64.0723Z" fill="#EDEDED"/>
<path d="M58.9738 12.5681L58.7426 12.6657L60.3496 14.5489L61.1993 15.2838H61.6675L64.8469 13.636L63.315 12.5681H58.9738Z" fill="#CCCCCC"/>
<path d="M58.9102 12.5681L58.3784 12.7805L59.8756 14.5489L61.1994 15.2838L64.3787 13.636L62.8526 12.5681H58.9102Z" fill="#EDEDED"/>
<path d="M66.558 18.9066L69.2055 17.1842H69.6853L72.1825 18.9066L69.1766 20.7726H68.6853L66.558 18.9066Z" fill="#CCCCCC"/>
<path d="M66.0724 18.9066L69.2055 17.1842L71.6969 18.9066L68.6852 20.7726L66.0724 18.9066Z" fill="#EDEDED"/>
<path d="M55.0835 21.9898H54.5921L52.7539 20.1124L54.9679 18.4416H55.4477L57.783 20.2731L55.0835 21.9898Z" fill="#CCCCCC"/>
<path d="M54.5921 21.9898L52.2683 20.1124L54.9679 18.4416L57.2975 20.2731L54.5921 21.9898Z" fill="#EDEDED"/>
<path d="M79.7147 12.5681L79.7436 12.8436L82.9808 12.9011L83.2698 12.7231L83.2756 12.5681H79.7147Z" fill="#CCCCCC"/>
<path d="M79.4778 12.5681L79.4489 13.0216L82.9808 12.9011L82.9982 12.5681H79.4778Z" fill="#EDEDED"/>
<path d="M76.1479 12.5681L78.2983 12.9183L78.5989 12.7403L78.6105 12.5681H76.1479Z" fill="#CCCCCC"/>
<path d="M75.2347 12.5681L75.2289 12.6427L78.2984 12.9183L78.3273 12.5681H75.2347Z" fill="#EDEDED"/>
<path d="M58.6385 19.808H58.1587L56.2974 17.988L58.4362 16.3689H58.9044L61.2571 18.1488L58.6385 19.808Z" fill="#CCCCCC"/>
<path d="M58.1587 19.808L55.8234 17.988L58.4362 16.3689L60.7774 18.1488L58.1587 19.808Z" fill="#EDEDED"/>
<path d="M89.3741 22.7649H88.8828L87.1312 21.2492L88.4781 19.8884H88.9637L91.2066 21.3812L89.3741 22.7649Z" fill="#CCCCCC"/>
<path d="M88.8828 22.7649L86.6399 21.2492L88.4781 19.8884L90.7152 21.3812L88.8828 22.7649Z" fill="#EDEDED"/>
<path d="M91.8888 20.9391L91.3974 20.9162L89.6459 19.4578L90.9465 18.1143L91.4321 18.1373L93.6692 19.5841L91.8888 20.9391Z" fill="#CCCCCC"/>
<path d="M91.3974 20.9162L89.1603 19.4349L90.9465 18.1143L93.1836 19.5669L91.3974 20.9162Z" fill="#EDEDED"/>
<path d="M94.3687 19.1593H93.8716L92.1316 17.7182L93.3802 16.4321H93.8658L96.1029 17.8445L94.3687 19.1593Z" fill="#CCCCCC"/>
<path d="M93.8715 19.1593L91.6344 17.7182L93.3801 16.4321L95.6115 17.8445L93.8715 19.1593Z" fill="#EDEDED"/>
<path d="M92.7268 24.694H92.1603L90.4146 23.1324L91.6805 21.7429H92.2354L94.5477 23.2702L92.7268 24.694Z" fill="#CCCCCC"/>
<path d="M92.1603 24.694L89.8539 23.1324L91.6806 21.7429L93.987 23.2702L92.1603 24.694Z" fill="#EDEDED"/>
<path d="M89.5533 28.5236H88.9694L87.2179 26.8816L88.5532 25.4117H89.1197L91.4551 27.0251L89.5533 28.5236Z" fill="#CCCCCC"/>
<path d="M88.9695 28.5236L86.6399 26.8816L88.5533 25.4117L90.8829 27.0251L88.9695 28.5236Z" fill="#EDEDED"/>
<path d="M86.7671 30.5273H86.1717L84.4259 28.8336L85.8075 27.3293H86.3855L88.7209 28.9829L86.7671 30.5273Z" fill="#CCCCCC"/>
<path d="M86.1716 30.5273L83.842 28.8336L85.8075 27.3293L88.1371 28.9829L86.1716 30.5273Z" fill="#EDEDED"/>
<path d="M92.8309 30.7628H92.2355L90.4204 29.0633L91.7384 27.5533H92.3165L94.727 29.2126L92.8309 30.7628Z" fill="#CCCCCC"/>
<path d="M92.2356 30.7628L89.8308 29.0633L91.7384 27.5533L94.1432 29.2126L92.2356 30.7628Z" fill="#EDEDED"/>
<path d="M90.0447 32.824H89.4435L87.6284 31.0786L88.9984 29.5284H89.588L91.9928 31.2336L90.0447 32.824Z" fill="#CCCCCC"/>
<path d="M89.4436 32.824L87.0388 31.0786L88.9985 29.5284L91.4032 31.2336L89.4436 32.824Z" fill="#EDEDED"/>
<path d="M96.4381 33.0824H95.8369L93.9467 31.3312L95.2531 29.7753H95.8427L98.3284 31.4862L96.4381 33.0824Z" fill="#CCCCCC"/>
<path d="M95.8369 33.0824L93.3512 31.3312L95.253 29.7753L97.7329 31.4862L95.8369 33.0824Z" fill="#EDEDED"/>
<path d="M93.6576 35.2124H93.0506L91.1661 33.4096L92.5188 31.8077H93.1142L95.5999 33.5704L93.6576 35.2124Z" fill="#CCCCCC"/>
<path d="M93.0506 35.2124L90.5649 33.4096L92.5188 31.8077L94.9987 33.5704L93.0506 35.2124Z" fill="#EDEDED"/>
<path d="M83.9057 32.6345H83.3045L81.5703 30.9005L82.9981 29.3503H83.5878L85.9231 31.0498L83.9057 32.6345Z" fill="#CCCCCC"/>
<path d="M83.3044 32.6345L80.9749 30.9005L82.9981 29.3503L85.3277 31.0498L83.3044 32.6345Z" fill="#EDEDED"/>
<path d="M81.0385 34.8105H80.4316L78.6974 33.0249L80.183 31.4288H80.7784L83.1138 33.1799L81.0385 34.8105Z" fill="#CCCCCC"/>
<path d="M80.4316 34.8105L78.0962 33.0249L80.183 31.4288L82.5126 33.1799L80.4316 34.8105Z" fill="#EDEDED"/>
<path d="M66.8065 57.5237L66.2573 57.7591L63.8641 56.4386L64.4711 54.1191L65.0087 53.9009L67.9106 54.9516L66.8065 57.5237Z" fill="#CCCCCC"/>
<path d="M66.2574 57.7592L63.3208 56.6683L64.4711 54.1191L67.373 55.1755L66.2574 57.7592Z" fill="#EDEDED"/>
<path d="M95.1663 22.8166L94.6634 22.7936L92.8599 21.3008L94.1432 19.9171L94.6345 19.9401L96.941 21.4329L95.1663 22.8166Z" fill="#CCCCCC"/>
<path d="M94.6634 22.7936L92.3627 21.2721L94.1431 19.9171L96.4438 21.4099L94.6634 22.7936Z" fill="#EDEDED"/>
<path d="M97.6173 21.0138L97.1259 20.9908L95.3108 19.5325L96.5594 18.189L97.0392 18.2119L99.3457 19.6645L97.6173 21.0138Z" fill="#CCCCCC"/>
<path d="M97.1259 20.9908L94.8252 19.5095L96.5594 18.189L98.8601 19.6416L97.1259 20.9908Z" fill="#EDEDED"/>
<path d="M58.1414 24.4012H57.6442L55.7308 22.4606L57.9448 20.7324H58.4304L60.8467 22.6271L58.1414 24.4012Z" fill="#CCCCCC"/>
<path d="M57.6442 24.4012L55.2395 22.4606L57.9448 20.7324L60.3554 22.6271L57.6442 24.4012Z" fill="#EDEDED"/>
<path d="M64.4771 30.8432H63.951L61.7081 28.8394L63.9452 26.9504H64.4539L67.0668 29.0231L64.4771 30.8432Z" fill="#CCCCCC"/>
<path d="M63.951 30.8432L61.1936 28.8394L63.9452 26.9504L66.5522 29.0231L63.951 30.8432Z" fill="#EDEDED"/>
<path d="M22.7293 36.7856L22.1744 36.8373L20.2147 34.7703L22.7987 32.5197L23.3305 32.468L25.8508 34.4201L22.7293 36.7856Z" fill="#CCCCCC"/>
<path d="M22.1743 36.8373L19.6655 34.822L22.7986 32.5197L25.3074 34.4718L22.1743 36.8373Z" fill="#EDEDED"/>
<path d="M12.1334 34.0182L11.5438 34.0756L10.064 38.6745L10.4281 39.0936L11.064 39.0305L14.8503 36.2803L12.1334 34.0182Z" fill="#CCCCCC"/>
<path d="M11.5322 34.0928L10.035 38.7549L10.4281 39.0937L14.226 36.3435L11.5322 34.0928Z" fill="#EDEDED"/>
<path d="M26.0416 39.5415L25.4809 39.5989L23.4403 37.4573L26.0185 35.1205L26.5618 35.0688L29.1631 37.0898L26.0416 39.5415Z" fill="#CCCCCC"/>
<path d="M25.4809 39.5989L22.8854 37.509L26.0185 35.1205L28.614 37.1473L25.4809 39.5989Z" fill="#EDEDED"/>
<path d="M29.3713 42.4926L28.799 42.5385L26.7584 40.2649L29.4002 37.8879L29.9493 37.8477L32.568 40.0065L29.3713 42.4926Z" fill="#CCCCCC"/>
<path d="M28.799 42.5385L26.1919 40.3108L29.4001 37.8879L32.0072 40.0524L28.799 42.5385Z" fill="#EDEDED"/>
<path d="M54.1007 47.4245L53.5226 47.4762L51.0543 45.0591L53.3955 42.5385L53.9562 42.4926L56.9968 44.7835L54.1007 47.4245Z" fill="#CCCCCC"/>
<path d="M53.5227 47.4762L50.4821 45.105L53.3955 42.5386L56.4303 44.8352L53.5227 47.4762Z" fill="#EDEDED"/>
<path d="M64.2804 24.0912H63.7833L61.7889 22.1563L63.922 20.4396H64.4076L66.9048 22.3228L64.2804 24.0912Z" fill="#CCCCCC"/>
<path d="M63.7833 24.0912L61.2976 22.1563L63.922 20.4396L66.4135 22.3228L63.7833 24.0912Z" fill="#EDEDED"/>
<path d="M60.7022 26.3763L60.1935 26.3246L58.8408 24.8319L61.101 23.0807L61.5462 23.0463L63.4595 24.5448L60.7022 26.3763Z" fill="#CCCCCC"/>
<path d="M60.1935 26.3246L58.3842 24.8663L61.101 23.0807L62.893 24.4873L60.1935 26.3246Z" fill="#EDEDED"/>
<path d="M67.7719 33.4613L67.2343 33.4039L65.4655 31.5149L67.5869 29.6776L68.061 29.6375L70.1246 31.1188L67.7719 33.4613Z" fill="#CCCCCC"/>
<path d="M67.2343 33.4038L64.9915 31.5551L67.587 29.6776L69.5235 31.0613L67.2343 33.4038Z" fill="#EDEDED"/>
<path d="M49.4301 15.4962C49.3838 16.0589 48.6728 16.5182 47.8462 16.5182C47.0196 16.5182 46.3895 16.0589 46.4473 15.4962C46.5051 14.9393 47.2161 14.4915 48.0312 14.4915C48.8462 14.4915 49.4763 14.9393 49.4301 15.4962Z" fill="#CCCCCC"/>
<path d="M49.0832 15.4962C49.037 16.0589 48.3259 16.5182 47.4935 16.5182C46.6611 16.5182 46.0368 16.0589 46.1004 15.4962C46.1582 14.9393 46.8692 14.4915 47.6901 14.4915C48.5109 14.4915 49.1352 14.9393 49.089 15.4962H49.0832Z" fill="#EDEDED"/>
<path d="M50.6959 18.8894L50.2103 18.8665L48.9443 17.5057L50.6438 16.1565L51.1179 16.1795L52.8752 17.5344L50.6959 18.8894Z" fill="#CCCCCC"/>
<path d="M50.2104 18.8665L48.4646 17.4828L50.6439 16.1565L52.3954 17.5172L50.2104 18.8665Z" fill="#EDEDED"/>
<path d="M50.7423 12.5681L50.1758 12.947L51.9562 14.6292H52.4244L55.7367 13.0044L55.3726 12.5681H50.7423Z" fill="#CCCCCC"/>
<path d="M50.355 12.5681L49.7075 12.947L51.9562 14.6292L55.2974 12.9585L54.9795 12.5681H50.355Z" fill="#EDEDED"/>
<path d="M54.9274 16.4723L57.494 15.123L56.2165 13.5384H55.8523L53.1354 14.968L54.5921 16.4723H54.9274Z" fill="#CCCCCC"/>
<path d="M54.5921 16.4723L57.1298 15.0599L55.8522 13.5384L52.6671 14.968L54.5921 16.4723Z" fill="#EDEDED"/>
<path d="M32.0939 45.1911L31.5216 45.1624L30.1516 43.3481L32.9147 40.9769L33.4292 40.9022L35.4351 42.6706L32.0939 45.1911Z" fill="#CCCCCC"/>
<path d="M31.5217 45.1624L29.6256 43.4285L32.9148 40.9769L34.7935 42.6419L31.5217 45.1624Z" fill="#EDEDED"/>
<path d="M54.3436 36.7397L52.2915 35.0172H51.7481L42.3893 42.217L43.476 44.3471H44.0541L48.1526 41.3386L49.9735 43.3309L50.5515 43.2849L53.3089 40.9941L51.0313 39.197L54.3436 36.7397Z" fill="#CCCCCC"/>
<path d="M53.7944 36.7397L51.7481 35.0172L41.8228 42.217L43.476 44.3471L47.5918 41.3386L49.9792 43.2849L52.7424 40.9941L50.4764 39.197L53.7944 36.7397Z" fill="#EDEDED"/>
<path d="M59.0316 20.1927L60.8467 21.6568L63.6503 19.9803L61.7485 18.5162L59.0316 20.1927Z" fill="#A9D667"/>
<path d="M33.2327 48.3029L38.8341 44.6571L46.505 54.3602L43.8806 57.2998L39.8862 58.9648L33.2327 48.3029Z" fill="#A9D667"/>
<path d="M27.7931 65.4642L27.111 65.2805L31.8164 50.0599L32.4465 50.2149L38.071 59.9122L27.7931 65.4642Z" fill="#CCCCCC"/>
<path d="M27.111 65.2805L31.8164 50.0599L37.4005 59.7457L27.111 65.2805Z" fill="#EDEDED"/>
<path d="M54.0025 53.0913L53.3377 53.0397L47.6438 59.7629L45.7015 60.7218L47.5918 63.7475L48.297 63.8107L50.1353 62.6681L56.6674 55.4511L54.0025 53.0913Z" fill="#CCCCCC"/>
<path d="M53.3377 53.0397L46.9559 59.7055L45.0078 60.6643L47.5918 63.7475L49.4358 62.605L55.991 55.3994L53.3377 53.0397Z" fill="#EDEDED"/>
<path d="M57.6154 56.6281L56.9333 56.5764L51.2625 63.5867L49.2971 64.5858L51.2972 67.7493L52.014 67.8125L53.8696 66.6182L60.3844 59.0912L57.6154 56.6281Z" fill="#CCCCCC"/>
<path d="M56.9333 56.5764L50.5573 63.5236L48.5861 64.5226L51.2972 67.7493L53.147 66.5551L59.6906 59.0338L56.9333 56.5764Z" fill="#EDEDED"/>
<path d="M68.7835 70L71.6854 61.8643L64.2111 60.4921L63.3902 60.7218L58.5287 68.8747L56.9448 69.977L57.0258 70H68.7835Z" fill="#CCCCCC"/>
<path d="M68.0205 70L70.8703 62.0997L63.3902 60.7217L57.6674 69.1273L56.4072 70H68.0205Z" fill="#EDEDED"/>
<path d="M63.0203 41.6429L62.0203 41.0343L72.5063 29.626L73.4717 30.1485L63.0203 41.6429Z" fill="#F7C537"/>
<path d="M16.1162 19.8425L20.7812 18.3096L20.4806 17.6608L16.3879 18.9928L16.1162 19.8425Z" fill="#F7C537"/>
<path d="M77.547 26.4222L71.3386 20.9678L72.1652 20.5085L78.3852 25.9284L77.547 26.4222Z" fill="#F7C537"/>
<path d="M65.3499 26.5371L71.4137 22.3286H71.9109L76.2001 26.0203L71.6565 28.8738L70.6044 30.4355H70.0784L65.3499 26.5371Z" fill="#CCCCCC"/>
<path d="M64.8412 26.5371L71.4138 22.3286L75.6914 26.0203L71.1363 28.8738L70.0784 30.4355L64.8412 26.5371Z" fill="#EDEDED"/>
<path d="M64.9972 41.0113L70.3616 44.3471L71.5409 33.4039L64.9972 41.0113Z" fill="#A9D667"/>
<path d="M74.5699 20.9104L86.5647 12.8494L87.1775 12.8838L91.1025 15.0369L78.5355 24.1945L77.8765 24.1601L74.5699 20.9104Z" fill="#CCCCCC"/>
<path d="M73.9283 20.8759L86.5648 12.8494L90.4783 15.0024L77.8765 24.1601L73.9283 20.8759Z" fill="#EDEDED"/>
<path d="M97.4958 28.0528L99.0451 28.9025L101.45 29.1781L98.7734 27.3696L97.4958 28.0528Z" fill="#A9D667"/>
<path d="M85.1312 23.0118L84.4664 22.9371L75.2001 30.4699L77.2753 32.4048L77.9806 32.4852L88.2007 24.9122L85.1312 23.0118Z" fill="#CCCCCC"/>
<path d="M84.4664 22.9371L74.5063 30.3896L77.2753 32.4048L87.5301 24.8376L84.4664 22.9371Z" fill="#EDEDED"/>
<path d="M74.8705 34.8851L74.2809 35.1607L74.0034 46.0695L76.6741 46.8676L77.3042 46.5461L78.2059 35.2239L74.8705 34.8851Z" fill="#CCCCCC"/>
<path d="M74.2809 35.1607L73.3676 46.3853L76.6741 46.8676L77.6221 35.4995L74.2809 35.1607Z" fill="#EDEDED"/>
<path d="M74.4081 31.2164L74.5064 34.4603L78.6973 34.5866L74.4081 31.2164Z" fill="#A9D667"/>
<path d="M78.9806 35.31L78.4603 41.4706L83.7034 35.3961L78.9806 35.31Z" fill="#A9D667"/>
<path d="M42.0597 70L46.6842 68.6622L42.2794 62.9437L41.4065 62.7083L37.9381 65.2001L38.1404 70H42.0597Z" fill="#CCCCCC"/>
<path d="M40.2677 70L45.7824 68.4096L41.4065 62.7083L37.0594 64.959L38.0422 70H40.2677Z" fill="#EDEDED"/>
<path d="M86.4203 31.3541L91.2355 34.5866L90.2471 34.9713L86.2122 33.5703L85.2006 33.49L83.9346 34.8851L82.0559 34.7473L86.4203 31.3541Z" fill="#A9D667"/>
<path d="M107.89 31.5551L107.323 31.4977L101.265 30.912L103.201 32.1235L103.485 32.7436L101.149 35.31L103.722 34.0124L108.069 32.1235L107.89 31.5551Z" fill="#A9D667"/>
<path d="M91.6806 46.8676L90.0447 44.3414L91.6633 42.7969L94.9293 41.7577H95.7617L92.2066 47.1489L91.6806 46.8676Z" fill="#A9D667"/>
<path d="M90.854 50.2206L92.3165 49.3077L92.3338 48.0273L97.8428 51.0818L95.1317 51.277L90.854 50.2206Z" fill="#A9D667"/>
<path d="M103.82 41.4132L105.699 42.8371L107.311 42.5386L104.947 40.7185L103.82 41.4132Z" fill="#A9D667"/>
<path d="M112.034 44.5136L109.479 44.6112L112.687 46.5518L112.034 44.5136Z" fill="#A9D667"/>
<path d="M76.0035 49.4742L72.8473 58.6376L72.1131 58.919L67.98 57.7592L71.1362 48.8197L71.8241 48.5671L76.0035 49.4742Z" fill="#CCCCCC"/>
<path d="M75.3156 49.7326L72.1132 58.9189L67.2401 58.0405L71.1363 48.8197L75.3156 49.7326Z" fill="#EDEDED"/>
<path d="M70.1882 49.8761L66.8644 53.8435L68.2864 54.6415L70.1882 49.8761Z" fill="#A9D667"/>
<path d="M64.0029 53.8435L61.4941 55.9736L62.8757 56.7831L64.0029 53.8435Z" fill="#A9D667"/>
<path d="M64.1186 52.3564L63.7313 52.7641L64.3267 53.5909L65.9684 53.9009L66.1245 53.5909L64.1186 52.3564Z" fill="#A9D667"/>
<path d="M74.8185 13.0216L78.3851 15.3469L82.3449 13.2972L78.3678 13.5039L74.8185 13.0216Z" fill="#A9D667"/>
<path d="M92.0564 13.5039L95.1837 13.8886L95.2184 15.3469L92.0564 13.5039Z" fill="#A9D667"/>
<path d="M100.028 16.4321L99.8717 17.7813L96.675 16.0704L100.028 16.4321Z" fill="#A9D667"/>
<path d="M103.78 18.7287L101.276 18.3669L104.057 19.6014L103.78 18.7287Z" fill="#A9D667"/>
</g>
<g opacity="0.1">
<path d="M32.3541 12.4016L22.4692 59.0969L40.0134 65.6594L45.2911 15.8522L32.3541 12.4016Z" fill="black"/>
</g>
<g opacity="0.1">
<path d="M58.9855 13.0733V60.3658L77.9517 65.6594L72.674 15.8522L58.9855 13.0733Z" fill="black"/>
</g>
<g opacity="0.1">
<path d="M85.6342 12.3958H85.6168L95.5017 59.0969L95.5248 59.0854L115.884 65.6594L100.057 15.8522L85.6342 12.3958Z" fill="black"/>
</g>
<path d="M116.884 66.6068L95.5479 59.717L77.9864 66.2853L58.9855 60.9802L39.9845 66.2853L22.423 59.717L1.08093 66.6068L17.365 15.3757L32.3426 11.7815L45.3143 15.2436L58.9855 12.4647L72.6508 15.2436L85.6226 11.7815L100.6 15.3757L100.704 15.6972L116.884 66.6125V66.6068ZM58.9855 59.7457L77.917 65.0336L95.5074 58.4539L114.89 64.7121L99.5134 16.3345L85.6399 13.0044L72.6971 16.4608L58.9797 13.6704L45.2622 16.4608L32.3194 13.0044L18.4459 16.3345L3.07525 64.7121L22.4577 58.4539L40.0481 65.0336L58.9797 59.7457H58.9855Z" fill="#F2F2F2"/>
<path opacity="0.15" d="M87.9869 34.6153C86.1603 36.2861 81.449 38.8927 75.6858 41.3213C68.0785 44.5251 59.0029 47.2064 59.0029 47.2064C59.0029 47.2064 56.8005 44.4849 56.2108 41.2524C55.7715 38.841 56.7716 36.2689 58.5809 34.6153C62.8123 30.7456 73.281 27.1916 81.4028 27.1916C89.5246 27.1916 92.2241 30.7456 87.9927 34.6153H87.9869Z" fill="#222222"/>
<path d="M75.4603 17.3278C75.4603 21.2205 73.3735 27.3122 69.8878 32.979C65.2922 40.4601 58.9855 47.2064 58.9855 47.2064C58.9855 47.2064 52.6037 40.3683 47.985 32.824C44.5397 27.2031 42.5107 21.1918 42.5107 17.3278C42.5107 8.29068 49.8868 0 58.9855 0C68.0842 0 75.4603 8.29068 75.4603 17.3278Z" fill="#F76E39"/>
<path d="M59.3438 27.0577C65.2115 26.8613 69.808 21.9775 69.6103 16.1495C69.4125 10.3215 64.4955 5.75612 58.6277 5.95251C52.7599 6.1489 48.1635 11.0327 48.3612 16.8607C48.5589 22.6887 53.476 27.254 59.3438 27.0577Z" fill="white"/>
</svg>
