<svg width="237" height="108" viewBox="0 0 237 108" fill="none" xmlns="http://www.w3.org/2000/svg">
<g opacity="0.44">
<path d="M92.4335 45.1751H91.1268V48.0839H92.4335V45.1751Z" fill="#A9A05F"/>
<path d="M93.5116 40.0895H95.2542L92.9842 35.5537H94.1765L91.7919 28.7041L89.4073 35.5537H90.5996L88.3296 40.0895H90.0493L87.252 45.3584H91.7919H96.3319L93.5116 40.0895Z" fill="#615900"/>
<path d="M112.039 43.6631H110.732V46.5719H112.039V43.6631Z" fill="#A9A05F"/>
<path d="M113.116 38.5775H114.859L112.589 34.0417H113.781L111.396 27.1921L109.012 34.0417H110.204L107.934 38.5775H109.654L106.856 43.8464H111.396H115.913L113.116 38.5775Z" fill="#615900"/>
<path d="M1.10596 73.1066C1.10596 73.1066 12.3979 57.8199 30.3396 58.4291C48.2813 59.0383 59.155 50.2345 90.7097 47.051C122.264 43.8871 152.439 45.3216 171.698 49.9397C190.957 54.5578 236.732 61.6127 236.732 61.6127V84.8603H1.10596V73.1066Z" fill="#615900"/>
<path d="M131.436 25.2448H115.615V87.3949H131.436V25.2448Z" fill="#D8C900"/>
<path d="M147.257 25.2448H131.436V87.3949H147.257V25.2448Z" fill="#F9EA22"/>
<path d="M135.22 28.3146H133.569V82.8821H135.22V28.3146Z" fill="#A9A05F"/>
<path d="M138.522 28.3145H136.871V82.882H138.522V28.3145Z" fill="#A9A05F"/>
<path d="M141.823 28.3145H140.172V82.882H141.823V28.3145Z" fill="#A9A05F"/>
<path d="M145.126 28.3145H143.475V82.882H145.126V28.3145Z" fill="#A9A05F"/>
<path d="M129.901 28.3146H117.152V29.8036H129.901V28.3146Z" fill="#F9EA22"/>
<path d="M129.901 32.1632H117.152V33.6522H129.901V32.1632Z" fill="#F9EA22"/>
<path d="M129.901 36.0346H117.152V37.5236H129.901V36.0346Z" fill="#F9EA22"/>
<path d="M129.901 39.8834H117.152V41.3724H129.901V39.8834Z" fill="#F9EA22"/>
<path d="M129.901 43.7547H117.152V45.2437H129.901V43.7547Z" fill="#F9EA22"/>
<path d="M129.901 47.6032H117.152V49.0922H129.901V47.6032Z" fill="#F9EA22"/>
<path d="M129.901 51.4749H117.152V52.9639H129.901V51.4749Z" fill="#F9EA22"/>
<path d="M129.901 55.3234H117.152V56.8124H129.901V55.3234Z" fill="#F9EA22"/>
<path d="M129.901 59.195H117.152V60.684H129.901V59.195Z" fill="#F9EA22"/>
<path d="M129.901 63.0435H117.152V64.5326H129.901V63.0435Z" fill="#F9EA22"/>
<path d="M129.901 66.9151H117.152V68.4041H129.901V66.9151Z" fill="#F9EA22"/>
<path d="M129.901 70.7865H117.152V72.2755H129.901V70.7865Z" fill="#F9EA22"/>
<path d="M129.901 74.635H117.152V76.124H129.901V74.635Z" fill="#F9EA22"/>
<path d="M129.901 78.5067H117.152V79.9957H129.901V78.5067Z" fill="#F9EA22"/>
<path d="M129.901 82.3552H117.152V83.8442H129.901V82.3552Z" fill="#F9EA22"/>
<path d="M134.325 32.6671L128.868 38.8753V73.1002H134.325H139.805V38.8753L134.325 32.6671Z" fill="#FFF56A"/>
<path d="M155.604 32.6671L139.806 38.8753V73.1002H145.286H161.061V38.8753L155.604 32.6671Z" fill="#F9EA22"/>
<path d="M134.325 32.6671H155.603L161.061 38.8753H139.805L134.325 32.6671Z" fill="#A9A05F"/>
<path d="M142.855 60.0654H141.089V64.8065H142.855V60.0654Z" fill="#615900"/>
<path d="M146.156 60.0654H144.391V64.8065H146.156V60.0654Z" fill="#615900"/>
<path d="M149.481 60.0654H147.716V64.8065H149.481V60.0654Z" fill="#615900"/>
<path d="M131.895 60.0654H130.13V64.8065H131.895V60.0654Z" fill="#615900"/>
<path d="M135.22 60.0654H133.454V64.8065H135.22V60.0654Z" fill="#615900"/>
<path d="M138.544 60.0654H136.779V64.8065H138.544V60.0654Z" fill="#615900"/>
<path d="M136.756 66.3194H131.895V73.1002H136.756V66.3194Z" fill="#615900"/>
<path d="M142.855 42.6781H141.089V47.4192H142.855V42.6781Z" fill="#615900"/>
<path d="M146.156 42.6781H144.391V47.4192H146.156V42.6781Z" fill="#615900"/>
<path d="M149.481 42.6781H147.716V47.4192H149.481V42.6781Z" fill="#615900"/>
<path d="M152.554 60.0654H150.789V64.8065H152.554V60.0654Z" fill="#615900"/>
<path d="M155.879 60.0654H154.114V64.8065H155.879V60.0654Z" fill="#615900"/>
<path d="M159.203 60.0654H157.438V64.8065H159.203V60.0654Z" fill="#615900"/>
<path d="M152.554 42.6781H150.789V47.4192H152.554V42.6781Z" fill="#615900"/>
<path d="M155.879 42.6781H154.114V47.4192H155.879V42.6781Z" fill="#615900"/>
<path d="M159.203 42.6781H157.438V47.4192H159.203V42.6781Z" fill="#615900"/>
<path d="M131.895 42.6781H130.13V47.4192H131.895V42.6781Z" fill="#615900"/>
<path d="M135.22 42.6781H133.454V47.4192H135.22V42.6781Z" fill="#615900"/>
<path d="M138.544 42.6781H136.779V47.4192H138.544V42.6781Z" fill="#615900"/>
<path d="M136.756 48.9548H131.895V55.7357H136.756V48.9548Z" fill="#615900"/>
<path d="M139.805 55.5754H128.868V57.0186H139.805V55.5754Z" fill="#615900"/>
<path d="M161.061 55.5754H139.806V57.0186H161.061V55.5754Z" fill="#615900"/>
<path d="M157.094 51.4062L151.614 57.6143V73.1003H157.094H162.552V57.6143L157.094 51.4062Z" fill="#B4A700"/>
<path d="M168.031 51.4062L162.551 57.6143V73.1003H168.031H173.511V57.6143L168.031 51.4062Z" fill="#D8C900"/>
<path d="M157.094 51.4062H173.465L173.511 57.6143H162.551L157.094 51.4062Z" fill="#A9A05F"/>
<path d="M165.601 60.0654H163.836V64.8065H165.601V60.0654Z" fill="#D8C900"/>
<path d="M168.925 60.0654H167.16V64.8065H168.925V60.0654Z" fill="#D8C900"/>
<path d="M172.25 60.0654H170.484V64.8065H172.25V60.0654Z" fill="#D8C900"/>
<path d="M154.641 60.0654H152.875V64.8065H154.641V60.0654Z" fill="#D8C900"/>
<path d="M157.965 60.0654H156.2V64.8065H157.965V60.0654Z" fill="#D8C900"/>
<path d="M161.29 60.0654H159.525V64.8065H161.29V60.0654Z" fill="#D8C900"/>
<path d="M159.524 66.3195H154.663V73.1003H159.524V66.3195Z" fill="#D8C900"/>
<path d="M164.133 53.1931V50.0317H165.899V55.1861L164.133 53.1931Z" fill="#B4A700"/>
<path d="M168.031 50.0317H165.899V55.1861H168.031V50.0317Z" fill="#D8C900"/>
<path d="M189.859 51.4062L195.316 57.6143V73.1003H189.859H184.379V57.6143L189.859 51.4062Z" fill="#D8C900"/>
<path d="M178.899 51.4062L184.379 57.6143V73.1003H178.899H173.442V57.6143L178.899 51.4062Z" fill="#B4A700"/>
<path d="M189.859 51.4062H173.465L173.442 57.6143H184.379L189.859 51.4062Z" fill="#615900"/>
<path d="M181.344 64.7853H183.109V60.0442H181.344V64.7853Z" fill="#D8C900"/>
<path d="M178.028 64.7853H179.793V60.0442H178.028V64.7853Z" fill="#D8C900"/>
<path d="M174.711 64.7853H176.476V60.0442H174.711V64.7853Z" fill="#D8C900"/>
<path d="M192.29 64.7853H194.055V60.0442H192.29V64.7853Z" fill="#D8C900"/>
<path d="M188.973 64.7853H190.739V60.0442H188.973V64.7853Z" fill="#D8C900"/>
<path d="M185.656 64.7853H187.421V60.0442H185.656V64.7853Z" fill="#D8C900"/>
<path d="M187.414 73.0873H192.275V66.3065H187.414V73.0873Z" fill="#D8C900"/>
<path d="M182.797 53.1931V50.0317H181.055V55.1861L182.797 53.1931Z" fill="#B4A700"/>
<path d="M181.032 50.0317H178.9V55.1861H181.032V50.0317Z" fill="#D8C900"/>
<path d="M206.392 32.6671L200.935 38.8753V73.1002H206.392H211.872V38.8753L206.392 32.6671Z" fill="#F9EA22"/>
<path d="M217.352 32.6671L211.872 38.8753V73.1002H217.352H222.809V38.8753L217.352 32.6671Z" fill="#FFF593"/>
<path d="M206.391 32.6671H217.351L222.809 38.8753H211.871L206.391 32.6671Z" fill="#A9A05F"/>
<path d="M214.921 60.0654H213.156V64.8065H214.921V60.0654Z" fill="#D8C900"/>
<path d="M218.223 60.0654H216.457V64.8065H218.223V60.0654Z" fill="#D8C900"/>
<path d="M221.547 60.0654H219.782V64.8065H221.547V60.0654Z" fill="#D8C900"/>
<path d="M203.961 60.0654H202.196V64.8065H203.961V60.0654Z" fill="#D8C900"/>
<path d="M207.285 60.0654H205.52V64.8065H207.285V60.0654Z" fill="#D8C900"/>
<path d="M210.61 60.0654H208.845V64.8065H210.61V60.0654Z" fill="#D8C900"/>
<path d="M208.822 66.3194H203.961V73.1002H208.822V66.3194Z" fill="#D8C900"/>
<path d="M214.921 42.6781H213.156V47.4192H214.921V42.6781Z" fill="#D8C900"/>
<path d="M218.223 42.6781H216.457V47.4192H218.223V42.6781Z" fill="#D8C900"/>
<path d="M221.547 42.6781H219.782V47.4192H221.547V42.6781Z" fill="#D8C900"/>
<path d="M203.961 42.6781H202.196V47.4192H203.961V42.6781Z" fill="#D8C900"/>
<path d="M207.285 42.6781H205.52V47.4192H207.285V42.6781Z" fill="#D8C900"/>
<path d="M210.61 42.6781H208.845V47.4192H210.61V42.6781Z" fill="#D8C900"/>
<path d="M208.822 48.9548H203.961V55.7357H208.822V48.9548Z" fill="#D8C900"/>
<path d="M211.872 55.5754H200.935V57.0186H211.872V55.5754Z" fill="#D8C900"/>
<path d="M222.809 55.5754H211.872V57.0186H222.809V55.5754Z" fill="#D8C900"/>
<path d="M95.2083 51.4061L89.7283 57.6143V73.1003H95.2083H100.665V57.6143L95.2083 51.4061Z" fill="#FFF56A"/>
<path d="M106.145 51.4061L100.665 57.6143V73.1003H106.145H111.625V57.6143L106.145 51.4061Z" fill="#A9A05F"/>
<path d="M95.2084 51.4061H106.146L111.626 57.6143H100.665L95.2084 51.4061Z" fill="#A9A05F"/>
<path d="M103.715 60.0654H101.95V64.8065H103.715V60.0654Z" fill="#A9A05F"/>
<path d="M107.04 60.0654H105.274V64.8065H107.04V60.0654Z" fill="#A9A05F"/>
<path d="M110.364 60.0654H108.599V64.8065H110.364V60.0654Z" fill="#A9A05F"/>
<path d="M92.7544 60.0654H90.9893V64.8065H92.7544V60.0654Z" fill="#A9A05F"/>
<path d="M96.0798 60.0654H94.3146V64.8065H96.0798V60.0654Z" fill="#A9A05F"/>
<path d="M99.4041 60.0654H97.6389V64.8065H99.4041V60.0654Z" fill="#A9A05F"/>
<path d="M97.6388 66.3194H92.7778V73.1002H97.6388V66.3194Z" fill="#A9A05F"/>
<path d="M102.247 53.193V50.0317H104.013V55.186L102.247 53.193Z" fill="#FFF56A"/>
<path d="M106.145 50.0317H104.013V55.186H106.145V50.0317Z" fill="#A9A05F"/>
<path d="M126.139 69.2975H124.466V73.0308H126.139V69.2975Z" fill="#A9A05F"/>
<path d="M127.539 62.7914H129.74L126.851 56.9727H128.364L125.314 48.2217L122.265 56.9727H123.778L120.889 62.7914H123.09L119.513 69.5493H125.314H131.116L127.539 62.7914Z" fill="#615900"/>
<path d="M137.192 73.0315C136.848 70.5574 134.716 68.6331 132.148 68.6331C129.603 68.6331 127.493 70.5116 127.103 72.9628C126.989 72.9399 126.874 72.917 126.759 72.917C126.553 72.917 126.37 72.9628 126.186 73.0086C125.773 71.6799 124.535 70.7178 123.091 70.7178C122.586 70.7178 122.105 70.8323 121.669 71.0385C121.188 68.7248 119.124 67.0067 116.671 67.0067C114.653 67.0067 112.933 68.175 112.108 69.8473C111.328 69.0913 110.273 68.6331 109.104 68.6331C107.407 68.6331 105.94 69.6182 105.252 71.0385C104.816 70.8323 104.358 70.7178 103.853 70.7178C102.386 70.7178 101.148 71.7028 100.735 73.0315H137.192Z" fill="#F7E31A"/>
<path d="M40.3853 21.8087H17.7085V73.3752H40.3853V21.8087Z" fill="#E1D76C"/>
<path d="M31.3742 21.8087H17.7085V73.3752H31.3742V21.8087Z" fill="#FFF9BD"/>
<path d="M20.2299 23.8932H18.7627V25.6339H20.2299V23.8932Z" fill="#F9EA22"/>
<path d="M23.4862 23.8932H22.019V25.6339H23.4862V23.8932Z" fill="#F9EA22"/>
<path d="M26.7191 23.8932H25.252V25.6339H26.7191V23.8932Z" fill="#F9EA22"/>
<path d="M29.9755 23.8932H28.5083V25.6339H29.9755V23.8932Z" fill="#F9EA22"/>
<path d="M20.2299 28.6581H18.7627V30.3988H20.2299V28.6581Z" fill="#F9EA22"/>
<path d="M23.4862 28.6581H22.019V30.3988H23.4862V28.6581Z" fill="#F9EA22"/>
<path d="M26.7191 28.6581H25.252V30.3988H26.7191V28.6581Z" fill="#F9EA22"/>
<path d="M29.9755 28.6581H28.5083V30.3988H29.9755V28.6581Z" fill="#F9EA22"/>
<path d="M20.2299 33.4001H18.7627V35.1408H20.2299V33.4001Z" fill="#F9EA22"/>
<path d="M23.4862 33.4001H22.019V35.1408H23.4862V33.4001Z" fill="#F9EA22"/>
<path d="M26.7191 33.4001H25.252V35.1408H26.7191V33.4001Z" fill="#F9EA22"/>
<path d="M29.9755 33.4001H28.5083V35.1408H29.9755V33.4001Z" fill="#F9EA22"/>
<path d="M20.2299 38.1652H18.7627V39.9059H20.2299V38.1652Z" fill="#F9EA22"/>
<path d="M23.4862 38.1652H22.019V39.9059H23.4862V38.1652Z" fill="#F9EA22"/>
<path d="M26.7191 38.1652H25.252V39.9059H26.7191V38.1652Z" fill="#F9EA22"/>
<path d="M29.9755 38.1652H28.5083V39.9059H29.9755V38.1652Z" fill="#F9EA22"/>
<path d="M20.2299 42.9301H18.7627V44.6708H20.2299V42.9301Z" fill="#F9EA22"/>
<path d="M23.4862 42.9301H22.019V44.6708H23.4862V42.9301Z" fill="#F9EA22"/>
<path d="M26.7191 42.9301H25.252V44.6708H26.7191V42.9301Z" fill="#F9EA22"/>
<path d="M29.9755 42.9301H28.5083V44.6708H29.9755V42.9301Z" fill="#F9EA22"/>
<path d="M20.2299 47.695H18.7627V49.4357H20.2299V47.695Z" fill="#F9EA22"/>
<path d="M23.4862 47.695H22.019V49.4357H23.4862V47.695Z" fill="#F9EA22"/>
<path d="M26.7191 47.695H25.252V49.4357H26.7191V47.695Z" fill="#F9EA22"/>
<path d="M29.9755 47.695H28.5083V49.4357H29.9755V47.695Z" fill="#F9EA22"/>
<path d="M20.2299 52.4371H18.7627V54.1778H20.2299V52.4371Z" fill="#F9EA22"/>
<path d="M23.4862 52.4371H22.019V54.1778H23.4862V52.4371Z" fill="#F9EA22"/>
<path d="M26.7191 52.4371H25.252V54.1778H26.7191V52.4371Z" fill="#F9EA22"/>
<path d="M29.9755 52.4371H28.5083V54.1778H29.9755V52.4371Z" fill="#F9EA22"/>
<path d="M20.2299 57.202H18.7627V58.9426H20.2299V57.202Z" fill="#F9EA22"/>
<path d="M23.4862 57.202H22.019V58.9426H23.4862V57.202Z" fill="#F9EA22"/>
<path d="M26.7191 57.202H25.252V58.9426H26.7191V57.202Z" fill="#F9EA22"/>
<path d="M29.9755 57.202H28.5083V58.9426H29.9755V57.202Z" fill="#F9EA22"/>
<path d="M60.998 30.5137H40.2472V72.1151H60.998V30.5137Z" fill="#615900"/>
<path d="M52.7435 30.5137H40.2472V72.1151H52.7435V30.5137Z" fill="#FFF9A2"/>
<path d="M42.5631 32.186H41.2106V33.5832H42.5631V32.186Z" fill="#B4A700"/>
<path d="M45.5206 32.186H44.1681V33.5832H45.5206V32.186Z" fill="#B4A700"/>
<path d="M48.5011 32.186H47.1486V33.5832H48.5011V32.186Z" fill="#B4A700"/>
<path d="M51.4589 32.186H50.1063V33.5832H51.4589V32.186Z" fill="#B4A700"/>
<path d="M42.5631 36.0345H41.2106V37.4317H42.5631V36.0345Z" fill="#B4A700"/>
<path d="M45.5206 36.0345H44.1681V37.4317H45.5206V36.0345Z" fill="#B4A700"/>
<path d="M48.5011 36.0345H47.1486V37.4317H48.5011V36.0345Z" fill="#B4A700"/>
<path d="M51.4589 36.0345H50.1063V37.4317H51.4589V36.0345Z" fill="#B4A700"/>
<path d="M42.5631 39.8604H41.2106V41.2575H42.5631V39.8604Z" fill="#B4A700"/>
<path d="M45.5206 39.8603H44.1681V41.2574H45.5206V39.8603Z" fill="#B4A700"/>
<path d="M48.5011 39.8603H47.1486V41.2574H48.5011V39.8603Z" fill="#B4A700"/>
<path d="M51.4589 39.8603H50.1063V41.2574H51.4589V39.8603Z" fill="#B4A700"/>
<path d="M42.5631 43.709H41.2106V45.1061H42.5631V43.709Z" fill="#B4A700"/>
<path d="M45.5206 43.709H44.1681V45.1061H45.5206V43.709Z" fill="#B4A700"/>
<path d="M48.5011 43.709H47.1486V45.1061H48.5011V43.709Z" fill="#B4A700"/>
<path d="M51.4589 43.709H50.1063V45.1061H51.4589V43.709Z" fill="#B4A700"/>
<path d="M42.5631 47.5345H41.2106V48.9317H42.5631V47.5345Z" fill="#B4A700"/>
<path d="M45.5206 47.5345H44.1681V48.9316H45.5206V47.5345Z" fill="#B4A700"/>
<path d="M48.5011 47.5345H47.1486V48.9316H48.5011V47.5345Z" fill="#B4A700"/>
<path d="M51.4589 47.5345H50.1063V48.9316H51.4589V47.5345Z" fill="#B4A700"/>
<path d="M42.5631 51.3833H41.2106V52.7804H42.5631V51.3833Z" fill="#B4A700"/>
<path d="M45.5206 51.3832H44.1681V52.7804H45.5206V51.3832Z" fill="#B4A700"/>
<path d="M48.5011 51.3832H47.1486V52.7804H48.5011V51.3832Z" fill="#B4A700"/>
<path d="M51.4589 51.3832H50.1063V52.7804H51.4589V51.3832Z" fill="#B4A700"/>
<path d="M42.5631 55.2089H41.2106V56.606H42.5631V55.2089Z" fill="#B4A700"/>
<path d="M45.5206 55.2089H44.1681V56.606H45.5206V55.2089Z" fill="#B4A700"/>
<path d="M48.5011 55.2089H47.1486V56.606H48.5011V55.2089Z" fill="#B4A700"/>
<path d="M51.4589 55.2089H50.1063V56.606H51.4589V55.2089Z" fill="#B4A700"/>
<path d="M42.5631 59.0574H41.2106V60.4545H42.5631V59.0574Z" fill="#B4A700"/>
<path d="M45.5206 59.0576H44.1681V60.4547H45.5206V59.0576Z" fill="#B4A700"/>
<path d="M48.5011 59.0576H47.1486V60.4547H48.5011V59.0576Z" fill="#B4A700"/>
<path d="M51.4589 59.0576H50.1063V60.4547H51.4589V59.0576Z" fill="#B4A700"/>
<path d="M84.2255 37.1343H60.0812V73.7417H84.2255V37.1343Z" fill="#615900"/>
<path d="M74.6411 37.1343H60.0812V73.7417H74.6411V37.1343Z" fill="#FFF9AC"/>
<path d="M73.1049 38.3942H61.3193V39.196H73.1049V38.3942Z" fill="#B4A700"/>
<path d="M83.3313 38.3942H75.8564V39.196H83.3313V38.3942Z" fill="#B4A700"/>
<path d="M73.1049 40.1354H61.3193V40.9372H73.1049V40.1354Z" fill="#B4A700"/>
<path d="M83.3313 40.1354H75.8564V40.9372H83.3313V40.1354Z" fill="#B4A700"/>
<path d="M73.1049 41.8763H61.3193V42.6781H73.1049V41.8763Z" fill="#B4A700"/>
<path d="M83.3313 41.8763H75.8564V42.6781H83.3313V41.8763Z" fill="#B4A700"/>
<path d="M73.1049 43.6173H61.3193V44.4191H73.1049V43.6173Z" fill="#B4A700"/>
<path d="M83.3313 43.6173H75.8564V44.4191H83.3313V43.6173Z" fill="#B4A700"/>
<path d="M73.1049 45.3583H61.3193V46.1601H73.1049V45.3583Z" fill="#B4A700"/>
<path d="M83.3313 45.3583H75.8564V46.1601H83.3313V45.3583Z" fill="#B4A700"/>
<path d="M73.1049 47.0993H61.3193V47.9011H73.1049V47.0993Z" fill="#B4A700"/>
<path d="M83.3313 47.0993H75.8564V47.9011H83.3313V47.0993Z" fill="#B4A700"/>
<path d="M73.1049 48.8634H61.3193V49.6652H73.1049V48.8634Z" fill="#B4A700"/>
<path d="M83.3313 48.8634H75.8564V49.6652H83.3313V48.8634Z" fill="#B4A700"/>
<path d="M73.1049 50.6044H61.3193V51.4062H73.1049V50.6044Z" fill="#B4A700"/>
<path d="M83.3313 50.6044H75.8564V51.4062H83.3313V50.6044Z" fill="#B4A700"/>
<path d="M73.1049 52.3454H61.3193V53.1472H73.1049V52.3454Z" fill="#B4A700"/>
<path d="M83.3313 52.3454H75.8564V53.1472H83.3313V52.3454Z" fill="#B4A700"/>
<path d="M73.1049 54.0864H61.3193V54.8882H73.1049V54.0864Z" fill="#B4A700"/>
<path d="M83.3313 54.0864H75.8564V54.8882H83.3313V54.0864Z" fill="#B4A700"/>
<path d="M73.1049 55.8274H61.3193V56.6292H73.1049V55.8274Z" fill="#B4A700"/>
<path d="M83.3313 55.8274H75.8564V56.6292H83.3313V55.8274Z" fill="#B4A700"/>
<path d="M73.1049 57.5685H61.3193V58.3703H73.1049V57.5685Z" fill="#B4A700"/>
<path d="M83.3313 57.5685H75.8564V58.3703H83.3313V57.5685Z" fill="#B4A700"/>
<path d="M73.1049 59.3095H61.3193V60.1113H73.1049V59.3095Z" fill="#B4A700"/>
<path d="M83.3313 59.3095H75.8564V60.1113H83.3313V59.3095Z" fill="#B4A700"/>
<path d="M73.1049 61.0505H61.3193V61.8523H73.1049V61.0505Z" fill="#B4A700"/>
<path d="M83.3313 61.0505H75.8564V61.8523H83.3313V61.0505Z" fill="#B4A700"/>
<path d="M73.1049 62.7916H61.3193V63.5934H73.1049V62.7916Z" fill="#B4A700"/>
<path d="M83.3313 62.7916H75.8564V63.5934H83.3313V62.7916Z" fill="#B4A700"/>
<path d="M45.6123 58.3932H44.0535V61.1646H45.6123V58.3932Z" fill="#A9A05F"/>
<path d="M49.0749 58.3932H47.516V61.1646H49.0749V58.3932Z" fill="#A9A05F"/>
<path d="M65.3318 57.4081L60.104 62.6312V77.1551H65.3318H70.5367V62.6312L65.3318 57.4081Z" fill="#F9EB24"/>
<path d="M60.1039 62.6311H39.5824V77.1779H60.1039V62.6311Z" fill="#B4A700"/>
<path d="M44.8102 57.4081H65.3317L60.1039 62.6312H39.5824L44.8102 57.4081Z" fill="#FFF6BB"/>
<path d="M42.2192 64.1204H40.7291V66.7772H42.2192V64.1204Z" fill="#615900"/>
<path d="M45.5436 64.1204H44.0535V66.7772H45.5436V64.1204Z" fill="#615900"/>
<path d="M48.8685 64.1204H47.3784V66.7772H48.8685V64.1204Z" fill="#615900"/>
<path d="M52.1928 64.1204H50.7028V66.7772H52.1928V64.1204Z" fill="#615900"/>
<path d="M55.5182 64.1204H54.0281V66.7772H55.5182V64.1204Z" fill="#615900"/>
<path d="M58.8426 64.1204H57.3525V66.7772H58.8426V64.1204Z" fill="#615900"/>
<path d="M42.2192 68.5645H40.7291V71.2213H42.2192V68.5645Z" fill="#615900"/>
<path d="M45.5436 68.5645H44.0535V71.2213H45.5436V68.5645Z" fill="#615900"/>
<path d="M55.5182 68.5645H54.0281V71.2213H55.5182V68.5645Z" fill="#615900"/>
<path d="M58.8426 68.5645H57.3525V71.2213H58.8426V68.5645Z" fill="#615900"/>
<path d="M43.4118 65.8613L46.4155 68.8394V77.1551H43.4118H40.431V68.8394L43.4118 65.8613Z" fill="#F7F2BC"/>
<path d="M52.2849 68.8393H46.415V77.155H52.2849V68.8393Z" fill="#F9EA22"/>
<path d="M49.3044 65.8613H43.4116L46.4153 68.8394H52.2852L49.3044 65.8613Z" fill="#6F662C"/>
<path d="M0.901245 72.2805C0.901245 72.2805 24.2636 74.3422 55.5692 72.2805C86.8456 70.2188 103.696 65.7058 126.591 69.165C149.486 72.6241 177.375 73.1968 196.269 73.1968C215.193 73.1968 236.92 70.5624 236.92 70.5624V104.283H0.901245V72.2805Z" fill="#EEE8A6"/>
<path d="M1.10583 79.1076C1.10583 79.1076 14.1012 71.2482 35.945 72.814C57.7888 74.3797 70.3461 76.5902 93.0076 76.5902C115.669 76.5902 130.475 66.858 158.218 72.5991C185.961 78.3401 198.956 77.0814 210.316 79.1076C221.676 81.1339 236.949 79.1076 236.949 79.1076V107.966H1.31026L1.10583 79.1076Z" fill="#FFF9A4"/>
<path d="M177.432 3.71114C177.363 3.71114 177.272 3.71114 177.203 3.73405C176.698 2.42828 175.437 1.48904 173.947 1.48904C173.534 1.48904 173.144 1.55776 172.778 1.69521C171.998 0.66434 170.783 0 169.384 0C167.183 0 165.372 1.6723 165.165 3.80277C164.959 3.75695 164.729 3.71114 164.5 3.71114C162.941 3.71114 161.68 4.97109 161.68 6.52885C161.68 8.08662 162.941 9.34657 164.5 9.34657H177.455C179.014 9.34657 180.275 8.08662 180.275 6.52885C180.23 4.97109 178.991 3.71114 177.432 3.71114Z" fill="#FFF145"/>
<path d="M177.432 3.71118C177.363 3.71118 177.271 3.71118 177.203 3.73409C176.698 2.42832 175.437 1.48908 173.947 1.48908C173.534 1.48908 173.144 1.55781 172.777 1.69526C172.319 1.07673 171.7 0.595659 170.966 0.297852V9.34662H177.432C178.991 9.34662 180.252 8.08666 180.252 6.5289C180.229 4.97114 178.991 3.71118 177.432 3.71118Z" fill="#ECDC2C"/>
<path d="M165.773 8.81825L165.547 9.70618L165.991 9.819L166.217 8.93107L165.773 8.81825Z" fill="#615900"/>
<path d="M162.551 23.4124L162.092 23.2978L162.528 21.6026L162.987 21.7172L162.551 23.4124ZM163.422 19.999L162.964 19.8845L163.399 18.1893L163.858 18.3038L163.422 19.999ZM164.271 16.6086L163.812 16.4941L164.248 14.7989L164.706 14.9134L164.271 16.6086ZM165.142 13.2182L164.683 13.1037L165.119 11.4084L165.578 11.523L165.142 13.2182Z" fill="#615900"/>
<path d="M161.692 24.9893L161.466 25.8773L161.911 25.9901L162.137 25.1022L161.692 24.9893Z" fill="#615900"/>
<path d="M167.924 8.80561L167.699 9.69354L168.143 9.80627L168.369 8.91835L167.924 8.80561Z" fill="#615900"/>
<path d="M164.729 23.4124L164.271 23.2978L164.707 21.6026L165.165 21.7172L164.729 23.4124ZM165.578 19.999L165.119 19.8845L165.555 18.1893L166.013 18.3038L165.578 19.999ZM166.449 16.6086L165.991 16.4941L166.426 14.7989L166.885 14.9134L166.449 16.6086ZM167.298 13.2182L166.839 13.1037L167.275 11.4084L167.733 11.523L167.298 13.2182Z" fill="#615900"/>
<path d="M163.838 24.9975L163.612 25.8854L164.057 25.9982L164.282 25.1102L163.838 24.9975Z" fill="#615900"/>
<path d="M170.1 8.80934L169.874 9.69727L170.318 9.81009L170.544 8.92216L170.1 8.80934Z" fill="#615900"/>
<path d="M166.885 23.4121L166.427 23.2975L166.862 21.6023L167.321 21.7169L166.885 23.4121ZM167.733 19.9987L167.275 19.8842L167.711 18.189L168.169 18.3035L167.733 19.9987ZM168.605 16.6083L168.146 16.4938L168.582 14.7986L169.04 14.9131L168.605 16.6083ZM169.453 13.2179L168.995 13.1034L169.43 11.4081L169.889 11.5227L169.453 13.2179Z" fill="#615900"/>
<path d="M166.015 25.0026L165.789 25.8906L166.233 26.0034L166.459 25.1155L166.015 25.0026Z" fill="#615900"/>
<path d="M172.258 8.81984L172.033 9.70776L172.477 9.82054L172.703 8.93261L172.258 8.81984Z" fill="#615900"/>
<path d="M169.04 23.4123L168.582 23.2978L169.017 21.6026L169.476 21.7171L169.04 23.4123ZM169.912 19.999L169.453 19.8844L169.889 18.1892L170.347 18.3038L169.912 19.999ZM170.76 16.6086L170.301 16.494L170.737 14.7988L171.196 14.9133L170.76 16.6086ZM171.631 13.2181L171.173 13.1036L171.608 11.4084L172.067 11.5229L171.631 13.2181Z" fill="#615900"/>
<path d="M168.159 25.011L167.933 25.8989L168.378 26.0117L168.604 25.1237L168.159 25.011Z" fill="#615900"/>
<path d="M174.417 8.8213L174.192 9.70923L174.636 9.82205L174.862 8.93412L174.417 8.8213Z" fill="#615900"/>
<path d="M171.195 23.4123L170.737 23.2978L171.172 21.6026L171.631 21.7171L171.195 23.4123ZM172.067 19.999L171.608 19.8844L172.044 18.1892L172.502 18.3038L172.067 19.999ZM172.915 16.6086L172.456 16.494L172.892 14.7988L173.351 14.9133L172.915 16.6086ZM173.786 13.2181L173.328 13.1036L173.763 11.4084L174.222 11.5229L173.786 13.2181Z" fill="#615900"/>
<path d="M170.337 24.9923L170.112 25.8802L170.556 25.993L170.782 25.1051L170.337 24.9923Z" fill="#615900"/>
<path d="M176.585 8.81117L176.359 9.6991L176.804 9.81187L177.029 8.92395L176.585 8.81117Z" fill="#615900"/>
<path d="M173.373 23.4121L172.915 23.2975L173.351 21.6023L173.809 21.7169L173.373 23.4121ZM174.222 19.9987L173.763 19.8842L174.199 18.189L174.658 18.3035L174.222 19.9987ZM175.093 16.6083L174.635 16.4938L175.07 14.7986L175.529 14.9131L175.093 16.6083ZM175.942 13.2179L175.483 13.1034L175.919 11.4081L176.377 11.5227L175.942 13.2179Z" fill="#615900"/>
<path d="M172.499 25.0043L172.273 25.8923L172.717 26.0051L172.943 25.1171L172.499 25.0043Z" fill="#615900"/>
<path d="M219.69 72.5275H198.274V74.131H219.69V72.5275Z" fill="#A9A05F"/>
<path d="M202.906 64.9449V72.5276H197.403V66.9609L201.898 65.3115L202.517 65.0824L202.906 64.9449Z" fill="#DCCF24"/>
<path d="M200.935 71.9091H215.77V64.9449H202.906L200.935 71.9091Z" fill="#D6CA25"/>
<path d="M215.77 64.67H215.013V71.909H215.77V64.67Z" fill="#F9EA22"/>
<path d="M212.72 64.67H211.963V71.909H212.72V64.67Z" fill="#F9EA22"/>
<path d="M209.67 64.67H208.914V71.909H209.67V64.67Z" fill="#F9EA22"/>
<path d="M206.621 64.67H205.864V71.909H206.621V64.67Z" fill="#F9EA22"/>
<path d="M200.567 72.5275L199.65 74.1536H198.366L198.32 74.1307L197.908 73.7872L197.403 73.352V72.5275H200.567Z" fill="#F9EA22"/>
<path d="M215.77 67.8772H202.906V68.4499H215.77V67.8772Z" fill="#F9EA22"/>
<path d="M202.08 67.8772H197.816V68.4498H202.08V67.8772Z" fill="#F9EA22"/>
<path d="M197.954 72.5275H197.403V66.9608L197.954 66.7546V72.5275Z" fill="#F9EA22"/>
<path d="M200.934 71.9091H197.403V72.5275H200.934V71.9091Z" fill="#F9EA22"/>
<path d="M200.567 72.5276H215.769V71.9091H200.934L200.567 72.5276Z" fill="#F9EA22"/>
<path d="M202.907 64.9449V65.5406L199.192 72.5276L198.321 74.1312L197.908 73.7875L198.573 72.5276L202.104 65.8613L202.517 65.0824L202.907 64.9449Z" fill="#F9EA22"/>
<path d="M202.906 64.9449V65.1053L202.104 65.8613L197.403 70.4429V69.687L201.898 65.3115L202.517 65.0824L202.906 64.9449Z" fill="#F9EA22"/>
<path d="M203.548 64.67H202.792V71.909H203.548V64.67Z" fill="#F9EA22"/>
<path d="M212.88 73.169H207.01V75.0475H212.88V73.169Z" fill="#A9A05F"/>
<path d="M203.892 73.1002C203.021 73.1002 202.31 73.8102 202.31 74.6805C202.31 75.5508 203.021 76.2609 203.892 76.2609C204.763 76.2609 205.474 75.5508 205.474 74.6805C205.474 73.8102 204.763 73.1002 203.892 73.1002Z" fill="#A9A05F"/>
<path d="M205.726 74.8867C205.611 74.8867 205.542 74.7951 205.542 74.7035C205.542 73.8102 204.809 73.0773 203.915 73.0773C203.021 73.0773 202.287 73.8102 202.287 74.7035C202.287 74.818 202.195 74.8867 202.104 74.8867C201.989 74.8867 201.92 74.7951 201.92 74.7035C201.92 73.6041 202.814 72.6879 203.938 72.6879C205.038 72.6879 205.955 73.5812 205.955 74.7035C205.909 74.7951 205.817 74.8867 205.726 74.8867Z" fill="#A9A05F"/>
<path d="M203.892 73.6959C203.342 73.6959 202.906 74.131 202.906 74.7036C202.906 75.2533 203.342 75.7114 203.892 75.7114C204.442 75.7114 204.878 75.2762 204.878 74.7036C204.901 74.131 204.442 73.6959 203.892 73.6959Z" fill="#F9EA22"/>
<path d="M203.894 75.4369C204.312 75.4361 204.65 75.0971 204.649 74.6797C204.648 74.2622 204.309 73.9245 203.891 73.9252C203.473 73.926 203.135 74.265 203.136 74.6825C203.137 75.0999 203.476 75.4377 203.894 75.4369Z" fill="#A9A05F"/>
<path d="M216.893 73.1003C216.022 73.1003 215.311 73.8104 215.311 74.6807C215.311 75.551 216.022 76.261 216.893 76.261C217.764 76.261 218.475 75.551 218.475 74.6807C218.475 73.8104 217.764 73.1003 216.893 73.1003Z" fill="#A9A05F"/>
<path d="M218.704 74.8867C218.589 74.8867 218.52 74.7951 218.52 74.7035C218.52 73.8102 217.787 73.0773 216.893 73.0773C215.999 73.0773 215.265 73.8102 215.265 74.7035C215.265 74.818 215.173 74.8867 215.082 74.8867C214.99 74.8867 214.898 74.7951 214.898 74.7035C214.898 73.6041 215.792 72.6879 216.916 72.6879C218.016 72.6879 218.933 73.5812 218.933 74.7035C218.91 74.7951 218.818 74.8867 218.704 74.8867Z" fill="#A9A05F"/>
<path d="M216.893 73.6959C216.343 73.6959 215.907 74.131 215.907 74.7036C215.907 75.2533 216.343 75.7114 216.893 75.7114C217.443 75.7114 217.879 75.2762 217.879 74.7036C217.902 74.131 217.443 73.6959 216.893 73.6959Z" fill="#F9EA22"/>
<path d="M216.893 73.9479C216.48 73.9479 216.136 74.2914 216.136 74.7037C216.136 75.116 216.48 75.4595 216.893 75.4595C217.306 75.4595 217.649 75.116 217.649 74.7037C217.649 74.2685 217.306 73.9479 216.893 73.9479Z" fill="#A9A05F"/>
<path d="M220.401 66.0674H216.526C216.114 66.0674 215.77 66.411 215.77 66.8234V72.5275H221.479L221.158 66.7775C221.135 66.3881 220.791 66.0674 220.401 66.0674Z" fill="#F9EA22"/>
<path d="M215.77 68.4269H221.25L221.708 68.7477C221.915 68.8851 222.029 69.1371 222.029 69.3891V72.5275H215.77V68.4269Z" fill="#F9EA22"/>
<path d="M218.131 66.9838H220.538C220.653 66.9838 220.768 67.0983 220.768 67.2357V70.2361C220.768 70.3735 220.676 70.488 220.538 70.488H219.461C219.415 70.488 219.346 70.4651 219.323 70.4193L217.994 69.1596C217.948 69.1138 217.925 69.0451 217.925 68.9764V67.2128C217.902 67.0754 217.994 66.9838 218.131 66.9838Z" fill="#B4A700"/>
<path d="M217.65 66.7546H217.352V72.5504H217.65V66.7546Z" fill="#F9EA22"/>
<path d="M218.269 72.5275L222.029 71.9091V73.6268C222.029 74.0162 221.731 74.3139 221.341 74.3139H219.209L218.269 72.5275Z" fill="#F9EA22"/>
<path d="M218.957 64.9449H218.865C218.704 64.9449 218.567 65.0824 218.544 65.2427L218.475 66.0672H219.323L219.255 65.2427C219.255 65.0824 219.117 64.9449 218.957 64.9449Z" fill="#F9EA22"/>
<path d="M103.715 47.3056H102.523V76.7198H103.715V47.3056Z" fill="#F9EA22"/>
<path d="M103.119 33.4001C99.2442 43.5943 103.119 46.3891 103.119 46.3891C103.119 46.3891 107.017 43.5943 103.119 33.4001Z" fill="#F9EA22"/>
<path d="M115.685 53.2846C108.164 45.4042 103.968 47.695 103.968 47.695C103.968 47.695 104.816 52.3912 115.685 53.2846Z" fill="#F9EA22"/>
<path d="M90.5769 53.2846C98.0976 45.4042 102.294 47.695 102.294 47.695C102.294 47.695 101.445 52.3912 90.5769 53.2846Z" fill="#F9EA22"/>
<path d="M104.609 47.3053C104.609 48.1298 103.944 48.7711 103.142 48.7711C102.317 48.7711 101.675 48.1069 101.675 47.3053C101.675 46.4807 102.34 45.8394 103.142 45.8394C103.944 45.8165 104.609 46.4807 104.609 47.3053Z" fill="#F9EA22"/>
<path d="M91.9069 73.2377H88.5364V79.3542H91.9069V73.2377Z" fill="#615900"/>
<path d="M90.6688 73.2377H88.5364V79.3542H90.6688V73.2377Z" fill="#A9A05F"/>
<path d="M83.1709 75.0246V74.6122L86.8625 66.8922H99.5423V67.3045L95.8507 75.0246H83.1709Z" fill="#A9A05F"/>
<path d="M83.1709 74.6122L86.8625 66.8922H99.5423L95.8507 74.6122H83.1709Z" fill="#615900"/>
<path d="M88.6039 69.6183H85.8072L84.7068 71.8857H87.5265L88.6039 69.6183Z" fill="#F9EA22"/>
<path d="M89.7968 67.1442H86.9771L85.9226 69.3659H88.7194L89.7968 67.1442Z" fill="#F9EA22"/>
<path d="M91.7687 69.6183H88.8573L87.757 71.8857H90.6913L91.7687 69.6183Z" fill="#F9EA22"/>
<path d="M91.8831 69.3659L92.9605 67.1442H90.0262L88.9717 69.3659H91.8831Z" fill="#F9EA22"/>
<path d="M95.048 69.3659L96.1254 67.1442H93.214L92.1366 69.3659H95.048Z" fill="#F9EA22"/>
<path d="M94.9325 69.6183H92.021L90.9436 71.8857H93.855L94.9325 69.6183Z" fill="#F9EA22"/>
<path d="M90.8057 72.1154L89.7512 74.36H92.6626L93.7401 72.1154H90.8057Z" fill="#F9EA22"/>
<path d="M94.1085 71.8857H96.9053L97.9828 69.6183H95.186L94.1085 71.8857Z" fill="#F9EA22"/>
<path d="M96.3779 67.1442L95.3004 69.3659H98.0972L99.1746 67.1442H96.3779Z" fill="#F9EA22"/>
<path d="M87.6418 72.1154L86.5873 74.36H89.4987L90.5761 72.1154H87.6418Z" fill="#F9EA22"/>
<path d="M92.9156 74.36H95.7124L96.7899 72.1154H93.9931L92.9156 74.36Z" fill="#F9EA22"/>
<path d="M84.5922 72.1154L83.5377 74.36H86.3345L87.389 72.1154H84.5922Z" fill="#F9EA22"/>
<path d="M129.144 56.5834L126.759 58.9659C126.163 59.5615 125.842 60.3404 125.842 61.188V73.5126H126.163V61.3254C126.163 60.5007 126.484 59.699 127.08 59.1033L129.144 57.0416V56.5834Z" fill="#F9EA22"/>
<path d="M128.891 57.133L131.848 56.2856L131.825 56.194C131.757 55.942 131.527 55.8046 131.298 55.8504L129.12 56.4688C128.891 56.5375 128.776 56.7895 128.845 57.0414L128.891 57.133Z" fill="#F9EA22"/>
<path d="M130.381 56.6977L128.891 57.1329C129.144 57.5681 130.496 57.0871 130.496 57.0871C130.496 57.0871 131.894 56.7665 131.872 56.2626L130.381 56.6977Z" fill="#F9EA22"/>
<path d="M147.234 56.5834L144.85 58.9659C144.254 59.5615 143.932 60.3404 143.932 61.188V73.5126H144.254V61.3254C144.254 60.5007 144.575 59.699 145.171 59.1033L147.234 57.0416V56.5834Z" fill="#F9EA22"/>
<path d="M146.983 57.133L149.94 56.2856L149.917 56.194C149.848 55.942 149.619 55.8046 149.39 55.8504L147.212 56.4688C146.983 56.5375 146.868 56.7895 146.937 57.0414L146.983 57.133Z" fill="#F9EA22"/>
<path d="M148.473 56.6977L146.982 57.1329C147.235 57.5681 148.587 57.0871 148.587 57.0871C148.587 57.0871 149.986 56.7665 149.963 56.2626L148.473 56.6977Z" fill="#F9EA22"/>
<path d="M165.326 56.5834L162.941 58.9659C162.345 59.5615 162.024 60.3404 162.024 61.188V73.5126H162.345V61.3254C162.345 60.5007 162.666 59.699 163.262 59.1033L165.326 57.0416V56.5834Z" fill="#F9EA22"/>
<path d="M165.073 57.133L168.03 56.2856L168.007 56.194C167.939 55.942 167.709 55.8046 167.48 55.8504L165.302 56.4688C165.073 56.5375 164.958 56.7895 165.027 57.0414L165.073 57.133Z" fill="#F9EA22"/>
<path d="M166.54 56.6977L165.073 57.1329C165.325 57.5681 166.678 57.0871 166.678 57.0871C166.678 57.0871 168.076 56.7665 168.053 56.2626L166.54 56.6977Z" fill="#F9EA22"/>
<path d="M183.394 56.5834L181.009 58.9659C180.413 59.5615 180.092 60.3404 180.092 61.188V73.5126H180.413V61.3254C180.413 60.5007 180.734 59.699 181.33 59.1033L183.394 57.0416V56.5834Z" fill="#F9EA22"/>
<path d="M183.142 57.133L186.099 56.2856L186.076 56.194C186.007 55.942 185.778 55.8046 185.549 55.8504L183.371 56.4688C183.142 56.5375 183.027 56.7895 183.096 57.0414L183.142 57.133Z" fill="#F9EA22"/>
<path d="M184.632 56.6977L183.142 57.1329C183.394 57.5681 184.746 57.0871 184.746 57.0871C184.746 57.0871 186.145 56.7665 186.122 56.2626L184.632 56.6977Z" fill="#F9EA22"/>
<path d="M201.485 56.5834L199.1 58.9659C198.504 59.5615 198.183 60.3404 198.183 61.188V73.5126H198.504V61.3254C198.504 60.5007 198.825 59.699 199.421 59.1033L201.485 57.0416V56.5834Z" fill="#F9EA22"/>
<path d="M201.232 57.133L204.19 56.2856L204.167 56.194C204.098 55.942 203.869 55.8046 203.639 55.8504L201.462 56.4688C201.232 56.5375 201.118 56.7895 201.187 57.0414L201.232 57.133Z" fill="#F9EA22"/>
<path d="M202.723 56.6977L201.233 57.1329C201.485 57.5681 202.837 57.0871 202.837 57.0871C202.837 57.0871 204.236 56.7665 204.213 56.2626L202.723 56.6977Z" fill="#F9EA22"/>
<path d="M219.576 56.5834L217.191 58.9659C216.595 59.5615 216.274 60.3404 216.274 61.188V73.5126H216.595V61.3254C216.595 60.5007 216.916 59.699 217.512 59.1033L219.576 57.0416V56.5834Z" fill="#F9EA22"/>
<path d="M219.324 57.133L222.281 56.2856L222.258 56.194C222.189 55.942 221.96 55.8046 221.731 55.8504L219.553 56.4688C219.324 56.5375 219.209 56.7895 219.278 57.0414L219.324 57.133Z" fill="#F9EA22"/>
<path d="M220.79 56.6977L219.3 57.1329C219.552 57.5681 220.905 57.0871 220.905 57.0871C220.905 57.0871 222.303 56.7665 222.28 56.2626L220.79 56.6977Z" fill="#F9EA22"/>
</g>
</svg>
