<svg width="309" height="553" viewBox="0 0 309 553" fill="none" xmlns="http://www.w3.org/2000/svg">
<rect width="308.197" height="411" rx="25" fill="#FFF786"/>
<path d="M272.075 115.245H36.075V361C36.075 372.046 45.0293 381 56.075 381H252.075C263.121 381 272.075 372.046 272.075 361V115.245Z" fill="#FFF9A4"/>
<g opacity="0.44">
<path d="M127.607 85.1751H126.301V88.0839H127.607V85.1751Z" fill="#A9A05F"/>
<path d="M128.685 80.0895H130.428L128.158 75.5537H129.35L126.966 68.7041L124.581 75.5537H125.773L123.503 80.0895H125.223L122.426 85.3584H126.966H131.506L128.685 80.0895Z" fill="#615900"/>
<path d="M147.212 83.6631H145.906V86.5719H147.212V83.6631Z" fill="#A9A05F"/>
<path d="M148.29 78.5775H150.032L147.762 74.0417H148.955L146.57 67.1921L144.185 74.0417H145.378L143.108 78.5775H144.827L142.03 83.8464H146.57H151.087L148.29 78.5775Z" fill="#615900"/>
<path d="M36.2795 113.107C36.2795 113.107 47.5715 97.8199 65.5132 98.4291C83.4548 99.0383 94.3286 90.2345 125.883 87.051C157.438 83.8871 187.613 85.3216 206.872 89.9397C226.131 94.5578 271.905 101.613 271.905 101.613V124.86H36.2795V113.107Z" fill="#615900"/>
<path d="M166.61 65.2448H150.789V127.395H166.61V65.2448Z" fill="#D8C900"/>
<path d="M182.431 65.2448H166.61V127.395H182.431V65.2448Z" fill="#F9EA22"/>
<path d="M170.394 68.3146H168.743V122.882H170.394V68.3146Z" fill="#A9A05F"/>
<path d="M173.695 68.3145H172.044V122.882H173.695V68.3145Z" fill="#A9A05F"/>
<path d="M176.997 68.3145H175.346V122.882H176.997V68.3145Z" fill="#A9A05F"/>
<path d="M180.299 68.3145H178.648V122.882H180.299V68.3145Z" fill="#A9A05F"/>
<path d="M165.074 68.3146H152.326V69.8036H165.074V68.3146Z" fill="#F9EA22"/>
<path d="M165.074 72.1632H152.326V73.6522H165.074V72.1632Z" fill="#F9EA22"/>
<path d="M165.074 76.0346H152.326V77.5236H165.074V76.0346Z" fill="#F9EA22"/>
<path d="M165.074 79.8834H152.326V81.3724H165.074V79.8834Z" fill="#F9EA22"/>
<path d="M165.074 83.7547H152.326V85.2437H165.074V83.7547Z" fill="#F9EA22"/>
<path d="M165.074 87.6032H152.326V89.0922H165.074V87.6032Z" fill="#F9EA22"/>
<path d="M165.074 91.4749H152.326V92.9639H165.074V91.4749Z" fill="#F9EA22"/>
<path d="M165.074 95.3234H152.326V96.8124H165.074V95.3234Z" fill="#F9EA22"/>
<path d="M165.074 99.195H152.326V100.684H165.074V99.195Z" fill="#F9EA22"/>
<path d="M165.074 103.044H152.326V104.533H165.074V103.044Z" fill="#F9EA22"/>
<path d="M165.074 106.915H152.326V108.404H165.074V106.915Z" fill="#F9EA22"/>
<path d="M165.074 110.786H152.326V112.276H165.074V110.786Z" fill="#F9EA22"/>
<path d="M165.074 114.635H152.326V116.124H165.074V114.635Z" fill="#F9EA22"/>
<path d="M165.074 118.507H152.326V119.996H165.074V118.507Z" fill="#F9EA22"/>
<path d="M165.074 122.355H152.326V123.844H165.074V122.355Z" fill="#F9EA22"/>
<path d="M169.499 72.6671L164.042 78.8753V113.1H169.499H174.979V78.8753L169.499 72.6671Z" fill="#FFF56A"/>
<path d="M190.778 72.6671L174.98 78.8753V113.1H180.46H196.235V78.8753L190.778 72.6671Z" fill="#F9EA22"/>
<path d="M169.499 72.6671H190.777L196.234 78.8753H174.979L169.499 72.6671Z" fill="#A9A05F"/>
<path d="M178.028 100.065H176.263V104.806H178.028V100.065Z" fill="#615900"/>
<path d="M181.33 100.065H179.564V104.806H181.33V100.065Z" fill="#615900"/>
<path d="M184.655 100.065H182.89V104.806H184.655V100.065Z" fill="#615900"/>
<path d="M167.068 100.065H165.303V104.806H167.068V100.065Z" fill="#615900"/>
<path d="M170.393 100.065H168.628V104.806H170.393V100.065Z" fill="#615900"/>
<path d="M173.718 100.065H171.953V104.806H173.718V100.065Z" fill="#615900"/>
<path d="M171.929 106.319H167.068V113.1H171.929V106.319Z" fill="#615900"/>
<path d="M178.028 82.6781H176.263V87.4192H178.028V82.6781Z" fill="#615900"/>
<path d="M181.33 82.6781H179.564V87.4192H181.33V82.6781Z" fill="#615900"/>
<path d="M184.655 82.6781H182.89V87.4192H184.655V82.6781Z" fill="#615900"/>
<path d="M187.728 100.065H185.962V104.806H187.728V100.065Z" fill="#615900"/>
<path d="M191.053 100.065H189.287V104.806H191.053V100.065Z" fill="#615900"/>
<path d="M194.377 100.065H192.612V104.806H194.377V100.065Z" fill="#615900"/>
<path d="M187.728 82.6781H185.962V87.4192H187.728V82.6781Z" fill="#615900"/>
<path d="M191.053 82.6781H189.287V87.4192H191.053V82.6781Z" fill="#615900"/>
<path d="M194.377 82.6781H192.612V87.4192H194.377V82.6781Z" fill="#615900"/>
<path d="M167.068 82.6781H165.303V87.4192H167.068V82.6781Z" fill="#615900"/>
<path d="M170.393 82.6781H168.628V87.4192H170.393V82.6781Z" fill="#615900"/>
<path d="M173.718 82.6781H171.953V87.4192H173.718V82.6781Z" fill="#615900"/>
<path d="M171.929 88.9548H167.068V95.7357H171.929V88.9548Z" fill="#615900"/>
<path d="M174.979 95.5754H164.042V97.0186H174.979V95.5754Z" fill="#615900"/>
<path d="M196.235 95.5754H174.98V97.0186H196.235V95.5754Z" fill="#615900"/>
<path d="M192.268 91.4062L186.788 97.6143V113.1H192.268H197.725V97.6143L192.268 91.4062Z" fill="#B4A700"/>
<path d="M203.204 91.4062L197.724 97.6143V113.1H203.204H208.684V97.6143L203.204 91.4062Z" fill="#D8C900"/>
<path d="M192.268 91.4062H208.639L208.685 97.6143H197.725L192.268 91.4062Z" fill="#A9A05F"/>
<path d="M200.774 100.065H199.009V104.806H200.774V100.065Z" fill="#D8C900"/>
<path d="M204.098 100.065H202.333V104.806H204.098V100.065Z" fill="#D8C900"/>
<path d="M207.423 100.065H205.658V104.806H207.423V100.065Z" fill="#D8C900"/>
<path d="M189.814 100.065H188.049V104.806H189.814V100.065Z" fill="#D8C900"/>
<path d="M193.138 100.065H191.373V104.806H193.138V100.065Z" fill="#D8C900"/>
<path d="M196.463 100.065H194.698V104.806H196.463V100.065Z" fill="#D8C900"/>
<path d="M194.698 106.319H189.837V113.1H194.698V106.319Z" fill="#D8C900"/>
<path d="M199.307 93.1931V90.0317H201.072V95.1861L199.307 93.1931Z" fill="#B4A700"/>
<path d="M203.205 90.0317H201.073V95.1861H203.205V90.0317Z" fill="#D8C900"/>
<path d="M225.033 91.4062L230.49 97.6143V113.1H225.033H219.553V97.6143L225.033 91.4062Z" fill="#D8C900"/>
<path d="M214.073 91.4062L219.553 97.6143V113.1H214.073H208.616V97.6143L214.073 91.4062Z" fill="#B4A700"/>
<path d="M225.033 91.4062H208.639L208.616 97.6143H219.553L225.033 91.4062Z" fill="#615900"/>
<path d="M216.518 104.785H218.283V100.044H216.518V104.785Z" fill="#D8C900"/>
<path d="M213.201 104.785H214.967V100.044H213.201V104.785Z" fill="#D8C900"/>
<path d="M209.884 104.785H211.649V100.044H209.884V104.785Z" fill="#D8C900"/>
<path d="M227.464 104.785H229.229V100.044H227.464V104.785Z" fill="#D8C900"/>
<path d="M224.147 104.785H225.912V100.044H224.147V104.785Z" fill="#D8C900"/>
<path d="M220.83 104.785H222.595V100.044H220.83V104.785Z" fill="#D8C900"/>
<path d="M222.588 113.087H227.448V106.306H222.588V113.087Z" fill="#D8C900"/>
<path d="M217.971 93.1931V90.0317H216.229V95.1861L217.971 93.1931Z" fill="#B4A700"/>
<path d="M216.206 90.0317H214.073V95.1861H216.206V90.0317Z" fill="#D8C900"/>
<path d="M241.565 72.6671L236.108 78.8753V113.1H241.565H247.045V78.8753L241.565 72.6671Z" fill="#F9EA22"/>
<path d="M252.525 72.6671L247.045 78.8753V113.1H252.525H257.982V78.8753L252.525 72.6671Z" fill="#FFF593"/>
<path d="M241.565 72.6671H252.525L257.982 78.8753H247.045L241.565 72.6671Z" fill="#A9A05F"/>
<path d="M250.095 100.065H248.33V104.806H250.095V100.065Z" fill="#D8C900"/>
<path d="M253.396 100.065H251.631V104.806H253.396V100.065Z" fill="#D8C900"/>
<path d="M256.721 100.065H254.956V104.806H256.721V100.065Z" fill="#D8C900"/>
<path d="M239.134 100.065H237.369V104.806H239.134V100.065Z" fill="#D8C900"/>
<path d="M242.459 100.065H240.694V104.806H242.459V100.065Z" fill="#D8C900"/>
<path d="M245.784 100.065H244.019V104.806H245.784V100.065Z" fill="#D8C900"/>
<path d="M243.996 106.319H239.135V113.1H243.996V106.319Z" fill="#D8C900"/>
<path d="M250.095 82.6781H248.33V87.4192H250.095V82.6781Z" fill="#D8C900"/>
<path d="M253.396 82.6781H251.631V87.4192H253.396V82.6781Z" fill="#D8C900"/>
<path d="M256.721 82.6781H254.956V87.4192H256.721V82.6781Z" fill="#D8C900"/>
<path d="M239.134 82.6781H237.369V87.4192H239.134V82.6781Z" fill="#D8C900"/>
<path d="M242.459 82.6781H240.694V87.4192H242.459V82.6781Z" fill="#D8C900"/>
<path d="M245.784 82.6781H244.019V87.4192H245.784V82.6781Z" fill="#D8C900"/>
<path d="M243.996 88.9548H239.135V95.7357H243.996V88.9548Z" fill="#D8C900"/>
<path d="M247.045 95.5754H236.108V97.0186H247.045V95.5754Z" fill="#D8C900"/>
<path d="M257.982 95.5754H247.045V97.0186H257.982V95.5754Z" fill="#D8C900"/>
<path d="M130.382 91.4061L124.902 97.6143V113.1H130.382H135.839V97.6143L130.382 91.4061Z" fill="#FFF56A"/>
<path d="M141.319 91.4061L135.839 97.6143V113.1H141.319H146.799V97.6143L141.319 91.4061Z" fill="#A9A05F"/>
<path d="M130.382 91.4061H141.319L146.799 97.6143H135.839L130.382 91.4061Z" fill="#A9A05F"/>
<path d="M138.888 100.065H137.123V104.806H138.888V100.065Z" fill="#A9A05F"/>
<path d="M142.213 100.065H140.448V104.806H142.213V100.065Z" fill="#A9A05F"/>
<path d="M145.538 100.065H143.772V104.806H145.538V100.065Z" fill="#A9A05F"/>
<path d="M127.928 100.065H126.163V104.806H127.928V100.065Z" fill="#A9A05F"/>
<path d="M131.253 100.065H129.488V104.806H131.253V100.065Z" fill="#A9A05F"/>
<path d="M134.578 100.065H132.813V104.806H134.578V100.065Z" fill="#A9A05F"/>
<path d="M132.813 106.319H127.952V113.1H132.813V106.319Z" fill="#A9A05F"/>
<path d="M137.421 93.193V90.0317H139.186V95.186L137.421 93.193Z" fill="#FFF56A"/>
<path d="M141.319 90.0317H139.187V95.186H141.319V90.0317Z" fill="#A9A05F"/>
<path d="M161.313 109.297H159.64V113.031H161.313V109.297Z" fill="#A9A05F"/>
<path d="M162.712 102.791H164.914L162.025 96.9727H163.538L160.488 88.2217L157.439 96.9727H158.952L156.063 102.791H158.264L154.687 109.549H160.488H166.289L162.712 102.791Z" fill="#615900"/>
<path d="M172.366 113.032C172.022 110.557 169.889 108.633 167.321 108.633C164.776 108.633 162.667 110.512 162.277 112.963C162.162 112.94 162.048 112.917 161.933 112.917C161.727 112.917 161.543 112.963 161.36 113.009C160.947 111.68 159.709 110.718 158.264 110.718C157.76 110.718 157.278 110.832 156.843 111.039C156.361 108.725 154.298 107.007 151.844 107.007C149.826 107.007 148.107 108.175 147.281 109.847C146.502 109.091 145.447 108.633 144.278 108.633C142.581 108.633 141.113 109.618 140.425 111.039C139.99 110.832 139.531 110.718 139.027 110.718C137.559 110.718 136.321 111.703 135.908 113.032H172.366Z" fill="#F7E31A"/>
<path d="M75.5589 61.8087H52.8821V113.375H75.5589V61.8087Z" fill="#E1D76C"/>
<path d="M66.5478 61.8087H52.8821V113.375H66.5478V61.8087Z" fill="#FFF9BD"/>
<path d="M55.4037 63.8932H53.9365V65.6339H55.4037V63.8932Z" fill="#F9EA22"/>
<path d="M58.66 63.8932H57.1929V65.6339H58.66V63.8932Z" fill="#F9EA22"/>
<path d="M61.8929 63.8932H60.4258V65.6339H61.8929V63.8932Z" fill="#F9EA22"/>
<path d="M65.1493 63.8932H63.6821V65.6339H65.1493V63.8932Z" fill="#F9EA22"/>
<path d="M55.4037 68.6581H53.9365V70.3988H55.4037V68.6581Z" fill="#F9EA22"/>
<path d="M58.66 68.6581H57.1929V70.3988H58.66V68.6581Z" fill="#F9EA22"/>
<path d="M61.8929 68.6581H60.4258V70.3988H61.8929V68.6581Z" fill="#F9EA22"/>
<path d="M65.1493 68.6581H63.6821V70.3988H65.1493V68.6581Z" fill="#F9EA22"/>
<path d="M55.4037 73.4001H53.9365V75.1408H55.4037V73.4001Z" fill="#F9EA22"/>
<path d="M58.66 73.4001H57.1929V75.1408H58.66V73.4001Z" fill="#F9EA22"/>
<path d="M61.8929 73.4001H60.4258V75.1408H61.8929V73.4001Z" fill="#F9EA22"/>
<path d="M65.1493 73.4001H63.6821V75.1408H65.1493V73.4001Z" fill="#F9EA22"/>
<path d="M55.4037 78.1652H53.9365V79.9059H55.4037V78.1652Z" fill="#F9EA22"/>
<path d="M58.66 78.1652H57.1929V79.9059H58.66V78.1652Z" fill="#F9EA22"/>
<path d="M61.8929 78.1652H60.4258V79.9059H61.8929V78.1652Z" fill="#F9EA22"/>
<path d="M65.1493 78.1652H63.6821V79.9059H65.1493V78.1652Z" fill="#F9EA22"/>
<path d="M55.4037 82.9301H53.9365V84.6708H55.4037V82.9301Z" fill="#F9EA22"/>
<path d="M58.66 82.9301H57.1929V84.6708H58.66V82.9301Z" fill="#F9EA22"/>
<path d="M61.8929 82.9301H60.4258V84.6708H61.8929V82.9301Z" fill="#F9EA22"/>
<path d="M65.1493 82.9301H63.6821V84.6708H65.1493V82.9301Z" fill="#F9EA22"/>
<path d="M55.4037 87.695H53.9365V89.4357H55.4037V87.695Z" fill="#F9EA22"/>
<path d="M58.66 87.695H57.1929V89.4357H58.66V87.695Z" fill="#F9EA22"/>
<path d="M61.8929 87.695H60.4258V89.4357H61.8929V87.695Z" fill="#F9EA22"/>
<path d="M65.1493 87.695H63.6821V89.4357H65.1493V87.695Z" fill="#F9EA22"/>
<path d="M55.4037 92.4371H53.9365V94.1778H55.4037V92.4371Z" fill="#F9EA22"/>
<path d="M58.66 92.4371H57.1929V94.1778H58.66V92.4371Z" fill="#F9EA22"/>
<path d="M61.8929 92.4371H60.4258V94.1778H61.8929V92.4371Z" fill="#F9EA22"/>
<path d="M65.1493 92.4371H63.6821V94.1778H65.1493V92.4371Z" fill="#F9EA22"/>
<path d="M55.4037 97.202H53.9365V98.9426H55.4037V97.202Z" fill="#F9EA22"/>
<path d="M58.66 97.202H57.1929V98.9426H58.66V97.202Z" fill="#F9EA22"/>
<path d="M61.8929 97.202H60.4258V98.9426H61.8929V97.202Z" fill="#F9EA22"/>
<path d="M65.1493 97.202H63.6821V98.9426H65.1493V97.202Z" fill="#F9EA22"/>
<path d="M96.1717 70.5137H75.4209V112.115H96.1717V70.5137Z" fill="#615900"/>
<path d="M87.9172 70.5137H75.4209V112.115H87.9172V70.5137Z" fill="#FFF9A2"/>
<path d="M77.7368 72.186H76.3843V73.5832H77.7368V72.186Z" fill="#B4A700"/>
<path d="M80.6943 72.186H79.3418V73.5832H80.6943V72.186Z" fill="#B4A700"/>
<path d="M83.6748 72.186H82.3223V73.5832H83.6748V72.186Z" fill="#B4A700"/>
<path d="M86.6326 72.186H85.28V73.5832H86.6326V72.186Z" fill="#B4A700"/>
<path d="M77.7368 76.0345H76.3843V77.4317H77.7368V76.0345Z" fill="#B4A700"/>
<path d="M80.6943 76.0345H79.3418V77.4317H80.6943V76.0345Z" fill="#B4A700"/>
<path d="M83.6748 76.0345H82.3223V77.4317H83.6748V76.0345Z" fill="#B4A700"/>
<path d="M86.6326 76.0345H85.28V77.4317H86.6326V76.0345Z" fill="#B4A700"/>
<path d="M77.7368 79.8604H76.3843V81.2575H77.7368V79.8604Z" fill="#B4A700"/>
<path d="M80.6943 79.8603H79.3418V81.2574H80.6943V79.8603Z" fill="#B4A700"/>
<path d="M83.6748 79.8603H82.3223V81.2574H83.6748V79.8603Z" fill="#B4A700"/>
<path d="M86.6326 79.8603H85.28V81.2574H86.6326V79.8603Z" fill="#B4A700"/>
<path d="M77.7368 83.709H76.3843V85.1061H77.7368V83.709Z" fill="#B4A700"/>
<path d="M80.6943 83.709H79.3418V85.1061H80.6943V83.709Z" fill="#B4A700"/>
<path d="M83.6748 83.709H82.3223V85.1061H83.6748V83.709Z" fill="#B4A700"/>
<path d="M86.6326 83.709H85.28V85.1061H86.6326V83.709Z" fill="#B4A700"/>
<path d="M77.7368 87.5345H76.3843V88.9317H77.7368V87.5345Z" fill="#B4A700"/>
<path d="M80.6943 87.5345H79.3418V88.9316H80.6943V87.5345Z" fill="#B4A700"/>
<path d="M83.6748 87.5345H82.3223V88.9316H83.6748V87.5345Z" fill="#B4A700"/>
<path d="M86.6326 87.5345H85.28V88.9316H86.6326V87.5345Z" fill="#B4A700"/>
<path d="M77.7368 91.3833H76.3843V92.7804H77.7368V91.3833Z" fill="#B4A700"/>
<path d="M80.6943 91.3832H79.3418V92.7804H80.6943V91.3832Z" fill="#B4A700"/>
<path d="M83.6748 91.3832H82.3223V92.7804H83.6748V91.3832Z" fill="#B4A700"/>
<path d="M86.6326 91.3832H85.28V92.7804H86.6326V91.3832Z" fill="#B4A700"/>
<path d="M77.7368 95.2089H76.3843V96.606H77.7368V95.2089Z" fill="#B4A700"/>
<path d="M80.6943 95.2089H79.3418V96.606H80.6943V95.2089Z" fill="#B4A700"/>
<path d="M83.6748 95.2089H82.3223V96.606H83.6748V95.2089Z" fill="#B4A700"/>
<path d="M86.6326 95.2089H85.28V96.606H86.6326V95.2089Z" fill="#B4A700"/>
<path d="M77.7368 99.0574H76.3843V100.454H77.7368V99.0574Z" fill="#B4A700"/>
<path d="M80.6943 99.0576H79.3418V100.455H80.6943V99.0576Z" fill="#B4A700"/>
<path d="M83.6748 99.0576H82.3223V100.455H83.6748V99.0576Z" fill="#B4A700"/>
<path d="M86.6326 99.0576H85.28V100.455H86.6326V99.0576Z" fill="#B4A700"/>
<path d="M119.399 77.1343H95.2549V113.742H119.399V77.1343Z" fill="#615900"/>
<path d="M109.815 77.1343H95.2549V113.742H109.815V77.1343Z" fill="#FFF9AC"/>
<path d="M108.278 78.3942H96.4929V79.196H108.278V78.3942Z" fill="#B4A700"/>
<path d="M118.505 78.3942H111.03V79.196H118.505V78.3942Z" fill="#B4A700"/>
<path d="M108.278 80.1354H96.4929V80.9372H108.278V80.1354Z" fill="#B4A700"/>
<path d="M118.505 80.1354H111.03V80.9372H118.505V80.1354Z" fill="#B4A700"/>
<path d="M108.278 81.8763H96.4929V82.6781H108.278V81.8763Z" fill="#B4A700"/>
<path d="M118.505 81.8763H111.03V82.6781H118.505V81.8763Z" fill="#B4A700"/>
<path d="M108.278 83.6173H96.4929V84.4191H108.278V83.6173Z" fill="#B4A700"/>
<path d="M118.505 83.6173H111.03V84.4191H118.505V83.6173Z" fill="#B4A700"/>
<path d="M108.278 85.3583H96.4929V86.1601H108.278V85.3583Z" fill="#B4A700"/>
<path d="M118.505 85.3583H111.03V86.1601H118.505V85.3583Z" fill="#B4A700"/>
<path d="M108.278 87.0993H96.4929V87.9011H108.278V87.0993Z" fill="#B4A700"/>
<path d="M118.505 87.0993H111.03V87.9011H118.505V87.0993Z" fill="#B4A700"/>
<path d="M108.278 88.8634H96.4929V89.6652H108.278V88.8634Z" fill="#B4A700"/>
<path d="M118.505 88.8634H111.03V89.6652H118.505V88.8634Z" fill="#B4A700"/>
<path d="M108.278 90.6044H96.4929V91.4062H108.278V90.6044Z" fill="#B4A700"/>
<path d="M118.505 90.6044H111.03V91.4062H118.505V90.6044Z" fill="#B4A700"/>
<path d="M108.278 92.3454H96.4929V93.1472H108.278V92.3454Z" fill="#B4A700"/>
<path d="M118.505 92.3454H111.03V93.1472H118.505V92.3454Z" fill="#B4A700"/>
<path d="M108.278 94.0864H96.4929V94.8882H108.278V94.0864Z" fill="#B4A700"/>
<path d="M118.505 94.0864H111.03V94.8882H118.505V94.0864Z" fill="#B4A700"/>
<path d="M108.278 95.8274H96.4929V96.6292H108.278V95.8274Z" fill="#B4A700"/>
<path d="M118.505 95.8274H111.03V96.6292H118.505V95.8274Z" fill="#B4A700"/>
<path d="M108.278 97.5685H96.4929V98.3703H108.278V97.5685Z" fill="#B4A700"/>
<path d="M118.505 97.5685H111.03V98.3703H118.505V97.5685Z" fill="#B4A700"/>
<path d="M108.278 99.3095H96.4929V100.111H108.278V99.3095Z" fill="#B4A700"/>
<path d="M118.505 99.3095H111.03V100.111H118.505V99.3095Z" fill="#B4A700"/>
<path d="M108.278 101.05H96.4929V101.852H108.278V101.05Z" fill="#B4A700"/>
<path d="M118.505 101.05H111.03V101.852H118.505V101.05Z" fill="#B4A700"/>
<path d="M108.278 102.792H96.4929V103.593H108.278V102.792Z" fill="#B4A700"/>
<path d="M118.505 102.792H111.03V103.593H118.505V102.792Z" fill="#B4A700"/>
<path d="M80.7862 98.3932H79.2273V101.165H80.7862V98.3932Z" fill="#A9A05F"/>
<path d="M84.2486 98.3932H82.6897V101.165H84.2486V98.3932Z" fill="#A9A05F"/>
<path d="M100.506 97.4081L95.2778 102.631V117.155H100.506H105.711V102.631L100.506 97.4081Z" fill="#F9EB24"/>
<path d="M95.2776 102.631H74.7561V117.178H95.2776V102.631Z" fill="#B4A700"/>
<path d="M79.9839 97.4081H100.505L95.2776 102.631H74.7561L79.9839 97.4081Z" fill="#FFF6BB"/>
<path d="M77.3929 104.12H75.9028V106.777H77.3929V104.12Z" fill="#615900"/>
<path d="M80.7174 104.12H79.2273V106.777H80.7174V104.12Z" fill="#615900"/>
<path d="M84.0421 104.12H82.552V106.777H84.0421V104.12Z" fill="#615900"/>
<path d="M87.3666 104.12H85.8765V106.777H87.3666V104.12Z" fill="#615900"/>
<path d="M90.692 104.12H89.2019V106.777H90.692V104.12Z" fill="#615900"/>
<path d="M94.0162 104.12H92.5261V106.777H94.0162V104.12Z" fill="#615900"/>
<path d="M77.3929 108.564H75.9028V111.221H77.3929V108.564Z" fill="#615900"/>
<path d="M80.7174 108.564H79.2273V111.221H80.7174V108.564Z" fill="#615900"/>
<path d="M90.692 108.564H89.2019V111.221H90.692V108.564Z" fill="#615900"/>
<path d="M94.0162 108.564H92.5261V111.221H94.0162V108.564Z" fill="#615900"/>
<path d="M78.5855 105.861L81.5892 108.839V117.155H78.5855H75.6047V108.839L78.5855 105.861Z" fill="#F7F2BC"/>
<path d="M87.4585 108.839H81.5886V117.155H87.4585V108.839Z" fill="#F9EA22"/>
<path d="M84.478 105.861H78.5852L81.5889 108.839H87.4588L84.478 105.861Z" fill="#6F662C"/>
<path d="M36.075 112.28C36.075 112.28 59.4373 114.342 90.7429 112.28C122.019 110.219 138.869 105.706 161.765 109.165C184.66 112.624 212.548 113.197 231.443 113.197C250.366 113.197 272.093 110.562 272.093 110.562V144.283H36.075V112.28Z" fill="#EEE8A6"/>
<path d="M36.2795 119.108C36.2795 119.108 49.2749 111.248 71.1187 112.814C92.9625 114.38 105.52 116.59 128.181 116.59C150.843 116.59 165.649 106.858 193.391 112.599C221.134 118.34 234.13 117.081 245.49 119.108C256.85 121.134 272.123 119.108 272.123 119.108V147.967H36.484L36.2795 119.108Z" fill="#FFF9A4"/>
<path d="M212.606 43.7111C212.537 43.7111 212.446 43.7111 212.377 43.734C211.872 42.4283 210.611 41.489 209.121 41.489C208.708 41.489 208.318 41.5578 207.951 41.6952C207.172 40.6643 205.957 40 204.558 40C202.357 40 200.545 41.6723 200.339 43.8028C200.133 43.757 199.903 43.7111 199.674 43.7111C198.115 43.7111 196.854 44.9711 196.854 46.5289C196.854 48.0866 198.115 49.3466 199.674 49.3466H212.629C214.188 49.3466 215.449 48.0866 215.449 46.5289C215.403 44.9711 214.165 43.7111 212.606 43.7111Z" fill="#FFF145"/>
<path d="M212.606 43.7112C212.537 43.7112 212.445 43.7112 212.376 43.7341C211.872 42.4283 210.611 41.4891 209.12 41.4891C208.708 41.4891 208.318 41.5578 207.951 41.6953C207.492 41.0767 206.873 40.5957 206.14 40.2979V49.3466H212.606C214.165 49.3466 215.426 48.0867 215.426 46.5289C215.403 44.9711 214.165 43.7112 212.606 43.7112Z" fill="#ECDC2C"/>
<path d="M200.946 48.8182L200.72 49.7062L201.165 49.819L201.391 48.9311L200.946 48.8182Z" fill="#615900"/>
<path d="M197.724 63.4124L197.266 63.2978L197.702 61.6026L198.16 61.7172L197.724 63.4124ZM198.596 59.999L198.137 59.8845L198.573 58.1893L199.031 58.3038L198.596 59.999ZM199.444 56.6086L198.986 56.4941L199.421 54.7989L199.88 54.9134L199.444 56.6086ZM200.315 53.2182L199.857 53.1037L200.293 51.4084L200.751 51.523L200.315 53.2182Z" fill="#615900"/>
<path d="M196.866 64.9893L196.64 65.8773L197.084 65.9901L197.31 65.1022L196.866 64.9893Z" fill="#615900"/>
<path d="M203.098 48.8056L202.872 49.6935L203.317 49.8063L203.542 48.9183L203.098 48.8056Z" fill="#615900"/>
<path d="M199.903 63.4124L199.445 63.2978L199.88 61.6026L200.339 61.7172L199.903 63.4124ZM200.752 59.999L200.293 59.8845L200.729 58.1893L201.187 58.3038L200.752 59.999ZM201.623 56.6086L201.164 56.4941L201.6 54.7989L202.058 54.9134L201.623 56.6086ZM202.471 53.2182L202.013 53.1037L202.448 51.4084L202.907 51.523L202.471 53.2182Z" fill="#615900"/>
<path d="M199.012 64.9975L198.786 65.8854L199.23 65.9982L199.456 65.1102L199.012 64.9975Z" fill="#615900"/>
<path d="M205.273 48.8093L205.048 49.6973L205.492 49.8101L205.718 48.9222L205.273 48.8093Z" fill="#615900"/>
<path d="M202.059 63.4121L201.6 63.2975L202.036 61.6023L202.495 61.7169L202.059 63.4121ZM202.907 59.9987L202.449 59.8842L202.884 58.189L203.343 58.3035L202.907 59.9987ZM203.779 56.6083L203.32 56.4938L203.756 54.7986L204.214 54.9131L203.779 56.6083ZM204.627 53.2179L204.168 53.1034L204.604 51.4081L205.063 51.5227L204.627 53.2179Z" fill="#615900"/>
<path d="M201.188 65.0026L200.962 65.8906L201.407 66.0034L201.633 65.1155L201.188 65.0026Z" fill="#615900"/>
<path d="M207.432 48.8198L207.207 49.7078L207.651 49.8205L207.877 48.9326L207.432 48.8198Z" fill="#615900"/>
<path d="M204.214 63.4123L203.755 63.2978L204.191 61.6026L204.65 61.7171L204.214 63.4123ZM205.085 59.999L204.627 59.8844L205.062 58.1892L205.521 58.3038L205.085 59.999ZM205.934 56.6086L205.475 56.494L205.911 54.7988L206.369 54.9133L205.934 56.6086ZM206.805 53.2181L206.346 53.1036L206.782 51.4084L207.241 51.5229L206.805 53.2181Z" fill="#615900"/>
<path d="M203.333 65.011L203.107 65.8989L203.552 66.0117L203.777 65.1237L203.333 65.011Z" fill="#615900"/>
<path d="M209.591 48.8213L209.365 49.7092L209.81 49.8221L210.036 48.9341L209.591 48.8213Z" fill="#615900"/>
<path d="M206.369 63.4123L205.911 63.2978L206.346 61.6026L206.805 61.7171L206.369 63.4123ZM207.241 59.999L206.782 59.8844L207.218 58.1892L207.676 58.3038L207.241 59.999ZM208.089 56.6086L207.63 56.494L208.066 54.7988L208.525 54.9133L208.089 56.6086ZM208.96 53.2181L208.502 53.1036L208.937 51.4084L209.396 51.5229L208.96 53.2181Z" fill="#615900"/>
<path d="M205.511 64.9923L205.285 65.8802L205.73 65.993L205.956 65.1051L205.511 64.9923Z" fill="#615900"/>
<path d="M211.759 48.8112L211.533 49.6991L211.977 49.8119L212.203 48.9239L211.759 48.8112Z" fill="#615900"/>
<path d="M208.547 63.4121L208.089 63.2975L208.524 61.6023L208.983 61.7169L208.547 63.4121ZM209.396 59.9987L208.937 59.8842L209.373 58.189L209.831 58.3035L209.396 59.9987ZM210.267 56.6083L209.808 56.4938L210.244 54.7986L210.703 54.9131L210.267 56.6083ZM211.115 53.2179L210.657 53.1034L211.092 51.4081L211.551 51.5227L211.115 53.2179Z" fill="#615900"/>
<path d="M207.672 65.0043L207.447 65.8923L207.891 66.0051L208.117 65.1171L207.672 65.0043Z" fill="#615900"/>
<path d="M254.864 112.527H233.448V114.131H254.864V112.527Z" fill="#A9A05F"/>
<path d="M238.08 104.945V112.528H232.577V106.961L237.071 105.311L237.69 105.082L238.08 104.945Z" fill="#DCCF24"/>
<path d="M236.108 111.909H250.943V104.945H238.08L236.108 111.909Z" fill="#D6CA25"/>
<path d="M250.943 104.67H250.187V111.909H250.943V104.67Z" fill="#F9EA22"/>
<path d="M247.894 104.67H247.137V111.909H247.894V104.67Z" fill="#F9EA22"/>
<path d="M244.844 104.67H244.087V111.909H244.844V104.67Z" fill="#F9EA22"/>
<path d="M241.794 104.67H241.038V111.909H241.794V104.67Z" fill="#F9EA22"/>
<path d="M235.741 112.527L234.824 114.154H233.54L233.494 114.131L233.081 113.787L232.577 113.352V112.527H235.741Z" fill="#F9EA22"/>
<path d="M250.943 107.877H238.08V108.45H250.943V107.877Z" fill="#F9EA22"/>
<path d="M237.253 107.877H232.99V108.45H237.253V107.877Z" fill="#F9EA22"/>
<path d="M233.127 112.528H232.577V106.961L233.127 106.755V112.528Z" fill="#F9EA22"/>
<path d="M236.108 111.909H232.577V112.527H236.108V111.909Z" fill="#F9EA22"/>
<path d="M235.741 112.528H250.943V111.909H236.108L235.741 112.528Z" fill="#F9EA22"/>
<path d="M238.081 104.945V105.541L234.366 112.528L233.495 114.131L233.082 113.788L233.747 112.528L237.278 105.861L237.691 105.082L238.081 104.945Z" fill="#F9EA22"/>
<path d="M238.08 104.945V105.105L237.278 105.861L232.577 110.443V109.687L237.071 105.311L237.69 105.082L238.08 104.945Z" fill="#F9EA22"/>
<path d="M238.722 104.67H237.965V111.909H238.722V104.67Z" fill="#F9EA22"/>
<path d="M248.054 113.169H242.184V115.047H248.054V113.169Z" fill="#A9A05F"/>
<path d="M239.066 113.1C238.195 113.1 237.484 113.81 237.484 114.681C237.484 115.551 238.195 116.261 239.066 116.261C239.937 116.261 240.647 115.551 240.647 114.681C240.647 113.81 239.937 113.1 239.066 113.1Z" fill="#A9A05F"/>
<path d="M240.899 114.887C240.785 114.887 240.716 114.795 240.716 114.703C240.716 113.81 239.982 113.077 239.088 113.077C238.194 113.077 237.461 113.81 237.461 114.703C237.461 114.818 237.369 114.887 237.277 114.887C237.163 114.887 237.094 114.795 237.094 114.703C237.094 113.604 237.988 112.688 239.111 112.688C240.212 112.688 241.129 113.581 241.129 114.703C241.083 114.795 240.991 114.887 240.899 114.887Z" fill="#A9A05F"/>
<path d="M239.066 113.696C238.516 113.696 238.08 114.131 238.08 114.704C238.08 115.253 238.516 115.711 239.066 115.711C239.616 115.711 240.052 115.276 240.052 114.704C240.075 114.131 239.616 113.696 239.066 113.696Z" fill="#F9EA22"/>
<path d="M239.067 115.437C239.485 115.436 239.823 115.097 239.823 114.68C239.822 114.262 239.482 113.924 239.065 113.925C238.647 113.926 238.309 114.265 238.309 114.682C238.31 115.1 238.65 115.438 239.067 115.437Z" fill="#A9A05F"/>
<path d="M252.067 113.1C251.196 113.1 250.485 113.81 250.485 114.681C250.485 115.551 251.196 116.261 252.067 116.261C252.938 116.261 253.648 115.551 253.648 114.681C253.648 113.81 252.938 113.1 252.067 113.1Z" fill="#A9A05F"/>
<path d="M253.877 114.887C253.763 114.887 253.694 114.795 253.694 114.703C253.694 113.81 252.961 113.077 252.066 113.077C251.172 113.077 250.439 113.81 250.439 114.703C250.439 114.818 250.347 114.887 250.255 114.887C250.164 114.887 250.072 114.795 250.072 114.703C250.072 113.604 250.966 112.688 252.089 112.688C253.19 112.688 254.107 113.581 254.107 114.703C254.084 114.795 253.992 114.887 253.877 114.887Z" fill="#A9A05F"/>
<path d="M252.067 113.696C251.517 113.696 251.081 114.131 251.081 114.704C251.081 115.253 251.517 115.711 252.067 115.711C252.617 115.711 253.053 115.276 253.053 114.704C253.075 114.131 252.617 113.696 252.067 113.696Z" fill="#F9EA22"/>
<path d="M252.067 113.948C251.654 113.948 251.31 114.291 251.31 114.704C251.31 115.116 251.654 115.46 252.067 115.46C252.479 115.46 252.823 115.116 252.823 114.704C252.823 114.269 252.479 113.948 252.067 113.948Z" fill="#A9A05F"/>
<path d="M255.575 106.067H251.7C251.287 106.067 250.943 106.411 250.943 106.823V112.528H256.653L256.332 106.778C256.309 106.388 255.965 106.067 255.575 106.067Z" fill="#F9EA22"/>
<path d="M250.943 108.427H256.423L256.882 108.748C257.088 108.885 257.203 109.137 257.203 109.389V112.528H250.943V108.427Z" fill="#F9EA22"/>
<path d="M253.305 106.984H255.712C255.827 106.984 255.941 107.098 255.941 107.236V110.236C255.941 110.374 255.85 110.488 255.712 110.488H254.635C254.589 110.488 254.52 110.465 254.497 110.419L253.167 109.16C253.122 109.114 253.099 109.045 253.099 108.976V107.213C253.076 107.075 253.168 106.984 253.305 106.984Z" fill="#B4A700"/>
<path d="M252.823 106.755H252.525V112.55H252.823V106.755Z" fill="#F9EA22"/>
<path d="M253.443 112.527L257.202 111.909V113.627C257.202 114.016 256.904 114.314 256.515 114.314H254.383L253.443 112.527Z" fill="#F9EA22"/>
<path d="M254.13 104.945H254.038C253.878 104.945 253.74 105.082 253.717 105.243L253.649 106.067H254.497L254.428 105.243C254.428 105.082 254.291 104.945 254.13 104.945Z" fill="#F9EA22"/>
<path d="M138.889 87.3056H137.697V116.72H138.889V87.3056Z" fill="#F9EA22"/>
<path d="M138.293 73.4001C134.418 83.5943 138.293 86.3891 138.293 86.3891C138.293 86.3891 142.191 83.5943 138.293 73.4001Z" fill="#F9EA22"/>
<path d="M150.858 93.2846C143.337 85.4042 139.141 87.695 139.141 87.695C139.141 87.695 139.99 92.3912 150.858 93.2846Z" fill="#F9EA22"/>
<path d="M125.75 93.2846C133.271 85.4042 137.467 87.695 137.467 87.695C137.467 87.695 136.619 92.3912 125.75 93.2846Z" fill="#F9EA22"/>
<path d="M139.783 87.3053C139.783 88.1298 139.118 88.7711 138.316 88.7711C137.491 88.7711 136.849 88.1069 136.849 87.3053C136.849 86.4807 137.513 85.8394 138.316 85.8394C139.118 85.8165 139.783 86.4807 139.783 87.3053Z" fill="#F9EA22"/>
<path d="M127.081 113.238H123.71V119.354H127.081V113.238Z" fill="#615900"/>
<path d="M125.842 113.238H123.71V119.354H125.842V113.238Z" fill="#A9A05F"/>
<path d="M118.345 115.025V114.612L122.036 106.892H134.716V107.304L131.025 115.025H118.345Z" fill="#A9A05F"/>
<path d="M118.345 114.612L122.036 106.892H134.716L131.025 114.612H118.345Z" fill="#615900"/>
<path d="M123.778 109.618H120.981L119.88 111.886H122.7L123.778 109.618Z" fill="#F9EA22"/>
<path d="M124.97 107.144H122.151L121.096 109.366H123.893L124.97 107.144Z" fill="#F9EA22"/>
<path d="M126.942 109.618H124.031L122.93 111.886H125.865L126.942 109.618Z" fill="#F9EA22"/>
<path d="M127.057 109.366L128.134 107.144H125.2L124.145 109.366H127.057Z" fill="#F9EA22"/>
<path d="M130.221 109.366L131.299 107.144H128.388L127.31 109.366H130.221Z" fill="#F9EA22"/>
<path d="M130.106 109.618H127.195L126.117 111.886H129.029L130.106 109.618Z" fill="#F9EA22"/>
<path d="M125.979 112.115L124.925 114.36H127.836L128.914 112.115H125.979Z" fill="#F9EA22"/>
<path d="M129.282 111.886H132.079L133.156 109.618H130.36L129.282 111.886Z" fill="#F9EA22"/>
<path d="M131.552 107.144L130.474 109.366H133.271L134.348 107.144H131.552Z" fill="#F9EA22"/>
<path d="M122.816 112.115L121.761 114.36H124.672L125.75 112.115H122.816Z" fill="#F9EA22"/>
<path d="M128.089 114.36H130.886L131.963 112.115H129.167L128.089 114.36Z" fill="#F9EA22"/>
<path d="M119.766 112.115L118.711 114.36H121.508L122.562 112.115H119.766Z" fill="#F9EA22"/>
<path d="M164.317 96.5834L161.933 98.9659C161.336 99.5615 161.015 100.34 161.015 101.188V113.513H161.336V101.325C161.336 100.501 161.657 99.699 162.254 99.1033L164.317 97.0416V96.5834Z" fill="#F9EA22"/>
<path d="M164.065 97.133L167.022 96.2856L166.999 96.194C166.93 95.942 166.701 95.8046 166.472 95.8504L164.294 96.4688C164.065 96.5375 163.95 96.7895 164.019 97.0414L164.065 97.133Z" fill="#F9EA22"/>
<path d="M165.555 96.6977L164.065 97.1329C164.317 97.5681 165.67 97.0871 165.67 97.0871C165.67 97.0871 167.068 96.7665 167.045 96.2626L165.555 96.6977Z" fill="#F9EA22"/>
<path d="M182.408 96.5834L180.023 98.9659C179.427 99.5615 179.106 100.34 179.106 101.188V113.513H179.427V101.325C179.427 100.501 179.748 99.699 180.344 99.1033L182.408 97.0416V96.5834Z" fill="#F9EA22"/>
<path d="M182.156 97.133L185.113 96.2856L185.091 96.194C185.022 95.942 184.793 95.8046 184.563 95.8504L182.385 96.4688C182.156 96.5375 182.042 96.7895 182.11 97.0414L182.156 97.133Z" fill="#F9EA22"/>
<path d="M183.646 96.6977L182.156 97.1329C182.408 97.5681 183.761 97.0871 183.761 97.0871C183.761 97.0871 185.159 96.7665 185.136 96.2626L183.646 96.6977Z" fill="#F9EA22"/>
<path d="M200.499 96.5834L198.115 98.9659C197.519 99.5615 197.198 100.34 197.198 101.188V113.513H197.519V101.325C197.519 100.501 197.84 99.699 198.436 99.1033L200.499 97.0416V96.5834Z" fill="#F9EA22"/>
<path d="M200.247 97.133L203.204 96.2856L203.181 96.194C203.112 95.942 202.883 95.8046 202.654 95.8504L200.476 96.4688C200.247 96.5375 200.132 96.7895 200.201 97.0414L200.247 97.133Z" fill="#F9EA22"/>
<path d="M201.714 96.6977L200.247 97.1329C200.499 97.5681 201.851 97.0871 201.851 97.0871C201.851 97.0871 203.25 96.7665 203.227 96.2626L201.714 96.6977Z" fill="#F9EA22"/>
<path d="M218.567 96.5834L216.183 98.9659C215.587 99.5615 215.266 100.34 215.266 101.188V113.513H215.587V101.325C215.587 100.501 215.908 99.699 216.504 99.1033L218.567 97.0416V96.5834Z" fill="#F9EA22"/>
<path d="M218.316 97.133L221.273 96.2856L221.25 96.194C221.181 95.942 220.952 95.8046 220.723 95.8504L218.545 96.4688C218.316 96.5375 218.201 96.7895 218.27 97.0414L218.316 97.133Z" fill="#F9EA22"/>
<path d="M219.806 96.6977L218.315 97.1329C218.568 97.5681 219.92 97.0871 219.92 97.0871C219.92 97.0871 221.319 96.7665 221.296 96.2626L219.806 96.6977Z" fill="#F9EA22"/>
<path d="M236.658 96.5834L234.274 98.9659C233.678 99.5615 233.357 100.34 233.357 101.188V113.513H233.678V101.325C233.678 100.501 233.999 99.699 234.595 99.1033L236.658 97.0416V96.5834Z" fill="#F9EA22"/>
<path d="M236.406 97.133L239.363 96.2856L239.34 96.194C239.272 95.942 239.042 95.8046 238.813 95.8504L236.635 96.4688C236.406 96.5375 236.291 96.7895 236.36 97.0414L236.406 97.133Z" fill="#F9EA22"/>
<path d="M237.896 96.6977L236.406 97.1329C236.658 97.5681 238.011 97.0871 238.011 97.0871C238.011 97.0871 239.409 96.7665 239.386 96.2626L237.896 96.6977Z" fill="#F9EA22"/>
<path d="M254.75 96.5834L252.365 98.9659C251.769 99.5615 251.448 100.34 251.448 101.188V113.513H251.769V101.325C251.769 100.501 252.09 99.699 252.686 99.1033L254.75 97.0416V96.5834Z" fill="#F9EA22"/>
<path d="M254.498 97.133L257.455 96.2856L257.432 96.194C257.363 95.942 257.134 95.8046 256.905 95.8504L254.727 96.4688C254.498 96.5375 254.383 96.7895 254.452 97.0414L254.498 97.133Z" fill="#F9EA22"/>
<path d="M255.964 96.6977L254.474 97.1329C254.726 97.5681 256.079 97.0871 256.079 97.0871C256.079 97.0871 257.477 96.7665 257.454 96.2626L255.964 96.6977Z" fill="#F9EA22"/>
</g>
<path d="M115.387 56.162C115.003 56.162 114.685 56.078 114.433 55.91C114.193 55.73 113.995 55.46 113.839 55.1L109.303 45.02C109.135 44.66 109.087 44.342 109.159 44.066C109.231 43.778 109.381 43.556 109.609 43.4C109.837 43.232 110.113 43.148 110.437 43.148C110.845 43.148 111.157 43.244 111.373 43.436C111.589 43.616 111.769 43.886 111.913 44.246L115.891 53.444H114.991L118.969 44.228C119.125 43.868 119.311 43.598 119.527 43.418C119.743 43.238 120.043 43.148 120.427 43.148C120.751 43.148 121.015 43.232 121.219 43.4C121.435 43.556 121.567 43.778 121.615 44.066C121.675 44.342 121.627 44.66 121.471 45.02L116.935 55.1C116.767 55.46 116.563 55.73 116.323 55.91C116.095 56.078 115.783 56.162 115.387 56.162ZM125.169 56.144C124.725 56.144 124.383 56.018 124.143 55.766C123.915 55.502 123.801 55.136 123.801 54.668V48.512C123.801 48.032 123.915 47.666 124.143 47.414C124.383 47.15 124.725 47.018 125.169 47.018C125.601 47.018 125.931 47.15 126.159 47.414C126.399 47.666 126.519 48.032 126.519 48.512V54.668C126.519 55.136 126.405 55.502 126.177 55.766C125.949 56.018 125.613 56.144 125.169 56.144ZM125.169 45.542C124.665 45.542 124.275 45.428 123.999 45.2C123.735 44.96 123.603 44.624 123.603 44.192C123.603 43.748 123.735 43.412 123.999 43.184C124.275 42.944 124.665 42.824 125.169 42.824C125.673 42.824 126.057 42.944 126.321 43.184C126.585 43.412 126.717 43.748 126.717 44.192C126.717 44.624 126.585 44.96 126.321 45.2C126.057 45.428 125.673 45.542 125.169 45.542ZM132.001 56.198C131.473 56.198 130.927 56.15 130.363 56.054C129.811 55.958 129.307 55.796 128.851 55.568C128.611 55.448 128.437 55.298 128.329 55.118C128.233 54.926 128.191 54.734 128.203 54.542C128.215 54.35 128.275 54.176 128.383 54.02C128.503 53.864 128.653 53.762 128.833 53.714C129.025 53.654 129.235 53.672 129.463 53.768C129.955 53.972 130.405 54.116 130.813 54.2C131.221 54.284 131.623 54.326 132.019 54.326C132.535 54.326 132.907 54.248 133.135 54.092C133.375 53.924 133.495 53.708 133.495 53.444C133.495 53.204 133.417 53.024 133.261 52.904C133.105 52.784 132.877 52.7 132.577 52.652L130.687 52.31C129.943 52.178 129.367 51.908 128.959 51.5C128.563 51.08 128.365 50.546 128.365 49.898C128.365 49.298 128.533 48.782 128.869 48.35C129.205 47.906 129.667 47.57 130.255 47.342C130.855 47.102 131.533 46.982 132.289 46.982C132.829 46.982 133.327 47.03 133.783 47.126C134.239 47.222 134.677 47.378 135.097 47.594C135.313 47.702 135.463 47.846 135.547 48.026C135.643 48.206 135.673 48.392 135.637 48.584C135.613 48.776 135.541 48.95 135.421 49.106C135.301 49.262 135.145 49.364 134.953 49.412C134.773 49.46 134.563 49.436 134.323 49.34C133.939 49.16 133.585 49.034 133.261 48.962C132.937 48.878 132.625 48.836 132.325 48.836C131.785 48.836 131.395 48.926 131.155 49.106C130.915 49.274 130.795 49.49 130.795 49.754C130.795 49.958 130.861 50.132 130.993 50.276C131.137 50.408 131.353 50.498 131.641 50.546L133.531 50.888C134.311 51.02 134.905 51.284 135.313 51.68C135.721 52.064 135.925 52.592 135.925 53.264C135.925 54.176 135.565 54.896 134.845 55.424C134.137 55.94 133.189 56.198 132.001 56.198ZM138.845 56.144C138.401 56.144 138.059 56.018 137.819 55.766C137.591 55.502 137.477 55.136 137.477 54.668V48.512C137.477 48.032 137.591 47.666 137.819 47.414C138.059 47.15 138.401 47.018 138.845 47.018C139.277 47.018 139.607 47.15 139.835 47.414C140.075 47.666 140.195 48.032 140.195 48.512V54.668C140.195 55.136 140.081 55.502 139.853 55.766C139.625 56.018 139.289 56.144 138.845 56.144ZM138.845 45.542C138.341 45.542 137.951 45.428 137.675 45.2C137.411 44.96 137.279 44.624 137.279 44.192C137.279 43.748 137.411 43.412 137.675 43.184C137.951 42.944 138.341 42.824 138.845 42.824C139.349 42.824 139.733 42.944 139.997 43.184C140.261 43.412 140.393 43.748 140.393 44.192C140.393 44.624 140.261 44.96 139.997 45.2C139.733 45.428 139.349 45.542 138.845 45.542ZM146.631 56.198C145.803 56.198 145.107 56.06 144.543 55.784C143.991 55.508 143.577 55.106 143.301 54.578C143.037 54.05 142.905 53.384 142.905 52.58V49.196H142.149C141.813 49.196 141.549 49.106 141.357 48.926C141.177 48.746 141.087 48.5 141.087 48.188C141.087 47.852 141.177 47.6 141.357 47.432C141.549 47.252 141.813 47.162 142.149 47.162H142.905V45.794C142.905 45.338 143.025 44.996 143.265 44.768C143.505 44.528 143.841 44.408 144.273 44.408C144.717 44.408 145.053 44.528 145.281 44.768C145.509 44.996 145.623 45.338 145.623 45.794V47.162H147.333C147.669 47.162 147.927 47.252 148.107 47.432C148.287 47.6 148.377 47.852 148.377 48.188C148.377 48.5 148.287 48.746 148.107 48.926C147.927 49.106 147.669 49.196 147.333 49.196H145.623V52.472C145.623 52.976 145.737 53.354 145.965 53.606C146.205 53.858 146.583 53.984 147.099 53.984C147.279 53.984 147.447 53.966 147.603 53.93C147.759 53.894 147.903 53.87 148.035 53.858C148.203 53.846 148.341 53.9 148.449 54.02C148.557 54.128 148.611 54.374 148.611 54.758C148.611 55.046 148.563 55.298 148.467 55.514C148.371 55.73 148.203 55.886 147.963 55.982C147.807 56.042 147.591 56.09 147.315 56.126C147.051 56.174 146.823 56.198 146.631 56.198ZM157.856 56.198C157.112 56.198 156.494 56.06 156.002 55.784C155.51 55.508 155.144 55.094 154.904 54.542C154.676 53.978 154.562 53.282 154.562 52.454V48.386C154.562 47.93 154.676 47.588 154.904 47.36C155.144 47.132 155.48 47.018 155.912 47.018C156.344 47.018 156.68 47.132 156.92 47.36C157.16 47.588 157.28 47.93 157.28 48.386V52.526C157.28 53.054 157.388 53.45 157.604 53.714C157.82 53.966 158.162 54.092 158.63 54.092C159.146 54.092 159.566 53.912 159.89 53.552C160.226 53.18 160.394 52.694 160.394 52.094V48.386C160.394 47.93 160.508 47.588 160.736 47.36C160.976 47.132 161.312 47.018 161.744 47.018C162.188 47.018 162.524 47.132 162.752 47.36C162.992 47.588 163.112 47.93 163.112 48.386V54.776C163.112 55.7 162.674 56.162 161.798 56.162C161.366 56.162 161.036 56.042 160.808 55.802C160.58 55.562 160.466 55.22 160.466 54.776V53.57L160.736 54.272C160.472 54.884 160.094 55.358 159.602 55.694C159.11 56.03 158.528 56.198 157.856 56.198ZM168.599 56.198C168.071 56.198 167.525 56.15 166.961 56.054C166.409 55.958 165.905 55.796 165.449 55.568C165.209 55.448 165.035 55.298 164.927 55.118C164.831 54.926 164.789 54.734 164.801 54.542C164.813 54.35 164.873 54.176 164.981 54.02C165.101 53.864 165.251 53.762 165.431 53.714C165.623 53.654 165.833 53.672 166.061 53.768C166.553 53.972 167.003 54.116 167.411 54.2C167.819 54.284 168.221 54.326 168.617 54.326C169.133 54.326 169.505 54.248 169.733 54.092C169.973 53.924 170.093 53.708 170.093 53.444C170.093 53.204 170.015 53.024 169.859 52.904C169.703 52.784 169.475 52.7 169.175 52.652L167.285 52.31C166.541 52.178 165.965 51.908 165.557 51.5C165.161 51.08 164.963 50.546 164.963 49.898C164.963 49.298 165.131 48.782 165.467 48.35C165.803 47.906 166.265 47.57 166.853 47.342C167.453 47.102 168.131 46.982 168.887 46.982C169.427 46.982 169.925 47.03 170.381 47.126C170.837 47.222 171.275 47.378 171.695 47.594C171.911 47.702 172.061 47.846 172.145 48.026C172.241 48.206 172.271 48.392 172.235 48.584C172.211 48.776 172.139 48.95 172.019 49.106C171.899 49.262 171.743 49.364 171.551 49.412C171.371 49.46 171.161 49.436 170.921 49.34C170.537 49.16 170.183 49.034 169.859 48.962C169.535 48.878 169.223 48.836 168.923 48.836C168.383 48.836 167.993 48.926 167.753 49.106C167.513 49.274 167.393 49.49 167.393 49.754C167.393 49.958 167.459 50.132 167.591 50.276C167.735 50.408 167.951 50.498 168.239 50.546L170.129 50.888C170.909 51.02 171.503 51.284 171.911 51.68C172.319 52.064 172.523 52.592 172.523 53.264C172.523 54.176 172.163 54.896 171.443 55.424C170.735 55.94 169.787 56.198 168.599 56.198ZM183.35 56.198C182.402 56.198 181.574 56.012 180.866 55.64C180.17 55.268 179.63 54.734 179.246 54.038C178.862 53.342 178.67 52.52 178.67 51.572C178.67 50.864 178.778 50.228 178.994 49.664C179.21 49.1 179.522 48.62 179.93 48.224C180.35 47.816 180.848 47.51 181.424 47.306C182 47.09 182.642 46.982 183.35 46.982C184.298 46.982 185.12 47.168 185.816 47.54C186.524 47.912 187.07 48.44 187.454 49.124C187.85 49.808 188.048 50.624 188.048 51.572C188.048 52.292 187.934 52.934 187.706 53.498C187.49 54.062 187.178 54.548 186.77 54.956C186.362 55.364 185.864 55.676 185.276 55.892C184.7 56.096 184.058 56.198 183.35 56.198ZM183.35 54.164C183.746 54.164 184.088 54.068 184.376 53.876C184.664 53.684 184.892 53.402 185.06 53.03C185.228 52.646 185.312 52.16 185.312 51.572C185.312 50.696 185.132 50.054 184.772 49.646C184.412 49.226 183.938 49.016 183.35 49.016C182.966 49.016 182.624 49.106 182.324 49.286C182.036 49.466 181.808 49.748 181.64 50.132C181.484 50.504 181.406 50.984 181.406 51.572C181.406 52.448 181.586 53.102 181.946 53.534C182.306 53.954 182.774 54.164 183.35 54.164ZM191.069 56.162C190.625 56.162 190.283 56.042 190.043 55.802C189.815 55.562 189.701 55.22 189.701 54.776V48.386C189.701 47.942 189.815 47.606 190.043 47.378C190.283 47.138 190.613 47.018 191.033 47.018C191.465 47.018 191.795 47.138 192.023 47.378C192.251 47.606 192.365 47.942 192.365 48.386V49.412L192.167 48.818C192.443 48.23 192.851 47.78 193.391 47.468C193.943 47.144 194.567 46.982 195.263 46.982C195.971 46.982 196.553 47.12 197.009 47.396C197.465 47.66 197.807 48.068 198.035 48.62C198.263 49.16 198.377 49.85 198.377 50.69V54.776C198.377 55.22 198.257 55.562 198.017 55.802C197.789 56.042 197.453 56.162 197.009 56.162C196.577 56.162 196.241 56.042 196.001 55.802C195.773 55.562 195.659 55.22 195.659 54.776V50.816C195.659 50.204 195.545 49.766 195.317 49.502C195.101 49.226 194.765 49.088 194.309 49.088C193.733 49.088 193.271 49.268 192.923 49.628C192.587 49.988 192.419 50.468 192.419 51.068V54.776C192.419 55.7 191.969 56.162 191.069 56.162ZM79.2617 77.162C78.8057 77.162 78.4577 77.036 78.2177 76.784C77.9777 76.532 77.8577 76.178 77.8577 75.722V66.614H74.6717C74.2997 66.614 74.0117 66.512 73.8077 66.308C73.6037 66.104 73.5017 65.822 73.5017 65.462C73.5017 65.09 73.6037 64.808 73.8077 64.616C74.0117 64.412 74.2997 64.31 74.6717 64.31H83.8337C84.2057 64.31 84.4937 64.412 84.6977 64.616C84.9017 64.808 85.0037 65.09 85.0037 65.462C85.0037 65.822 84.9017 66.104 84.6977 66.308C84.4937 66.512 84.2057 66.614 83.8337 66.614H80.6477V75.722C80.6477 76.178 80.5277 76.532 80.2877 76.784C80.0597 77.036 79.7177 77.162 79.2617 77.162ZM89.1389 77.198C88.0949 77.198 87.1949 77.012 86.4389 76.64C85.6949 76.256 85.1189 75.722 84.7109 75.038C84.3149 74.342 84.1169 73.526 84.1169 72.59C84.1169 71.678 84.3089 70.88 84.6929 70.196C85.0769 69.5 85.6109 68.96 86.2949 68.576C86.9909 68.18 87.7769 67.982 88.6529 67.982C89.2889 67.982 89.8649 68.09 90.3809 68.306C90.8969 68.51 91.3409 68.81 91.7129 69.206C92.0849 69.59 92.3669 70.064 92.5589 70.628C92.7509 71.18 92.8469 71.798 92.8469 72.482C92.8469 72.71 92.7749 72.884 92.6309 73.004C92.4869 73.112 92.2769 73.166 92.0009 73.166H86.3489V71.762H90.8849L90.5969 72.014C90.5969 71.522 90.5249 71.114 90.3809 70.79C90.2369 70.454 90.0269 70.202 89.7509 70.034C89.4869 69.866 89.1569 69.782 88.7609 69.782C88.3169 69.782 87.9389 69.884 87.6269 70.088C87.3149 70.292 87.0749 70.586 86.9069 70.97C86.7389 71.354 86.6549 71.816 86.6549 72.356V72.5C86.6549 73.412 86.8649 74.084 87.2849 74.516C87.7169 74.948 88.3529 75.164 89.1929 75.164C89.4809 75.164 89.8109 75.128 90.1829 75.056C90.5549 74.984 90.9029 74.87 91.2269 74.714C91.5029 74.582 91.7489 74.54 91.9649 74.588C92.1809 74.624 92.3489 74.72 92.4689 74.876C92.5889 75.032 92.6549 75.212 92.6669 75.416C92.6909 75.62 92.6489 75.824 92.5409 76.028C92.4329 76.22 92.2529 76.382 92.0009 76.514C91.5929 76.742 91.1309 76.91 90.6149 77.018C90.1109 77.138 89.6189 77.198 89.1389 77.198ZM97.6138 77.198C96.5458 77.198 95.7478 76.904 95.2198 76.316C94.6918 75.716 94.4278 74.828 94.4278 73.652V65.534C94.4278 65.078 94.5418 64.736 94.7698 64.508C95.0098 64.268 95.3518 64.148 95.7958 64.148C96.2278 64.148 96.5578 64.268 96.7858 64.508C97.0258 64.736 97.1458 65.078 97.1458 65.534V73.544C97.1458 74.036 97.2478 74.402 97.4518 74.642C97.6678 74.87 97.9498 74.984 98.2978 74.984C98.3938 74.984 98.4838 74.978 98.5678 74.966C98.6518 74.954 98.7418 74.948 98.8378 74.948C99.0298 74.924 99.1618 74.984 99.2338 75.128C99.3178 75.26 99.3598 75.53 99.3598 75.938C99.3598 76.298 99.2878 76.574 99.1438 76.766C98.9998 76.946 98.7778 77.066 98.4778 77.126C98.3578 77.138 98.2198 77.15 98.0638 77.162C97.9078 77.186 97.7578 77.198 97.6138 77.198ZM104.924 77.198C103.88 77.198 102.98 77.012 102.224 76.64C101.48 76.256 100.904 75.722 100.496 75.038C100.1 74.342 99.902 73.526 99.902 72.59C99.902 71.678 100.094 70.88 100.478 70.196C100.862 69.5 101.396 68.96 102.08 68.576C102.776 68.18 103.562 67.982 104.438 67.982C105.074 67.982 105.65 68.09 106.166 68.306C106.682 68.51 107.126 68.81 107.498 69.206C107.87 69.59 108.152 70.064 108.344 70.628C108.536 71.18 108.632 71.798 108.632 72.482C108.632 72.71 108.56 72.884 108.416 73.004C108.272 73.112 108.062 73.166 107.786 73.166H102.134V71.762H106.67L106.382 72.014C106.382 71.522 106.31 71.114 106.166 70.79C106.022 70.454 105.812 70.202 105.536 70.034C105.272 69.866 104.942 69.782 104.546 69.782C104.102 69.782 103.724 69.884 103.412 70.088C103.1 70.292 102.86 70.586 102.692 70.97C102.524 71.354 102.44 71.816 102.44 72.356V72.5C102.44 73.412 102.65 74.084 103.07 74.516C103.502 74.948 104.138 75.164 104.978 75.164C105.266 75.164 105.596 75.128 105.968 75.056C106.34 74.984 106.688 74.87 107.012 74.714C107.288 74.582 107.534 74.54 107.75 74.588C107.966 74.624 108.134 74.72 108.254 74.876C108.374 75.032 108.44 75.212 108.452 75.416C108.476 75.62 108.434 75.824 108.326 76.028C108.218 76.22 108.038 76.382 107.786 76.514C107.378 76.742 106.916 76.91 106.4 77.018C105.896 77.138 105.404 77.198 104.924 77.198ZM114.461 80.438C113.813 80.438 113.189 80.384 112.589 80.276C112.001 80.168 111.479 80.006 111.023 79.79C110.747 79.67 110.549 79.514 110.429 79.322C110.321 79.13 110.273 78.926 110.285 78.71C110.309 78.494 110.381 78.302 110.501 78.134C110.633 77.966 110.795 77.846 110.987 77.774C111.179 77.714 111.383 77.732 111.599 77.828C112.127 78.068 112.613 78.224 113.057 78.296C113.513 78.368 113.903 78.404 114.227 78.404C114.995 78.404 115.571 78.23 115.955 77.882C116.339 77.534 116.531 77 116.531 76.28V74.912H116.693C116.513 75.464 116.141 75.914 115.577 76.262C115.013 76.61 114.389 76.784 113.705 76.784C112.913 76.784 112.223 76.604 111.635 76.244C111.047 75.872 110.591 75.356 110.267 74.696C109.943 74.024 109.781 73.25 109.781 72.374C109.781 71.714 109.871 71.114 110.051 70.574C110.243 70.034 110.507 69.572 110.843 69.188C111.191 68.804 111.605 68.51 112.085 68.306C112.577 68.09 113.117 67.982 113.705 67.982C114.413 67.982 115.037 68.156 115.577 68.504C116.129 68.84 116.495 69.284 116.675 69.836L116.495 70.412V69.386C116.495 68.942 116.609 68.606 116.837 68.378C117.077 68.138 117.413 68.018 117.845 68.018C118.277 68.018 118.607 68.138 118.835 68.378C119.063 68.606 119.177 68.942 119.177 69.386V75.974C119.177 77.45 118.769 78.56 117.953 79.304C117.149 80.06 115.985 80.438 114.461 80.438ZM114.515 74.75C114.923 74.75 115.271 74.654 115.559 74.462C115.859 74.27 116.093 74 116.261 73.652C116.429 73.292 116.513 72.866 116.513 72.374C116.513 71.63 116.327 71.054 115.955 70.646C115.595 70.226 115.115 70.016 114.515 70.016C114.107 70.016 113.753 70.112 113.453 70.304C113.153 70.484 112.919 70.754 112.751 71.114C112.595 71.462 112.517 71.882 112.517 72.374C112.517 73.118 112.697 73.7 113.057 74.12C113.417 74.54 113.903 74.75 114.515 74.75ZM122.691 77.162C122.235 77.162 121.887 77.042 121.647 76.802C121.407 76.562 121.287 76.22 121.287 75.776V69.386C121.287 68.942 121.401 68.606 121.629 68.378C121.869 68.138 122.199 68.018 122.619 68.018C123.051 68.018 123.381 68.138 123.609 68.378C123.837 68.606 123.951 68.942 123.951 69.386V70.322H123.771C123.915 69.602 124.233 69.044 124.725 68.648C125.217 68.252 125.853 68.03 126.633 67.982C126.933 67.958 127.161 68.036 127.317 68.216C127.485 68.384 127.575 68.666 127.587 69.062C127.611 69.434 127.533 69.728 127.353 69.944C127.185 70.16 126.897 70.292 126.489 70.34L126.075 70.376C125.391 70.436 124.881 70.634 124.545 70.97C124.221 71.306 124.059 71.792 124.059 72.428V75.776C124.059 76.22 123.939 76.562 123.699 76.802C123.471 77.042 123.135 77.162 122.691 77.162ZM131.605 77.198C130.957 77.198 130.375 77.072 129.859 76.82C129.343 76.568 128.941 76.226 128.653 75.794C128.365 75.362 128.221 74.876 128.221 74.336C128.221 73.688 128.389 73.178 128.725 72.806C129.061 72.422 129.607 72.152 130.363 71.996C131.119 71.828 132.121 71.744 133.369 71.744H134.323V73.148H133.387C132.775 73.148 132.277 73.184 131.893 73.256C131.521 73.316 131.251 73.424 131.083 73.58C130.927 73.736 130.849 73.952 130.849 74.228C130.849 74.564 130.963 74.84 131.191 75.056C131.431 75.272 131.773 75.38 132.217 75.38C132.565 75.38 132.871 75.302 133.135 75.146C133.411 74.978 133.627 74.756 133.783 74.48C133.939 74.192 134.017 73.868 134.017 73.508V71.438C134.017 70.91 133.897 70.538 133.657 70.322C133.417 70.094 133.009 69.98 132.433 69.98C132.109 69.98 131.755 70.022 131.371 70.106C130.999 70.178 130.585 70.304 130.129 70.484C129.865 70.604 129.631 70.634 129.427 70.574C129.223 70.502 129.067 70.382 128.959 70.214C128.851 70.034 128.797 69.842 128.797 69.638C128.797 69.422 128.857 69.218 128.977 69.026C129.097 68.822 129.295 68.672 129.571 68.576C130.135 68.348 130.663 68.192 131.155 68.108C131.659 68.024 132.121 67.982 132.541 67.982C133.465 67.982 134.221 68.12 134.809 68.396C135.409 68.66 135.859 69.074 136.159 69.638C136.459 70.19 136.609 70.904 136.609 71.78V75.776C136.609 76.22 136.501 76.562 136.285 76.802C136.069 77.042 135.757 77.162 135.349 77.162C134.941 77.162 134.623 77.042 134.395 76.802C134.179 76.562 134.071 76.22 134.071 75.776V75.11L134.197 75.218C134.125 75.626 133.969 75.98 133.729 76.28C133.501 76.568 133.207 76.796 132.847 76.964C132.487 77.12 132.073 77.198 131.605 77.198ZM140.041 77.162C139.597 77.162 139.255 77.042 139.015 76.802C138.787 76.562 138.673 76.22 138.673 75.776V69.386C138.673 68.942 138.787 68.606 139.015 68.378C139.255 68.138 139.585 68.018 140.005 68.018C140.437 68.018 140.767 68.138 140.995 68.378C141.223 68.606 141.337 68.942 141.337 69.386V70.538L141.139 69.818C141.379 69.266 141.751 68.822 142.255 68.486C142.759 68.15 143.353 67.982 144.037 67.982C144.721 67.982 145.291 68.144 145.747 68.468C146.203 68.792 146.527 69.29 146.719 69.962H146.467C146.731 69.35 147.133 68.87 147.673 68.522C148.225 68.162 148.855 67.982 149.563 67.982C150.247 67.982 150.805 68.12 151.237 68.396C151.681 68.66 152.011 69.068 152.227 69.62C152.443 70.16 152.551 70.85 152.551 71.69V75.776C152.551 76.22 152.431 76.562 152.191 76.802C151.963 77.042 151.633 77.162 151.201 77.162C150.757 77.162 150.415 77.042 150.175 76.802C149.947 76.562 149.833 76.22 149.833 75.776V71.78C149.833 71.192 149.737 70.766 149.545 70.502C149.365 70.226 149.053 70.088 148.609 70.088C148.093 70.088 147.691 70.268 147.403 70.628C147.115 70.988 146.971 71.498 146.971 72.158V75.776C146.971 76.22 146.851 76.562 146.611 76.802C146.383 77.042 146.053 77.162 145.621 77.162C145.189 77.162 144.853 77.042 144.613 76.802C144.373 76.562 144.253 76.22 144.253 75.776V71.78C144.253 71.192 144.157 70.766 143.965 70.502C143.785 70.226 143.473 70.088 143.029 70.088C142.513 70.088 142.111 70.268 141.823 70.628C141.535 70.988 141.391 71.498 141.391 72.158V75.776C141.391 76.7 140.941 77.162 140.041 77.162ZM161.19 77.162C160.782 77.162 160.47 77.048 160.254 76.82C160.038 76.592 159.93 76.274 159.93 75.866V65.444C159.93 65.036 160.044 64.718 160.272 64.49C160.512 64.262 160.836 64.148 161.244 64.148C161.604 64.148 161.886 64.22 162.09 64.364C162.306 64.496 162.504 64.73 162.684 65.066L166.842 72.662H166.23L170.388 65.066C170.568 64.73 170.76 64.496 170.964 64.364C171.18 64.22 171.462 64.148 171.81 64.148C172.218 64.148 172.53 64.262 172.746 64.49C172.974 64.718 173.088 65.036 173.088 65.444V75.866C173.088 76.274 172.98 76.592 172.764 76.82C172.548 77.048 172.236 77.162 171.828 77.162C171.42 77.162 171.102 77.048 170.874 76.82C170.658 76.592 170.55 76.274 170.55 75.866V68.576H170.946L167.598 74.57C167.454 74.798 167.298 74.972 167.13 75.092C166.974 75.2 166.764 75.254 166.5 75.254C166.236 75.254 166.02 75.194 165.852 75.074C165.684 74.954 165.534 74.786 165.402 74.57L162.018 68.558H162.45V75.866C162.45 76.274 162.342 76.592 162.126 76.82C161.922 77.048 161.61 77.162 161.19 77.162ZM176.796 77.144C176.352 77.144 176.01 77.018 175.77 76.766C175.542 76.502 175.428 76.136 175.428 75.668V69.512C175.428 69.032 175.542 68.666 175.77 68.414C176.01 68.15 176.352 68.018 176.796 68.018C177.228 68.018 177.558 68.15 177.786 68.414C178.026 68.666 178.146 69.032 178.146 69.512V75.668C178.146 76.136 178.032 76.502 177.804 76.766C177.576 77.018 177.24 77.144 176.796 77.144ZM176.796 66.542C176.292 66.542 175.902 66.428 175.626 66.2C175.362 65.96 175.23 65.624 175.23 65.192C175.23 64.748 175.362 64.412 175.626 64.184C175.902 63.944 176.292 63.824 176.796 63.824C177.3 63.824 177.684 63.944 177.948 64.184C178.212 64.412 178.344 64.748 178.344 65.192C178.344 65.624 178.212 65.96 177.948 66.2C177.684 66.428 177.3 66.542 176.796 66.542ZM181.612 77.162C181.168 77.162 180.826 77.042 180.586 76.802C180.358 76.562 180.244 76.22 180.244 75.776V69.386C180.244 68.942 180.358 68.606 180.586 68.378C180.826 68.138 181.156 68.018 181.576 68.018C182.008 68.018 182.338 68.138 182.566 68.378C182.794 68.606 182.908 68.942 182.908 69.386V70.412L182.71 69.818C182.986 69.23 183.394 68.78 183.934 68.468C184.486 68.144 185.11 67.982 185.806 67.982C186.514 67.982 187.096 68.12 187.552 68.396C188.008 68.66 188.35 69.068 188.578 69.62C188.806 70.16 188.92 70.85 188.92 71.69V75.776C188.92 76.22 188.8 76.562 188.56 76.802C188.332 77.042 187.996 77.162 187.552 77.162C187.12 77.162 186.784 77.042 186.544 76.802C186.316 76.562 186.202 76.22 186.202 75.776V71.816C186.202 71.204 186.088 70.766 185.86 70.502C185.644 70.226 185.308 70.088 184.852 70.088C184.276 70.088 183.814 70.268 183.466 70.628C183.13 70.988 182.962 71.468 182.962 72.068V75.776C182.962 76.7 182.512 77.162 181.612 77.162ZM192.317 77.144C191.873 77.144 191.531 77.018 191.291 76.766C191.063 76.502 190.949 76.136 190.949 75.668V69.512C190.949 69.032 191.063 68.666 191.291 68.414C191.531 68.15 191.873 68.018 192.317 68.018C192.749 68.018 193.079 68.15 193.307 68.414C193.547 68.666 193.667 69.032 193.667 69.512V75.668C193.667 76.136 193.553 76.502 193.325 76.766C193.097 77.018 192.761 77.144 192.317 77.144ZM192.317 66.542C191.813 66.542 191.423 66.428 191.147 66.2C190.883 65.96 190.751 65.624 190.751 65.192C190.751 64.748 190.883 64.412 191.147 64.184C191.423 63.944 191.813 63.824 192.317 63.824C192.821 63.824 193.205 63.944 193.469 64.184C193.733 64.412 193.865 64.748 193.865 65.192C193.865 65.624 193.733 65.96 193.469 66.2C193.205 66.428 192.821 66.542 192.317 66.542ZM196.828 73.238C196.528 73.238 196.27 73.136 196.054 72.932C195.85 72.728 195.748 72.476 195.748 72.176C195.748 71.864 195.85 71.606 196.054 71.402C196.27 71.198 196.528 71.096 196.828 71.096H200.536C200.836 71.096 201.088 71.198 201.292 71.402C201.508 71.606 201.616 71.864 201.616 72.176C201.616 72.476 201.508 72.728 201.292 72.932C201.088 73.136 200.836 73.238 200.536 73.238H196.828ZM206.681 77.198C206.033 77.198 205.451 77.072 204.935 76.82C204.419 76.568 204.017 76.226 203.729 75.794C203.441 75.362 203.297 74.876 203.297 74.336C203.297 73.688 203.465 73.178 203.801 72.806C204.137 72.422 204.683 72.152 205.439 71.996C206.195 71.828 207.197 71.744 208.445 71.744H209.399V73.148H208.463C207.851 73.148 207.353 73.184 206.969 73.256C206.597 73.316 206.327 73.424 206.159 73.58C206.003 73.736 205.925 73.952 205.925 74.228C205.925 74.564 206.039 74.84 206.267 75.056C206.507 75.272 206.849 75.38 207.293 75.38C207.641 75.38 207.947 75.302 208.211 75.146C208.487 74.978 208.703 74.756 208.859 74.48C209.015 74.192 209.093 73.868 209.093 73.508V71.438C209.093 70.91 208.973 70.538 208.733 70.322C208.493 70.094 208.085 69.98 207.509 69.98C207.185 69.98 206.831 70.022 206.447 70.106C206.075 70.178 205.661 70.304 205.205 70.484C204.941 70.604 204.707 70.634 204.503 70.574C204.299 70.502 204.143 70.382 204.035 70.214C203.927 70.034 203.873 69.842 203.873 69.638C203.873 69.422 203.933 69.218 204.053 69.026C204.173 68.822 204.371 68.672 204.647 68.576C205.211 68.348 205.739 68.192 206.231 68.108C206.735 68.024 207.197 67.982 207.617 67.982C208.541 67.982 209.297 68.12 209.885 68.396C210.485 68.66 210.935 69.074 211.235 69.638C211.535 70.19 211.685 70.904 211.685 71.78V75.776C211.685 76.22 211.577 76.562 211.361 76.802C211.145 77.042 210.833 77.162 210.425 77.162C210.017 77.162 209.699 77.042 209.471 76.802C209.255 76.562 209.147 76.22 209.147 75.776V75.11L209.273 75.218C209.201 75.626 209.045 75.98 208.805 76.28C208.577 76.568 208.283 76.796 207.923 76.964C207.563 77.12 207.149 77.198 206.681 77.198ZM215.081 80.402C214.637 80.402 214.295 80.282 214.055 80.042C213.827 79.814 213.713 79.472 213.713 79.016V69.386C213.713 68.942 213.827 68.606 214.055 68.378C214.295 68.138 214.625 68.018 215.045 68.018C215.489 68.018 215.825 68.138 216.053 68.378C216.281 68.606 216.395 68.942 216.395 69.386V70.61L216.197 69.908C216.377 69.332 216.737 68.87 217.277 68.522C217.829 68.162 218.459 67.982 219.167 67.982C219.935 67.982 220.607 68.168 221.183 68.54C221.771 68.912 222.227 69.44 222.551 70.124C222.875 70.808 223.037 71.624 223.037 72.572C223.037 73.52 222.875 74.342 222.551 75.038C222.227 75.734 221.777 76.268 221.201 76.64C220.625 77.012 219.947 77.198 219.167 77.198C218.471 77.198 217.853 77.03 217.313 76.694C216.773 76.346 216.407 75.896 216.215 75.344H216.431V79.016C216.431 79.472 216.311 79.814 216.071 80.042C215.843 80.282 215.513 80.402 215.081 80.402ZM218.357 75.164C218.741 75.164 219.077 75.068 219.365 74.876C219.665 74.684 219.893 74.402 220.049 74.03C220.217 73.646 220.301 73.16 220.301 72.572C220.301 71.696 220.121 71.054 219.761 70.646C219.401 70.226 218.933 70.016 218.357 70.016C217.973 70.016 217.631 70.106 217.331 70.286C217.043 70.466 216.815 70.748 216.647 71.132C216.479 71.504 216.395 71.984 216.395 72.572C216.395 73.448 216.575 74.102 216.935 74.534C217.295 74.954 217.769 75.164 218.357 75.164ZM226.067 80.402C225.623 80.402 225.281 80.282 225.041 80.042C224.813 79.814 224.699 79.472 224.699 79.016V69.386C224.699 68.942 224.813 68.606 225.041 68.378C225.281 68.138 225.611 68.018 226.031 68.018C226.475 68.018 226.811 68.138 227.039 68.378C227.267 68.606 227.381 68.942 227.381 69.386V70.61L227.183 69.908C227.363 69.332 227.723 68.87 228.263 68.522C228.815 68.162 229.445 67.982 230.153 67.982C230.921 67.982 231.593 68.168 232.169 68.54C232.757 68.912 233.213 69.44 233.537 70.124C233.861 70.808 234.023 71.624 234.023 72.572C234.023 73.52 233.861 74.342 233.537 75.038C233.213 75.734 232.763 76.268 232.187 76.64C231.611 77.012 230.933 77.198 230.153 77.198C229.457 77.198 228.839 77.03 228.299 76.694C227.759 76.346 227.393 75.896 227.201 75.344H227.417V79.016C227.417 79.472 227.297 79.814 227.057 80.042C226.829 80.282 226.499 80.402 226.067 80.402ZM229.343 75.164C229.727 75.164 230.063 75.068 230.351 74.876C230.651 74.684 230.879 74.402 231.035 74.03C231.203 73.646 231.287 73.16 231.287 72.572C231.287 71.696 231.107 71.054 230.747 70.646C230.387 70.226 229.919 70.016 229.343 70.016C228.959 70.016 228.617 70.106 228.317 70.286C228.029 70.466 227.801 70.748 227.633 71.132C227.465 71.504 227.381 71.984 227.381 72.572C227.381 73.448 227.561 74.102 227.921 74.534C228.281 74.954 228.755 75.164 229.343 75.164Z" fill="#2C2100"/>
<rect y="411" width="308.197" height="142" rx="25" fill="#FFF9B0"/>
<path d="M91.7413 446.198C90.7933 446.198 89.9653 446.012 89.2573 445.64C88.5613 445.268 88.0213 444.734 87.6373 444.038C87.2533 443.342 87.0613 442.52 87.0613 441.572C87.0613 440.864 87.1693 440.228 87.3853 439.664C87.6013 439.1 87.9133 438.62 88.3213 438.224C88.7413 437.816 89.2393 437.51 89.8153 437.306C90.3913 437.09 91.0333 436.982 91.7413 436.982C92.6893 436.982 93.5113 437.168 94.2073 437.54C94.9153 437.912 95.4613 438.44 95.8453 439.124C96.2413 439.808 96.4393 440.624 96.4393 441.572C96.4393 442.292 96.3253 442.934 96.0973 443.498C95.8813 444.062 95.5693 444.548 95.1613 444.956C94.7533 445.364 94.2553 445.676 93.6673 445.892C93.0913 446.096 92.4493 446.198 91.7413 446.198ZM91.7413 444.164C92.1373 444.164 92.4793 444.068 92.7673 443.876C93.0553 443.684 93.2833 443.402 93.4513 443.03C93.6193 442.646 93.7033 442.16 93.7033 441.572C93.7033 440.696 93.5233 440.054 93.1633 439.646C92.8033 439.226 92.3293 439.016 91.7413 439.016C91.3573 439.016 91.0153 439.106 90.7153 439.286C90.4273 439.466 90.1993 439.748 90.0313 440.132C89.8753 440.504 89.7973 440.984 89.7973 441.572C89.7973 442.448 89.9773 443.102 90.3373 443.534C90.6973 443.954 91.1653 444.164 91.7413 444.164ZM99.4609 446.162C99.0169 446.162 98.6749 446.042 98.4349 445.802C98.2069 445.562 98.0929 445.22 98.0929 444.776V438.386C98.0929 437.942 98.2069 437.606 98.4349 437.378C98.6749 437.138 99.0049 437.018 99.4249 437.018C99.8569 437.018 100.187 437.138 100.415 437.378C100.643 437.606 100.757 437.942 100.757 438.386V439.412L100.559 438.818C100.835 438.23 101.243 437.78 101.783 437.468C102.335 437.144 102.959 436.982 103.655 436.982C104.363 436.982 104.945 437.12 105.401 437.396C105.857 437.66 106.199 438.068 106.427 438.62C106.655 439.16 106.769 439.85 106.769 440.69V444.776C106.769 445.22 106.649 445.562 106.409 445.802C106.181 446.042 105.845 446.162 105.401 446.162C104.969 446.162 104.633 446.042 104.393 445.802C104.165 445.562 104.051 445.22 104.051 444.776V440.816C104.051 440.204 103.937 439.766 103.709 439.502C103.493 439.226 103.157 439.088 102.701 439.088C102.125 439.088 101.663 439.268 101.315 439.628C100.979 439.988 100.811 440.468 100.811 441.068V444.776C100.811 445.7 100.361 446.162 99.4609 446.162ZM118.757 446.162C118.373 446.162 118.061 446.072 117.821 445.892C117.581 445.7 117.389 445.412 117.245 445.028L113.609 434.804C113.453 434.348 113.483 433.958 113.699 433.634C113.927 433.31 114.317 433.148 114.869 433.148C115.253 433.148 115.547 433.238 115.751 433.418C115.967 433.598 116.141 433.88 116.273 434.264L119.243 443.102H118.469L121.601 434.282C121.745 433.898 121.919 433.616 122.123 433.436C122.339 433.244 122.621 433.148 122.969 433.148C123.305 433.148 123.575 433.244 123.779 433.436C123.983 433.616 124.157 433.904 124.301 434.3L127.289 443.102H126.623L129.647 434.264C129.767 433.892 129.935 433.616 130.151 433.436C130.367 433.244 130.661 433.148 131.033 433.148C131.501 433.148 131.843 433.31 132.059 433.634C132.275 433.958 132.299 434.348 132.131 434.804L128.459 445.046C128.327 445.418 128.147 445.7 127.919 445.892C127.691 446.072 127.379 446.162 126.983 446.162C126.599 446.162 126.293 446.072 126.065 445.892C125.837 445.7 125.651 445.412 125.507 445.028L122.663 436.982H123.095L120.215 445.046C120.071 445.418 119.885 445.7 119.657 445.892C119.441 446.072 119.141 446.162 118.757 446.162ZM137.4 446.198C136.356 446.198 135.456 446.012 134.7 445.64C133.956 445.256 133.38 444.722 132.972 444.038C132.576 443.342 132.378 442.526 132.378 441.59C132.378 440.678 132.57 439.88 132.954 439.196C133.338 438.5 133.872 437.96 134.556 437.576C135.252 437.18 136.038 436.982 136.914 436.982C137.55 436.982 138.126 437.09 138.642 437.306C139.158 437.51 139.602 437.81 139.974 438.206C140.346 438.59 140.628 439.064 140.82 439.628C141.012 440.18 141.108 440.798 141.108 441.482C141.108 441.71 141.036 441.884 140.892 442.004C140.748 442.112 140.538 442.166 140.262 442.166H134.61V440.762H139.146L138.858 441.014C138.858 440.522 138.786 440.114 138.642 439.79C138.498 439.454 138.288 439.202 138.012 439.034C137.748 438.866 137.418 438.782 137.022 438.782C136.578 438.782 136.2 438.884 135.888 439.088C135.576 439.292 135.336 439.586 135.168 439.97C135 440.354 134.916 440.816 134.916 441.356V441.5C134.916 442.412 135.126 443.084 135.546 443.516C135.978 443.948 136.614 444.164 137.454 444.164C137.742 444.164 138.072 444.128 138.444 444.056C138.816 443.984 139.164 443.87 139.488 443.714C139.764 443.582 140.01 443.54 140.226 443.588C140.442 443.624 140.61 443.72 140.73 443.876C140.85 444.032 140.916 444.212 140.928 444.416C140.952 444.62 140.91 444.824 140.802 445.028C140.694 445.22 140.514 445.382 140.262 445.514C139.854 445.742 139.392 445.91 138.876 446.018C138.372 446.138 137.88 446.198 137.4 446.198ZM148.143 446.198C147.435 446.198 146.805 446.024 146.253 445.676C145.713 445.316 145.353 444.842 145.173 444.254L145.371 443.66V444.776C145.371 445.22 145.257 445.562 145.029 445.802C144.801 446.042 144.471 446.162 144.039 446.162C143.607 446.162 143.271 446.042 143.031 445.802C142.803 445.562 142.689 445.22 142.689 444.776V434.534C142.689 434.078 142.803 433.736 143.031 433.508C143.271 433.268 143.613 433.148 144.057 433.148C144.489 433.148 144.819 433.268 145.047 433.508C145.287 433.736 145.407 434.078 145.407 434.534V438.8H145.191C145.383 438.26 145.749 437.822 146.289 437.486C146.829 437.15 147.447 436.982 148.143 436.982C148.923 436.982 149.601 437.168 150.177 437.54C150.753 437.912 151.203 438.44 151.527 439.124C151.851 439.808 152.013 440.624 152.013 441.572C152.013 442.52 151.851 443.342 151.527 444.038C151.203 444.734 150.747 445.268 150.159 445.64C149.583 446.012 148.911 446.198 148.143 446.198ZM147.333 444.164C147.717 444.164 148.053 444.068 148.341 443.876C148.641 443.684 148.869 443.402 149.025 443.03C149.193 442.646 149.277 442.16 149.277 441.572C149.277 440.696 149.097 440.054 148.737 439.646C148.377 439.226 147.909 439.016 147.333 439.016C146.949 439.016 146.607 439.106 146.307 439.286C146.019 439.466 145.791 439.748 145.623 440.132C145.455 440.504 145.371 440.984 145.371 441.572C145.371 442.448 145.551 443.102 145.911 443.534C146.271 443.954 146.745 444.164 147.333 444.164ZM164.21 446.162C163.826 446.162 163.508 446.078 163.256 445.91C163.016 445.73 162.818 445.46 162.662 445.1L158.126 435.02C157.958 434.66 157.91 434.342 157.982 434.066C158.054 433.778 158.204 433.556 158.432 433.4C158.66 433.232 158.936 433.148 159.26 433.148C159.668 433.148 159.98 433.244 160.196 433.436C160.412 433.616 160.592 433.886 160.736 434.246L164.714 443.444H163.814L167.792 434.228C167.948 433.868 168.134 433.598 168.35 433.418C168.566 433.238 168.866 433.148 169.25 433.148C169.574 433.148 169.838 433.232 170.042 433.4C170.258 433.556 170.39 433.778 170.438 434.066C170.498 434.342 170.45 434.66 170.294 435.02L165.758 445.1C165.59 445.46 165.386 445.73 165.146 445.91C164.918 446.078 164.606 446.162 164.21 446.162ZM175.193 446.198C174.149 446.198 173.249 446.012 172.493 445.64C171.749 445.256 171.173 444.722 170.765 444.038C170.369 443.342 170.171 442.526 170.171 441.59C170.171 440.678 170.363 439.88 170.747 439.196C171.131 438.5 171.665 437.96 172.349 437.576C173.045 437.18 173.831 436.982 174.707 436.982C175.343 436.982 175.919 437.09 176.435 437.306C176.951 437.51 177.395 437.81 177.767 438.206C178.139 438.59 178.421 439.064 178.613 439.628C178.805 440.18 178.901 440.798 178.901 441.482C178.901 441.71 178.829 441.884 178.685 442.004C178.541 442.112 178.331 442.166 178.055 442.166H172.403V440.762H176.939L176.651 441.014C176.651 440.522 176.579 440.114 176.435 439.79C176.291 439.454 176.081 439.202 175.805 439.034C175.541 438.866 175.211 438.782 174.815 438.782C174.371 438.782 173.993 438.884 173.681 439.088C173.369 439.292 173.129 439.586 172.961 439.97C172.793 440.354 172.709 440.816 172.709 441.356V441.5C172.709 442.412 172.919 443.084 173.339 443.516C173.771 443.948 174.407 444.164 175.247 444.164C175.535 444.164 175.865 444.128 176.237 444.056C176.609 443.984 176.957 443.87 177.281 443.714C177.557 443.582 177.803 443.54 178.019 443.588C178.235 443.624 178.403 443.72 178.523 443.876C178.643 444.032 178.709 444.212 178.721 444.416C178.745 444.62 178.703 444.824 178.595 445.028C178.487 445.22 178.307 445.382 178.055 445.514C177.647 445.742 177.185 445.91 176.669 446.018C176.165 446.138 175.673 446.198 175.193 446.198ZM181.886 446.162C181.43 446.162 181.082 446.042 180.842 445.802C180.602 445.562 180.482 445.22 180.482 444.776V438.386C180.482 437.942 180.596 437.606 180.824 437.378C181.064 437.138 181.394 437.018 181.814 437.018C182.246 437.018 182.576 437.138 182.804 437.378C183.032 437.606 183.146 437.942 183.146 438.386V439.322H182.966C183.11 438.602 183.428 438.044 183.92 437.648C184.412 437.252 185.048 437.03 185.828 436.982C186.128 436.958 186.356 437.036 186.512 437.216C186.68 437.384 186.77 437.666 186.782 438.062C186.806 438.434 186.728 438.728 186.548 438.944C186.38 439.16 186.092 439.292 185.684 439.34L185.27 439.376C184.586 439.436 184.076 439.634 183.74 439.97C183.416 440.306 183.254 440.792 183.254 441.428V444.776C183.254 445.22 183.134 445.562 182.894 445.802C182.666 446.042 182.33 446.162 181.886 446.162ZM191.196 446.198C190.668 446.198 190.122 446.15 189.558 446.054C189.006 445.958 188.502 445.796 188.046 445.568C187.806 445.448 187.632 445.298 187.524 445.118C187.428 444.926 187.386 444.734 187.398 444.542C187.41 444.35 187.47 444.176 187.578 444.02C187.698 443.864 187.848 443.762 188.028 443.714C188.22 443.654 188.43 443.672 188.658 443.768C189.15 443.972 189.6 444.116 190.008 444.2C190.416 444.284 190.818 444.326 191.214 444.326C191.73 444.326 192.102 444.248 192.33 444.092C192.57 443.924 192.69 443.708 192.69 443.444C192.69 443.204 192.612 443.024 192.456 442.904C192.3 442.784 192.072 442.7 191.772 442.652L189.882 442.31C189.138 442.178 188.562 441.908 188.154 441.5C187.758 441.08 187.56 440.546 187.56 439.898C187.56 439.298 187.728 438.782 188.064 438.35C188.4 437.906 188.862 437.57 189.45 437.342C190.05 437.102 190.728 436.982 191.484 436.982C192.024 436.982 192.522 437.03 192.978 437.126C193.434 437.222 193.872 437.378 194.292 437.594C194.508 437.702 194.658 437.846 194.742 438.026C194.838 438.206 194.868 438.392 194.832 438.584C194.808 438.776 194.736 438.95 194.616 439.106C194.496 439.262 194.34 439.364 194.148 439.412C193.968 439.46 193.758 439.436 193.518 439.34C193.134 439.16 192.78 439.034 192.456 438.962C192.132 438.878 191.82 438.836 191.52 438.836C190.98 438.836 190.59 438.926 190.35 439.106C190.11 439.274 189.99 439.49 189.99 439.754C189.99 439.958 190.056 440.132 190.188 440.276C190.332 440.408 190.548 440.498 190.836 440.546L192.726 440.888C193.506 441.02 194.1 441.284 194.508 441.68C194.916 442.064 195.12 442.592 195.12 443.264C195.12 444.176 194.76 444.896 194.04 445.424C193.332 445.94 192.384 446.198 191.196 446.198ZM198.039 446.144C197.595 446.144 197.253 446.018 197.013 445.766C196.785 445.502 196.671 445.136 196.671 444.668V438.512C196.671 438.032 196.785 437.666 197.013 437.414C197.253 437.15 197.595 437.018 198.039 437.018C198.471 437.018 198.801 437.15 199.029 437.414C199.269 437.666 199.389 438.032 199.389 438.512V444.668C199.389 445.136 199.275 445.502 199.047 445.766C198.819 446.018 198.483 446.144 198.039 446.144ZM198.039 435.542C197.535 435.542 197.145 435.428 196.869 435.2C196.605 434.96 196.473 434.624 196.473 434.192C196.473 433.748 196.605 433.412 196.869 433.184C197.145 432.944 197.535 432.824 198.039 432.824C198.543 432.824 198.927 432.944 199.191 433.184C199.455 433.412 199.587 433.748 199.587 434.192C199.587 434.624 199.455 434.96 199.191 435.2C198.927 435.428 198.543 435.542 198.039 435.542ZM205.735 446.198C204.787 446.198 203.959 446.012 203.251 445.64C202.555 445.268 202.015 444.734 201.631 444.038C201.247 443.342 201.055 442.52 201.055 441.572C201.055 440.864 201.163 440.228 201.379 439.664C201.595 439.1 201.907 438.62 202.315 438.224C202.735 437.816 203.233 437.51 203.809 437.306C204.385 437.09 205.027 436.982 205.735 436.982C206.683 436.982 207.505 437.168 208.201 437.54C208.909 437.912 209.455 438.44 209.839 439.124C210.235 439.808 210.433 440.624 210.433 441.572C210.433 442.292 210.319 442.934 210.091 443.498C209.875 444.062 209.563 444.548 209.155 444.956C208.747 445.364 208.249 445.676 207.661 445.892C207.085 446.096 206.443 446.198 205.735 446.198ZM205.735 444.164C206.131 444.164 206.473 444.068 206.761 443.876C207.049 443.684 207.277 443.402 207.445 443.03C207.613 442.646 207.697 442.16 207.697 441.572C207.697 440.696 207.517 440.054 207.157 439.646C206.797 439.226 206.323 439.016 205.735 439.016C205.351 439.016 205.009 439.106 204.709 439.286C204.421 439.466 204.193 439.748 204.025 440.132C203.869 440.504 203.791 440.984 203.791 441.572C203.791 442.448 203.971 443.102 204.331 443.534C204.691 443.954 205.159 444.164 205.735 444.164ZM213.455 446.162C213.011 446.162 212.669 446.042 212.429 445.802C212.201 445.562 212.087 445.22 212.087 444.776V438.386C212.087 437.942 212.201 437.606 212.429 437.378C212.669 437.138 212.999 437.018 213.419 437.018C213.851 437.018 214.181 437.138 214.409 437.378C214.637 437.606 214.751 437.942 214.751 438.386V439.412L214.553 438.818C214.829 438.23 215.237 437.78 215.777 437.468C216.329 437.144 216.953 436.982 217.649 436.982C218.357 436.982 218.939 437.12 219.395 437.396C219.851 437.66 220.193 438.068 220.421 438.62C220.649 439.16 220.763 439.85 220.763 440.69V444.776C220.763 445.22 220.643 445.562 220.403 445.802C220.175 446.042 219.839 446.162 219.395 446.162C218.963 446.162 218.627 446.042 218.387 445.802C218.159 445.562 218.045 445.22 218.045 444.776V440.816C218.045 440.204 217.931 439.766 217.703 439.502C217.487 439.226 217.151 439.088 216.695 439.088C216.119 439.088 215.657 439.268 215.309 439.628C214.973 439.988 214.805 440.468 214.805 441.068V444.776C214.805 445.7 214.355 446.162 213.455 446.162Z" fill="#2C2100"/>
<path d="M102.406 520.07C102.253 520.07 102.133 520.027 102.046 519.94C101.96 519.853 101.916 519.73 101.916 519.57V513.45C101.916 513.29 101.96 513.167 102.046 513.08C102.133 512.993 102.256 512.95 102.416 512.95H106.006C106.14 512.95 106.24 512.983 106.306 513.05C106.373 513.11 106.406 513.2 106.406 513.32C106.406 513.447 106.373 513.543 106.306 513.61C106.24 513.677 106.14 513.71 106.006 513.71H102.846V516.07H105.806C105.933 516.07 106.03 516.103 106.096 516.17C106.163 516.237 106.196 516.327 106.196 516.44C106.196 516.567 106.163 516.663 106.096 516.73C106.03 516.797 105.933 516.83 105.806 516.83H102.846V519.57C102.846 519.903 102.7 520.07 102.406 520.07ZM109.189 520.09C108.709 520.09 108.292 519.987 107.939 519.78C107.585 519.573 107.312 519.28 107.119 518.9C106.925 518.52 106.829 518.073 106.829 517.56C106.829 517.173 106.882 516.827 106.989 516.52C107.102 516.207 107.262 515.94 107.469 515.72C107.675 515.5 107.922 515.333 108.209 515.22C108.502 515.1 108.829 515.04 109.189 515.04C109.669 515.04 110.085 515.143 110.439 515.35C110.792 515.557 111.065 515.85 111.259 516.23C111.452 516.603 111.549 517.047 111.549 517.56C111.549 517.947 111.492 518.297 111.379 518.61C111.272 518.923 111.115 519.19 110.909 519.41C110.702 519.63 110.452 519.8 110.159 519.92C109.872 520.033 109.549 520.09 109.189 520.09ZM109.189 519.37C109.482 519.37 109.735 519.3 109.949 519.16C110.169 519.02 110.335 518.817 110.449 518.55C110.569 518.283 110.629 517.953 110.629 517.56C110.629 516.973 110.499 516.527 110.239 516.22C109.979 515.913 109.629 515.76 109.189 515.76C108.902 515.76 108.649 515.83 108.429 515.97C108.215 516.103 108.049 516.303 107.929 516.57C107.809 516.837 107.749 517.167 107.749 517.56C107.749 518.147 107.879 518.597 108.139 518.91C108.405 519.217 108.755 519.37 109.189 519.37ZM113.184 520.07C113.031 520.07 112.914 520.03 112.834 519.95C112.754 519.87 112.714 519.753 112.714 519.6V515.52C112.714 515.367 112.754 515.253 112.834 515.18C112.914 515.1 113.024 515.06 113.164 515.06C113.304 515.06 113.411 515.1 113.484 515.18C113.564 515.253 113.604 515.367 113.604 515.52V516.29H113.504C113.611 515.89 113.811 515.587 114.104 515.38C114.398 515.173 114.768 515.057 115.214 515.03C115.321 515.023 115.408 515.05 115.474 515.11C115.541 515.163 115.578 515.257 115.584 515.39C115.591 515.517 115.561 515.62 115.494 515.7C115.428 515.773 115.324 515.817 115.184 515.83L115.004 515.84C114.564 515.887 114.224 516.03 113.984 516.27C113.751 516.51 113.634 516.84 113.634 517.26V519.6C113.634 519.753 113.594 519.87 113.514 519.95C113.441 520.03 113.331 520.07 113.184 520.07ZM119.444 520.07C119.304 520.07 119.194 520.03 119.114 519.95C119.034 519.87 118.994 519.753 118.994 519.6V515.52C118.994 515.367 119.034 515.253 119.114 515.18C119.194 515.1 119.304 515.06 119.444 515.06C119.584 515.06 119.691 515.1 119.764 515.18C119.844 515.253 119.884 515.367 119.884 515.52V516.37L119.774 516.19C119.901 515.823 120.104 515.54 120.384 515.34C120.671 515.14 121.011 515.04 121.404 515.04C121.818 515.04 122.151 515.14 122.404 515.34C122.658 515.533 122.828 515.83 122.914 516.23H122.774C122.894 515.863 123.108 515.573 123.414 515.36C123.728 515.147 124.091 515.04 124.504 515.04C124.871 515.04 125.171 515.113 125.404 515.26C125.644 515.4 125.824 515.613 125.944 515.9C126.064 516.18 126.124 516.54 126.124 516.98V519.6C126.124 519.753 126.084 519.87 126.004 519.95C125.924 520.03 125.814 520.07 125.674 520.07C125.528 520.07 125.414 520.03 125.334 519.95C125.254 519.87 125.214 519.753 125.214 519.6V517.02C125.214 516.593 125.141 516.28 124.994 516.08C124.848 515.88 124.601 515.78 124.254 515.78C123.874 515.78 123.571 515.913 123.344 516.18C123.124 516.44 123.014 516.8 123.014 517.26V519.6C123.014 519.753 122.974 519.87 122.894 519.95C122.821 520.03 122.711 520.07 122.564 520.07C122.418 520.07 122.304 520.03 122.224 519.95C122.144 519.87 122.104 519.753 122.104 519.6V517.02C122.104 516.593 122.031 516.28 121.884 516.08C121.738 515.88 121.491 515.78 121.144 515.78C120.764 515.78 120.461 515.913 120.234 516.18C120.014 516.44 119.904 516.8 119.904 517.26V519.6C119.904 519.913 119.751 520.07 119.444 520.07ZM129.657 520.09C129.177 520.09 128.761 519.987 128.407 519.78C128.054 519.573 127.781 519.28 127.587 518.9C127.394 518.52 127.297 518.073 127.297 517.56C127.297 517.173 127.351 516.827 127.457 516.52C127.571 516.207 127.731 515.94 127.937 515.72C128.144 515.5 128.391 515.333 128.677 515.22C128.971 515.1 129.297 515.04 129.657 515.04C130.137 515.04 130.554 515.143 130.907 515.35C131.261 515.557 131.534 515.85 131.727 516.23C131.921 516.603 132.017 517.047 132.017 517.56C132.017 517.947 131.961 518.297 131.847 518.61C131.741 518.923 131.584 519.19 131.377 519.41C131.171 519.63 130.921 519.8 130.627 519.92C130.341 520.033 130.017 520.09 129.657 520.09ZM129.657 519.37C129.951 519.37 130.204 519.3 130.417 519.16C130.637 519.02 130.804 518.817 130.917 518.55C131.037 518.283 131.097 517.953 131.097 517.56C131.097 516.973 130.967 516.527 130.707 516.22C130.447 515.913 130.097 515.76 129.657 515.76C129.371 515.76 129.117 515.83 128.897 515.97C128.684 516.103 128.517 516.303 128.397 516.57C128.277 516.837 128.217 517.167 128.217 517.56C128.217 518.147 128.347 518.597 128.607 518.91C128.874 519.217 129.224 519.37 129.657 519.37ZM135.733 520.09C135.293 520.09 134.917 519.98 134.603 519.76C134.29 519.54 134.08 519.243 133.973 518.87L134.083 518.72V519.6C134.083 519.753 134.043 519.87 133.963 519.95C133.89 520.03 133.78 520.07 133.633 520.07C133.493 520.07 133.383 520.03 133.303 519.95C133.223 519.87 133.183 519.753 133.183 519.6V513.34C133.183 513.187 133.223 513.073 133.303 513C133.383 512.92 133.493 512.88 133.633 512.88C133.78 512.88 133.893 512.92 133.973 513C134.053 513.073 134.093 513.187 134.093 513.34V516.23H133.983C134.09 515.87 134.3 515.583 134.613 515.37C134.927 515.15 135.3 515.04 135.733 515.04C136.167 515.04 136.543 515.143 136.863 515.35C137.19 515.55 137.44 515.84 137.613 516.22C137.793 516.593 137.883 517.04 137.883 517.56C137.883 518.073 137.793 518.523 137.613 518.91C137.433 519.29 137.183 519.583 136.863 519.79C136.543 519.99 136.167 520.09 135.733 520.09ZM135.523 519.37C135.81 519.37 136.06 519.3 136.273 519.16C136.493 519.02 136.663 518.817 136.783 518.55C136.903 518.283 136.963 517.953 136.963 517.56C136.963 516.973 136.833 516.527 136.573 516.22C136.313 515.913 135.963 515.76 135.523 515.76C135.23 515.76 134.973 515.83 134.753 515.97C134.54 516.103 134.373 516.303 134.253 516.57C134.14 516.837 134.083 517.167 134.083 517.56C134.083 518.147 134.213 518.597 134.473 518.91C134.733 519.217 135.083 519.37 135.523 519.37ZM139.502 520.05C139.362 520.05 139.252 520.007 139.172 519.92C139.092 519.833 139.052 519.713 139.052 519.56V515.57C139.052 515.41 139.092 515.29 139.172 515.21C139.252 515.123 139.362 515.08 139.502 515.08C139.649 515.08 139.762 515.123 139.842 515.21C139.922 515.29 139.962 515.41 139.962 515.57V519.56C139.962 519.713 139.922 519.833 139.842 519.92C139.769 520.007 139.656 520.05 139.502 520.05ZM139.502 514C139.322 514 139.179 513.953 139.072 513.86C138.972 513.76 138.922 513.63 138.922 513.47C138.922 513.297 138.972 513.167 139.072 513.08C139.179 512.987 139.322 512.94 139.502 512.94C139.696 512.94 139.839 512.987 139.932 513.08C140.032 513.167 140.082 513.297 140.082 513.47C140.082 513.63 140.032 513.76 139.932 513.86C139.839 513.953 139.696 514 139.502 514ZM142.955 520.09C142.455 520.09 142.075 519.943 141.815 519.65C141.555 519.35 141.425 518.92 141.425 518.36V513.34C141.425 513.187 141.465 513.073 141.545 513C141.625 512.92 141.735 512.88 141.875 512.88C142.022 512.88 142.135 512.92 142.215 513C142.295 513.073 142.335 513.187 142.335 513.34V518.29C142.335 518.637 142.405 518.897 142.545 519.07C142.692 519.237 142.899 519.32 143.165 519.32C143.225 519.32 143.279 519.32 143.325 519.32C143.372 519.313 143.419 519.307 143.465 519.3C143.539 519.293 143.592 519.313 143.625 519.36C143.659 519.407 143.675 519.5 143.675 519.64C143.675 519.767 143.645 519.867 143.585 519.94C143.532 520.007 143.442 520.05 143.315 520.07C143.255 520.077 143.195 520.08 143.135 520.08C143.075 520.087 143.015 520.09 142.955 520.09ZM146.634 520.09C146.108 520.09 145.654 519.99 145.274 519.79C144.901 519.583 144.611 519.293 144.404 518.92C144.198 518.54 144.094 518.093 144.094 517.58C144.094 517.073 144.194 516.63 144.394 516.25C144.601 515.87 144.881 515.573 145.234 515.36C145.594 515.147 146.004 515.04 146.464 515.04C146.791 515.04 147.084 515.097 147.344 515.21C147.611 515.317 147.838 515.473 148.024 515.68C148.211 515.887 148.351 516.14 148.444 516.44C148.544 516.733 148.594 517.067 148.594 517.44C148.594 517.547 148.561 517.63 148.494 517.69C148.434 517.743 148.344 517.77 148.224 517.77H144.804V517.19H147.994L147.824 517.33C147.824 516.983 147.771 516.69 147.664 516.45C147.564 516.203 147.414 516.017 147.214 515.89C147.021 515.763 146.778 515.7 146.484 515.7C146.164 515.7 145.891 515.777 145.664 515.93C145.438 516.077 145.264 516.287 145.144 516.56C145.024 516.827 144.964 517.137 144.964 517.49V517.55C144.964 518.15 145.108 518.603 145.394 518.91C145.681 519.217 146.094 519.37 146.634 519.37C146.848 519.37 147.064 519.343 147.284 519.29C147.511 519.237 147.728 519.14 147.934 519C148.034 518.94 148.124 518.913 148.204 518.92C148.291 518.92 148.361 518.947 148.414 519C148.468 519.047 148.501 519.107 148.514 519.18C148.528 519.247 148.518 519.32 148.484 519.4C148.451 519.48 148.388 519.55 148.294 519.61C148.074 519.763 147.811 519.883 147.504 519.97C147.204 520.05 146.914 520.09 146.634 520.09ZM153.884 520.09C153.55 520.09 153.247 520.023 152.974 519.89C152.707 519.757 152.497 519.577 152.344 519.35C152.197 519.123 152.124 518.87 152.124 518.59C152.124 518.23 152.214 517.947 152.394 517.74C152.574 517.533 152.877 517.387 153.304 517.3C153.73 517.207 154.304 517.16 155.024 517.16H155.494V517.74H155.044C154.53 517.74 154.124 517.763 153.824 517.81C153.53 517.857 153.324 517.94 153.204 518.06C153.084 518.173 153.024 518.333 153.024 518.54C153.024 518.8 153.114 519.013 153.294 519.18C153.48 519.347 153.734 519.43 154.054 519.43C154.307 519.43 154.53 519.37 154.724 519.25C154.917 519.123 155.07 518.957 155.184 518.75C155.297 518.537 155.354 518.293 155.354 518.02V516.87C155.354 516.477 155.274 516.193 155.114 516.02C154.954 515.84 154.684 515.75 154.304 515.75C154.084 515.75 153.857 515.78 153.624 515.84C153.39 515.9 153.147 515.993 152.894 516.12C152.794 516.167 152.707 516.183 152.634 516.17C152.56 516.15 152.5 516.11 152.454 516.05C152.414 515.983 152.39 515.913 152.384 515.84C152.384 515.76 152.4 515.683 152.434 515.61C152.474 515.537 152.54 515.483 152.634 515.45C152.927 515.303 153.217 515.2 153.504 515.14C153.797 515.073 154.07 515.04 154.324 515.04C154.757 515.04 155.114 515.11 155.394 515.25C155.674 515.383 155.884 515.593 156.024 515.88C156.164 516.16 156.234 516.52 156.234 516.96V519.6C156.234 519.753 156.197 519.87 156.124 519.95C156.05 520.03 155.944 520.07 155.804 520.07C155.67 520.07 155.564 520.03 155.484 519.95C155.41 519.87 155.374 519.753 155.374 519.6V518.89H155.464C155.41 519.137 155.31 519.35 155.164 519.53C155.017 519.71 154.834 519.85 154.614 519.95C154.4 520.043 154.157 520.09 153.884 520.09ZM158.116 520.07C157.976 520.07 157.866 520.03 157.786 519.95C157.706 519.87 157.666 519.753 157.666 519.6V515.52C157.666 515.367 157.706 515.253 157.786 515.18C157.866 515.1 157.976 515.06 158.116 515.06C158.256 515.06 158.362 515.1 158.436 515.18C158.516 515.253 158.556 515.367 158.556 515.52V516.34L158.446 516.19C158.586 515.81 158.812 515.523 159.126 515.33C159.446 515.137 159.809 515.04 160.216 515.04C160.609 515.04 160.932 515.11 161.186 515.25C161.439 515.39 161.629 515.603 161.756 515.89C161.882 516.177 161.946 516.54 161.946 516.98V519.6C161.946 519.753 161.906 519.87 161.826 519.95C161.752 520.03 161.642 520.07 161.496 520.07C161.349 520.07 161.236 520.03 161.156 519.95C161.076 519.87 161.036 519.753 161.036 519.6V517.03C161.036 516.597 160.952 516.28 160.786 516.08C160.619 515.88 160.352 515.78 159.986 515.78C159.559 515.78 159.216 515.913 158.956 516.18C158.702 516.44 158.576 516.793 158.576 517.24V519.6C158.576 519.913 158.422 520.07 158.116 520.07ZM165.248 520.09C164.822 520.09 164.445 519.99 164.118 519.79C163.798 519.583 163.548 519.29 163.368 518.91C163.188 518.523 163.098 518.073 163.098 517.56C163.098 517.04 163.185 516.593 163.358 516.22C163.538 515.84 163.788 515.55 164.108 515.35C164.435 515.143 164.815 515.04 165.248 515.04C165.682 515.04 166.055 515.15 166.368 515.37C166.682 515.583 166.892 515.87 166.998 516.23H166.888V513.34C166.888 513.187 166.925 513.073 166.998 513C167.078 512.92 167.192 512.88 167.338 512.88C167.485 512.88 167.598 512.92 167.678 513C167.758 513.073 167.798 513.187 167.798 513.34V519.6C167.798 519.753 167.758 519.87 167.678 519.95C167.598 520.03 167.485 520.07 167.338 520.07C167.198 520.07 167.088 520.03 167.008 519.95C166.928 519.87 166.888 519.753 166.888 519.6V518.69L166.998 518.87C166.898 519.243 166.688 519.54 166.368 519.76C166.055 519.98 165.682 520.09 165.248 520.09ZM165.458 519.37C165.752 519.37 166.005 519.3 166.218 519.16C166.438 519.02 166.605 518.817 166.718 518.55C166.838 518.283 166.898 517.953 166.898 517.56C166.898 516.973 166.768 516.527 166.508 516.22C166.248 515.913 165.898 515.76 165.458 515.76C165.172 515.76 164.918 515.83 164.698 515.97C164.485 516.103 164.318 516.303 164.198 516.57C164.078 516.837 164.018 517.167 164.018 517.56C164.018 518.147 164.148 518.597 164.408 518.91C164.675 519.217 165.025 519.37 165.458 519.37ZM173.725 520.09C173.298 520.09 172.921 519.99 172.595 519.79C172.275 519.583 172.025 519.29 171.845 518.91C171.665 518.523 171.575 518.073 171.575 517.56C171.575 517.04 171.661 516.593 171.835 516.22C172.015 515.84 172.265 515.55 172.585 515.35C172.911 515.143 173.291 515.04 173.725 515.04C174.158 515.04 174.531 515.15 174.845 515.37C175.158 515.583 175.368 515.87 175.475 516.23H175.365V513.34C175.365 513.187 175.401 513.073 175.475 513C175.555 512.92 175.668 512.88 175.815 512.88C175.961 512.88 176.075 512.92 176.155 513C176.235 513.073 176.275 513.187 176.275 513.34V519.6C176.275 519.753 176.235 519.87 176.155 519.95C176.075 520.03 175.961 520.07 175.815 520.07C175.675 520.07 175.565 520.03 175.485 519.95C175.405 519.87 175.365 519.753 175.365 519.6V518.69L175.475 518.87C175.375 519.243 175.165 519.54 174.845 519.76C174.531 519.98 174.158 520.09 173.725 520.09ZM173.935 519.37C174.228 519.37 174.481 519.3 174.695 519.16C174.915 519.02 175.081 518.817 175.195 518.55C175.315 518.283 175.375 517.953 175.375 517.56C175.375 516.973 175.245 516.527 174.985 516.22C174.725 515.913 174.375 515.76 173.935 515.76C173.648 515.76 173.395 515.83 173.175 515.97C172.961 516.103 172.795 516.303 172.675 516.57C172.555 516.837 172.495 517.167 172.495 517.56C172.495 518.147 172.625 518.597 172.885 518.91C173.151 519.217 173.501 519.37 173.935 519.37ZM179.984 520.09C179.457 520.09 179.004 519.99 178.624 519.79C178.251 519.583 177.961 519.293 177.754 518.92C177.547 518.54 177.444 518.093 177.444 517.58C177.444 517.073 177.544 516.63 177.744 516.25C177.951 515.87 178.231 515.573 178.584 515.36C178.944 515.147 179.354 515.04 179.814 515.04C180.141 515.04 180.434 515.097 180.694 515.21C180.961 515.317 181.187 515.473 181.374 515.68C181.561 515.887 181.701 516.14 181.794 516.44C181.894 516.733 181.944 517.067 181.944 517.44C181.944 517.547 181.911 517.63 181.844 517.69C181.784 517.743 181.694 517.77 181.574 517.77H178.154V517.19H181.344L181.174 517.33C181.174 516.983 181.121 516.69 181.014 516.45C180.914 516.203 180.764 516.017 180.564 515.89C180.371 515.763 180.127 515.7 179.834 515.7C179.514 515.7 179.241 515.777 179.014 515.93C178.787 516.077 178.614 516.287 178.494 516.56C178.374 516.827 178.314 517.137 178.314 517.49V517.55C178.314 518.15 178.457 518.603 178.744 518.91C179.031 519.217 179.444 519.37 179.984 519.37C180.197 519.37 180.414 519.343 180.634 519.29C180.861 519.237 181.077 519.14 181.284 519C181.384 518.94 181.474 518.913 181.554 518.92C181.641 518.92 181.711 518.947 181.764 519C181.817 519.047 181.851 519.107 181.864 519.18C181.877 519.247 181.867 519.32 181.834 519.4C181.801 519.48 181.737 519.55 181.644 519.61C181.424 519.763 181.161 519.883 180.854 519.97C180.554 520.05 180.264 520.09 179.984 520.09ZM184.756 520.09C184.456 520.09 184.152 520.057 183.846 519.99C183.546 519.917 183.262 519.793 182.996 519.62C182.922 519.573 182.869 519.517 182.836 519.45C182.809 519.377 182.799 519.307 182.806 519.24C182.819 519.167 182.849 519.103 182.896 519.05C182.942 518.997 182.999 518.967 183.066 518.96C183.139 518.947 183.216 518.963 183.296 519.01C183.556 519.157 183.806 519.26 184.046 519.32C184.292 519.38 184.536 519.41 184.776 519.41C185.142 519.41 185.419 519.343 185.606 519.21C185.792 519.077 185.886 518.9 185.886 518.68C185.886 518.493 185.822 518.35 185.696 518.25C185.576 518.143 185.386 518.063 185.126 518.01L184.196 517.82C183.782 517.727 183.469 517.573 183.256 517.36C183.049 517.14 182.946 516.86 182.946 516.52C182.946 516.22 183.026 515.96 183.186 515.74C183.352 515.513 183.582 515.34 183.876 515.22C184.169 515.1 184.506 515.04 184.886 515.04C185.179 515.04 185.456 515.08 185.716 515.16C185.982 515.233 186.222 515.347 186.436 515.5C186.516 515.547 186.566 515.607 186.586 515.68C186.612 515.747 186.616 515.817 186.596 515.89C186.582 515.957 186.552 516.013 186.506 516.06C186.459 516.107 186.399 516.137 186.326 516.15C186.252 516.157 186.172 516.137 186.086 516.09C185.892 515.957 185.692 515.863 185.486 515.81C185.286 515.75 185.086 515.72 184.886 515.72C184.526 515.72 184.252 515.79 184.066 515.93C183.886 516.07 183.796 516.253 183.796 516.48C183.796 516.653 183.849 516.797 183.956 516.91C184.069 517.023 184.246 517.107 184.486 517.16L185.416 517.35C185.849 517.443 186.176 517.593 186.396 517.8C186.616 518 186.726 518.273 186.726 518.62C186.726 519.073 186.546 519.433 186.186 519.7C185.832 519.96 185.356 520.09 184.756 520.09ZM188.36 520.07C188.22 520.07 188.11 520.03 188.03 519.95C187.95 519.87 187.91 519.753 187.91 519.6V513.34C187.91 513.187 187.95 513.073 188.03 513C188.11 512.92 188.22 512.88 188.36 512.88C188.506 512.88 188.62 512.92 188.7 513C188.78 513.073 188.82 513.187 188.82 513.34V517.28H188.84L190.8 515.37C190.9 515.27 190.99 515.193 191.07 515.14C191.15 515.087 191.253 515.06 191.38 515.06C191.506 515.06 191.603 515.093 191.67 515.16C191.736 515.22 191.77 515.3 191.77 515.4C191.77 515.493 191.723 515.587 191.63 515.68L189.55 517.7V517.25L191.82 519.44C191.913 519.533 191.956 519.63 191.95 519.73C191.95 519.83 191.913 519.913 191.84 519.98C191.773 520.04 191.683 520.07 191.57 520.07C191.436 520.07 191.326 520.043 191.24 519.99C191.16 519.937 191.066 519.853 190.96 519.74L188.84 517.74H188.82V519.6C188.82 519.913 188.666 520.07 188.36 520.07ZM194.881 520.09C194.488 520.09 194.158 520.02 193.891 519.88C193.631 519.74 193.434 519.537 193.301 519.27C193.174 519.003 193.111 518.677 193.111 518.29V515.83H192.471C192.351 515.83 192.258 515.8 192.191 515.74C192.124 515.673 192.091 515.587 192.091 515.48C192.091 515.367 192.124 515.28 192.191 515.22C192.258 515.16 192.351 515.13 192.471 515.13H193.111V514.04C193.111 513.887 193.151 513.773 193.231 513.7C193.311 513.62 193.424 513.58 193.571 513.58C193.718 513.58 193.828 513.62 193.901 513.7C193.981 513.773 194.021 513.887 194.021 514.04V515.13H195.231C195.358 515.13 195.454 515.16 195.521 515.22C195.588 515.28 195.621 515.367 195.621 515.48C195.621 515.587 195.588 515.673 195.521 515.74C195.454 515.8 195.358 515.83 195.231 515.83H194.021V518.21C194.021 518.577 194.098 518.853 194.251 519.04C194.404 519.227 194.658 519.32 195.011 519.32C195.138 519.32 195.244 519.31 195.331 519.29C195.418 519.263 195.494 519.25 195.561 519.25C195.621 519.243 195.671 519.263 195.711 519.31C195.758 519.357 195.781 519.443 195.781 519.57C195.781 519.663 195.764 519.75 195.731 519.83C195.704 519.903 195.648 519.953 195.561 519.98C195.481 520.007 195.374 520.03 195.241 520.05C195.108 520.077 194.988 520.09 194.881 520.09ZM198.466 520.09C197.986 520.09 197.569 519.987 197.216 519.78C196.863 519.573 196.589 519.28 196.396 518.9C196.203 518.52 196.106 518.073 196.106 517.56C196.106 517.173 196.159 516.827 196.266 516.52C196.379 516.207 196.539 515.94 196.746 515.72C196.953 515.5 197.199 515.333 197.486 515.22C197.779 515.1 198.106 515.04 198.466 515.04C198.946 515.04 199.363 515.143 199.716 515.35C200.069 515.557 200.343 515.85 200.536 516.23C200.729 516.603 200.826 517.047 200.826 517.56C200.826 517.947 200.769 518.297 200.656 518.61C200.549 518.923 200.393 519.19 200.186 519.41C199.979 519.63 199.729 519.8 199.436 519.92C199.149 520.033 198.826 520.09 198.466 520.09ZM198.466 519.37C198.759 519.37 199.013 519.3 199.226 519.16C199.446 519.02 199.613 518.817 199.726 518.55C199.846 518.283 199.906 517.953 199.906 517.56C199.906 516.973 199.776 516.527 199.516 516.22C199.256 515.913 198.906 515.76 198.466 515.76C198.179 515.76 197.926 515.83 197.706 515.97C197.493 516.103 197.326 516.303 197.206 516.57C197.086 516.837 197.026 517.167 197.026 517.56C197.026 518.147 197.156 518.597 197.416 518.91C197.683 519.217 198.033 519.37 198.466 519.37ZM202.442 521.87C202.302 521.87 202.192 521.83 202.112 521.75C202.032 521.67 201.992 521.557 201.992 521.41V515.52C201.992 515.367 202.032 515.253 202.112 515.18C202.192 515.1 202.302 515.06 202.442 515.06C202.588 515.06 202.698 515.1 202.772 515.18C202.852 515.253 202.892 515.367 202.892 515.52V516.43L202.782 516.25C202.888 515.883 203.098 515.59 203.412 515.37C203.725 515.15 204.102 515.04 204.542 515.04C204.975 515.04 205.352 515.143 205.672 515.35C205.992 515.55 206.242 515.84 206.422 516.22C206.602 516.593 206.692 517.04 206.692 517.56C206.692 518.073 206.602 518.523 206.422 518.91C206.248 519.29 205.998 519.583 205.672 519.79C205.352 519.99 204.975 520.09 204.542 520.09C204.108 520.09 203.735 519.98 203.422 519.76C203.108 519.54 202.898 519.25 202.792 518.89H202.902V521.41C202.902 521.557 202.862 521.67 202.782 521.75C202.702 521.83 202.588 521.87 202.442 521.87ZM204.332 519.37C204.618 519.37 204.868 519.3 205.082 519.16C205.302 519.02 205.472 518.817 205.592 518.55C205.712 518.283 205.772 517.953 205.772 517.56C205.772 516.973 205.642 516.527 205.382 516.22C205.122 515.913 204.772 515.76 204.332 515.76C204.038 515.76 203.782 515.83 203.562 515.97C203.348 516.103 203.182 516.303 203.062 516.57C202.948 516.837 202.892 517.167 202.892 517.56C202.892 518.147 203.022 518.597 203.282 518.91C203.542 519.217 203.892 519.37 204.332 519.37Z" fill="#806B2C"/>
</svg>
