<svg width="1920" height="1088" viewBox="0 0 1920 1088" fill="none" xmlns="http://www.w3.org/2000/svg">
<path d="M0 1091.04V0.0104626C5.35674 -0.115086 10.7553 1.68444 14.9263 5.40905L27.4254 16.5689C32.6287 21.2142 41.1102 21.2142 46.3135 16.5689L58.8125 5.40905C66.8895 -1.80302 79.5559 -1.80302 87.6329 5.40905L100.132 16.5689C105.335 21.2142 113.817 21.2142 119.02 16.5689L131.519 5.40905C139.596 -1.80302 152.262 -1.80302 160.339 5.40905L172.839 16.5689C178.042 21.2142 186.523 21.2142 191.727 16.5689L204.226 5.40905C212.303 -1.80302 224.969 -1.80302 233.046 5.40905L245.545 16.5689C250.748 21.2142 259.23 21.2142 264.433 16.5689L276.932 5.40905C285.009 -1.80302 297.676 -1.80302 305.753 5.40905L318.252 16.5689C323.455 21.2142 331.936 21.2142 337.14 16.5689L349.639 5.40905C357.716 -1.80302 370.382 -1.80302 378.459 5.40905L390.958 16.5689C396.161 21.2142 404.643 21.2142 409.846 16.5689L422.345 5.40905C430.422 -1.80302 443.089 -1.80302 451.166 5.40905L463.665 16.5689C468.868 21.2142 477.35 21.2142 482.553 16.5689L495.052 5.40905C503.129 -1.80302 515.795 -1.80302 523.872 5.40905L536.371 16.5689C541.575 21.2142 550.056 21.2142 555.259 16.5689L567.758 5.40905C575.835 -1.80302 588.502 -1.80302 596.579 5.40905L609.078 16.5689C614.281 21.2142 622.763 21.2142 627.966 16.5689L640.465 5.40905C648.542 -1.80302 661.208 -1.80302 669.285 5.40905L681.784 16.5689C686.988 21.2142 695.469 21.2142 700.672 16.5689L713.172 5.40905C721.249 -1.80302 733.915 -1.80302 741.992 5.40905L754.491 16.5689C759.694 21.2142 768.176 21.2142 773.379 16.5689L785.878 5.40905C793.955 -1.80302 806.622 -1.80302 814.699 5.40905L827.198 16.5689C832.401 21.2142 840.882 21.2142 846.086 16.5689L858.585 5.40905C866.662 -1.80302 879.328 -1.80302 887.405 5.40905L899.904 16.5689C905.107 21.2142 913.589 21.2142 918.792 16.5689L931.291 5.40905C935.462 1.68444 940.847 -0.115086 946.204 0.0104626C946.287 0.0104626 946.385 0.0104626 946.469 0.0104626C946.608 0.0104626 946.748 0.0104626 946.901 0.0244125C951.728 0.24761 956.499 2.03319 960.265 5.40905L972.764 16.5689C977.967 21.2142 986.449 21.2142 991.652 16.5689L1004.15 5.40905C1012.23 -1.80302 1024.89 -1.80302 1032.97 5.40905L1045.47 16.5689C1050.67 21.2142 1059.16 21.2142 1064.36 16.5689L1076.86 5.40905C1084.93 -1.80302 1097.6 -1.80302 1105.68 5.40905L1118.18 16.5689C1123.38 21.2142 1131.86 21.2142 1137.07 16.5689L1149.56 5.40905C1157.64 -1.80302 1170.31 -1.80302 1178.38 5.40905L1190.88 16.5689C1196.09 21.2142 1204.57 21.2142 1209.77 16.5689L1222.27 5.40905C1230.35 -1.80302 1243.01 -1.80302 1251.09 5.40905L1263.59 16.5689C1268.79 21.2142 1277.28 21.2142 1282.48 16.5689L1294.98 5.40905C1303.05 -1.80302 1315.72 -1.80302 1323.8 5.40905L1336.3 16.5689C1341.5 21.2142 1349.98 21.2142 1355.18 16.5689L1367.68 5.40905C1375.76 -1.80302 1388.43 -1.80302 1396.5 5.40905L1409 16.5689C1414.21 21.2142 1422.69 21.2142 1427.89 16.5689L1440.39 5.40905C1448.47 -1.80302 1461.13 -1.80302 1469.21 5.40905L1481.71 16.5689C1486.91 21.2142 1495.39 21.2142 1500.6 16.5689L1513.1 5.40905C1521.17 -1.80302 1533.84 -1.80302 1541.92 5.40905L1554.42 16.5689C1559.62 21.2142 1568.1 21.2142 1573.3 16.5689L1585.8 5.40905C1593.88 -1.80302 1606.55 -1.80302 1614.62 5.40905L1627.12 16.5689C1632.33 21.2142 1640.81 21.2142 1646.01 16.5689L1658.51 5.40905C1666.59 -1.80302 1679.25 -1.80302 1687.33 5.40905L1699.83 16.5689C1705.03 21.2142 1713.51 21.2142 1718.72 16.5689L1731.22 5.40905C1739.29 -1.80302 1751.96 -1.80302 1760.04 5.40905L1772.54 16.5689C1777.74 21.2142 1786.22 21.2142 1791.42 16.5689L1803.92 5.40905C1812 -1.80302 1824.67 -1.80302 1832.74 5.40905L1845.24 16.5689C1850.45 21.2142 1858.93 21.2142 1864.13 16.5689L1876.63 5.40905C1884.71 -1.80302 1897.37 -1.80302 1905.45 5.40905L1917.95 16.5689C1918.59 17.1409 1919.27 17.6431 1920 18.0616V1091.01C1920 1091.01 5.62179 1085.41 0 1091.04Z" fill="#FFEA00"/>
</svg>
