<svg width="195" height="60" viewBox="0 0 195 60" fill="none" xmlns="http://www.w3.org/2000/svg">
<g clip-path="url(#clip0_7_9340)">
<path d="M39.2083 12.4032C39.0272 12.4032 38.8592 12.2901 38.7959 12.1118C37.8251 9.34373 33.8521 5.7863 31.2078 4.68602C30.9852 4.59252 30.8805 4.33811 30.9743 4.11632C31.0682 3.89452 31.3234 3.79015 31.546 3.88365C34.3517 5.05351 38.5799 8.85447 39.6206 11.8248C39.6992 12.0509 39.5792 12.2988 39.3523 12.3793C39.3043 12.3967 39.2563 12.4032 39.2083 12.4032Z" fill="#FFEA00"/>
<path d="M42.793 10.27C42.6184 10.27 42.4548 10.1657 42.3872 9.99389C40.8599 6.10594 36.1932 2.21365 32.7416 0.83939C32.5169 0.750237 32.41 0.497999 32.4995 0.274029C32.5889 0.0500595 32.8442 -0.0564893 33.0667 0.0304893C36.6862 1.47216 41.5886 5.56885 43.201 9.67641C43.2882 9.90038 43.177 10.1526 42.9544 10.2396C42.9021 10.2592 42.8475 10.27 42.7952 10.27H42.793Z" fill="#FFEA00"/>
<path d="M10.767 41.6432C10.6863 41.6432 10.6077 41.6215 10.5335 41.5758C7.96344 39.958 4.42899 35.5047 3.89883 32.4039C3.85737 32.1669 4.01882 31.9429 4.25664 31.9016C4.49445 31.8603 4.71917 32.0212 4.76062 32.2582C5.25588 35.1481 8.57869 39.3165 11.0004 40.8408C11.2033 40.9691 11.2644 41.2388 11.1357 41.441C11.0528 41.5715 10.911 41.6432 10.767 41.6432Z" fill="#FFEA00"/>
<path d="M8.61572 45.1854C8.53936 45.1854 8.46081 45.1658 8.38882 45.1223C5.06164 43.0979 0.91194 38.2445 0.00869349 33.9282C-0.0414869 33.6933 0.111236 33.4628 0.346866 33.4128C0.582495 33.365 0.813761 33.515 0.863942 33.7499C1.71919 37.8379 5.67035 42.4499 8.84262 44.3786C9.0477 44.5048 9.11316 44.7722 8.9888 44.9766C8.90589 45.1114 8.7619 45.1854 8.61572 45.1854Z" fill="#FFEA00"/>
<path d="M56.0668 17.9285C56.0842 17.8568 56.0886 17.7807 56.0799 17.7024C56.0231 16.5956 53.6276 14.7299 51.2669 15.6279C49.0961 16.2346 46.3645 18.3786 46.4147 21.5881C46.4147 21.6816 46.4147 21.7708 46.4147 21.8621C46.4147 21.8817 46.4147 21.9013 46.4147 21.9208C46.3514 25.1042 44.6475 26.1241 44.6475 26.1241C44.0606 26.3937 42.6708 25.9893 41.4206 25.2891C40.1705 24.5889 28.6683 9.00668 28.6683 9.00668C28.5701 8.86752 28.4654 8.73705 28.3563 8.61528C28.101 8.29998 27.7999 8.0434 27.4683 7.85204C27.3461 7.77594 27.2218 7.70418 27.0931 7.64547C26.0982 7.17796 24.9506 7.2345 23.9099 7.95859C22.2496 9.11106 22.2561 11.2007 23.4124 12.8555C23.4124 12.8555 31.93 23.7148 33.466 26.1436C33.466 26.1436 33.4703 26.1415 33.4703 26.1393C33.5336 26.2415 33.5881 26.3285 33.6274 26.4002C33.6929 26.5176 33.5598 26.6372 33.4594 26.559C31.8209 25.2826 19.9849 11.3769 19.9849 11.3769C19.6598 11.0137 19.2736 10.718 18.8569 10.5005C17.6133 9.84603 16.0905 9.87647 15.0781 10.7745C15.0563 10.7941 15.0367 10.8158 15.017 10.8376C13.8847 11.8183 13.6949 13.5752 14.5763 14.9669C14.7181 15.2278 14.8861 15.4779 15.089 15.704C15.089 15.704 26.8072 29.0379 28.8385 31.8233C28.8385 31.8233 28.8385 31.819 28.8406 31.819C28.8865 31.8821 28.9279 31.9408 28.965 31.9908C29.0959 32.18 28.9301 32.3648 28.7534 32.2234C26.7287 30.6035 16.6686 20.0769 16.6686 20.0769C16.4265 19.8312 16.1516 19.6268 15.8592 19.4637C14.6091 18.7635 13.0098 18.844 12.0149 19.8203C10.7888 21.0206 11.079 23.3495 12.3597 24.6476C12.3597 24.6476 23.7353 36.3049 25.8385 38.7642V38.7599C25.8844 38.8142 25.928 38.8643 25.9651 38.9099C26.1244 39.1034 25.9607 39.3057 25.7971 39.2165C24.211 38.338 17.3319 32.0125 17.3319 32.0125C17.3232 32.0038 17.3144 31.9973 17.3035 31.9908C16.5966 31.2754 15.6367 30.9427 14.7356 31.0645C14.0418 31.0971 13.3895 31.3667 12.9073 31.919C11.8033 33.1867 12.2789 35.3025 13.5924 36.4397C13.5924 36.4397 20.4562 42.8131 22.6052 44.8288C24.7542 46.8445 27.2589 49.2517 31.0813 52.3046C34.6987 55.1945 43.105 57.4429 49.6786 49.5083C49.6851 49.5104 49.6917 49.5148 49.6982 49.517C49.7266 49.4822 49.7571 49.4474 49.7855 49.4126C53.6407 45.3094 54.6072 41.7998 54.3192 37.6422C54.1905 35.7526 53.8021 33.7303 53.3068 31.458C53.1803 30.7861 53.0952 30.1403 53.0472 29.5184C52.5869 23.4886 55.5082 19.729 56.0624 17.9394L56.0668 17.9285Z" fill="#FFEA00"/>
<path d="M79.4813 49.8235C78.3468 49.8235 77.4763 49.5126 76.872 48.8907C76.2654 48.2688 75.9644 47.3729 75.9644 46.2052V12.6228C75.9644 11.4551 76.2654 10.5679 76.872 9.96561C77.4763 9.36329 78.3468 9.06104 79.4813 9.06104C80.6159 9.06104 81.4951 9.36329 82.1191 9.96561C82.7431 10.5679 83.0551 11.4551 83.0551 12.6228V27.2657H82.2609C83.0922 25.2673 84.3881 23.7517 86.1466 22.7145C87.9051 21.6773 89.8992 21.1598 92.1312 21.1598C94.3631 21.1598 96.1958 21.5751 97.6335 22.4035C99.0691 23.232 100.147 24.4867 100.867 26.1632C101.585 27.8397 101.945 29.9598 101.945 32.5235V46.2052C101.945 47.3729 101.641 48.2688 101.037 48.8907C100.433 49.5126 99.5622 49.8235 98.4277 49.8235C97.2932 49.8235 96.4139 49.5126 95.79 48.8907C95.166 48.2688 94.854 47.3729 94.854 46.2052V32.8627C94.854 30.7144 94.446 29.1509 93.6344 28.1702C92.8206 27.1917 91.5639 26.7003 89.8621 26.7003C87.7807 26.7003 86.127 27.3505 84.8986 28.6508C83.6703 29.9511 83.0551 31.6755 83.0551 33.8238V46.2052C83.0551 48.6167 81.8638 49.8235 79.4813 49.8235Z" fill="#FFEA00"/>
<path d="M122.82 49.9367C119.68 49.9367 116.977 49.3539 114.708 48.184C112.439 47.0163 110.689 45.3572 109.461 43.2089C108.233 41.0605 107.617 38.5164 107.617 35.5765C107.617 32.6366 108.213 30.2056 109.404 28.0572C110.595 25.9088 112.24 24.2214 114.339 22.9972C116.438 21.773 118.829 21.1598 121.515 21.1598C123.481 21.1598 125.25 21.4794 126.819 22.1209C128.388 22.7624 129.729 23.6865 130.846 24.8912C131.961 26.098 132.812 27.5571 133.399 29.2727C133.986 30.9884 134.278 32.9193 134.278 35.0677C134.278 35.7461 134.043 36.2636 133.569 36.6224C133.096 36.9812 132.426 37.1595 131.556 37.1595H113.347V33.0889H129.287L128.379 33.9369C128.379 32.2039 128.124 30.7535 127.613 29.5837C127.103 28.416 126.365 27.5201 125.401 26.8982C124.436 26.2763 123.236 25.9654 121.799 25.9654C120.21 25.9654 118.858 26.3328 117.743 27.0678C116.628 27.8028 115.777 28.84 115.19 30.1773C114.603 31.5146 114.311 33.1085 114.311 34.9546V35.3503C114.311 38.4403 115.037 40.7495 116.495 42.276C117.95 43.8025 120.097 44.5657 122.933 44.5657C123.917 44.5657 125.023 44.444 126.252 44.1982C127.48 43.9547 128.643 43.5285 129.74 42.9262C130.534 42.4739 131.235 42.276 131.839 42.3326C132.444 42.3891 132.926 42.6065 133.286 42.9827C133.646 43.3589 133.862 43.8221 133.938 44.3679C134.012 44.9136 133.91 45.4703 133.626 46.0357C133.342 46.601 132.86 47.0903 132.18 47.5056C130.855 48.3341 129.334 48.9473 127.613 49.343C125.892 49.7388 124.295 49.9367 122.82 49.9367Z" fill="#FFEA00"/>
<path d="M146.474 60C145.643 60 144.962 59.7826 144.432 59.3499C143.902 58.9172 143.59 58.3409 143.496 57.6255C143.4 56.9101 143.525 56.1556 143.865 55.3641L147.722 46.8271V49.767L137.398 25.9653C137.058 25.1369 136.944 24.3627 137.058 23.6473C137.171 22.9319 137.52 22.3557 138.107 21.923C138.692 21.4903 139.497 21.2728 140.518 21.2728C141.389 21.2728 142.087 21.4707 142.617 21.8665C143.145 22.2622 143.618 23.0081 144.035 24.0996L151.693 43.1523H149.991L157.819 24.0431C158.236 22.9885 158.727 22.2622 159.294 21.8665C159.862 21.4707 160.616 21.2728 161.563 21.2728C162.395 21.2728 163.058 21.4903 163.549 21.923C164.04 22.3579 164.343 22.9211 164.456 23.6191C164.57 24.3171 164.437 25.0803 164.059 25.9088L150.275 57.2863C149.784 58.3409 149.254 59.0563 148.687 59.4347C148.119 59.8109 147.382 60 146.474 60Z" fill="#FFEA00"/>
<path d="M180.056 49.9367C177.183 49.9367 174.687 49.3539 172.568 48.184C170.45 47.0163 168.805 45.3485 167.633 43.1806C166.459 41.0127 165.875 38.4598 165.875 35.52C165.875 33.2955 166.206 31.308 166.867 29.5554C167.528 27.8028 168.484 26.2959 169.732 25.0325C170.98 23.7691 172.474 22.808 174.213 22.1492C175.952 21.4903 177.9 21.1598 180.056 21.1598C182.929 21.1598 185.425 21.7447 187.544 22.9124C189.662 24.0801 191.307 25.7392 192.479 27.8876C193.65 30.036 194.237 32.5801 194.237 35.52C194.237 37.7444 193.906 39.7428 193.245 41.5128C192.581 43.285 191.628 44.8006 190.38 46.0639C189.132 47.3273 187.638 48.2884 185.899 48.9473C184.16 49.6061 182.211 49.9367 180.056 49.9367ZM180.056 44.5657C181.454 44.5657 182.685 44.2265 183.743 43.5481C184.801 42.8696 185.624 41.8629 186.211 40.5234C186.798 39.1861 187.09 37.5183 187.09 35.52C187.09 32.504 186.446 30.2534 185.161 28.7639C183.876 27.2744 182.172 26.5307 180.056 26.5307C178.655 26.5307 177.427 26.8612 176.369 27.5201C175.308 28.1811 174.488 29.1792 173.901 30.5165C173.314 31.8538 173.022 33.5216 173.022 35.52C173.022 38.499 173.666 40.7495 174.951 42.276C176.236 43.8025 177.937 44.5657 180.056 44.5657Z" fill="#FFEA00"/>
</g>
<defs>
<clipPath id="clip0_7_9340">
<rect width="194.237" height="60" fill="white"/>
</clipPath>
</defs>
</svg>
