<svg width="195" height="60" viewBox="0 0 195 60" fill="none" xmlns="http://www.w3.org/2000/svg">
<g clip-path="url(#clip0_17_4406)">
<path d="M39.2083 12.4031C39.0273 12.4031 38.8593 12.2901 38.796 12.1118C37.8251 9.34367 33.8521 5.78624 31.2078 4.68596C30.9853 4.59246 30.8806 4.33805 30.9744 4.11625C31.0682 3.89446 31.3235 3.79008 31.546 3.88359C34.3518 5.05345 38.58 8.85441 39.6207 11.8247C39.6992 12.0509 39.5792 12.2988 39.3523 12.3792C39.3043 12.3966 39.2563 12.4031 39.2083 12.4031Z" fill="black"/>
<path d="M42.7929 10.27C42.6184 10.27 42.4548 10.1656 42.3871 9.99386C40.8599 6.10591 36.1931 2.21362 32.7416 0.83936C32.5169 0.750207 32.41 0.497969 32.4994 0.273999C32.5889 0.050029 32.8441 -0.0565198 33.0667 0.0304588C36.6862 1.47213 41.5886 5.56882 43.2009 9.67638C43.2882 9.90035 43.1769 10.1526 42.9544 10.2396C42.902 10.2591 42.8475 10.27 42.7951 10.27H42.7929Z" fill="black"/>
<path d="M10.767 41.6432C10.6862 41.6432 10.6077 41.6214 10.5335 41.5758C7.96341 39.958 4.42896 35.5047 3.8988 32.4039C3.85734 32.1669 4.01879 31.9429 4.2566 31.9016C4.49442 31.8603 4.71914 32.0212 4.76059 32.2582C5.25585 35.1481 8.57866 39.3165 11.0004 40.8408C11.2033 40.9691 11.2644 41.2387 11.1357 41.441C11.0528 41.5714 10.911 41.6432 10.767 41.6432Z" fill="black"/>
<path d="M8.61575 45.1854C8.53939 45.1854 8.46084 45.1658 8.38885 45.1223C5.06167 43.0979 0.911971 38.2445 0.008724 33.9282C-0.0414564 33.6933 0.111267 33.4628 0.346896 33.4128C0.582526 33.365 0.813792 33.515 0.863972 33.7499C1.71922 37.8379 5.67038 42.4499 8.84265 44.3786C9.04774 44.5048 9.11319 44.7722 8.98883 44.9766C8.90592 45.1114 8.76193 45.1854 8.61575 45.1854Z" fill="black"/>
<path d="M56.0668 17.9285C56.0842 17.8567 56.0886 17.7806 56.0799 17.7023C56.0231 16.5955 53.6276 14.7298 51.2669 15.6279C49.0961 16.2345 46.3645 18.3786 46.4147 21.5881C46.4147 21.6816 46.4147 21.7707 46.4147 21.8621C46.4147 21.8816 46.4147 21.9012 46.4147 21.9208C46.3514 25.1042 44.6475 26.124 44.6475 26.124C44.0606 26.3936 42.6708 25.9892 41.4206 25.289C40.1705 24.5888 28.6683 9.00662 28.6683 9.00662C28.5701 8.86746 28.4654 8.73699 28.3563 8.61522C28.101 8.29992 27.7999 8.04334 27.4683 7.85198C27.3461 7.77588 27.2218 7.70412 27.0931 7.64541C26.0982 7.1779 24.9506 7.23444 23.9099 7.95853C22.2496 9.111 22.2561 11.2007 23.4124 12.8554C23.4124 12.8554 31.93 23.7147 33.466 26.1436C33.466 26.1436 33.4703 26.1414 33.4703 26.1392C33.5336 26.2414 33.5881 26.3284 33.6274 26.4002C33.6929 26.5176 33.5598 26.6372 33.4594 26.5589C31.8209 25.2825 19.9849 11.3768 19.9849 11.3768C19.6598 11.0137 19.2736 10.7179 18.8569 10.5005C17.6133 9.84597 16.0905 9.87641 15.0781 10.7745C15.0563 10.794 15.0367 10.8158 15.017 10.8375C13.8847 11.8182 13.6949 13.5752 14.5763 14.9668C14.7181 15.2278 14.8861 15.4778 15.089 15.704C15.089 15.704 26.8072 29.0378 28.8385 31.8233C28.8385 31.8233 28.8385 31.8189 28.8406 31.8189C28.8865 31.882 28.9279 31.9407 28.965 31.9907C29.0959 32.1799 28.9301 32.3647 28.7534 32.2234C26.7287 30.6034 16.6686 20.0768 16.6686 20.0768C16.4265 19.8311 16.1516 19.6267 15.8592 19.4636C14.6091 18.7634 13.0098 18.8439 12.0149 19.8202C10.7888 21.0205 11.079 23.3494 12.3597 24.6475C12.3597 24.6475 23.7353 36.3048 25.8385 38.7642V38.7598C25.8844 38.8142 25.928 38.8642 25.9651 38.9099C26.1244 39.1034 25.9607 39.3056 25.7971 39.2165C24.211 38.338 17.3319 32.0125 17.3319 32.0125C17.3232 32.0038 17.3144 31.9972 17.3035 31.9907C16.5966 31.2753 15.6367 30.9426 14.7356 31.0644C14.0418 31.097 13.3895 31.3666 12.9073 31.919C11.8033 33.1867 12.2789 35.3024 13.5924 36.4397C13.5924 36.4397 20.4562 42.813 22.6052 44.8288C24.7542 46.8445 27.2589 49.2516 31.0813 52.3046C34.6987 55.1944 43.105 57.4428 49.6786 49.5082C49.6851 49.5104 49.6917 49.5147 49.6982 49.5169C49.7266 49.4821 49.7571 49.4473 49.7855 49.4125C53.6407 45.3093 54.6072 41.7997 54.3192 37.6421C54.1905 35.7525 53.8021 33.7303 53.3068 31.458C53.1803 30.7861 53.0952 30.1402 53.0472 29.5183C52.5869 23.4886 55.5082 19.7289 56.0624 17.9393L56.0668 17.9285Z" fill="black"/>
<path d="M79.4813 49.8235C78.3468 49.8235 77.4763 49.5126 76.872 48.8907C76.2654 48.2688 75.9644 47.3729 75.9644 46.2052V12.6228C75.9644 11.4551 76.2654 10.5679 76.872 9.96558C77.4763 9.36326 78.3468 9.061 79.4813 9.061C80.6159 9.061 81.4951 9.36326 82.1191 9.96558C82.7431 10.5679 83.0551 11.4551 83.0551 12.6228V27.2656H82.2609C83.0922 25.2673 84.3881 23.7517 86.1466 22.7145C87.9051 21.6772 89.8992 21.1597 92.1312 21.1597C94.3631 21.1597 96.1958 21.575 97.6335 22.4035C99.0691 23.232 100.147 24.4867 100.867 26.1632C101.585 27.8397 101.945 29.9598 101.945 32.5235V46.2052C101.945 47.3729 101.641 48.2688 101.037 48.8907C100.433 49.5126 99.5622 49.8235 98.4277 49.8235C97.2932 49.8235 96.4139 49.5126 95.79 48.8907C95.166 48.2688 94.854 47.3729 94.854 46.2052V32.8627C94.854 30.7143 94.446 29.1509 93.6344 28.1702C92.8206 27.1917 91.5639 26.7003 89.8621 26.7003C87.7807 26.7003 86.127 27.3504 84.8986 28.6508C83.6703 29.9511 83.0551 31.6754 83.0551 33.8238V46.2052C83.0551 48.6167 81.8638 49.8235 79.4813 49.8235Z" fill="black"/>
<path d="M122.82 49.9366C119.68 49.9366 116.977 49.3538 114.708 48.184C112.439 47.0163 110.689 45.3572 109.461 43.2088C108.232 41.0604 107.617 38.5163 107.617 35.5764C107.617 32.6366 108.213 30.2055 109.404 28.0571C110.595 25.9088 112.24 24.2214 114.339 22.9972C116.438 21.7729 118.829 21.1597 121.515 21.1597C123.481 21.1597 125.25 21.4794 126.819 22.1208C128.388 22.7623 129.729 23.6865 130.846 24.8911C131.961 26.0979 132.812 27.557 133.399 29.2727C133.986 30.9883 134.278 32.9192 134.278 35.0676C134.278 35.746 134.043 36.2636 133.569 36.6223C133.096 36.9811 132.426 37.1594 131.555 37.1594H113.347V33.0888H129.286L128.379 33.9369C128.379 32.2038 128.124 30.7535 127.613 29.5836C127.102 28.4159 126.365 27.52 125.401 26.8981C124.436 26.2762 123.236 25.9653 121.799 25.9653C120.21 25.9653 118.858 26.3328 117.743 27.0678C116.628 27.8027 115.777 28.8399 115.19 30.1772C114.603 31.5145 114.311 33.1084 114.311 34.9545V35.3503C114.311 38.4402 115.037 40.7495 116.495 42.276C117.95 43.8024 120.097 44.5657 122.933 44.5657C123.917 44.5657 125.023 44.4439 126.252 44.1982C127.48 43.9546 128.643 43.5285 129.74 42.9261C130.534 42.4738 131.235 42.276 131.839 42.3325C132.443 42.389 132.926 42.6065 133.286 42.9827C133.646 43.3588 133.862 43.822 133.938 44.3678C134.012 44.9136 133.91 45.4702 133.626 46.0356C133.342 46.601 132.86 47.0902 132.179 47.5055C130.855 48.334 129.334 48.9472 127.613 49.343C125.892 49.7387 124.295 49.9366 122.82 49.9366Z" fill="black"/>
<path d="M146.474 60C145.643 60 144.962 59.7826 144.432 59.3498C143.902 58.9171 143.59 58.3409 143.496 57.6255C143.4 56.9101 143.525 56.1556 143.865 55.3641L147.722 46.8271V49.767L137.398 25.9653C137.058 25.1368 136.944 24.3627 137.058 23.6473C137.171 22.9319 137.52 22.3557 138.107 21.923C138.692 21.4902 139.497 21.2728 140.518 21.2728C141.389 21.2728 142.087 21.4707 142.617 21.8664C143.145 22.2622 143.618 23.008 144.035 24.0996L151.693 43.1523H149.991L157.819 24.0431C158.236 22.9884 158.727 22.2622 159.294 21.8664C159.862 21.4707 160.616 21.2728 161.563 21.2728C162.395 21.2728 163.058 21.4902 163.549 21.923C164.04 22.3579 164.343 22.921 164.456 23.619C164.57 24.317 164.437 25.0803 164.059 25.9088L150.275 57.2863C149.784 58.3409 149.254 59.0563 148.687 59.4347C148.119 59.8108 147.382 60 146.474 60Z" fill="black"/>
<path d="M180.056 49.9366C177.183 49.9366 174.687 49.3538 172.568 48.184C170.45 47.0163 168.805 45.3485 167.633 43.1805C166.459 41.0126 165.875 38.4598 165.875 35.5199C165.875 33.2954 166.206 31.308 166.867 29.5553C167.528 27.8027 168.484 26.2958 169.732 25.0325C170.98 23.7691 172.474 22.808 174.213 22.1491C175.952 21.4902 177.9 21.1597 180.056 21.1597C182.929 21.1597 185.425 21.7447 187.544 22.9123C189.662 24.08 191.307 25.7392 192.479 27.8875C193.65 30.0359 194.237 32.58 194.237 35.5199C194.237 37.7444 193.906 39.7427 193.245 41.5127C192.581 43.2849 191.628 44.8005 190.38 46.0639C189.132 47.3272 187.638 48.2884 185.899 48.9472C184.16 49.6061 182.211 49.9366 180.056 49.9366ZM180.056 44.5657C181.454 44.5657 182.685 44.2265 183.743 43.548C184.801 42.8696 185.624 41.8628 186.211 40.5233C186.798 39.186 187.09 37.5182 187.09 35.5199C187.09 32.5039 186.446 30.2533 185.161 28.7638C183.876 27.2743 182.172 26.5307 180.056 26.5307C178.655 26.5307 177.427 26.8612 176.369 27.52C175.308 28.1811 174.488 29.1792 173.901 30.5165C173.314 31.8537 173.022 33.5216 173.022 35.5199C173.022 38.4989 173.666 40.7495 174.951 42.276C176.236 43.8024 177.937 44.5657 180.056 44.5657Z" fill="black"/>
</g>
<defs>
<clipPath id="clip0_17_4406">
<rect width="194.237" height="60" fill="white"/>
</clipPath>
</defs>
</svg>
