<svg width="24" height="24" viewBox="0 0 24 24" fill="none" xmlns="http://www.w3.org/2000/svg">
<path d="M19.613 0H4.05197C2.02963 0 0.390625 1.63614 0.390625 3.65372V20.3463C0.390625 22.3644 2.03018 24 4.05197 24H15.571C19.8254 24 23.2743 20.5583 23.2743 16.3128V3.65372C23.2743 1.63559 21.6348 0 19.613 0ZM19.5002 5.99481C19.5002 6.83091 18.8211 7.50854 17.9833 7.50854H5.69262C4.85477 7.50854 4.17573 6.83091 4.17573 5.99481C4.17573 5.15871 4.85477 4.48108 5.69262 4.48108H17.9833C18.8211 4.48108 19.5002 5.15871 19.5002 5.99481ZM14.7321 12.8804C14.7321 13.7165 14.053 14.3941 13.2152 14.3941H5.69262C4.85477 14.3941 4.17573 13.7165 4.17573 12.8804C4.17573 12.0443 4.85477 11.3666 5.69262 11.3666H13.2152C14.053 11.3666 14.7321 12.0443 14.7321 12.8804Z" fill="#FF6ADA"/>
</svg>
