<svg width="10" height="10" viewBox="0 0 10 10" fill="none" xmlns="http://www.w3.org/2000/svg">
<path d="M10 0.260897L9.90671 3.59643C9.90671 3.74585 9.79484 3.85733 9.64581 3.85733C9.49678 3.85733 9.38491 3.74585 9.38491 3.59643L9.45923 0.91314L6.01222 4.36054C5.90036 4.47241 5.75133 4.47241 5.63946 4.36054C5.52759 4.24867 5.52759 4.09964 5.63946 3.98778L9.08646 0.540769L6.40318 0.615085C6.25415 0.615085 6.14228 0.503215 6.14228 0.354188C6.14376 0.285115 6.17031 0.218939 6.21699 0.168002C6.26793 0.121326 6.3341 0.0947712 6.40318 0.0932905L9.7391 0C9.80818 0.00148065 9.87435 0.0280354 9.92529 0.0747115C9.97196 0.125648 9.99852 0.191825 10 0.260897Z" fill="black"/>
<path d="M0 9.7391L0.0932905 6.40357C0.0932905 6.25415 0.20516 6.14267 0.354188 6.14267C0.503216 6.14267 0.615085 6.25415 0.615085 6.40357L0.540769 9.08686L3.98778 5.63946C4.09964 5.52759 4.24867 5.52759 4.36054 5.63946C4.47241 5.75133 4.47241 5.90036 4.36054 6.01222L0.913536 9.45923L3.59682 9.38491C3.74585 9.38491 3.85772 9.49678 3.85772 9.64581C3.85624 9.71488 3.82969 9.78106 3.78301 9.832C3.73207 9.87867 3.6659 9.90523 3.59682 9.90671L0.260897 10C0.191825 9.99852 0.125648 9.97196 0.0747115 9.92529C0.0280354 9.87435 0.00148065 9.80818 0 9.7391Z" fill="black"/>
</svg>
