<svg width="25" height="24" viewBox="0 0 25 24" fill="none" xmlns="http://www.w3.org/2000/svg">
<path d="M23.2783 7.432V7.18187H23.1749C21.2856 2.90777 17.0746 0.112559 12.3843 0.0375194L12.2934 0L12.237 0.0343931H12.19C10.5702 0.0343931 9.00046 0.350182 7.52161 0.975508C6.09289 1.57895 4.81143 2.4419 3.70856 3.54247C2.60569 4.64304 1.74094 5.92183 1.13937 7.34758C0.512738 8.82335 0.196289 10.3898 0.196289 12.0063C0.196289 13.6227 0.512738 15.1892 1.13937 16.6649C1.74407 18.0907 2.60882 19.3695 3.70856 20.47C4.81143 21.5706 6.09289 22.4336 7.52161 23.0339C9.00046 23.6592 10.5733 23.975 12.19 23.975C12.2119 23.975 12.2307 23.975 12.2464 23.9719L12.3028 24L12.3811 23.9656C15.5362 23.9156 18.4939 22.6556 20.7153 20.4169C22.9524 18.1626 24.1837 15.1735 24.1837 12.0031C24.1837 10.4179 23.8798 8.88275 23.2783 7.432ZM17.0558 9.04846H21.8652C22.1597 10.0115 22.3101 11.0026 22.3101 11.9969C22.3101 12.8598 22.1942 13.729 21.9623 14.5857H17.1028C17.1874 13.7322 17.2313 12.9067 17.2313 12.075C17.2281 11.0339 17.1717 10.0146 17.0558 9.04846ZM14.9441 16.4554C14.3112 19.5039 13.0924 21.0422 12.3153 21.7488C11.5352 21.0391 10.3133 19.4977 9.68035 16.4554H14.9441ZM9.80568 7.18187C10.4699 4.43356 11.5884 2.9828 12.3059 2.29182C12.6381 2.61699 13.0767 3.12663 13.5185 3.88327C14.0668 4.82126 14.4991 5.92809 14.8062 7.17874H9.80568V7.18187ZM16.7488 7.18187C16.3226 5.21522 15.6302 3.55185 14.6809 2.21991C15.9874 2.55446 17.2313 3.15164 18.3059 3.97082C19.4401 4.83377 20.3895 5.93747 21.0725 7.18187H16.7488ZM15.3576 12.0813C15.3576 12.9036 15.3138 13.7071 15.2166 14.592H9.40777C9.31064 13.7103 9.26678 12.9067 9.26678 12.0813C9.26678 11.0683 9.33257 10.099 9.47356 9.05159H15.1477C15.2918 10.1021 15.3576 11.0683 15.3576 12.0813ZM3.30751 7.18187C4.70803 4.6149 7.1519 2.7827 9.99054 2.15112C9.01612 3.49557 8.30803 5.18395 7.87566 7.18187H3.30751ZM7.78479 16.4554C8.27043 19.0318 9.15085 20.7483 9.92787 21.8332C8.50542 21.505 7.15816 20.8702 5.99889 19.976C4.78323 19.0349 3.79002 17.8249 3.11326 16.4554H7.78479ZM21.2668 16.4554C19.9634 19.0943 17.579 21.0297 14.7435 21.7676C15.5049 20.6858 16.3602 18.988 16.8396 16.4554H21.2668ZM7.52161 14.5888H2.41143C2.18271 13.7322 2.06365 12.8598 2.06365 12C2.06365 11.0026 2.21404 10.0115 2.50856 9.05159H7.56547C7.44955 10.0177 7.39315 11.0339 7.39315 12.0813C7.39315 12.9099 7.43701 13.7353 7.52161 14.5888Z" fill="#FF6ADA"/>
</svg>
