<svg width="1282" height="108" viewBox="0 0 1282 108" fill="none" xmlns="http://www.w3.org/2000/svg">
<mask id="path-1-outside-1_378_6266" maskUnits="userSpaceOnUse" x="0" y="0" width="1282" height="108" fill="black">
<rect fill="white" width="1282" height="108"/>
<path d="M1.44359 3.47999H34.3436V76.28H101.404V104H1.44359V3.47999ZM165.04 3.47999H207.04L258.42 104H223.28L214.46 85.38H157.48L148.52 104H113.52L165.04 3.47999ZM203.12 61.72L185.9 25.74L168.68 61.72H203.12ZM269.549 3.47999H318.269L369.649 72.36V3.47999H402.549V104H353.829L302.449 34.98V104H269.549V3.47999ZM421.717 3.47999H493.537C503.15 3.47999 511.737 5.62666 519.297 9.91999C526.95 14.2133 532.924 20.1867 537.217 27.84C541.604 35.4 543.797 43.9867 543.797 53.6C543.797 63.2133 541.604 71.8467 537.217 79.5C532.924 87.1533 526.95 93.1733 519.297 97.56C511.737 101.853 503.15 104 493.537 104H421.717V3.47999ZM480.237 76.28C499.93 76.28 509.777 68.72 509.777 53.6C509.777 46.1333 507.304 40.5333 502.357 36.8C497.504 33.0667 490.13 31.2 480.237 31.2H454.617V76.28H480.237ZM557.752 3.47999H609.132L638.952 66.06L668.632 3.47999H719.872V104H686.972V34.7L654.212 104H623.552L590.652 34.7V104H557.752V3.47999ZM782.599 3.47999H824.599L875.979 104H840.839L832.019 85.38H775.039L766.079 104H731.079L782.599 3.47999ZM820.679 61.72L803.459 25.74L786.239 61.72H820.679ZM887.108 3.47999H969.008C982.728 3.47999 993.041 6.09333 999.948 11.32C1006.85 16.4533 1010.31 24.1067 1010.31 34.28C1010.31 41.1867 1008.49 46.9267 1004.85 51.5C1001.3 55.98 996.074 59.2467 989.168 61.3C995.701 61.7667 1000.83 63.82 1004.57 67.46C1008.3 71.0067 1010.17 75.8133 1010.17 81.88V104H977.268V87.2C977.268 82.72 976.474 79.6867 974.888 78.1C973.301 76.42 970.268 75.58 965.788 75.58H920.008V104H887.108V3.47999ZM961.168 49.26C966.114 49.26 969.801 48.6067 972.228 47.3C974.748 45.9 976.008 43.2867 976.008 39.46C976.008 35.7267 974.748 33.2067 972.228 31.9C969.801 30.5 966.114 29.8 961.168 29.8H920.008V49.26H961.168ZM1026.83 3.47999H1059.73V43.38L1104.53 3.47999H1152.97L1105.65 43.94L1152.97 104H1112.93L1081.99 64.1L1059.73 83V104H1026.83V3.47999ZM1220.82 106.8C1199.82 106.8 1183.91 104 1173.08 98.4C1162.26 92.8 1156.52 83.6067 1155.86 70.82H1190.02C1190.02 78.94 1199.82 83 1219.42 83C1226.61 83 1232.12 82.6733 1235.94 82.02C1239.77 81.3667 1242.38 80.48 1243.78 79.36C1245.18 78.1467 1245.88 76.56 1245.88 74.6C1245.88 72.4533 1245.18 70.8667 1243.78 69.84C1242.48 68.72 1239.91 67.88 1236.08 67.32C1232.35 66.76 1226.24 66.2 1217.74 65.64L1212.84 65.36C1199.87 64.6133 1189.32 62.98 1181.2 60.46C1173.08 57.94 1167.06 54.3933 1163.14 49.82C1159.32 45.1533 1157.4 39.2267 1157.4 32.04C1157.4 21.96 1162.4 14.3067 1172.38 9.08C1182.46 3.76 1196.32 1.1 1213.96 1.1C1233.66 1.1 1248.73 4.04 1259.18 9.91999C1269.64 15.7067 1275.19 24.2 1275.84 35.4H1241.68C1241.68 31.6667 1239.44 29.0067 1234.96 27.42C1230.48 25.74 1223.39 24.9 1213.68 24.9C1205.28 24.9 1199.5 25.5067 1196.32 26.72C1193.15 27.9333 1191.56 29.7067 1191.56 32.04C1191.56 33.9067 1192.22 35.3533 1193.52 36.38C1194.83 37.4067 1197.3 38.2467 1200.94 38.9C1204.68 39.5533 1210.32 40.16 1217.88 40.72L1223.62 41.14C1236.97 42.1667 1247.47 43.5667 1255.12 45.34C1262.87 47.02 1268.94 50.0533 1273.32 54.44C1277.8 58.8267 1280.04 65.1267 1280.04 73.34C1280.04 85.4733 1275.05 94.1067 1265.06 99.24C1255.17 104.28 1240.42 106.8 1220.82 106.8Z"/>
</mask>
<path d="M1.44359 3.47999V2.47999H0.443594V3.47999H1.44359ZM34.3436 3.47999H35.3436V2.47999H34.3436V3.47999ZM34.3436 76.28H33.3436V77.28H34.3436V76.28ZM101.404 76.28H102.404V75.28H101.404V76.28ZM101.404 104V105H102.404V104H101.404ZM1.44359 104H0.443594V105H1.44359V104ZM1.44359 4.47999H34.3436V2.47999H1.44359V4.47999ZM33.3436 3.47999V76.28H35.3436V3.47999H33.3436ZM34.3436 77.28H101.404V75.28H34.3436V77.28ZM100.404 76.28V104H102.404V76.28H100.404ZM101.404 103H1.44359V105H101.404V103ZM2.44359 104V3.47999H0.443594V104H2.44359ZM165.04 3.47999V2.47999H164.429L164.15 3.02388L165.04 3.47999ZM207.04 3.47999L207.931 3.02486L207.652 2.47999H207.04V3.47999ZM258.42 104V105H260.054L259.311 103.545L258.42 104ZM223.28 104L222.376 104.428L222.647 105H223.28V104ZM214.46 85.38L215.364 84.9519L215.093 84.38H214.46V85.38ZM157.48 85.38V84.38H156.852L156.579 84.9464L157.48 85.38ZM148.52 104V105H149.149L149.421 104.434L148.52 104ZM113.52 104L112.63 103.544L111.884 105H113.52V104ZM203.12 61.72V62.72H204.707L204.022 61.2883L203.12 61.72ZM185.9 25.74L186.802 25.3083L185.9 23.4236L184.998 25.3083L185.9 25.74ZM168.68 61.72L167.778 61.2883L167.093 62.72H168.68V61.72ZM165.04 4.47999H207.04V2.47999H165.04V4.47999ZM206.15 3.93513L257.53 104.455L259.311 103.545L207.931 3.02486L206.15 3.93513ZM258.42 103H223.28V105H258.42V103ZM224.184 103.572L215.364 84.9519L213.556 85.8081L222.376 104.428L224.184 103.572ZM214.46 84.38H157.48V86.38H214.46V84.38ZM156.579 84.9464L147.619 103.566L149.421 104.434L158.381 85.8136L156.579 84.9464ZM148.52 103H113.52V105H148.52V103ZM114.41 104.456L165.93 3.93611L164.15 3.02388L112.63 103.544L114.41 104.456ZM204.022 61.2883L186.802 25.3083L184.998 26.1717L202.218 62.1517L204.022 61.2883ZM184.998 25.3083L167.778 61.2883L169.582 62.1517L186.802 26.1717L184.998 25.3083ZM168.68 62.72H203.12V60.72H168.68V62.72ZM269.549 3.47999V2.47999H268.549V3.47999H269.549ZM318.269 3.47999L319.071 2.88208L318.771 2.47999H318.269V3.47999ZM369.649 72.36L368.848 72.9579L370.649 75.3731V72.36H369.649ZM369.649 3.47999V2.47999H368.649V3.47999H369.649ZM402.549 3.47999H403.549V2.47999H402.549V3.47999ZM402.549 104V105H403.549V104H402.549ZM353.829 104L353.027 104.597L353.327 105H353.829V104ZM302.449 34.98L303.251 34.3829L301.449 31.962V34.98H302.449ZM302.449 104V105H303.449V104H302.449ZM269.549 104H268.549V105H269.549V104ZM269.549 4.47999H318.269V2.47999H269.549V4.47999ZM317.467 4.07791L368.848 72.9579L370.451 71.7621L319.071 2.88208L317.467 4.07791ZM370.649 72.36V3.47999H368.649V72.36H370.649ZM369.649 4.47999H402.549V2.47999H369.649V4.47999ZM401.549 3.47999V104H403.549V3.47999H401.549ZM402.549 103H353.829V105H402.549V103ZM354.631 103.403L303.251 34.3829L301.647 35.5771L353.027 104.597L354.631 103.403ZM301.449 34.98V104H303.449V34.98H301.449ZM302.449 103H269.549V105H302.449V103ZM270.549 104V3.47999H268.549V104H270.549ZM421.717 3.47999V2.47999H420.717V3.47999H421.717ZM519.297 9.91999L518.803 10.7896L518.808 10.7921L519.297 9.91999ZM537.217 27.84L536.345 28.3292L536.348 28.3356L536.352 28.3419L537.217 27.84ZM537.217 79.5L536.349 79.0027L536.345 79.0107L537.217 79.5ZM519.297 97.56L519.791 98.4296L519.794 98.4276L519.297 97.56ZM421.717 104H420.717V105H421.717V104ZM502.357 36.8L501.747 37.5927L501.755 37.5982L502.357 36.8ZM454.617 31.2V30.2H453.617V31.2H454.617ZM454.617 76.28H453.617V77.28H454.617V76.28ZM421.717 4.47999H493.537V2.47999H421.717V4.47999ZM493.537 4.47999C502.996 4.47999 511.409 6.59052 518.803 10.7896L519.791 9.05043C512.065 4.6628 503.305 2.47999 493.537 2.47999V4.47999ZM518.808 10.7921C526.301 14.9955 532.142 20.8363 536.345 28.3292L538.089 27.3507C533.706 19.537 527.6 13.4312 519.786 9.04785L518.808 10.7921ZM536.352 28.3419C540.642 35.7345 542.797 44.1448 542.797 53.6H544.797C544.797 43.8285 542.566 35.0655 538.082 27.3381L536.352 28.3419ZM542.797 53.6C542.797 63.055 540.642 71.5142 536.349 79.0027L538.085 79.9973C542.566 72.1792 544.797 63.3717 544.797 53.6H542.797ZM536.345 79.0107C532.141 86.5055 526.297 92.3951 518.8 96.6924L519.794 98.4276C527.604 93.9515 533.707 87.8011 538.089 79.9893L536.345 79.0107ZM518.803 96.6904C511.409 100.889 502.996 103 493.537 103V105C503.305 105 512.065 102.817 519.791 98.4296L518.803 96.6904ZM493.537 103H421.717V105H493.537V103ZM422.717 104V3.47999H420.717V104H422.717ZM480.237 77.28C490.184 77.28 497.827 75.3757 503.001 71.4032C508.225 67.3923 510.777 61.3953 510.777 53.6H508.777C508.777 60.9247 506.406 66.2677 501.783 69.8168C497.11 73.4043 489.984 75.28 480.237 75.28V77.28ZM510.777 53.6C510.777 45.8917 508.209 39.9637 502.959 36.0018L501.755 37.5982C506.398 41.103 508.777 46.375 508.777 53.6H510.777ZM502.967 36.0074C497.86 32.0791 490.225 30.2 480.237 30.2V32.2C490.035 32.2 497.147 34.0542 501.747 37.5926L502.967 36.0074ZM480.237 30.2H454.617V32.2H480.237V30.2ZM453.617 31.2V76.28H455.617V31.2H453.617ZM454.617 77.28H480.237V75.28H454.617V77.28ZM557.752 3.47999V2.47999H556.752V3.47999H557.752ZM609.132 3.47999L610.035 3.04982L609.763 2.47999H609.132V3.47999ZM638.952 66.06L638.049 66.4902L638.954 68.3891L639.856 66.4885L638.952 66.06ZM668.632 3.47999V2.47999H668L667.729 3.05147L668.632 3.47999ZM719.872 3.47999H720.872V2.47999H719.872V3.47999ZM719.872 104V105H720.872V104H719.872ZM686.972 104H685.972V105H686.972V104ZM686.972 34.7H687.972L686.068 34.2726L686.972 34.7ZM654.212 104V105H654.846L655.116 104.427L654.212 104ZM623.552 104L622.649 104.429L622.92 105H623.552V104ZM590.652 34.7L591.556 34.2711L589.652 34.7H590.652ZM590.652 104V105H591.652V104H590.652ZM557.752 104H556.752V105H557.752V104ZM557.752 4.47999H609.132V2.47999H557.752V4.47999ZM608.229 3.91016L638.049 66.4902L639.855 65.6298L610.035 3.04982L608.229 3.91016ZM639.856 66.4885L669.536 3.90851L667.729 3.05147L638.049 65.6315L639.856 66.4885ZM668.632 4.47999H719.872V2.47999H668.632V4.47999ZM718.872 3.47999V104H720.872V3.47999H718.872ZM719.872 103H686.972V105H719.872V103ZM687.972 104V34.7H685.972V104H687.972ZM686.068 34.2726L653.308 103.573L655.116 104.427L687.876 35.1274L686.068 34.2726ZM654.212 103H623.552V105H654.212V103ZM624.456 103.571L591.556 34.2711L589.749 35.1289L622.649 104.429L624.456 103.571ZM589.652 34.7V104H591.652V34.7H589.652ZM590.652 103H557.752V105H590.652V103ZM558.752 104V3.47999H556.752V104H558.752ZM782.599 3.47999V2.47999H781.988L781.709 3.02388L782.599 3.47999ZM824.599 3.47999L825.489 3.02486L825.211 2.47999H824.599V3.47999ZM875.979 104V105H877.613L876.869 103.545L875.979 104ZM840.839 104L839.935 104.428L840.206 105H840.839V104ZM832.019 85.38L832.922 84.9519L832.652 84.38H832.019V85.38ZM775.039 85.38V84.38H774.41L774.138 84.9464L775.039 85.38ZM766.079 104V105H766.707L766.98 104.434L766.079 104ZM731.079 104L730.189 103.544L729.443 105H731.079V104ZM820.679 61.72V62.72H822.266L821.581 61.2883L820.679 61.72ZM803.459 25.74L804.361 25.3083L803.459 23.4236L802.557 25.3083L803.459 25.74ZM786.239 61.72L785.337 61.2883L784.652 62.72H786.239V61.72ZM782.599 4.47999H824.599V2.47999H782.599V4.47999ZM823.708 3.93513L875.088 104.455L876.869 103.545L825.489 3.02486L823.708 3.93513ZM875.979 103H840.839V105H875.979V103ZM841.742 103.572L832.922 84.9519L831.115 85.8081L839.935 104.428L841.742 103.572ZM832.019 84.38H775.039V86.38H832.019V84.38ZM774.138 84.9464L765.178 103.566L766.98 104.434L775.94 85.8136L774.138 84.9464ZM766.079 103H731.079V105H766.079V103ZM731.969 104.456L783.489 3.93611L781.709 3.02388L730.189 103.544L731.969 104.456ZM821.581 61.2883L804.361 25.3083L802.557 26.1717L819.777 62.1517L821.581 61.2883ZM802.557 25.3083L785.337 61.2883L787.141 62.1517L804.361 26.1717L802.557 25.3083ZM786.239 62.72H820.679V60.72H786.239V62.72ZM887.108 3.47999V2.47999H886.108V3.47999H887.108ZM999.948 11.32L999.344 12.1174L999.351 12.1226L999.948 11.32ZM1004.85 51.5L1004.07 50.8773L1004.06 50.8793L1004.85 51.5ZM989.168 61.3L988.883 60.3415L989.096 62.2975L989.168 61.3ZM1004.57 67.46L1003.87 68.1761L1003.88 68.185L1004.57 67.46ZM1010.17 104V105H1011.17V104H1010.17ZM977.268 104H976.268V105H977.268V104ZM974.888 78.1L974.161 78.7866L974.17 78.797L974.181 78.8071L974.888 78.1ZM920.008 75.58V74.58H919.008V75.58H920.008ZM920.008 104V105H921.008V104H920.008ZM887.108 104H886.108V105H887.108V104ZM972.228 47.3L972.702 48.1805L972.713 48.1742L972.228 47.3ZM972.228 31.9L971.728 32.7662L971.747 32.7774L971.767 32.7877L972.228 31.9ZM920.008 29.8V28.8H919.008V29.8H920.008ZM920.008 49.26H919.008V50.26H920.008V49.26ZM887.108 4.47999H969.008V2.47999H887.108V4.47999ZM969.008 4.47999C982.628 4.47999 992.687 7.07916 999.344 12.1174L1000.55 10.5226C993.395 5.10749 982.827 2.47999 969.008 2.47999V4.47999ZM999.351 12.1226C1005.96 17.0315 1009.31 24.3577 1009.31 34.28H1011.31C1011.31 23.8556 1007.75 15.8752 1000.54 10.5174L999.351 12.1226ZM1009.31 34.28C1009.31 41.0032 1007.54 46.5117 1004.07 50.8773L1005.63 52.1227C1009.44 47.3416 1011.31 41.3701 1011.31 34.28H1009.31ZM1004.06 50.8793C1000.67 55.1604 995.644 58.3314 988.883 60.3415L989.453 62.2585C996.505 60.162 1001.93 56.7996 1005.63 52.1207L1004.06 50.8793ZM989.096 62.2975C995.456 62.7517 1000.35 64.7397 1003.87 68.176L1005.27 66.744C1001.32 62.9003 995.946 60.7816 989.239 60.3025L989.096 62.2975ZM1003.88 68.185C1007.38 71.5092 1009.17 76.0345 1009.17 81.88H1011.17C1011.17 75.5922 1009.22 70.5041 1005.26 66.735L1003.88 68.185ZM1009.17 81.88V104H1011.17V81.88H1009.17ZM1010.17 103H977.268V105H1010.17V103ZM978.268 104V87.2H976.268V104H978.268ZM978.268 87.2C978.268 82.6843 977.485 79.2833 975.595 77.3929L974.181 78.8071C975.464 80.09 976.268 82.7557 976.268 87.2H978.268ZM975.615 77.4134C973.725 75.4123 970.313 74.58 965.788 74.58V76.58C970.222 76.58 972.877 77.4277 974.161 78.7866L975.615 77.4134ZM965.788 74.58H920.008V76.58H965.788V74.58ZM919.008 75.58V104H921.008V75.58H919.008ZM920.008 103H887.108V105H920.008V103ZM888.108 104V3.47999H886.108V104H888.108ZM961.168 50.26C966.168 50.26 970.055 49.6056 972.702 48.1805L971.754 46.4195C969.547 47.6077 966.061 48.26 961.168 48.26V50.26ZM972.713 48.1742C975.654 46.5402 977.008 43.5132 977.008 39.46H975.008C975.008 43.0601 973.841 45.2598 971.742 46.4258L972.713 48.1742ZM977.008 39.46C977.008 35.4906 975.646 32.546 972.688 31.0122L971.767 32.7877C973.849 33.8673 975.008 35.9627 975.008 39.46H977.008ZM972.727 31.0338C970.073 29.5022 966.174 28.8 961.168 28.8V30.8C966.055 30.8 969.529 31.4978 971.728 32.7662L972.727 31.0338ZM961.168 28.8H920.008V30.8H961.168V28.8ZM919.008 29.8V49.26H921.008V29.8H919.008ZM920.008 50.26H961.168V48.26H920.008V50.26ZM1026.83 3.47999V2.47999H1025.83V3.47999H1026.83ZM1059.73 3.47999H1060.73V2.47999H1059.73V3.47999ZM1059.73 43.38H1058.73V45.6097L1060.4 44.1268L1059.73 43.38ZM1104.53 3.47999V2.47999H1104.15L1103.87 2.73323L1104.53 3.47999ZM1152.97 3.47999L1153.62 4.24004L1155.68 2.47999H1152.97V3.47999ZM1105.65 43.94L1105 43.1799L1104.27 43.8043L1104.87 44.5589L1105.65 43.94ZM1152.97 104V105H1155.04L1153.76 103.381L1152.97 104ZM1112.93 104L1112.14 104.613L1112.44 105H1112.93V104ZM1081.99 64.1L1082.78 63.4872L1082.14 62.6611L1081.35 63.3377L1081.99 64.1ZM1059.73 83L1059.09 82.2377L1058.73 82.5372V83H1059.73ZM1059.73 104V105H1060.73V104H1059.73ZM1026.83 104H1025.83V105H1026.83V104ZM1026.83 4.47999H1059.73V2.47999H1026.83V4.47999ZM1058.73 3.47999V43.38H1060.73V3.47999H1058.73ZM1060.4 44.1268L1105.2 4.22676L1103.87 2.73323L1059.07 42.6332L1060.4 44.1268ZM1104.53 4.47999H1152.97V2.47999H1104.53V4.47999ZM1152.32 2.71994L1105 43.1799L1106.3 44.7L1153.62 4.24004L1152.32 2.71994ZM1104.87 44.5589L1152.19 104.619L1153.76 103.381L1106.44 43.3211L1104.87 44.5589ZM1152.97 103H1112.93V105H1152.97V103ZM1113.72 103.387L1082.78 63.4872L1081.2 64.7128L1112.14 104.613L1113.72 103.387ZM1081.35 63.3377L1059.09 82.2377L1060.38 83.7623L1082.64 64.8623L1081.35 63.3377ZM1058.73 83V104H1060.73V83H1058.73ZM1059.73 103H1026.83V105H1059.73V103ZM1027.83 104V3.47999H1025.83V104H1027.83ZM1173.08 98.4L1173.54 97.5118L1173.08 98.4ZM1155.86 70.82V69.82H1154.81L1154.87 70.871L1155.86 70.82ZM1190.02 70.82H1191.02V69.82H1190.02V70.82ZM1243.78 79.36L1244.41 80.1409L1244.42 80.1286L1244.44 80.1157L1243.78 79.36ZM1243.78 69.84L1243.13 70.5993L1243.16 70.624L1243.19 70.6464L1243.78 69.84ZM1236.08 67.32L1235.94 68.3089L1235.94 68.3095L1236.08 67.32ZM1217.74 65.64L1217.81 64.6421L1217.8 64.6416L1217.74 65.64ZM1212.84 65.36L1212.79 66.3583L1212.79 66.3584L1212.84 65.36ZM1163.14 49.82L1162.37 50.4541L1162.38 50.4625L1162.38 50.4708L1163.14 49.82ZM1172.38 9.08L1172.85 9.96599L1172.85 9.96438L1172.38 9.08ZM1259.18 9.91999L1258.69 10.7916L1258.7 10.7949L1259.18 9.91999ZM1275.84 35.4V36.4H1276.9L1276.84 35.3418L1275.84 35.4ZM1241.68 35.4H1240.68V36.4H1241.68V35.4ZM1234.96 27.42L1234.61 28.3563L1234.62 28.3596L1234.63 28.3626L1234.96 27.42ZM1196.32 26.72L1195.97 25.7859L1196.32 26.72ZM1193.52 36.38L1192.91 37.1663L1193.52 36.38ZM1200.94 38.9L1200.77 39.8843L1200.77 39.885L1200.94 38.9ZM1217.88 40.72L1217.81 41.7173L1217.81 41.7173L1217.88 40.72ZM1223.62 41.14L1223.7 40.1429L1223.7 40.1427L1223.62 41.14ZM1255.12 45.34L1254.9 46.3143L1254.91 46.3173L1255.12 45.34ZM1273.32 54.44L1272.62 55.1471L1272.62 55.1545L1273.32 54.44ZM1265.06 99.24L1265.52 100.131L1265.52 100.129L1265.06 99.24ZM1220.82 105.8C1199.88 105.8 1184.16 103.003 1173.54 97.5118L1172.62 99.2882C1183.66 104.997 1199.76 107.8 1220.82 107.8V105.8ZM1173.54 97.5118C1163.05 92.085 1157.5 83.2225 1156.86 70.769L1154.87 70.871C1155.54 83.9909 1161.46 93.515 1172.62 99.2882L1173.54 97.5118ZM1155.86 71.82H1190.02V69.82H1155.86V71.82ZM1189.02 70.82C1189.02 73.0685 1189.71 75.0681 1191.08 76.7756C1192.44 78.4671 1194.44 79.8216 1196.99 80.8789C1202.08 82.9853 1209.58 84 1219.42 84V82C1209.66 82 1202.47 80.9847 1197.76 79.0311C1195.41 78.0584 1193.73 76.8754 1192.64 75.5219C1191.56 74.1844 1191.02 72.6315 1191.02 70.82H1189.02ZM1219.42 84C1226.63 84 1232.2 83.6734 1236.11 83.0057L1235.78 81.0343C1232.03 81.6733 1226.59 82 1219.42 82V84ZM1236.11 83.0057C1239.95 82.3499 1242.79 81.4332 1244.41 80.1409L1243.16 78.5791C1241.97 79.5268 1239.59 80.3835 1235.78 81.0343L1236.11 83.0057ZM1244.44 80.1157C1246.07 78.7002 1246.88 76.8309 1246.88 74.6H1244.88C1244.88 76.2891 1244.3 77.5931 1243.13 78.6043L1244.44 80.1157ZM1246.88 74.6C1246.88 72.219 1246.09 70.2934 1244.38 69.0336L1243.19 70.6464C1244.27 71.4399 1244.88 72.6877 1244.88 74.6H1246.88ZM1244.43 69.0807C1243.64 68.4007 1242.53 67.8597 1241.19 67.4196C1239.83 66.9761 1238.18 66.6156 1236.23 66.3305L1235.94 68.3095C1237.82 68.5844 1239.36 68.9239 1240.57 69.3204C1241.79 69.7202 1242.62 70.1592 1243.13 70.5993L1244.43 69.0807ZM1236.23 66.3311C1232.45 65.7644 1226.31 65.2023 1217.81 64.6422L1217.68 66.6378C1226.17 67.1977 1232.25 67.7556 1235.94 68.3089L1236.23 66.3311ZM1217.8 64.6416L1212.9 64.3616L1212.79 66.3584L1217.69 66.6384L1217.8 64.6416ZM1212.9 64.3616C1199.97 63.6175 1189.51 61.9917 1181.5 59.5049L1180.91 61.4151C1189.13 63.9683 1199.77 65.6092 1212.79 66.3583L1212.9 64.3616ZM1181.5 59.5049C1173.49 57.0188 1167.66 53.5522 1163.9 49.1692L1162.38 50.4708C1166.47 55.2344 1172.68 58.8612 1180.91 61.4151L1181.5 59.5049ZM1163.92 49.1859C1160.26 44.7306 1158.4 39.0415 1158.4 32.04H1156.4C1156.4 39.4119 1158.37 45.576 1162.37 50.4541L1163.92 49.1859ZM1158.4 32.04C1158.4 27.1733 1159.61 22.934 1161.99 19.2864C1164.37 15.6329 1167.97 12.5183 1172.85 9.96599L1171.92 8.194C1166.81 10.8683 1162.92 14.1938 1160.31 18.1936C1157.7 22.1993 1156.4 26.8267 1156.4 32.04H1158.4ZM1172.85 9.96438C1182.73 4.75074 1196.41 2.1 1213.96 2.1V0.0999985C1196.24 0.0999985 1182.2 2.76925 1171.92 8.19561L1172.85 9.96438ZM1213.96 2.1C1233.58 2.1 1248.46 5.03348 1258.69 10.7916L1259.67 9.04842C1249 3.04651 1233.73 0.0999985 1213.96 0.0999985V2.1ZM1258.7 10.7949C1268.88 16.4285 1274.21 24.6265 1274.85 35.4582L1276.84 35.3418C1276.17 23.7735 1270.4 14.9849 1259.67 9.0451L1258.7 10.7949ZM1275.84 34.4H1241.68V36.4H1275.84V34.4ZM1242.68 35.4C1242.68 33.3163 1242.05 31.485 1240.77 29.9609C1239.5 28.4538 1237.65 27.3092 1235.3 26.4774L1234.63 28.3626C1236.76 29.1175 1238.27 30.0962 1239.24 31.2491C1240.2 32.385 1240.68 33.7503 1240.68 35.4H1242.68ZM1235.32 26.4837C1230.66 24.7373 1223.41 23.9 1213.68 23.9V25.9C1223.37 25.9 1230.31 26.7427 1234.61 28.3563L1235.32 26.4837ZM1213.68 23.9C1205.29 23.9 1199.33 24.4992 1195.97 25.7859L1196.68 27.654C1199.66 26.5141 1205.28 25.9 1213.68 25.9V23.9ZM1195.97 25.7859C1192.62 27.0673 1190.56 29.106 1190.56 32.04H1192.56C1192.56 30.3074 1193.69 28.7994 1196.68 27.654L1195.97 25.7859ZM1190.56 32.04C1190.56 34.1705 1191.33 35.925 1192.91 37.1663L1194.14 35.5937C1193.11 34.7817 1192.56 33.6428 1192.56 32.04H1190.56ZM1192.91 37.1663C1194.42 38.3589 1197.12 39.2292 1200.77 39.8843L1201.12 37.9157C1197.49 37.2641 1195.24 36.4544 1194.14 35.5937L1192.91 37.1663ZM1200.77 39.885C1204.56 40.5472 1210.24 41.1567 1217.81 41.7173L1217.96 39.7227C1210.41 39.1633 1204.8 38.5594 1201.12 37.915L1200.77 39.885ZM1217.81 41.7173L1223.55 42.1373L1223.7 40.1427L1217.96 39.7227L1217.81 41.7173ZM1223.55 42.1371C1236.87 43.1621 1247.32 44.5574 1254.9 46.3142L1255.35 44.3658C1247.62 42.5759 1237.07 41.1712 1223.7 40.1429L1223.55 42.1371ZM1254.91 46.3173C1262.52 47.9678 1268.4 50.9292 1272.62 55.1471L1274.03 53.7329C1269.48 49.1775 1263.22 46.0722 1255.34 44.3627L1254.91 46.3173ZM1272.62 55.1545C1276.86 59.2999 1279.04 65.3086 1279.04 73.34H1281.04C1281.04 64.9447 1278.75 58.3534 1274.02 53.7255L1272.62 55.1545ZM1279.04 73.34C1279.04 79.2688 1277.82 84.2796 1275.43 88.4143C1273.04 92.5446 1269.45 95.8603 1264.61 98.3506L1265.52 100.129C1270.66 97.4864 1274.56 93.9187 1277.16 89.4157C1279.77 84.917 1281.04 79.5445 1281.04 73.34H1279.04ZM1264.61 98.349C1254.93 103.282 1240.37 105.8 1220.82 105.8V107.8C1240.48 107.8 1255.41 105.278 1265.52 100.131L1264.61 98.349Z" fill="url(#paint0_linear_378_6266)" mask="url(#path-1-outside-1_378_6266)"/>
<defs>
<linearGradient id="paint0_linear_378_6266" x1="640" y1="-16" x2="640" y2="124" gradientUnits="userSpaceOnUse">
<stop stop-color="#E370FF"/>
<stop offset="1" stop-color="#F7D8FF" stop-opacity="0"/>
</linearGradient>
</defs>
</svg>
