<svg width="750" height="78" viewBox="0 0 750 78" fill="none" xmlns="http://www.w3.org/2000/svg">
<mask id="path-1-outside-1_399_191" maskUnits="userSpaceOnUse" x="-114" y="0" width="979" height="78" fill="black">
<rect fill="white" x="-114" width="979" height="78"/>
<path d="M-112.069 3.19999H-38.6687V20.9H-88.5688V31H-40.6687V47.1H-88.5688V57.3H-38.6687V75H-112.069V3.19999ZM4.95781 39.1L-30.8422 3.19999H0.857815L21.0578 25.1L41.1578 3.19999H72.7578L37.0578 39.1L72.7578 75H41.1578L21.0578 53.1L0.857815 75H-30.8422L4.95781 39.1ZM81.8766 3.19999H138.077C147.077 3.19999 154.11 5.6 159.177 10.4C164.31 15.1333 166.877 21.7333 166.877 30.2C166.877 38.6667 164.31 45.3 159.177 50.1C154.043 54.8333 147.01 57.2 138.077 57.2H105.377V75H81.8766V3.19999ZM132.477 37.5C136.01 37.5 138.543 37 140.077 36C141.61 34.9333 142.377 33 142.377 30.2C142.377 27.4 141.61 25.5 140.077 24.5C138.543 23.5 136.01 23 132.477 23H105.377V37.5H132.477ZM176.798 3.19999H250.198V20.9H200.298V31H248.198V47.1H200.298V57.3H250.198V75H176.798V3.19999ZM261.076 3.19999H319.576C329.376 3.19999 336.742 5.06666 341.676 8.79999C346.609 12.4667 349.076 17.9333 349.076 25.2C349.076 30.1333 347.776 34.2333 345.176 37.5C342.642 40.7 338.909 43.0333 333.976 44.5C338.642 44.8333 342.309 46.3 344.976 48.9C347.642 51.4333 348.976 54.8667 348.976 59.2V75H325.476V63C325.476 59.8 324.909 57.6333 323.776 56.5C322.642 55.3 320.476 54.7 317.276 54.7H284.576V75H261.076V3.19999ZM313.976 35.9C317.509 35.9 320.142 35.4333 321.876 34.5C323.676 33.5 324.576 31.6333 324.576 28.9C324.576 26.2333 323.676 24.4333 321.876 23.5C320.142 22.5 317.509 22 313.976 22H284.576V35.9H313.976ZM360.88 3.19999H384.38V75H360.88V3.19999ZM397.99 3.19999H471.39V20.9H421.49V31H469.39V47.1H421.49V57.3H471.39V75H397.99V3.19999ZM482.267 3.19999H517.067L553.767 52.4V3.19999H577.267V75H542.467L505.767 25.7V75H482.267V3.19999ZM634.924 77C625.391 77 617.024 75.4333 609.824 72.3C602.624 69.1667 597.058 64.7667 593.124 59.1C589.191 53.3667 587.224 46.7 587.224 39.1C587.224 31.5667 589.191 24.9667 593.124 19.3C597.058 13.6333 602.624 9.26666 609.824 6.2C617.024 3.06666 625.391 1.5 634.924 1.5C643.724 1.5 651.558 2.8 658.424 5.4C665.358 7.93333 670.891 11.5333 675.024 16.2C679.158 20.8 681.524 26.1333 682.124 32.2H657.124C656.524 29 654.191 26.3667 650.124 24.3C646.058 22.2333 640.991 21.2 634.924 21.2C630.258 21.2 626.158 21.9667 622.624 23.5C619.158 24.9667 616.458 27.0667 614.524 29.8C612.658 32.4667 611.724 35.5667 611.724 39.1C611.724 42.7 612.658 45.8667 614.524 48.6C616.458 51.3333 619.158 53.4667 622.624 55C626.158 56.4667 630.258 57.2 634.924 57.2C640.991 57.2 646.058 56.1667 650.124 54.1C654.191 51.9667 656.524 49.3 657.124 46.1H682.124C681.524 52.2333 679.158 57.6333 675.024 62.3C670.891 66.9667 665.358 70.6 658.424 73.2C651.558 75.7333 643.724 77 634.924 77ZM692.033 3.19999H765.433V20.9H715.533V31H763.433V47.1H715.533V57.3H765.433V75H692.033V3.19999ZM820.831 77C805.831 77 794.465 75 786.731 71C778.998 67 774.898 60.4333 774.431 51.3H798.831C798.831 57.1 805.831 60 819.831 60C824.965 60 828.898 59.7667 831.631 59.3C834.365 58.8333 836.231 58.2 837.231 57.4C838.231 56.5333 838.731 55.4 838.731 54C838.731 52.4667 838.231 51.3333 837.231 50.6C836.298 49.8 834.465 49.2 831.731 48.8C829.065 48.4 824.698 48 818.631 47.6L815.131 47.4C805.865 46.8667 798.331 45.7 792.531 43.9C786.731 42.1 782.431 39.5667 779.631 36.3C776.898 32.9667 775.531 28.7333 775.531 23.6C775.531 16.4 779.098 10.9333 786.231 7.2C793.431 3.4 803.331 1.5 815.931 1.5C829.998 1.5 840.765 3.6 848.231 7.79999C855.698 11.9333 859.665 18 860.131 26H835.731C835.731 23.3333 834.131 21.4333 830.931 20.3C827.731 19.1 822.665 18.5 815.731 18.5C809.731 18.5 805.598 18.9333 803.331 19.8C801.065 20.6667 799.931 21.9333 799.931 23.6C799.931 24.9333 800.398 25.9667 801.331 26.7C802.265 27.4333 804.031 28.0333 806.631 28.5C809.298 28.9667 813.331 29.4 818.731 29.8L822.831 30.1C832.365 30.8333 839.865 31.8333 845.331 33.1C850.865 34.3 855.198 36.4667 858.331 39.6C861.531 42.7333 863.131 47.2333 863.131 53.1C863.131 61.7667 859.565 67.9333 852.431 71.6C845.365 75.2 834.831 77 820.831 77Z"/>
</mask>
<path d="M-112.069 3.2V2.2H-113.069V3.2H-112.069ZM-38.6687 3.2H-37.6687V2.2H-38.6687V3.2ZM-38.6687 20.9V21.9H-37.6687V20.9H-38.6687ZM-88.5688 20.9V19.9H-89.5688V20.9H-88.5688ZM-88.5688 31H-89.5688V32H-88.5688V31ZM-40.6687 31H-39.6687V30H-40.6687V31ZM-40.6687 47.1V48.1H-39.6687V47.1H-40.6687ZM-88.5688 47.1V46.1H-89.5688V47.1H-88.5688ZM-88.5688 57.3H-89.5688V58.3H-88.5688V57.3ZM-38.6687 57.3H-37.6687V56.3H-38.6687V57.3ZM-38.6687 75V76H-37.6687V75H-38.6687ZM-112.069 75H-113.069V76H-112.069V75ZM-112.069 4.2H-38.6687V2.2H-112.069V4.2ZM-39.6687 3.2V20.9H-37.6687V3.2H-39.6687ZM-38.6687 19.9H-88.5688V21.9H-38.6687V19.9ZM-89.5688 20.9V31H-87.5688V20.9H-89.5688ZM-88.5688 32H-40.6687V30H-88.5688V32ZM-41.6687 31V47.1H-39.6687V31H-41.6687ZM-40.6687 46.1H-88.5688V48.1H-40.6687V46.1ZM-89.5688 47.1V57.3H-87.5688V47.1H-89.5688ZM-88.5688 58.3H-38.6687V56.3H-88.5688V58.3ZM-39.6687 57.3V75H-37.6687V57.3H-39.6687ZM-38.6687 74H-112.069V76H-38.6687V74ZM-111.069 75V3.2H-113.069V75H-111.069ZM4.95781 39.1L5.66591 39.8061L6.37006 39.1L5.66591 38.3939L4.95781 39.1ZM-30.8422 3.2V2.2H-33.2516L-31.5503 3.90611L-30.8422 3.2ZM0.857819 3.2L1.59287 2.52199L1.29588 2.2H0.857819V3.2ZM21.0578 25.1L20.3228 25.778L21.0596 26.5769L21.7946 25.7762L21.0578 25.1ZM41.1578 3.2V2.2H40.7183L40.4211 2.52381L41.1578 3.2ZM72.7578 3.2L73.4669 3.90512L75.1625 2.2H72.7578V3.2ZM37.0578 39.1L36.3487 38.3949L35.6475 39.1L36.3487 39.8051L37.0578 39.1ZM72.7578 75V76H75.1625L73.4669 74.2949L72.7578 75ZM41.1578 75L40.4211 75.6762L40.7183 76H41.1578V75ZM21.0578 53.1L21.7946 52.4238L21.0596 51.6231L20.3228 52.422L21.0578 53.1ZM0.857819 75V76H1.29588L1.59287 75.678L0.857819 75ZM-30.8422 75L-31.5503 74.2939L-33.2516 76H-30.8422V75ZM5.66591 38.3939L-30.1341 2.49387L-31.5503 3.90611L4.24972 39.8061L5.66591 38.3939ZM-30.8422 4.2H0.857819V2.2H-30.8422V4.2ZM0.122757 3.878L20.3228 25.778L21.7929 24.422L1.59287 2.52199L0.122757 3.878ZM21.7946 25.7762L41.8945 3.87618L40.4211 2.52381L20.3211 24.4238L21.7946 25.7762ZM41.1578 4.2H72.7578V2.2H41.1578V4.2ZM72.0487 2.49487L36.3487 38.3949L37.7669 39.8051L73.4669 3.90512L72.0487 2.49487ZM36.3487 39.8051L72.0487 75.7051L73.4669 74.2949L37.7669 38.3949L36.3487 39.8051ZM72.7578 74H41.1578V76H72.7578V74ZM41.8945 74.3238L21.7946 52.4238L20.3211 53.7762L40.4211 75.6762L41.8945 74.3238ZM20.3228 52.422L0.122757 74.322L1.59287 75.678L21.7929 53.778L20.3228 52.422ZM0.857819 74H-30.8422V76H0.857819V74ZM-30.1341 75.7061L5.66591 39.8061L4.24972 38.3939L-31.5503 74.2939L-30.1341 75.7061ZM81.8766 3.2V2.2H80.8766V3.2H81.8766ZM159.177 10.4L158.489 11.126L158.499 11.1352L159.177 10.4ZM159.177 50.1L159.854 50.8352L159.86 50.8304L159.177 50.1ZM105.377 57.2V56.2H104.377V57.2H105.377ZM105.377 75V76H106.377V75H105.377ZM81.8766 75H80.8766V76H81.8766V75ZM140.077 36L140.623 36.8376L140.635 36.8294L140.648 36.8209L140.077 36ZM140.077 24.5L139.53 25.3376L140.077 24.5ZM105.377 23V22H104.377V23H105.377ZM105.377 37.5H104.377V38.5H105.377V37.5ZM81.8766 4.2H138.077V2.2H81.8766V4.2ZM138.077 4.2C146.897 4.2 153.657 6.54846 158.489 11.1259L159.864 9.67405C154.563 4.65154 147.256 2.2 138.077 2.2V4.2ZM158.499 11.1352C163.384 15.6397 165.877 21.9485 165.877 30.2H167.877C167.877 21.5182 165.236 14.627 159.854 9.66483L158.499 11.1352ZM165.877 30.2C165.877 38.451 163.384 44.7968 158.494 49.3696L159.86 50.8304C165.236 45.8032 167.877 38.8823 167.877 30.2H165.877ZM158.499 49.3648C153.597 53.8843 146.831 56.2 138.077 56.2V58.2C147.188 58.2 154.489 55.7824 159.854 50.8352L158.499 49.3648ZM138.077 56.2H105.377V58.2H138.077V56.2ZM104.377 57.2V75H106.377V57.2H104.377ZM105.377 74H81.8766V76H105.377V74ZM82.8766 75V3.2H80.8766V75H82.8766ZM132.477 38.5C136.053 38.5 138.835 38.0037 140.623 36.8376L139.53 35.1624C138.252 35.9963 135.967 36.5 132.477 36.5V38.5ZM140.648 36.8209C142.565 35.487 143.377 33.1557 143.377 30.2H141.377C141.377 32.8443 140.655 34.3796 139.505 35.1791L140.648 36.8209ZM143.377 30.2C143.377 27.2508 142.567 24.9306 140.623 23.6624L139.53 25.3376C140.652 26.0694 141.377 27.5492 141.377 30.2H143.377ZM140.623 23.6624C138.835 22.4963 136.053 22 132.477 22V24C135.967 24 138.252 24.5037 139.53 25.3376L140.623 23.6624ZM132.477 22H105.377V24H132.477V22ZM104.377 23V37.5H106.377V23H104.377ZM105.377 38.5H132.477V36.5H105.377V38.5ZM176.798 3.2V2.2H175.798V3.2H176.798ZM250.198 3.2H251.198V2.2H250.198V3.2ZM250.198 20.9V21.9H251.198V20.9H250.198ZM200.298 20.9V19.9H199.298V20.9H200.298ZM200.298 31H199.298V32H200.298V31ZM248.198 31H249.198V30H248.198V31ZM248.198 47.1V48.1H249.198V47.1H248.198ZM200.298 47.1V46.1H199.298V47.1H200.298ZM200.298 57.3H199.298V58.3H200.298V57.3ZM250.198 57.3H251.198V56.3H250.198V57.3ZM250.198 75V76H251.198V75H250.198ZM176.798 75H175.798V76H176.798V75ZM176.798 4.2H250.198V2.2H176.798V4.2ZM249.198 3.2V20.9H251.198V3.2H249.198ZM250.198 19.9H200.298V21.9H250.198V19.9ZM199.298 20.9V31H201.298V20.9H199.298ZM200.298 32H248.198V30H200.298V32ZM247.198 31V47.1H249.198V31H247.198ZM248.198 46.1H200.298V48.1H248.198V46.1ZM199.298 47.1V57.3H201.298V47.1H199.298ZM200.298 58.3H250.198V56.3H200.298V58.3ZM249.198 57.3V75H251.198V57.3H249.198ZM250.198 74H176.798V76H250.198V74ZM177.798 75V3.2H175.798V75H177.798ZM261.076 3.2V2.2H260.076V3.2H261.076ZM341.676 8.79999L341.072 9.59743L341.079 9.60259L341.676 8.79999ZM345.176 37.5L344.393 36.8772L344.392 36.8793L345.176 37.5ZM333.976 44.5L333.691 43.5415L333.905 45.4975L333.976 44.5ZM344.976 48.9L344.278 49.6161L344.287 49.625L344.976 48.9ZM348.976 75V76H349.976V75H348.976ZM325.476 75H324.476V76H325.476V75ZM323.776 56.5L323.049 57.1866L323.059 57.197L323.069 57.2071L323.776 56.5ZM284.576 54.7V53.7H283.576V54.7H284.576ZM284.576 75V76H285.576V75H284.576ZM261.076 75H260.076V76H261.076V75ZM321.876 34.5L322.35 35.3805L322.361 35.3742L321.876 34.5ZM321.876 23.5L321.376 24.3662L321.396 24.3774L321.415 24.3877L321.876 23.5ZM284.576 22V21H283.576V22H284.576ZM284.576 35.9H283.576V36.9H284.576V35.9ZM261.076 4.2H319.576V2.2H261.076V4.2ZM319.576 4.2C329.276 4.2 336.388 6.05249 341.072 9.5974L342.279 8.00259C337.097 4.08083 329.475 2.2 319.576 2.2V4.2ZM341.079 9.60259C345.711 13.0448 348.076 18.1844 348.076 25.2H350.076C350.076 17.6822 347.508 11.8885 342.272 7.9974L341.079 9.60259ZM348.076 25.2C348.076 29.9499 346.828 33.8184 344.393 36.8773L345.958 38.1227C348.724 34.6483 350.076 30.3168 350.076 25.2H348.076ZM344.392 36.8793C342.016 39.8804 338.479 42.118 333.691 43.5415L334.261 45.4585C339.34 43.9486 343.269 41.5196 345.96 38.1207L344.392 36.8793ZM333.905 45.4975C338.398 45.8184 341.82 47.2197 344.278 49.616L345.674 48.184C342.798 45.3803 338.887 43.8483 334.047 43.5025L333.905 45.4975ZM344.287 49.625C346.72 51.9359 347.976 55.0878 347.976 59.2H349.976C349.976 54.6455 348.565 50.9308 345.665 48.175L344.287 49.625ZM347.976 59.2V75H349.976V59.2H347.976ZM348.976 74H325.476V76H348.976V74ZM326.476 75V63H324.476V75H326.476ZM326.476 63C326.476 59.7643 325.92 57.23 324.483 55.7929L323.069 57.2071C323.898 58.0367 324.476 59.8357 324.476 63H326.476ZM324.503 55.8134C323.066 54.2923 320.521 53.7 317.276 53.7V55.7C320.43 55.7 322.219 56.3077 323.049 57.1866L324.503 55.8134ZM317.276 53.7H284.576V55.7H317.276V53.7ZM283.576 54.7V75H285.576V54.7H283.576ZM284.576 74H261.076V76H284.576V74ZM262.076 75V3.2H260.076V75H262.076ZM313.976 36.9C317.562 36.9 320.397 36.4323 322.35 35.3805L321.402 33.6195C319.888 34.4344 317.456 34.9 313.976 34.9V36.9ZM322.361 35.3742C324.583 34.1402 325.576 31.8599 325.576 28.9H323.576C323.576 31.4067 322.769 32.8598 321.39 33.6258L322.361 35.3742ZM325.576 28.9C325.576 25.9973 324.574 23.7727 322.336 22.6122L321.415 24.3877C322.777 25.0939 323.576 26.4694 323.576 28.9H325.576ZM322.376 22.6338C320.414 21.5022 317.568 21 313.976 21V23C317.45 23 319.871 23.4978 321.376 24.3662L322.376 22.6338ZM313.976 21H284.576V23H313.976V21ZM283.576 22V35.9H285.576V22H283.576ZM284.576 36.9H313.976V34.9H284.576V36.9ZM360.88 3.2V2.2H359.88V3.2H360.88ZM384.38 3.2H385.38V2.2H384.38V3.2ZM384.38 75V76H385.38V75H384.38ZM360.88 75H359.88V76H360.88V75ZM360.88 4.2H384.38V2.2H360.88V4.2ZM383.38 3.2V75H385.38V3.2H383.38ZM384.38 74H360.88V76H384.38V74ZM361.88 75V3.2H359.88V75H361.88ZM397.99 3.2V2.2H396.99V3.2H397.99ZM471.39 3.2H472.39V2.2H471.39V3.2ZM471.39 20.9V21.9H472.39V20.9H471.39ZM421.49 20.9V19.9H420.49V20.9H421.49ZM421.49 31H420.49V32H421.49V31ZM469.39 31H470.39V30H469.39V31ZM469.39 47.1V48.1H470.39V47.1H469.39ZM421.49 47.1V46.1H420.49V47.1H421.49ZM421.49 57.3H420.49V58.3H421.49V57.3ZM471.39 57.3H472.39V56.3H471.39V57.3ZM471.39 75V76H472.39V75H471.39ZM397.99 75H396.99V76H397.99V75ZM397.99 4.2H471.39V2.2H397.99V4.2ZM470.39 3.2V20.9H472.39V3.2H470.39ZM471.39 19.9H421.49V21.9H471.39V19.9ZM420.49 20.9V31H422.49V20.9H420.49ZM421.49 32H469.39V30H421.49V32ZM468.39 31V47.1H470.39V31H468.39ZM469.39 46.1H421.49V48.1H469.39V46.1ZM420.49 47.1V57.3H422.49V47.1H420.49ZM421.49 58.3H471.39V56.3H421.49V58.3ZM470.39 57.3V75H472.39V57.3H470.39ZM471.39 74H397.99V76H471.39V74ZM398.99 75V3.2H396.99V75H398.99ZM482.267 3.2V2.2H481.267V3.2H482.267ZM517.067 3.2L517.869 2.60208L517.569 2.2H517.067V3.2ZM553.767 52.4L552.966 52.9979L554.767 55.4131V52.4H553.767ZM553.767 3.2V2.2H552.767V3.2H553.767ZM577.267 3.2H578.267V2.2H577.267V3.2ZM577.267 75V76H578.267V75H577.267ZM542.467 75L541.665 75.5971L541.965 76H542.467V75ZM505.767 25.7L506.569 25.1029L504.767 22.682V25.7H505.767ZM505.767 75V76H506.767V75H505.767ZM482.267 75H481.267V76H482.267V75ZM482.267 4.2H517.067V2.2H482.267V4.2ZM516.266 3.79791L552.966 52.9979L554.569 51.8021L517.869 2.60208L516.266 3.79791ZM554.767 52.4V3.2H552.767V52.4H554.767ZM553.767 4.2H577.267V2.2H553.767V4.2ZM576.267 3.2V75H578.267V3.2H576.267ZM577.267 74H542.467V76H577.267V74ZM543.269 74.4029L506.569 25.1029L504.965 26.2971L541.665 75.5971L543.269 74.4029ZM504.767 25.7V75H506.767V25.7H504.767ZM505.767 74H482.267V76H505.767V74ZM483.267 75V3.2H481.267V75H483.267ZM609.824 72.3L609.425 73.2169L609.824 72.3ZM593.124 59.1L592.3 59.6657L592.303 59.6702L593.124 59.1ZM593.124 19.3L592.303 18.7298V18.7298L593.124 19.3ZM609.824 6.2L610.216 7.12005L610.223 7.11693L609.824 6.2ZM658.424 5.4L658.07 6.33526L658.081 6.33926L658.424 5.4ZM675.024 16.2L674.276 16.8631L674.28 16.8684L675.024 16.2ZM682.124 32.2V33.2H683.228L683.119 32.1016L682.124 32.2ZM657.124 32.2L656.141 32.3843L656.294 33.2H657.124V32.2ZM650.124 24.3L649.671 25.1915L650.124 24.3ZM622.624 23.5L623.014 24.421L623.022 24.4173L622.624 23.5ZM614.524 29.8L613.708 29.2225L613.705 29.2265L614.524 29.8ZM614.524 48.6L613.698 49.164L613.703 49.1708L613.708 49.1775L614.524 48.6ZM622.624 55L622.22 55.9145L622.23 55.9192L622.241 55.9236L622.624 55ZM650.124 54.1L650.577 54.9916L650.589 54.9855L650.124 54.1ZM657.124 46.1V45.1H656.294L656.141 45.9157L657.124 46.1ZM682.124 46.1L683.119 46.1974L683.227 45.1H682.124V46.1ZM675.024 62.3L675.773 62.963L675.024 62.3ZM658.424 73.2L658.77 74.1382L658.775 74.1363L658.424 73.2ZM634.924 76C625.499 76 617.273 74.4512 610.223 71.3831L609.425 73.2169C616.775 76.4155 625.282 78 634.924 78V76ZM610.223 71.3831C603.169 68.3133 597.759 64.0236 593.946 58.5298L592.303 59.6702C596.356 65.5097 602.079 70.02 609.425 73.2169L610.223 71.3831ZM593.949 58.5343C590.14 52.983 588.224 46.5177 588.224 39.1H586.224C586.224 46.8823 588.241 53.7503 592.3 59.6657L593.949 58.5343ZM588.224 39.1C588.224 31.7508 590.139 25.354 593.946 19.8702L592.303 18.7298C588.242 24.5794 586.224 31.3825 586.224 39.1H588.224ZM593.946 19.8702C597.758 14.3783 603.165 10.1231 610.216 7.12002L609.432 5.27997C602.083 8.41026 596.357 12.8883 592.303 18.7298L593.946 19.8702ZM610.223 7.11693C617.273 4.0488 625.499 2.5 634.924 2.5V0.499998C625.282 0.499998 616.775 2.08453 609.425 5.28306L610.223 7.11693ZM634.924 2.5C643.627 2.5 651.337 3.78561 658.07 6.3352L658.778 4.46479C651.779 1.81438 643.822 0.499998 634.924 0.499998V2.5ZM658.081 6.33926C664.887 8.82609 670.271 12.3417 674.276 16.863L675.773 15.537C671.511 10.725 665.828 7.04057 658.767 4.46073L658.081 6.33926ZM674.28 16.8684C678.274 21.3124 680.55 26.4469 681.129 32.2984L683.119 32.1016C682.498 25.8197 680.042 20.2875 675.768 15.5316L674.28 16.8684ZM682.124 31.2H657.124V33.2H682.124V31.2ZM658.107 32.0157C657.429 28.4007 654.803 25.556 650.577 23.4085L649.671 25.1915C653.579 27.1773 655.619 29.5993 656.141 32.3843L658.107 32.0157ZM650.577 23.4085C646.332 21.2509 641.099 20.2 634.924 20.2V22.2C640.883 22.2 645.783 23.2157 649.671 25.1915L650.577 23.4085ZM634.924 20.2C630.149 20.2 625.909 20.9845 622.226 22.5826L623.022 24.4173C626.406 22.9488 630.366 22.2 634.924 22.2V20.2ZM622.235 22.579C618.618 24.109 615.762 26.3189 613.708 29.2225L615.341 30.3775C617.154 27.8144 619.697 25.8244 623.014 24.421L622.235 22.579ZM613.705 29.2265C611.711 32.0758 610.724 35.3799 610.724 39.1H612.724C612.724 35.7534 613.605 32.8575 615.343 30.3735L613.705 29.2265ZM610.724 39.1C610.724 42.8828 611.708 46.2498 613.698 49.164L615.35 48.036C613.607 45.4835 612.724 42.5172 612.724 39.1H610.724ZM613.708 49.1775C615.759 52.077 618.61 54.318 622.22 55.9145L623.029 54.0855C619.705 52.6153 617.156 50.5896 615.341 48.0225L613.708 49.1775ZM622.241 55.9236C625.919 57.4505 630.154 58.2 634.924 58.2V56.2C630.361 56.2 626.396 55.4829 623.008 54.0764L622.241 55.9236ZM634.924 58.2C641.099 58.2 646.332 57.149 650.577 54.9915L649.671 53.2085C645.783 55.1843 640.883 56.2 634.924 56.2V58.2ZM650.589 54.9855C654.809 52.7715 657.43 49.8946 658.107 46.2843L656.141 45.9157C655.618 48.7054 653.572 51.1619 649.66 53.2145L650.589 54.9855ZM657.124 47.1H682.124V45.1H657.124V47.1ZM681.129 46.0026C680.55 51.9235 678.271 57.1262 674.276 61.637L675.773 62.963C680.044 58.1405 682.499 52.5431 683.119 46.1974L681.129 46.0026ZM674.276 61.637C670.269 66.1605 664.882 69.7102 658.073 72.2637L658.775 74.1363C665.833 71.4898 671.513 67.7729 675.773 62.963L674.276 61.637ZM658.078 72.2618C651.342 74.7469 643.629 76 634.924 76V78C643.819 78 651.773 76.7197 658.77 74.1382L658.078 72.2618ZM692.033 3.2V2.2H691.033V3.2H692.033ZM765.433 3.2H766.433V2.2H765.433V3.2ZM765.433 20.9V21.9H766.433V20.9H765.433ZM715.533 20.9V19.9H714.533V20.9H715.533ZM715.533 31H714.533V32H715.533V31ZM763.433 31H764.433V30H763.433V31ZM763.433 47.1V48.1H764.433V47.1H763.433ZM715.533 47.1V46.1H714.533V47.1H715.533ZM715.533 57.3H714.533V58.3H715.533V57.3ZM765.433 57.3H766.433V56.3H765.433V57.3ZM765.433 75V76H766.433V75H765.433ZM692.033 75H691.033V76H692.033V75ZM692.033 4.2H765.433V2.2H692.033V4.2ZM764.433 3.2V20.9H766.433V3.2H764.433ZM765.433 19.9H715.533V21.9H765.433V19.9ZM714.533 20.9V31H716.533V20.9H714.533ZM715.533 32H763.433V30H715.533V32ZM762.433 31V47.1H764.433V31H762.433ZM763.433 46.1H715.533V48.1H763.433V46.1ZM714.533 47.1V57.3H716.533V47.1H714.533ZM715.533 58.3H765.433V56.3H715.533V58.3ZM764.433 57.3V75H766.433V57.3H764.433ZM765.433 74H692.033V76H765.433V74ZM693.033 75V3.2H691.033V75H693.033ZM786.731 71L787.191 70.1118L786.731 71ZM774.431 51.3V50.3H773.379L773.433 51.351L774.431 51.3ZM798.831 51.3H799.831V50.3H798.831V51.3ZM831.631 59.3L831.463 58.3143L831.631 59.3ZM837.231 57.4L837.856 58.1809L837.871 58.1686L837.886 58.1557L837.231 57.4ZM837.231 50.6L836.58 51.3593L836.609 51.384L836.64 51.4064L837.231 50.6ZM831.731 48.8L831.583 49.7889L831.586 49.7895L831.731 48.8ZM818.631 47.6L818.697 46.6021L818.688 46.6016L818.631 47.6ZM815.131 47.4L815.074 48.3983L815.074 48.3984L815.131 47.4ZM779.631 36.3L778.858 36.9341L778.865 36.9425L778.872 36.9508L779.631 36.3ZM786.231 7.2L786.695 8.08599L786.698 8.08438L786.231 7.2ZM848.231 7.8L847.741 8.67159L847.747 8.67489L848.231 7.8ZM860.131 26V27H861.191L861.13 25.9418L860.131 26ZM835.731 26H834.731V27H835.731V26ZM830.931 20.3L830.58 21.2363L830.589 21.2396L830.597 21.2426L830.931 20.3ZM803.331 19.8L802.974 18.8659L803.331 19.8ZM801.331 26.7L800.713 27.4863L801.331 26.7ZM806.631 28.5L806.455 29.4843L806.459 29.485L806.631 28.5ZM818.731 29.8L818.657 30.7973L818.658 30.7973L818.731 29.8ZM822.831 30.1L822.908 29.1029L822.904 29.1027L822.831 30.1ZM845.331 33.1L845.106 34.0743L845.119 34.0773L845.331 33.1ZM858.331 39.6L857.624 40.3071L857.632 40.3145L858.331 39.6ZM852.431 71.6L852.885 72.491L852.888 72.4894L852.431 71.6ZM820.831 76C805.891 76 794.714 74.0031 787.191 70.1118L786.272 71.8882C794.215 75.9969 805.772 78 820.831 78V76ZM787.191 70.1118C779.792 66.285 775.88 60.0491 775.43 51.249L773.433 51.351C773.916 60.8175 778.204 67.715 786.272 71.8882L787.191 70.1118ZM774.431 52.3H798.831V50.3H774.431V52.3ZM797.831 51.3C797.831 52.9685 798.341 54.4606 799.365 55.7331C800.376 56.9896 801.846 57.9816 803.698 58.7489C807.383 60.2753 812.792 61 819.831 61V59C812.87 59 807.779 58.2747 804.464 56.9011C802.816 56.2184 801.662 55.3979 800.923 54.4794C800.197 53.5769 799.831 52.5315 799.831 51.3H797.831ZM819.831 61C824.982 61 828.982 60.7667 831.8 60.2857L831.463 58.3143C828.814 58.7666 824.947 59 819.831 59V61ZM831.8 60.2857C834.548 59.8165 836.641 59.1532 837.856 58.1809L836.607 56.6191C835.822 57.2468 834.181 57.8501 831.463 58.3143L831.8 60.2857ZM837.886 58.1557C839.119 57.0869 839.731 55.6709 839.731 54H837.731C837.731 55.1291 837.343 55.9798 836.576 56.6443L837.886 58.1557ZM839.731 54C839.731 52.2323 839.141 50.7601 837.823 49.7936L836.64 51.4064C837.322 51.9066 837.731 52.701 837.731 54H839.731ZM837.882 49.8407C837.275 49.3208 836.446 48.9198 835.467 48.5996C834.479 48.2761 833.277 48.0156 831.876 47.8105L831.586 49.7895C832.919 49.9844 834 50.2239 834.845 50.5004C835.7 50.7802 836.254 51.0792 836.58 51.3593L837.882 49.8407ZM831.88 47.8111C829.168 47.4044 824.766 47.0023 818.697 46.6022L818.565 48.5978C824.63 48.9977 828.961 49.3956 831.583 49.7889L831.88 47.8111ZM818.688 46.6016L815.188 46.4016L815.074 48.3984L818.574 48.5984L818.688 46.6016ZM815.189 46.4016C805.965 45.8708 798.521 44.7117 792.828 42.9449L792.235 44.8551C798.142 46.6883 805.764 47.8625 815.074 48.3983L815.189 46.4016ZM792.828 42.9449C787.137 41.1788 783.027 38.7255 780.391 35.6492L778.872 36.9508C781.835 40.4078 786.326 43.0212 792.235 44.8551L792.828 42.9449ZM780.405 35.6659C777.845 32.544 776.531 28.5481 776.531 23.6H774.531C774.531 28.9185 775.951 33.3894 778.858 36.9341L780.405 35.6659ZM776.531 23.6C776.531 20.1733 777.377 17.2007 779.044 14.6464C780.714 12.0862 783.245 9.89165 786.695 8.08599L785.768 6.314C782.084 8.24168 779.265 10.6471 777.369 13.5536C775.469 16.466 774.531 19.8267 774.531 23.6H776.531ZM786.698 8.08438C793.696 4.39074 803.413 2.5 815.931 2.5V0.499998C803.249 0.499998 793.166 2.40925 785.764 6.31561L786.698 8.08438ZM815.931 2.5C829.924 2.5 840.491 4.59348 847.741 8.67157L848.721 6.92842C841.038 2.60651 830.071 0.499998 815.931 0.499998V2.5ZM847.747 8.67489C854.937 12.6551 858.688 18.4265 859.133 26.0582L861.13 25.9418C860.641 17.5735 856.459 11.2115 848.716 6.9251L847.747 8.67489ZM860.131 25H835.731V27H860.131V25ZM836.731 26C836.731 24.4497 836.26 23.075 835.296 21.9309C834.347 20.8038 832.974 19.9625 831.265 19.3574L830.597 21.2426C832.089 21.7708 833.115 22.4462 833.766 23.2191C834.403 23.975 834.731 24.8837 834.731 26H836.731ZM831.282 19.3637C827.905 18.0973 822.687 17.5 815.731 17.5V19.5C822.642 19.5 827.557 20.1027 830.58 21.2363L831.282 19.3637ZM815.731 17.5C809.737 17.5 805.433 17.9259 802.974 18.8659L803.688 20.734C805.763 19.9408 809.725 19.5 815.731 19.5V17.5ZM802.974 18.8659C800.53 19.8006 798.931 21.3326 798.931 23.6H800.931C800.931 22.534 801.599 21.5327 803.688 20.734L802.974 18.8659ZM798.931 23.6C798.931 25.1972 799.507 26.5383 800.713 27.4863L801.949 25.9137C801.289 25.395 800.931 24.6695 800.931 23.6H798.931ZM800.713 27.4863C801.858 28.3856 803.845 29.0159 806.455 29.4843L806.808 27.5157C804.217 27.0507 802.671 26.4811 801.949 25.9137L800.713 27.4863ZM806.459 29.485C809.176 29.9606 813.25 30.3967 818.657 30.7973L818.805 28.8027C813.412 28.4033 809.42 27.9727 806.804 27.515L806.459 29.485ZM818.658 30.7973L822.758 31.0973L822.904 29.1027L818.804 28.8027L818.658 30.7973ZM822.755 31.097C832.267 31.8288 839.71 32.824 845.106 34.0742L845.557 32.1258C840.019 30.8426 832.462 29.8379 822.908 29.1029L822.755 31.097ZM845.119 34.0773C850.517 35.2478 854.66 37.3425 857.624 40.3071L859.038 38.8929C855.736 35.5908 851.212 33.3522 845.543 32.1227L845.119 34.0773ZM857.632 40.3145C860.585 43.2066 862.131 47.4153 862.131 53.1H864.131C864.131 47.0514 862.477 42.2601 859.031 38.8855L857.632 40.3145ZM862.131 53.1C862.131 57.2955 861.269 60.823 859.591 63.7243C857.915 66.6213 855.392 68.9536 851.974 70.7106L852.888 72.4894C856.604 70.5797 859.431 67.9954 861.322 64.7257C863.21 61.4604 864.131 57.5712 864.131 53.1H862.131ZM851.977 70.709C845.121 74.2018 834.777 76 820.831 76V78C834.886 78 845.608 76.1982 852.885 72.491L851.977 70.709Z" fill="url(#paint0_linear_399_191)" mask="url(#path-1-outside-1_399_191)"/>
<defs>
<linearGradient id="paint0_linear_399_191" x1="375" y1="-11" x2="375" y2="89" gradientUnits="userSpaceOnUse">
<stop/>
<stop offset="1" stop-color="#F6F6F6"/>
</linearGradient>
</defs>
</svg>
