<svg width="80" height="80" viewBox="0 0 80 80" fill="none" xmlns="http://www.w3.org/2000/svg">
<circle cx="40" cy="40" r="39.5" stroke="#D9D9D9"/>
<path d="M40.667 25.5723C31.9062 25.5723 25.7628 29.4151 25.7628 29.4151C29.1316 26.3408 35.0098 24.5676 35.0098 24.5676L34.4549 24C28.9302 24.1005 23.931 28.0136 23.931 28.0136C18.3131 40.0141 18.6716 50.3771 18.6716 50.3771C23.2484 56.425 30.045 55.993 30.045 55.993L32.3678 52.9841C28.282 52.0799 25.6989 48.3728 25.6989 48.3728C25.6989 48.3728 31.8423 52.6526 40.667 52.6526C49.4917 52.6526 55.6351 48.3728 55.6351 48.3728C55.6351 48.3728 53.052 52.085 48.9662 52.9841L51.289 55.993C51.289 55.993 58.0856 56.4301 62.6624 50.3771C62.6624 50.3771 63.0209 40.0141 57.398 28.0136C57.398 28.0136 52.3989 24.1005 46.8742 24L46.3193 24.5676C46.3193 24.5676 52.2024 26.3408 55.5663 29.4151C55.5712 29.4151 49.4278 25.5723 40.667 25.5723ZM33.9048 38.2409C36.0312 38.2409 37.7598 40.1447 37.7303 42.4855C37.7303 44.7912 36.0312 46.7302 33.9048 46.7302C31.8128 46.7302 30.1137 44.7912 30.1137 42.4855C30.1137 40.1447 31.7785 38.2409 33.9048 38.2409ZM47.5323 38.2409C49.6586 38.2409 51.3578 40.1447 51.3578 42.4855C51.3578 44.7912 49.6586 46.7302 47.5323 46.7302C45.4403 46.7302 43.7411 44.7912 43.7411 42.4855C43.7411 40.1447 45.4059 38.2409 47.5323 38.2409Z" fill="#D9D9D9"/>
</svg>
