<svg width="1368" height="108" viewBox="0 0 1368 108" fill="none" xmlns="http://www.w3.org/2000/svg">
<mask id="path-1-outside-1_263_739" maskUnits="userSpaceOnUse" x="0" y="0" width="1368" height="108" fill="black">
<rect fill="white" width="1368" height="108"/>
<path d="M1.60375 3.47999H104.364V28.26H34.5037V42.4H101.564V64.94H34.5037V79.22H104.364V104H1.60375V3.47999ZM165.441 53.74L115.321 3.47999H159.701L187.981 34.14L216.121 3.47999H260.361L210.381 53.74L260.361 104H216.121L187.981 73.34L159.701 104H115.321L165.441 53.74ZM273.127 3.47999H351.807C364.407 3.47999 374.254 6.83999 381.347 13.56C388.534 20.1867 392.127 29.4267 392.127 41.28C392.127 53.1333 388.534 62.42 381.347 69.14C374.161 75.7667 364.314 79.08 351.807 79.08H306.027V104H273.127V3.47999ZM343.967 51.5C348.914 51.5 352.461 50.8 354.607 49.4C356.754 47.9067 357.827 45.2 357.827 41.28C357.827 37.36 356.754 34.7 354.607 33.3C352.461 31.9 348.914 31.2 343.967 31.2H306.027V51.5H343.967ZM406.018 3.47999H508.778V28.26H438.918V42.4H505.978V64.94H438.918V79.22H508.778V104H406.018V3.47999ZM524.006 3.47999H605.906C619.626 3.47999 629.939 6.09333 636.846 11.32C643.753 16.4533 647.206 24.1067 647.206 34.28C647.206 41.1867 645.386 46.9267 641.746 51.5C638.199 55.98 632.973 59.2467 626.066 61.3C632.599 61.7667 637.733 63.82 641.466 67.46C645.199 71.0067 647.066 75.8133 647.066 81.88V104H614.166V87.2C614.166 82.72 613.373 79.6867 611.786 78.1C610.199 76.42 607.166 75.58 602.686 75.58H556.906V104H524.006V3.47999ZM598.066 49.26C603.013 49.26 606.699 48.6067 609.126 47.3C611.646 45.9 612.906 43.2867 612.906 39.46C612.906 35.7267 611.646 33.2067 609.126 31.9C606.699 30.5 603.013 29.8 598.066 29.8H556.906V49.26H598.066ZM663.733 3.47999H696.633V104H663.733V3.47999ZM715.686 3.47999H818.446V28.26H748.586V42.4H815.646V64.94H748.586V79.22H818.446V104H715.686V3.47999ZM833.674 3.47999H882.394L933.774 72.36V3.47999H966.674V104H917.954L866.574 34.98V104H833.674V3.47999ZM1047.39 106.8C1034.05 106.8 1022.33 104.607 1012.25 100.22C1002.17 95.8333 994.381 89.6733 988.874 81.74C983.367 73.7133 980.614 64.38 980.614 53.74C980.614 43.1933 983.367 33.9533 988.874 26.02C994.381 18.0867 1002.17 11.9733 1012.25 7.68C1022.33 3.29333 1034.05 1.1 1047.39 1.1C1059.71 1.1 1070.68 2.92 1080.29 6.55999C1090 10.1067 1097.75 15.1467 1103.53 21.68C1109.32 28.12 1112.63 35.5867 1113.47 44.08H1078.47C1077.63 39.6 1074.37 35.9133 1068.67 33.02C1062.98 30.1267 1055.89 28.68 1047.39 28.68C1040.86 28.68 1035.12 29.7533 1030.17 31.9C1025.32 33.9533 1021.54 36.8933 1018.83 40.72C1016.22 44.4533 1014.91 48.7933 1014.91 53.74C1014.91 58.78 1016.22 63.2133 1018.83 67.04C1021.54 70.8667 1025.32 73.8533 1030.17 76C1035.12 78.0533 1040.86 79.08 1047.39 79.08C1055.89 79.08 1062.98 77.6333 1068.67 74.74C1074.37 71.7533 1077.63 68.02 1078.47 63.54H1113.47C1112.63 72.1267 1109.32 79.6867 1103.53 86.22C1097.75 92.7533 1090 97.84 1080.29 101.48C1070.68 105.027 1059.71 106.8 1047.39 106.8ZM1127.35 3.47999H1230.11V28.26H1160.25V42.4H1227.31V64.94H1160.25V79.22H1230.11V104H1127.35V3.47999ZM1307.66 106.8C1286.66 106.8 1270.75 104 1259.92 98.4C1249.1 92.8 1243.36 83.6067 1242.7 70.82H1276.86C1276.86 78.94 1286.66 83 1306.26 83C1313.45 83 1318.96 82.6733 1322.78 82.02C1326.61 81.3667 1329.22 80.48 1330.62 79.36C1332.02 78.1467 1332.72 76.56 1332.72 74.6C1332.72 72.4533 1332.02 70.8667 1330.62 69.84C1329.32 68.72 1326.75 67.88 1322.92 67.32C1319.19 66.76 1313.08 66.2 1304.58 65.64L1299.68 65.36C1286.71 64.6133 1276.16 62.98 1268.04 60.46C1259.92 57.94 1253.9 54.3933 1249.98 49.82C1246.16 45.1533 1244.24 39.2267 1244.24 32.04C1244.24 21.96 1249.24 14.3067 1259.22 9.08C1269.3 3.76 1283.16 1.1 1300.8 1.1C1320.5 1.1 1335.57 4.04 1346.02 9.91999C1356.48 15.7067 1362.03 24.2 1362.68 35.4H1328.52C1328.52 31.6667 1326.28 29.0067 1321.8 27.42C1317.32 25.74 1310.23 24.9 1300.52 24.9C1292.12 24.9 1286.34 25.5067 1283.16 26.72C1279.99 27.9333 1278.4 29.7067 1278.4 32.04C1278.4 33.9067 1279.06 35.3533 1280.36 36.38C1281.67 37.4067 1284.14 38.2467 1287.78 38.9C1291.52 39.5533 1297.16 40.16 1304.72 40.72L1310.46 41.14C1323.81 42.1667 1334.31 43.5667 1341.96 45.34C1349.71 47.02 1355.78 50.0533 1360.16 54.44C1364.64 58.8267 1366.88 65.1267 1366.88 73.34C1366.88 85.4733 1361.89 94.1067 1351.9 99.24C1342.01 104.28 1327.26 106.8 1307.66 106.8Z"/>
</mask>
<path d="M1.60375 3.47999V2.47999H0.603751V3.47999H1.60375ZM104.364 3.47999H105.364V2.47999H104.364V3.47999ZM104.364 28.26V29.26H105.364V28.26H104.364ZM34.5037 28.26V27.26H33.5037V28.26H34.5037ZM34.5037 42.4H33.5037V43.4H34.5037V42.4ZM101.564 42.4H102.564V41.4H101.564V42.4ZM101.564 64.94V65.94H102.564V64.94H101.564ZM34.5037 64.94V63.94H33.5037V64.94H34.5037ZM34.5037 79.22H33.5037V80.22H34.5037V79.22ZM104.364 79.22H105.364V78.22H104.364V79.22ZM104.364 104V105H105.364V104H104.364ZM1.60375 104H0.603751V105H1.60375V104ZM1.60375 4.47999H104.364V2.47999H1.60375V4.47999ZM103.364 3.47999V28.26H105.364V3.47999H103.364ZM104.364 27.26H34.5037V29.26H104.364V27.26ZM33.5037 28.26V42.4H35.5037V28.26H33.5037ZM34.5037 43.4H101.564V41.4H34.5037V43.4ZM100.564 42.4V64.94H102.564V42.4H100.564ZM101.564 63.94H34.5037V65.94H101.564V63.94ZM33.5037 64.94V79.22H35.5037V64.94H33.5037ZM34.5037 80.22H104.364V78.22H34.5037V80.22ZM103.364 79.22V104H105.364V79.22H103.364ZM104.364 103H1.60375V105H104.364V103ZM2.60375 104V3.47999H0.603751V104H2.60375ZM165.441 53.74L166.149 54.4461L166.853 53.74L166.149 53.0339L165.441 53.74ZM115.321 3.47999V2.47999H112.911L114.613 4.18611L115.321 3.47999ZM159.701 3.47999L160.436 2.80199L160.139 2.47999H159.701V3.47999ZM187.981 34.14L187.246 34.818L187.983 35.6169L188.718 34.8162L187.981 34.14ZM216.121 3.47999V2.47999H215.681L215.384 2.80381L216.121 3.47999ZM260.361 3.47999L261.07 4.18512L262.766 2.47999H260.361V3.47999ZM210.381 53.74L209.672 53.0349L208.971 53.74L209.672 54.4451L210.381 53.74ZM260.361 104V105H262.766L261.07 103.295L260.361 104ZM216.121 104L215.384 104.676L215.681 105H216.121V104ZM187.981 73.34L188.718 72.6638L187.983 71.8631L187.246 72.662L187.981 73.34ZM159.701 104V105H160.139L160.436 104.678L159.701 104ZM115.321 104L114.613 103.294L112.911 105H115.321V104ZM166.149 53.0339L116.029 2.77387L114.613 4.18611L164.733 54.4461L166.149 53.0339ZM115.321 4.47999H159.701V2.47999H115.321V4.47999ZM158.966 4.15799L187.246 34.818L188.716 33.462L160.436 2.80199L158.966 4.15799ZM188.718 34.8162L216.858 4.15617L215.384 2.80381L187.244 33.4638L188.718 34.8162ZM216.121 4.47999H260.361V2.47999H216.121V4.47999ZM259.652 2.77486L209.672 53.0349L211.09 54.4451L261.07 4.18512L259.652 2.77486ZM209.672 54.4451L259.652 104.705L261.07 103.295L211.09 53.0349L209.672 54.4451ZM260.361 103H216.121V105H260.361V103ZM216.858 103.324L188.718 72.6638L187.244 74.0162L215.384 104.676L216.858 103.324ZM187.246 72.662L158.966 103.322L160.436 104.678L188.716 74.018L187.246 72.662ZM159.701 103H115.321V105H159.701V103ZM116.029 104.706L166.149 54.4461L164.733 53.0339L114.613 103.294L116.029 104.706ZM273.127 3.47999V2.47999H272.127V3.47999H273.127ZM381.347 13.56L380.659 14.286L380.669 14.2952L381.347 13.56ZM381.347 69.14L382.025 69.8752L382.03 69.8704L381.347 69.14ZM306.027 79.08V78.08H305.027V79.08H306.027ZM306.027 104V105H307.027V104H306.027ZM273.127 104H272.127V105H273.127V104ZM354.607 49.4L355.153 50.2376L355.166 50.2294L355.178 50.2209L354.607 49.4ZM354.607 33.3L354.061 34.1376L354.607 33.3ZM306.027 31.2V30.2H305.027V31.2H306.027ZM306.027 51.5H305.027V52.5H306.027V51.5ZM273.127 4.47999H351.807V2.47999H273.127V4.47999ZM351.807 4.47999C364.228 4.47999 373.801 7.78845 380.659 14.2859L382.035 12.834C374.707 5.89153 364.586 2.47999 351.807 2.47999V4.47999ZM380.669 14.2952C387.608 20.693 391.127 29.6418 391.127 41.28H393.127C393.127 29.2115 389.46 19.6803 382.025 12.8248L380.669 14.2952ZM391.127 41.28C391.127 52.9177 387.608 61.9168 380.664 68.4096L382.03 69.8704C389.46 62.9232 393.127 53.3489 393.127 41.28H391.127ZM380.669 68.4048C373.715 74.8176 364.135 78.08 351.807 78.08V80.08C364.492 80.08 374.606 76.7157 382.025 69.8752L380.669 68.4048ZM351.807 78.08H306.027V80.08H351.807V78.08ZM305.027 79.08V104H307.027V79.08H305.027ZM306.027 103H273.127V105H306.027V103ZM274.127 104V3.47999H272.127V104H274.127ZM343.967 52.5C348.956 52.5 352.752 51.8037 355.153 50.2376L354.061 48.5624C352.169 49.7963 348.871 50.5 343.967 50.5V52.5ZM355.178 50.2209C357.709 48.4604 358.827 45.3557 358.827 41.28H356.827C356.827 45.0443 355.799 47.353 354.036 48.5791L355.178 50.2209ZM358.827 41.28C358.827 37.2108 357.711 34.1306 355.153 32.4624L354.061 34.1376C355.796 35.2694 356.827 37.5092 356.827 41.28H358.827ZM355.153 32.4624C352.752 30.8963 348.956 30.2 343.967 30.2V32.2C348.871 32.2 352.169 32.9037 354.061 34.1376L355.153 32.4624ZM343.967 30.2H306.027V32.2H343.967V30.2ZM305.027 31.2V51.5H307.027V31.2H305.027ZM306.027 52.5H343.967V50.5H306.027V52.5ZM406.018 3.47999V2.47999H405.018V3.47999H406.018ZM508.778 3.47999H509.778V2.47999H508.778V3.47999ZM508.778 28.26V29.26H509.778V28.26H508.778ZM438.918 28.26V27.26H437.918V28.26H438.918ZM438.918 42.4H437.918V43.4H438.918V42.4ZM505.978 42.4H506.978V41.4H505.978V42.4ZM505.978 64.94V65.94H506.978V64.94H505.978ZM438.918 64.94V63.94H437.918V64.94H438.918ZM438.918 79.22H437.918V80.22H438.918V79.22ZM508.778 79.22H509.778V78.22H508.778V79.22ZM508.778 104V105H509.778V104H508.778ZM406.018 104H405.018V105H406.018V104ZM406.018 4.47999H508.778V2.47999H406.018V4.47999ZM507.778 3.47999V28.26H509.778V3.47999H507.778ZM508.778 27.26H438.918V29.26H508.778V27.26ZM437.918 28.26V42.4H439.918V28.26H437.918ZM438.918 43.4H505.978V41.4H438.918V43.4ZM504.978 42.4V64.94H506.978V42.4H504.978ZM505.978 63.94H438.918V65.94H505.978V63.94ZM437.918 64.94V79.22H439.918V64.94H437.918ZM438.918 80.22H508.778V78.22H438.918V80.22ZM507.778 79.22V104H509.778V79.22H507.778ZM508.778 103H406.018V105H508.778V103ZM407.018 104V3.47999H405.018V104H407.018ZM524.006 3.47999V2.47999H523.006V3.47999H524.006ZM636.846 11.32L636.243 12.1174L636.25 12.1226L636.846 11.32ZM641.746 51.5L640.964 50.8773L640.962 50.8793L641.746 51.5ZM626.066 61.3L625.781 60.3415L625.995 62.2975L626.066 61.3ZM641.466 67.46L640.768 68.1761L640.777 68.185L641.466 67.46ZM647.066 104V105H648.066V104H647.066ZM614.166 104H613.166V105H614.166V104ZM611.786 78.1L611.059 78.7866L611.069 78.797L611.079 78.8071L611.786 78.1ZM556.906 75.58V74.58H555.906V75.58H556.906ZM556.906 104V105H557.906V104H556.906ZM524.006 104H523.006V105H524.006V104ZM609.126 47.3L609.6 48.1805L609.612 48.1742L609.126 47.3ZM609.126 31.9L608.626 32.7662L608.646 32.7774L608.666 32.7877L609.126 31.9ZM556.906 29.8V28.8H555.906V29.8H556.906ZM556.906 49.26H555.906V50.26H556.906V49.26ZM524.006 4.47999H605.906V2.47999H524.006V4.47999ZM605.906 4.47999C619.527 4.47999 629.585 7.07916 636.243 12.1174L637.45 10.5226C630.294 5.10749 619.726 2.47999 605.906 2.47999V4.47999ZM636.25 12.1226C642.854 17.0315 646.206 24.3577 646.206 34.28H648.206C648.206 23.8556 644.651 15.8752 637.443 10.5174L636.25 12.1226ZM646.206 34.28C646.206 41.0032 644.438 46.5117 640.964 50.8773L642.529 52.1227C646.334 47.3416 648.206 41.3701 648.206 34.28H646.206ZM640.962 50.8793C637.573 55.1604 632.542 58.3314 625.781 60.3415L626.351 62.2585C633.403 60.162 638.826 56.7996 642.53 52.1207L640.962 50.8793ZM625.995 62.2975C632.355 62.7517 637.244 64.7397 640.768 68.176L642.164 66.744C638.222 62.9003 632.844 60.7816 626.137 60.3025L625.995 62.2975ZM640.777 68.185C644.277 71.5092 646.066 76.0345 646.066 81.88H648.066C648.066 75.5922 646.122 70.5041 642.155 66.735L640.777 68.185ZM646.066 81.88V104H648.066V81.88H646.066ZM647.066 103H614.166V105H647.066V103ZM615.166 104V87.2H613.166V104H615.166ZM615.166 87.2C615.166 82.6843 614.384 79.2833 612.493 77.3929L611.079 78.8071C612.362 80.09 613.166 82.7557 613.166 87.2H615.166ZM612.513 77.4134C610.623 75.4123 607.212 74.58 602.686 74.58V76.58C607.12 76.58 609.776 77.4277 611.059 78.7866L612.513 77.4134ZM602.686 74.58H556.906V76.58H602.686V74.58ZM555.906 75.58V104H557.906V75.58H555.906ZM556.906 103H524.006V105H556.906V103ZM525.006 104V3.47999H523.006V104H525.006ZM598.066 50.26C603.066 50.26 606.954 49.6056 609.6 48.1805L608.652 46.4195C606.445 47.6077 602.96 48.26 598.066 48.26V50.26ZM609.612 48.1742C612.553 46.5402 613.906 43.5132 613.906 39.46H611.906C611.906 43.0601 610.739 45.2598 608.64 46.4258L609.612 48.1742ZM613.906 39.46C613.906 35.4906 612.544 32.546 609.586 31.0122L608.666 32.7877C610.748 33.8673 611.906 35.9627 611.906 39.46H613.906ZM609.626 31.0338C606.971 29.5022 603.072 28.8 598.066 28.8V30.8C602.953 30.8 606.428 31.4978 608.626 32.7662L609.626 31.0338ZM598.066 28.8H556.906V30.8H598.066V28.8ZM555.906 29.8V49.26H557.906V29.8H555.906ZM556.906 50.26H598.066V48.26H556.906V50.26ZM663.733 3.47999V2.47999H662.733V3.47999H663.733ZM696.633 3.47999H697.633V2.47999H696.633V3.47999ZM696.633 104V105H697.633V104H696.633ZM663.733 104H662.733V105H663.733V104ZM663.733 4.47999H696.633V2.47999H663.733V4.47999ZM695.633 3.47999V104H697.633V3.47999H695.633ZM696.633 103H663.733V105H696.633V103ZM664.733 104V3.47999H662.733V104H664.733ZM715.686 3.47999V2.47999H714.686V3.47999H715.686ZM818.446 3.47999H819.446V2.47999H818.446V3.47999ZM818.446 28.26V29.26H819.446V28.26H818.446ZM748.586 28.26V27.26H747.586V28.26H748.586ZM748.586 42.4H747.586V43.4H748.586V42.4ZM815.646 42.4H816.646V41.4H815.646V42.4ZM815.646 64.94V65.94H816.646V64.94H815.646ZM748.586 64.94V63.94H747.586V64.94H748.586ZM748.586 79.22H747.586V80.22H748.586V79.22ZM818.446 79.22H819.446V78.22H818.446V79.22ZM818.446 104V105H819.446V104H818.446ZM715.686 104H714.686V105H715.686V104ZM715.686 4.47999H818.446V2.47999H715.686V4.47999ZM817.446 3.47999V28.26H819.446V3.47999H817.446ZM818.446 27.26H748.586V29.26H818.446V27.26ZM747.586 28.26V42.4H749.586V28.26H747.586ZM748.586 43.4H815.646V41.4H748.586V43.4ZM814.646 42.4V64.94H816.646V42.4H814.646ZM815.646 63.94H748.586V65.94H815.646V63.94ZM747.586 64.94V79.22H749.586V64.94H747.586ZM748.586 80.22H818.446V78.22H748.586V80.22ZM817.446 79.22V104H819.446V79.22H817.446ZM818.446 103H715.686V105H818.446V103ZM716.686 104V3.47999H714.686V104H716.686ZM833.674 3.47999V2.47999H832.674V3.47999H833.674ZM882.394 3.47999L883.196 2.88208L882.896 2.47999H882.394V3.47999ZM933.774 72.36L932.973 72.9579L934.774 75.3731V72.36H933.774ZM933.774 3.47999V2.47999H932.774V3.47999H933.774ZM966.674 3.47999H967.674V2.47999H966.674V3.47999ZM966.674 104V105H967.674V104H966.674ZM917.954 104L917.152 104.597L917.452 105H917.954V104ZM866.574 34.98L867.376 34.3829L865.574 31.962V34.98H866.574ZM866.574 104V105H867.574V104H866.574ZM833.674 104H832.674V105H833.674V104ZM833.674 4.47999H882.394V2.47999H833.674V4.47999ZM881.593 4.07791L932.973 72.9579L934.576 71.7621L883.196 2.88208L881.593 4.07791ZM934.774 72.36V3.47999H932.774V72.36H934.774ZM933.774 4.47999H966.674V2.47999H933.774V4.47999ZM965.674 3.47999V104H967.674V3.47999H965.674ZM966.674 103H917.954V105H966.674V103ZM918.756 103.403L867.376 34.3829L865.772 35.5771L917.152 104.597L918.756 103.403ZM865.574 34.98V104H867.574V34.98H865.574ZM866.574 103H833.674V105H866.574V103ZM834.674 104V3.47999H832.674V104H834.674ZM1012.25 100.22L1011.85 101.137L1012.25 100.22ZM988.874 81.74L988.049 82.3057L988.052 82.3102L988.874 81.74ZM988.874 26.02L988.052 25.4498L988.874 26.02ZM1012.25 7.68L1012.65 8.60005L1012.65 8.59693L1012.25 7.68ZM1080.29 6.55999L1079.94 7.49526L1079.95 7.49926L1080.29 6.55999ZM1103.53 21.68L1102.79 22.3431L1102.79 22.3484L1103.53 21.68ZM1113.47 44.08V45.08H1114.58L1114.47 43.9816L1113.47 44.08ZM1078.47 44.08L1077.49 44.2643L1077.64 45.08H1078.47V44.08ZM1068.67 33.02L1068.22 33.9115L1068.67 33.02ZM1030.17 31.9L1030.56 32.821L1030.57 32.8173L1030.17 31.9ZM1018.83 40.72L1018.02 40.1425L1018.01 40.1465L1018.83 40.72ZM1018.83 67.04L1018.01 67.604L1018.01 67.6107L1018.02 67.6175L1018.83 67.04ZM1030.17 76L1029.77 76.9145L1029.78 76.9192L1029.79 76.9236L1030.17 76ZM1068.67 74.74L1069.13 75.6316L1069.14 75.6255L1068.67 74.74ZM1078.47 63.54V62.54H1077.64L1077.49 63.3557L1078.47 63.54ZM1113.47 63.54L1114.47 63.6374L1114.58 62.54H1113.47V63.54ZM1103.53 86.22L1104.28 86.883L1103.53 86.22ZM1080.29 101.48L1080.64 102.418L1080.65 102.416L1080.29 101.48ZM1047.39 105.8C1034.16 105.8 1022.58 103.625 1012.65 99.3031L1011.85 101.137C1022.08 105.589 1033.94 107.8 1047.39 107.8V105.8ZM1012.65 99.3031C1002.72 94.98 995.082 88.9303 989.695 81.1698L988.052 82.3102C993.679 90.4164 1001.63 96.6867 1011.85 101.137L1012.65 99.3031ZM989.698 81.1743C984.317 73.3297 981.614 64.1977 981.614 53.74H979.614C979.614 64.5623 982.418 74.097 988.049 82.3057L989.698 81.1743ZM981.614 53.74C981.614 43.3775 984.316 34.3406 989.695 26.5902L988.052 25.4498C982.419 33.566 979.614 43.0092 979.614 53.74H981.614ZM989.695 26.5902C995.081 18.8317 1002.72 12.8297 1012.65 8.60002L1011.86 6.75997C1001.63 11.1169 993.68 17.3417 988.052 25.4498L989.695 26.5902ZM1012.65 8.59693C1022.58 4.27546 1034.16 2.1 1047.39 2.1V0.0999985C1033.94 0.0999985 1022.08 2.3112 1011.85 6.76306L1012.65 8.59693ZM1047.39 2.1C1059.62 2.1 1070.46 3.90561 1079.94 7.4952L1080.65 5.62479C1070.9 1.93438 1059.81 0.0999985 1047.39 0.0999985V2.1ZM1079.95 7.49926C1089.53 10.9994 1097.13 15.955 1102.79 22.343L1104.28 21.017C1098.37 14.3383 1090.47 9.2139 1080.64 5.62073L1079.95 7.49926ZM1102.79 22.3484C1108.44 28.6324 1111.66 35.9002 1112.48 44.1784L1114.47 43.9816C1113.61 35.2731 1110.2 27.6075 1104.28 21.0116L1102.79 22.3484ZM1113.47 43.08H1078.47V45.08H1113.47V43.08ZM1079.46 43.8957C1078.54 39.0007 1074.98 35.1027 1069.13 32.1285L1068.22 33.9115C1073.76 36.7239 1076.73 40.1993 1077.49 44.2643L1079.46 43.8957ZM1069.13 32.1285C1063.25 29.1443 1055.99 27.68 1047.39 27.68V29.68C1055.78 29.68 1062.71 31.109 1068.22 33.9115L1069.13 32.1285ZM1047.39 27.68C1040.75 27.68 1034.87 28.7712 1029.78 30.9826L1030.57 32.8173C1035.37 30.7354 1040.97 29.68 1047.39 29.68V27.68ZM1029.78 30.979C1024.78 33.0956 1020.84 36.1456 1018.02 40.1425L1019.65 41.2975C1022.24 37.6411 1025.86 34.811 1030.56 32.821L1029.78 30.979ZM1018.01 40.1465C1015.27 44.0624 1013.91 48.6066 1013.91 53.74H1015.91C1015.91 48.9801 1017.17 44.8442 1019.65 41.2935L1018.01 40.1465ZM1013.91 53.74C1013.91 58.9628 1015.27 63.5965 1018.01 67.604L1019.66 66.476C1017.17 62.8302 1015.91 58.5972 1015.91 53.74H1013.91ZM1018.02 67.6175C1020.84 71.6104 1024.77 74.7047 1029.77 76.9145L1030.58 75.0855C1025.87 73.002 1022.24 70.123 1019.65 66.4625L1018.02 67.6175ZM1029.79 76.9236C1034.88 79.0371 1040.76 80.08 1047.39 80.08V78.08C1040.96 78.08 1035.36 77.0695 1030.56 75.0764L1029.79 76.9236ZM1047.39 80.08C1055.99 80.08 1063.25 78.6157 1069.13 75.6315L1068.22 73.8485C1062.71 76.6509 1055.78 78.08 1047.39 78.08V80.08ZM1069.14 75.6255C1074.99 72.5581 1078.54 68.6146 1079.46 63.7243L1077.49 63.3557C1076.73 67.4254 1073.75 70.9485 1068.21 73.8545L1069.14 75.6255ZM1078.47 64.54H1113.47V62.54H1078.47V64.54ZM1112.48 63.4426C1111.66 71.8169 1108.43 79.1795 1102.79 85.557L1104.28 86.883C1110.21 80.1938 1113.61 72.4365 1114.47 63.6374L1112.48 63.4426ZM1102.79 85.557C1097.13 91.9471 1089.53 96.9502 1079.94 100.544L1080.65 102.416C1090.48 98.7298 1098.37 93.5595 1104.28 86.883L1102.79 85.557ZM1079.95 100.542C1070.47 104.04 1059.62 105.8 1047.39 105.8V107.8C1059.81 107.8 1070.9 106.013 1080.64 102.418L1079.95 100.542ZM1127.35 3.47999V2.47999H1126.35V3.47999H1127.35ZM1230.11 3.47999H1231.11V2.47999H1230.11V3.47999ZM1230.11 28.26V29.26H1231.11V28.26H1230.11ZM1160.25 28.26V27.26H1159.25V28.26H1160.25ZM1160.25 42.4H1159.25V43.4H1160.25V42.4ZM1227.31 42.4H1228.31V41.4H1227.31V42.4ZM1227.31 64.94V65.94H1228.31V64.94H1227.31ZM1160.25 64.94V63.94H1159.25V64.94H1160.25ZM1160.25 79.22H1159.25V80.22H1160.25V79.22ZM1230.11 79.22H1231.11V78.22H1230.11V79.22ZM1230.11 104V105H1231.11V104H1230.11ZM1127.35 104H1126.35V105H1127.35V104ZM1127.35 4.47999H1230.11V2.47999H1127.35V4.47999ZM1229.11 3.47999V28.26H1231.11V3.47999H1229.11ZM1230.11 27.26H1160.25V29.26H1230.11V27.26ZM1159.25 28.26V42.4H1161.25V28.26H1159.25ZM1160.25 43.4H1227.31V41.4H1160.25V43.4ZM1226.31 42.4V64.94H1228.31V42.4H1226.31ZM1227.31 63.94H1160.25V65.94H1227.31V63.94ZM1159.25 64.94V79.22H1161.25V64.94H1159.25ZM1160.25 80.22H1230.11V78.22H1160.25V80.22ZM1229.11 79.22V104H1231.11V79.22H1229.11ZM1230.11 103H1127.35V105H1230.11V103ZM1128.35 104V3.47999H1126.35V104H1128.35ZM1259.92 98.4L1260.38 97.5118L1259.92 98.4ZM1242.7 70.82V69.82H1241.65L1241.71 70.871L1242.7 70.82ZM1276.86 70.82H1277.86V69.82H1276.86V70.82ZM1330.62 79.36L1331.25 80.1409L1331.26 80.1286L1331.28 80.1157L1330.62 79.36ZM1330.62 69.84L1329.97 70.5993L1330 70.624L1330.03 70.6464L1330.62 69.84ZM1322.92 67.32L1322.78 68.3089L1322.78 68.3095L1322.92 67.32ZM1304.58 65.64L1304.65 64.6421L1304.64 64.6416L1304.58 65.64ZM1299.68 65.36L1299.63 66.3583L1299.63 66.3584L1299.68 65.36ZM1249.98 49.82L1249.21 50.4541L1249.22 50.4625L1249.22 50.4708L1249.98 49.82ZM1259.22 9.08L1259.69 9.96599L1259.69 9.96438L1259.22 9.08ZM1346.02 9.91999L1345.53 10.7916L1345.54 10.7949L1346.02 9.91999ZM1362.68 35.4V36.4H1363.74L1363.68 35.3418L1362.68 35.4ZM1328.52 35.4H1327.52V36.4H1328.52V35.4ZM1321.8 27.42L1321.45 28.3563L1321.46 28.3596L1321.47 28.3626L1321.8 27.42ZM1283.16 26.72L1282.81 25.7859L1283.16 26.72ZM1280.36 36.38L1279.75 37.1663L1280.36 36.38ZM1287.78 38.9L1287.61 39.8843L1287.61 39.885L1287.78 38.9ZM1304.72 40.72L1304.65 41.7173L1304.65 41.7173L1304.72 40.72ZM1310.46 41.14L1310.54 40.1429L1310.54 40.1427L1310.46 41.14ZM1341.96 45.34L1341.74 46.3143L1341.75 46.3173L1341.96 45.34ZM1360.16 54.44L1359.46 55.1471L1359.46 55.1545L1360.16 54.44ZM1351.9 99.24L1352.36 100.131L1352.36 100.129L1351.9 99.24ZM1307.66 105.8C1286.72 105.8 1271 103.003 1260.38 97.5118L1259.46 99.2882C1270.5 104.997 1286.6 107.8 1307.66 107.8V105.8ZM1260.38 97.5118C1249.89 92.085 1244.34 83.2225 1243.7 70.769L1241.71 70.871C1242.38 83.9909 1248.3 93.515 1259.46 99.2882L1260.38 97.5118ZM1242.7 71.82H1276.86V69.82H1242.7V71.82ZM1275.86 70.82C1275.86 73.0685 1276.55 75.0681 1277.92 76.7756C1279.28 78.4671 1281.28 79.8216 1283.83 80.8789C1288.92 82.9853 1296.42 84 1306.26 84V82C1296.5 82 1289.31 80.9847 1284.6 79.0311C1282.25 78.0584 1280.57 76.8754 1279.48 75.5219C1278.4 74.1844 1277.86 72.6315 1277.86 70.82H1275.86ZM1306.26 84C1313.47 84 1319.04 83.6734 1322.95 83.0057L1322.62 81.0343C1318.87 81.6733 1313.43 82 1306.26 82V84ZM1322.95 83.0057C1326.79 82.3499 1329.63 81.4332 1331.25 80.1409L1330 78.5791C1328.81 79.5268 1326.43 80.3835 1322.62 81.0343L1322.95 83.0057ZM1331.28 80.1157C1332.91 78.7002 1333.72 76.8309 1333.72 74.6H1331.72C1331.72 76.2891 1331.14 77.5931 1329.97 78.6043L1331.28 80.1157ZM1333.72 74.6C1333.72 72.219 1332.93 70.2934 1331.22 69.0336L1330.03 70.6464C1331.11 71.4399 1331.72 72.6877 1331.72 74.6H1333.72ZM1331.27 69.0807C1330.48 68.4007 1329.37 67.8597 1328.03 67.4196C1326.67 66.9761 1325.02 66.6156 1323.07 66.3305L1322.78 68.3095C1324.66 68.5844 1326.2 68.9239 1327.41 69.3204C1328.63 69.7202 1329.46 70.1592 1329.97 70.5993L1331.27 69.0807ZM1323.07 66.3311C1319.29 65.7644 1313.15 65.2023 1304.65 64.6422L1304.52 66.6378C1313.01 67.1977 1319.09 67.7556 1322.78 68.3089L1323.07 66.3311ZM1304.64 64.6416L1299.74 64.3616L1299.63 66.3584L1304.53 66.6384L1304.64 64.6416ZM1299.74 64.3616C1286.81 63.6175 1276.35 61.9917 1268.34 59.5049L1267.75 61.4151C1275.97 63.9683 1286.61 65.6092 1299.63 66.3583L1299.74 64.3616ZM1268.34 59.5049C1260.33 57.0188 1254.5 53.5522 1250.74 49.1692L1249.22 50.4708C1253.31 55.2344 1259.52 58.8612 1267.75 61.4151L1268.34 59.5049ZM1250.76 49.1859C1247.1 44.7306 1245.24 39.0415 1245.24 32.04H1243.24C1243.24 39.4119 1245.21 45.576 1249.21 50.4541L1250.76 49.1859ZM1245.24 32.04C1245.24 27.1733 1246.45 22.934 1248.83 19.2864C1251.21 15.6329 1254.81 12.5183 1259.69 9.96599L1258.76 8.194C1253.65 10.8683 1249.76 14.1938 1247.15 18.1936C1244.54 22.1993 1243.24 26.8267 1243.24 32.04H1245.24ZM1259.69 9.96438C1269.57 4.75074 1283.25 2.1 1300.8 2.1V0.0999985C1283.08 0.0999985 1269.04 2.76925 1258.76 8.19561L1259.69 9.96438ZM1300.8 2.1C1320.42 2.1 1335.3 5.03348 1345.53 10.7916L1346.51 9.04842C1335.84 3.04651 1320.57 0.0999985 1300.8 0.0999985V2.1ZM1345.54 10.7949C1355.72 16.4285 1361.05 24.6265 1361.69 35.4582L1363.68 35.3418C1363.01 23.7735 1357.24 14.9849 1346.51 9.0451L1345.54 10.7949ZM1362.68 34.4H1328.52V36.4H1362.68V34.4ZM1329.52 35.4C1329.52 33.3163 1328.89 31.485 1327.61 29.9609C1326.34 28.4538 1324.49 27.3092 1322.14 26.4774L1321.47 28.3626C1323.6 29.1175 1325.11 30.0962 1326.08 31.2491C1327.04 32.385 1327.52 33.7503 1327.52 35.4H1329.52ZM1322.15 26.4837C1317.5 24.7373 1310.25 23.9 1300.52 23.9V25.9C1310.21 25.9 1317.15 26.7427 1321.45 28.3563L1322.15 26.4837ZM1300.52 23.9C1292.13 23.9 1286.17 24.4992 1282.81 25.7859L1283.52 27.654C1286.5 26.5141 1292.12 25.9 1300.52 25.9V23.9ZM1282.81 25.7859C1279.46 27.0673 1277.4 29.106 1277.4 32.04H1279.4C1279.4 30.3074 1280.53 28.7994 1283.52 27.654L1282.81 25.7859ZM1277.4 32.04C1277.4 34.1705 1278.17 35.925 1279.75 37.1663L1280.98 35.5937C1279.95 34.7817 1279.4 33.6428 1279.4 32.04H1277.4ZM1279.75 37.1663C1281.26 38.3589 1283.96 39.2292 1287.61 39.8843L1287.96 37.9157C1284.33 37.2641 1282.08 36.4544 1280.98 35.5937L1279.75 37.1663ZM1287.61 39.885C1291.4 40.5472 1297.08 41.1567 1304.65 41.7173L1304.8 39.7227C1297.24 39.1633 1291.64 38.5594 1287.96 37.915L1287.61 39.885ZM1304.65 41.7173L1310.39 42.1373L1310.54 40.1427L1304.8 39.7227L1304.65 41.7173ZM1310.39 42.1371C1323.71 43.1621 1334.16 44.5574 1341.74 46.3142L1342.19 44.3658C1334.46 42.5759 1323.91 41.1712 1310.54 40.1429L1310.39 42.1371ZM1341.75 46.3173C1349.36 47.9678 1355.24 50.9292 1359.46 55.1471L1360.87 53.7329C1356.32 49.1775 1350.06 46.0722 1342.18 44.3627L1341.75 46.3173ZM1359.46 55.1545C1363.7 59.2999 1365.88 65.3086 1365.88 73.34H1367.88C1367.88 64.9447 1365.59 58.3534 1360.86 53.7255L1359.46 55.1545ZM1365.88 73.34C1365.88 79.2688 1364.66 84.2796 1362.27 88.4143C1359.88 92.5446 1356.29 95.8603 1351.45 98.3506L1352.36 100.129C1357.5 97.4864 1361.4 93.9187 1364 89.4157C1366.61 84.917 1367.88 79.5445 1367.88 73.34H1365.88ZM1351.45 98.349C1341.77 103.282 1327.21 105.8 1307.66 105.8V107.8C1327.32 107.8 1342.25 105.278 1352.36 100.131L1351.45 98.349Z" fill="url(#paint0_linear_263_739)" mask="url(#path-1-outside-1_263_739)"/>
<defs>
<linearGradient id="paint0_linear_263_739" x1="683.5" y1="-16" x2="683.5" y2="124" gradientUnits="userSpaceOnUse">
<stop/>
<stop offset="1" stop-color="#F6F6F6"/>
</linearGradient>
</defs>
</svg>
